<svg width="1440" height="1724" viewBox="0 0 1440 1724" fill="none" xmlns="http://www.w3.org/2000/svg">
<rect width="1440" height="1724" fill="#ADB8BF"/>
<mask id="mask0_1237_15175" style="mask-type:alpha" maskUnits="userSpaceOnUse" x="0" y="0" width="1440" height="1724">
<rect width="1440" height="1724" fill="#ADB8BF"/>
</mask>
<g mask="url(#mask0_1237_15175)">
<g opacity="0.32">
<mask id="mask1_1237_15175" style="mask-type:alpha" maskUnits="userSpaceOnUse" x="0" y="1145" width="1442" height="579">
<rect y="1145" width="1442" height="579" fill="#D9D9D9"/>
</mask>
<g mask="url(#mask1_1237_15175)">
<path d="M391.199 1684.32C331.468 1684.32 269.175 1673.2 224.515 1642.58C199.709 1625.56 182.801 1604.08 166.449 1583.3C151.889 1564.81 136.86 1545.69 116.324 1529.82C61.4599 1487.42 -26.0663 1471.9 -104.498 1462.33C-114.361 1461.12 -124.266 1459.96 -134.172 1458.8C-206.029 1450.4 -280.276 1441.7 -341.545 1414.76C-409.602 1384.81 -458.616 1321.15 -419.08 1270.49C-389.065 1232.04 -327.626 1218.47 -262.558 1204.12C-209.786 1192.45 -155.263 1180.42 -119.314 1153.8C-86.993 1129.88 -74.4832 1097.58 -62.3576 1066.32C-53.4769 1043.41 -44.2973 1019.74 -27.3898 998.981C15.2205 946.592 109.322 912.093 224.259 906.706C293.554 903.469 363.617 909.82 431.375 915.948C460.579 918.593 490.808 921.336 520.567 923.263C612.149 929.194 682.811 925.413 743.011 911.327C758.638 907.67 771.618 901.64 784.128 895.808C795.356 890.594 806.97 885.207 820.205 881.697C860.382 871.047 910.549 885.651 930.232 892.447C944.749 897.464 958.966 903.345 972.672 909.029C998.246 919.631 1024.68 930.603 1053.84 936.039C1122.32 948.816 1192.77 930.405 1260.87 912.637L1269.24 910.462C1339.3 892.225 1419.99 876.73 1487.2 900.083C1534.38 916.492 1562.51 948.272 1589.75 978.989C1614.73 1007.19 1640.56 1036.32 1680.99 1053.79C1716.39 1069.09 1759.25 1073.71 1800.67 1078.21C1824.37 1080.78 1848.87 1083.42 1872.01 1088.04C1980.29 1109.59 2063.21 1180.22 2069.14 1255.96C2075.12 1331.71 2003.77 1407.79 1899.51 1436.9C1866.34 1446.17 1830.47 1451.02 1795.8 1455.71C1762.63 1460.21 1728.3 1464.83 1696.49 1473.33C1635.91 1489.54 1585.44 1519.32 1536.64 1548.13C1526.14 1554.34 1515.25 1560.74 1504.49 1566.92C1449.88 1598.15 1376.36 1634.06 1291.99 1634.63C1229.79 1635.1 1172.49 1616.12 1117.07 1597.83C1073.39 1583.42 1028.26 1568.5 980.57 1562.86C884.676 1551.54 787.671 1579.2 723.03 1600.99C702.579 1607.89 681.999 1615.3 662.103 1622.47C603.738 1643.5 543.366 1665.25 478.426 1676.74C451.869 1681.46 421.897 1684.37 391.242 1684.37L391.199 1684.32ZM263.154 907.695C250.26 907.695 237.366 907.966 224.515 908.56C110.731 913.897 17.6541 947.975 -24.4865 999.772C-41.2232 1020.33 -50.3601 1043.91 -59.2408 1066.72C-71.4518 1098.15 -84.047 1130.67 -116.837 1154.91C-153.342 1181.93 -208.292 1194.08 -261.448 1205.82C-325.876 1220.06 -386.717 1233.5 -416.177 1271.23C-455.073 1321.05 -406.741 1383.75 -339.623 1413.26C-278.953 1439.94 -205.047 1448.57 -133.574 1456.95C-123.626 1458.11 -113.721 1459.27 -103.858 1460.48C-24.8708 1470.12 63.3386 1485.79 118.843 1528.69C139.593 1544.72 154.707 1563.95 169.352 1582.51C185.619 1603.17 202.441 1624.54 226.948 1641.35C293.511 1686.99 399.994 1688.6 477.444 1674.88C542 1663.44 602.158 1641.77 660.353 1620.81C680.292 1613.65 700.871 1606.21 721.365 1599.31C786.476 1577.37 884.206 1549.52 981.168 1560.96C1029.37 1566.64 1074.71 1581.64 1118.61 1596.13C1173.64 1614.29 1230.68 1633.09 1291.91 1632.7C1375.12 1632.16 1448 1596.52 1502.18 1565.53C1512.94 1559.38 1523.79 1552.98 1534.29 1546.78C1583.31 1517.86 1633.99 1487.94 1695.13 1471.6C1727.23 1463.03 1761.69 1458.36 1795.03 1453.86C1829.53 1449.19 1865.23 1444.37 1898.1 1435.2C2001.25 1406.41 2071.83 1331.04 2065.94 1256.01C2060.05 1181.01 1978.03 1111.08 1870.95 1089.75C1848.02 1085.18 1823.64 1082.56 1800.07 1079.99C1758.27 1075.47 1715.11 1070.79 1679.07 1055.25C1638.04 1037.53 1612.04 1008.17 1586.89 979.805C1559.87 949.31 1531.94 917.777 1485.53 901.64C1419.61 878.707 1339.85 894.054 1270.52 912.118L1262.15 914.293C1193.49 932.234 1122.49 950.768 1052.81 937.769C1023.14 932.234 996.496 921.187 970.75 910.512C957.088 904.853 942.955 898.971 928.524 894.004C909.269 887.357 860.297 873.048 821.486 883.353C808.592 886.763 797.662 891.854 786.091 897.241C773.368 903.148 760.218 909.276 744.164 913.032C683.451 927.217 612.277 931.048 520.14 925.092C490.338 923.164 460.067 920.421 430.82 917.777C375.871 912.81 319.342 907.695 263.112 907.695H263.154Z" fill="#778894"/>
<path d="M429.839 1730.16C388.424 1730.16 349.912 1724.6 316.439 1713.41C266.4 1696.68 227.504 1668.06 189.889 1640.41C149.371 1610.61 107.443 1579.82 51.9818 1564.42C-17.7404 1545.07 -97.7094 1553.15 -167.218 1562.27L-182.033 1564.22C-250.475 1573.29 -321.264 1582.68 -389.278 1571.83C-461.092 1560.42 -531.028 1517.84 -523.727 1466.36C-520.269 1442.22 -500.629 1421.09 -481.629 1400.68C-465.789 1383.7 -449.437 1366.13 -442.306 1346.78C-421.983 1291.77 -477.616 1238.89 -526.716 1192.21L-534.7 1184.62C-567.874 1152.91 -638.151 1073.17 -573.766 1017.89C-543.111 991.568 -489.656 978.618 -410.327 978.297C-399.653 978.248 -388.681 978.371 -378.092 978.47C-329.504 978.94 -279.251 979.409 -235.061 966.089C-172.341 947.185 -137.715 907.398 -101.082 865.313C-82.1255 843.542 -62.5281 821.005 -38.7894 801.877C-3.69348 773.607 44.1257 751.959 99.5021 739.232C119.014 734.734 218.666 713.21 262.173 730.311C287.064 740.097 285.399 755.023 283.606 770.839C282.41 781.44 281.215 792.413 287.705 802.693C307.985 834.67 367.161 841.763 412.632 832.174C453.577 823.55 487.777 804.027 517.92 786.828C550.07 768.491 583.33 749.512 623.891 740.517C696.388 724.429 780.199 740.912 880.065 790.905C890.397 796.07 900.858 801.457 911.019 806.696C974.294 839.242 1039.7 872.925 1117.84 879.473C1212.02 887.357 1298.31 854.267 1381.82 822.265C1419.7 807.759 1458.85 792.734 1498.55 781.539C1550 767.058 1650.21 746.942 1743.5 774.966C1825.39 799.554 1873.98 861.236 1851.78 912.464C1840.5 938.511 1813.73 960.01 1787.82 980.768C1761.26 1002.1 1733.81 1024.14 1723.52 1050.95C1698.71 1115.67 1779.75 1175.38 1852.12 1214.08C1857.07 1216.72 1862.11 1219.39 1867.15 1222.08C1938.28 1259.87 2018.93 1302.69 2031.23 1363.78C2038.66 1400.68 2019.48 1440.93 1977.26 1477.19C1939.69 1509.44 1890.24 1534.2 1842.43 1558.17C1774.62 1592.12 1704.52 1627.24 1624.29 1648.71C1534.21 1672.83 1444.93 1674.69 1372.86 1653.9C1336.05 1643.3 1303.44 1626.72 1271.93 1610.68C1238.96 1593.93 1204.89 1576.58 1166.17 1566.22C1056.74 1536.91 935.911 1569.66 873.66 1591.8C831.392 1606.83 790.788 1624.89 751.465 1642.36C706.976 1662.16 660.95 1682.62 612.277 1698.75C549.429 1719.61 486.752 1730.19 429.625 1730.19L429.839 1730.16ZM-46.5173 1550.7C-12.4461 1550.7 21.4543 1553.89 53.348 1562.74C109.45 1578.31 151.633 1609.3 192.365 1639.25C229.809 1666.78 268.534 1695.22 318.019 1711.78C396.749 1738.12 503.489 1732.76 610.868 1697.12C659.328 1681.04 705.269 1660.6 749.672 1640.85C789.037 1623.36 829.726 1605.27 872.123 1590.19C934.971 1567.88 1056.87 1534.86 1167.66 1564.52C1206.77 1575 1241.06 1592.42 1274.19 1609.27C1305.57 1625.24 1338.02 1641.72 1374.44 1652.22C1445.61 1672.73 1533.91 1670.88 1623.1 1647.01C1702.94 1625.63 1772.87 1590.61 1840.46 1556.73C1888.11 1532.86 1937.42 1508.17 1974.74 1476.12C2016.54 1440.24 2035.5 1400.41 2028.15 1363.95C2015.98 1303.56 1935.84 1260.98 1865.1 1223.42C1860.06 1220.72 1855.02 1218.05 1850.07 1215.41C1777.1 1176.39 1695.38 1116.09 1720.53 1050.51C1730.95 1023.32 1758.61 1001.11 1785.38 979.632C1811.09 958.997 1837.69 937.67 1848.83 911.945C1870.69 861.508 1822.83 800.765 1742.18 776.547C1650.12 748.894 1551.03 768.812 1500.13 783.146C1460.64 794.266 1421.57 809.242 1383.79 823.748C1299.81 855.947 1212.92 889.235 1117.58 881.228C1038.51 874.605 972.714 840.749 909.098 808.006C898.979 802.792 888.476 797.404 878.186 792.24C779.26 742.741 696.559 726.357 625.214 742.173C585.251 751.044 552.247 769.85 520.354 788.063C489.954 805.411 455.499 825.057 413.913 833.83C367.033 843.715 305.85 836.351 284.887 803.236C278.141 792.586 279.379 781.416 280.574 770.616C282.368 754.677 283.905 740.912 260.508 731.744C218.324 715.162 120.081 736.415 100.783 740.838C45.9616 753.442 -1.38788 774.892 -36.0995 802.866C-59.7102 821.894 -79.2649 844.333 -98.1364 866.055C-133.403 906.558 -169.822 948.47 -233.482 967.646C-278.398 981.189 -329.035 980.694 -378.049 980.225C-388.638 980.126 -399.568 980.027 -410.199 980.052C-488.375 980.373 -540.976 993.05 -570.991 1018.83C-634.309 1073.22 -564.715 1152.15 -531.839 1183.56L-523.898 1191.14C-474.499 1238.12 -418.525 1291.35 -439.104 1347.08C-446.32 1366.67 -462.8 1384.37 -478.726 1401.47C-497.597 1421.71 -517.109 1442.66 -520.482 1466.44C-527.655 1516.95 -458.958 1558.74 -388.382 1569.98C-321.136 1580.68 -250.731 1571.36 -182.674 1562.34L-167.858 1560.39C-129.432 1555.35 -87.8467 1550.63 -46.4318 1550.63L-46.5173 1550.7Z" fill="#778894"/>
</g>
</g>
<g opacity="0.32">
<mask id="mask2_1237_15175" style="mask-type:alpha" maskUnits="userSpaceOnUse" x="0" y="0" width="1442" height="579">
<rect width="1442" height="579" fill="#D9D9D9"/>
</mask>
<g mask="url(#mask2_1237_15175)">
<path d="M111.904 1162.29C48.6352 1162.29 -17.3472 1152.2 -64.652 1124.42C-90.9274 1108.98 -108.836 1089.5 -126.157 1070.64C-141.579 1053.87 -157.498 1036.52 -179.251 1022.13C-237.364 983.659 -330.074 969.58 -413.151 960.904C-423.598 959.805 -434.09 958.752 -444.582 957.698C-520.695 950.076 -599.34 942.184 -664.237 917.748C-736.325 890.577 -788.243 832.827 -746.365 786.869C-714.572 751.986 -649.494 739.678 -580.572 726.653C-524.675 716.072 -466.923 705.154 -428.844 681.009C-394.609 659.308 -381.359 630.007 -368.515 601.648C-359.108 580.866 -349.385 559.389 -331.476 540.557C-286.342 493.03 -186.668 461.734 -64.9234 456.847C8.47583 453.91 82.6892 459.671 154.46 465.231C185.394 467.63 217.413 470.118 248.934 471.867C345.941 477.247 420.787 473.817 484.554 461.039C501.106 457.721 514.854 452.251 528.105 446.96C539.999 442.23 552.3 437.343 566.319 434.159C608.875 424.497 662.014 437.746 682.863 443.911C698.239 448.462 713.299 453.798 727.816 458.954C754.905 468.571 782.899 478.525 813.787 483.457C886.327 495.048 960.948 478.346 1033.08 462.227L1041.94 460.254C1116.16 443.709 1201.63 429.653 1272.82 450.838C1322.79 465.724 1352.59 494.554 1381.44 522.421C1407.9 548 1435.26 574.432 1478.09 590.281C1515.58 604.158 1560.99 608.351 1604.85 612.431C1629.95 614.762 1655.91 617.161 1680.42 621.353C1795.11 640.902 1882.94 704.974 1889.22 773.687C1895.56 842.4 1819.99 911.426 1709.55 937.835C1674.41 946.242 1636.42 950.636 1599.7 954.896C1564.56 958.976 1528.2 963.168 1494.51 970.88C1430.33 985.587 1376.88 1012.6 1325.19 1038.74C1314.06 1044.37 1302.53 1050.17 1291.13 1055.78C1233.29 1084.12 1155.41 1116.69 1066.05 1117.21C1000.16 1117.63 939.466 1100.41 880.765 1083.82C834.5 1070.75 786.698 1057.21 736.182 1052.1C634.608 1041.83 531.858 1066.92 463.388 1086.69C441.726 1092.95 419.928 1099.67 398.853 1106.18C337.031 1125.25 273.084 1144.98 204.298 1155.41C176.168 1159.69 144.42 1162.33 111.949 1162.33L111.904 1162.29ZM-23.7239 457.743C-37.3817 457.743 -51.0394 457.99 -64.652 458.528C-185.175 463.37 -283.764 494.285 -328.401 541.275C-346.129 559.927 -355.807 581.314 -365.214 602.006C-378.148 630.523 -391.489 660.025 -426.221 682.018C-464.888 706.521 -523.092 717.551 -579.396 728.2C-647.64 741.113 -712.085 753.309 -743.29 787.542C-784.489 832.737 -733.295 889.613 -662.202 916.381C-597.938 940.593 -519.655 948.417 -443.949 956.017C-433.412 957.07 -422.92 958.124 -412.473 959.222C-328.808 967.966 -235.374 982.179 -176.582 1021.1C-154.603 1035.65 -138.594 1053.09 -123.082 1069.92C-105.852 1088.67 -88.033 1108.06 -62.0742 1123.3C8.43066 1164.71 121.22 1166.17 203.258 1153.73C271.637 1143.35 335.358 1123.68 396.999 1104.67C418.119 1098.17 439.917 1091.42 461.625 1085.17C530.592 1065.26 634.111 1040 736.815 1050.38C787.874 1055.53 835.902 1069.14 882.393 1082.28C940.687 1098.76 1001.11 1115.82 1065.96 1115.46C1154.1 1114.96 1231.3 1082.64 1288.69 1054.52C1300.09 1048.94 1311.57 1043.13 1322.7 1037.51C1374.62 1011.28 1428.3 984.129 1493.06 969.311C1527.07 961.532 1563.56 957.294 1598.88 953.214C1635.42 948.977 1673.23 944.606 1708.06 936.288C1817.32 910.171 1892.07 841.794 1885.83 773.732C1879.59 705.692 1792.72 642.247 1679.29 622.9C1655.01 618.753 1629.18 616.377 1604.22 614.045C1559.95 609.942 1514.22 605.705 1476.05 591.604C1432.59 575.53 1405.05 548.897 1378.41 523.16C1349.79 495.496 1320.21 466.89 1271.05 452.251C1201.23 431.446 1116.75 445.368 1043.3 461.756L1034.44 463.729C961.716 480.005 886.508 496.819 812.702 485.027C781.271 480.005 753.051 469.984 725.781 460.299C711.309 455.165 696.339 449.83 681.054 445.323C660.657 439.293 608.785 426.313 567.676 435.661C554.018 438.755 542.441 443.373 530.185 448.26C516.708 453.618 502.779 459.178 485.775 462.586C421.465 475.454 346.076 478.929 248.482 473.526C216.915 471.777 184.851 469.289 153.872 466.89C95.6686 462.384 35.7914 457.743 -23.7691 457.743H-23.7239Z" fill="#778894"/>
<path d="M766.528 939.512C674.36 939.512 581.56 914.134 511.959 888.824C487.764 880.036 463.524 870.53 440.053 861.361C360.186 830.11 277.606 797.805 182.726 786.82C83.2319 775.297 -19.518 788.299 -118.876 800.899L-130.68 802.401C-234.741 815.538 -344.817 826.904 -445.668 809.395C-545.162 792.133 -638.007 736.827 -621.093 674.189C-610.873 636.235 -565.332 606.687 -511.334 574.719L-343.687 475.494C-301.538 450.565 -249.122 419.515 -182.19 409.853C-130.182 402.343 -76.3652 408.508 -24.3118 414.449C13.3149 418.753 52.2983 423.214 90.513 422.542C197.197 420.704 287.194 381.382 374.251 343.36L379.949 340.871C471.981 300.697 571.837 264.492 678.792 271.598C790.135 278.996 875.564 331.747 946.838 380.597C1013.14 426.017 1095.63 482.556 1207.65 494.191C1254.73 499.079 1303.39 495.514 1350.47 492.084C1389.18 489.259 1429.2 486.322 1468.59 488.026C1637.51 495.312 1724.79 587.968 1761.78 642.557C1788.78 682.417 1778.38 720.954 1732.48 751.04C1688.47 779.892 1618.28 796.056 1544.7 794.285C1500.93 793.232 1457.29 788.075 1415.09 783.076C1396.41 780.857 1377.06 778.57 1357.97 776.687C1308.99 771.822 1236.41 766.979 1172.42 781.327C1109.24 795.496 1062.34 825.783 1016.98 855.062C973.565 883.107 928.657 912.094 869.187 927.406C835.902 935.97 801.26 939.557 766.573 939.579L766.528 939.512ZM100.688 780.655C128.411 780.655 156.043 781.977 183.494 785.161C279.099 796.236 361.995 828.675 442.133 860.039C465.604 869.208 489.845 878.713 513.949 887.479C609.011 922.048 747.533 956.774 867.604 925.882C926.441 910.749 971.123 881.897 1014.31 854.008C1059.9 824.55 1107.07 794.106 1171.06 779.758C1235.96 765.208 1309.22 770.073 1358.7 775.005C1377.83 776.911 1397.18 779.198 1415.91 781.417C1457.96 786.394 1501.42 791.55 1544.89 792.581C1617.38 794.33 1686.44 778.413 1729.76 750.009C1774.99 720.371 1785.21 682.395 1758.53 643.095C1721.8 588.887 1635.24 496.904 1468.23 489.708C1429.29 488.026 1389.45 490.941 1350.92 493.765C1303.57 497.24 1254.54 500.805 1206.92 495.873C1093.64 484.103 1010.69 427.272 944.079 381.628C873.167 333.047 788.326 280.61 678.295 273.302C572.741 266.285 473.564 302.244 382.165 342.172L376.467 344.66C288.958 382.884 198.464 422.407 90.6034 424.246C51.8913 424.918 12.7722 420.435 -25.0806 416.108C-76.7269 410.212 -130.092 404.114 -181.241 411.49C-247.178 421.017 -299.276 451.82 -341.109 476.593L-508.756 575.817C-562.437 607.584 -607.662 636.907 -617.792 674.436C-634.435 736.221 -542.81 790.788 -444.582 807.848C-344.591 825.2 -235.103 813.879 -131.539 800.809L-119.735 799.307C-47.2406 790.138 27.0179 780.722 100.688 780.722V780.655Z" fill="#778894"/>
</g>
</g>
<g filter="url(#filter0_f_1237_15175)">
<path d="M1309.52 980.188C1309.52 1371.1 1044.63 1724 733 1724C421.369 1724 181 1371.1 181 980.188C181 589.275 433.627 272.377 745.258 272.377C1056.89 272.377 1309.52 589.275 1309.52 980.188Z" fill="#778894" fill-opacity="0.5"/>
</g>
</g>
<defs>
<filter id="filter0_f_1237_15175" x="-4" y="87.377" width="1498.52" height="1821.62" filterUnits="userSpaceOnUse" color-interpolation-filters="sRGB">
<feFlood flood-opacity="0" result="BackgroundImageFix"/>
<feBlend mode="normal" in="SourceGraphic" in2="BackgroundImageFix" result="shape"/>
<feGaussianBlur stdDeviation="92.5" result="effect1_foregroundBlur_1237_15175"/>
</filter>
</defs>
</svg>
