<svg width="76" height="76" viewBox="0 0 76 76" fill="none" xmlns="http://www.w3.org/2000/svg">
<g clip-path="url(#clip0_934_3020)">
<path d="M47.8241 27.6834C47.989 27.6834 48.1501 27.7322 48.2871 27.8238C48.4242 27.9154 48.531 28.0455 48.594 28.1978C48.6571 28.3501 48.6736 28.5176 48.6415 28.6793C48.6093 28.8409 48.5299 28.9894 48.4134 29.106C48.2969 29.2225 48.1484 29.3019 47.9867 29.334C47.8251 29.3662 47.6575 29.3497 47.5052 29.2866C47.353 29.2235 47.2228 29.1167 47.1312 28.9797C47.0397 28.8426 46.9908 28.6815 46.9908 28.5167C46.9908 28.2957 47.0786 28.0837 47.2349 27.9275C47.3912 27.7712 47.6031 27.6834 47.8241 27.6834ZM47.8241 25.35C47.3833 25.3046 46.9377 25.3523 46.5164 25.4899C46.0951 25.6275 45.7074 25.852 45.3783 26.149C45.0492 26.4459 44.7862 26.8086 44.6061 27.2135C44.426 27.6185 44.333 28.0568 44.333 28.5C44.333 28.9433 44.426 29.3815 44.6061 29.7865C44.7862 30.1915 45.0492 30.5542 45.3783 30.8511C45.7074 31.148 46.0951 31.3726 46.5164 31.5102C46.9377 31.6478 47.3833 31.6955 47.8241 31.65C48.6037 31.5697 49.3258 31.2032 49.8508 30.6214C50.3758 30.0396 50.6663 29.2837 50.6663 28.5C50.6663 27.7164 50.3758 26.9605 49.8508 26.3787C49.3258 25.7968 48.6037 25.4303 47.8241 25.35Z" fill="#778894"/>
<path d="M39.0233 35.5399C39.0242 36.0705 38.8184 36.5814 38.4483 36.9676C38.0781 37.3538 37.5716 37.5861 37.0326 37.6169C37.7744 36.5524 38.2276 35.3195 38.3495 34.0348C38.5616 34.2263 38.7309 34.4589 38.8469 34.718C38.9629 34.977 39.0229 35.2569 39.0233 35.5399ZM30.3564 39.0317C29.1887 39.0257 28.049 38.68 27.0811 38.038C26.1131 37.396 25.3603 36.4866 24.9176 35.4246C24.475 34.3625 24.3623 33.1953 24.5938 32.0704C24.8253 30.9454 25.3906 29.9131 26.2184 29.1036C27.0463 28.2941 28.0995 27.7438 29.2452 27.5221C30.3909 27.3003 31.5777 27.4171 32.656 27.8577C33.7342 28.2983 34.6555 29.0429 35.3036 29.9976C35.9517 30.9523 36.2976 32.0744 36.2976 33.2221C36.3017 33.9861 36.1516 34.7434 35.856 35.45C35.5604 36.1567 35.1252 36.7987 34.5755 37.339C34.0259 37.8792 33.3727 38.307 32.6537 38.5976C31.9348 38.8881 31.1644 39.0357 30.3871 39.0317M36.9101 39.7541C38.0391 39.7541 39.1219 39.3133 39.9202 38.5286C40.7185 37.7439 41.167 36.6797 41.167 35.57C41.1609 34.6751 40.8589 33.8065 40.3065 33.0951C39.754 32.3838 38.9811 31.8684 38.1045 31.6267C37.7452 29.9408 36.8362 28.4161 35.5155 27.2839C34.1948 26.1516 32.5344 25.4737 30.7863 25.3529C29.0381 25.2321 27.2976 25.6749 25.8287 26.6144C24.3598 27.5538 23.2427 28.9385 22.6468 30.5584C22.051 32.1783 22.0089 33.945 22.527 35.5905C23.0451 37.236 24.0951 38.6706 25.5177 39.6765C26.9403 40.6824 28.6578 41.2049 30.4098 41.1645C32.1618 41.1242 33.8526 40.5234 35.2258 39.4531C35.721 39.6542 36.2519 39.7565 36.7876 39.7541" fill="#778894"/>
<path d="M44.0399 50.7216C43.109 50.634 42.245 50.2134 41.6164 49.5418C40.9879 48.8702 40.6396 47.9957 40.6396 47.0888C40.6396 46.1818 40.9879 45.3073 41.6164 44.6357C42.245 43.9641 43.109 43.5435 44.0399 43.456C44.5623 43.4068 45.0896 43.4642 45.5878 43.6244C46.0861 43.7846 46.5442 44.0441 46.9329 44.3862C47.3215 44.7283 47.6321 45.1455 47.8447 45.6109C48.0572 46.0763 48.167 46.5797 48.167 47.0888C48.167 47.5978 48.0572 48.1012 47.8447 48.5666C47.6321 49.032 47.3215 49.4492 46.9329 49.7913C46.5442 50.1334 46.0861 50.3929 45.5878 50.5531C45.0896 50.7133 44.5623 50.7707 44.0399 50.7216ZM39.8541 54.6784C39.2664 54.6784 38.7027 54.452 38.2871 54.049C37.8716 53.646 37.6381 53.0994 37.6381 52.5294C37.6449 52.106 37.7827 51.6943 38.0335 51.3476C38.2844 51.001 38.6368 50.7353 39.0451 50.5851C39.7732 51.5842 40.8068 52.336 41.9998 52.7341C41.956 53.2591 41.7118 53.7493 41.315 54.109C40.9181 54.4686 40.3972 54.6716 39.8541 54.6784ZM44.0399 41.0341C43.2239 41.0386 42.4169 41.1994 41.6653 41.5074C40.9136 41.8153 40.2322 42.2644 39.6601 42.8286C39.088 43.3929 38.6366 44.0613 38.3319 44.7953C38.0271 45.5293 37.875 46.3146 37.8843 47.1058C37.8329 47.5479 37.8329 47.9941 37.8843 48.4361C37.0406 48.7661 36.3164 49.3309 35.8031 50.0593C35.2898 50.7877 35.0104 51.6472 35 52.5294C35.0136 53.1327 35.1503 53.7273 35.4021 54.2791C35.654 54.8308 36.016 55.3288 36.4672 55.7442C36.9185 56.1596 37.4501 56.4843 38.0314 56.6995C38.6127 56.9147 39.2322 57.0161 39.8541 56.9979C40.9926 56.9874 42.0875 56.5716 42.9305 55.8295C43.7736 55.0874 44.3061 54.0708 44.4268 52.9729C45.9874 52.8211 47.4305 52.1006 48.4644 50.9569C49.4984 49.8132 50.0461 48.3315 49.997 46.8113C49.9478 45.291 49.3055 43.8455 48.1997 42.7668C47.094 41.6881 45.6072 41.0567 44.0399 41" fill="#778894"/>
<path d="M38 73.625C30.9361 73.6375 24.0274 71.5535 18.1488 67.6368C12.2702 63.7202 7.68615 58.147 4.97714 51.6233C2.26813 45.0995 1.55604 37.9185 2.93106 30.9898C4.30609 24.061 7.70636 17.6962 12.7013 12.7013C17.6962 7.70635 24.061 4.30607 30.9898 2.93105C37.9186 1.55603 45.0995 2.26811 51.6233 4.97712C58.1471 7.68613 63.7202 12.2702 67.6368 18.1488C71.5535 24.0274 73.6375 30.9361 73.625 38C73.5916 47.4381 69.8276 56.48 63.1538 63.1538C56.48 69.8276 47.4381 73.5916 38 73.625ZM38 0C30.4843 0 23.1374 2.22866 16.8883 6.40415C10.6393 10.5796 5.76872 16.5144 2.89259 23.458C0.0164649 30.4016 -0.736062 38.0421 0.730176 45.4134C2.19641 52.7847 5.81556 59.5557 11.13 64.87C16.4444 70.1844 23.2153 73.8036 30.5866 75.2698C37.9579 76.7361 45.5984 75.9835 52.542 73.1074C59.4856 70.2313 65.4204 65.3607 69.5958 59.1117C73.7713 52.8626 76 45.5157 76 38C76 27.9218 71.9964 18.2563 64.8701 11.1299C57.7437 4.00356 48.0782 0 38 0Z" fill="#778894"/>
<path d="M22.1667 45.5683C22.012 45.5951 21.8534 45.5878 21.7018 45.5468C21.5503 45.5059 21.4096 45.4323 21.2895 45.3313C21.1694 45.2302 21.0728 45.1041 21.0066 44.9618C20.9404 44.8195 20.906 44.6644 20.906 44.5075C20.906 44.3505 20.9404 44.1954 21.0066 44.0531C21.0728 43.9108 21.1694 43.7847 21.2895 43.6837C21.4096 43.5826 21.5503 43.509 21.7018 43.4681C21.8534 43.4271 22.012 43.4198 22.1667 43.4466C22.4166 43.49 22.6432 43.6202 22.8065 43.8142C22.9698 44.0083 23.0594 44.2538 23.0594 44.5075C23.0594 44.7611 22.9698 45.0066 22.8065 45.2007C22.6432 45.3948 22.4166 45.525 22.1667 45.5683ZM22.1667 41.1666C21.5404 41.1666 20.9281 41.3523 20.4074 41.7003C19.8866 42.0483 19.4807 42.5428 19.241 43.1215C19.0014 43.7001 18.9387 44.3368 19.0608 44.9511C19.183 45.5654 19.4846 46.1296 19.9275 46.5725C20.3704 47.0153 20.9346 47.3169 21.5489 47.4391C22.1632 47.5613 22.7999 47.4986 23.3785 47.2589C23.9571 47.0192 24.4517 46.6134 24.7997 46.0926C25.1476 45.5718 25.3333 44.9596 25.3333 44.3333C25.3333 43.4934 24.9997 42.688 24.4058 42.0941C23.812 41.5003 23.0065 41.1666 22.1667 41.1666Z" fill="#778894"/>
</g>
<defs>
<clipPath id="clip0_934_3020">
<rect width="76" height="76" fill="white"/>
</clipPath>
</defs>
</svg>
