<svg width="76" height="76" viewBox="0 0 76 76" fill="none" xmlns="http://www.w3.org/2000/svg">
<g clip-path="url(#clip0_934_3033)">
<path d="M38 73.625C30.9361 73.6375 24.0274 71.5535 18.1488 67.6368C12.2702 63.7202 7.68615 58.147 4.97714 51.6233C2.26813 45.0995 1.55604 37.9185 2.93106 30.9898C4.30609 24.061 7.70636 17.6962 12.7013 12.7013C17.6962 7.70635 24.061 4.30607 30.9898 2.93105C37.9186 1.55603 45.0995 2.26811 51.6233 4.97712C58.1471 7.68613 63.7202 12.2702 67.6368 18.1488C71.5535 24.0274 73.6375 30.9361 73.625 38C73.5916 47.4381 69.8276 56.48 63.1538 63.1538C56.48 69.8276 47.4381 73.5916 38 73.625ZM38 0C30.4843 0 23.1374 2.22866 16.8883 6.40415C10.6393 10.5796 5.76872 16.5144 2.89259 23.458C0.0164649 30.4016 -0.736062 38.0421 0.730176 45.4134C2.19641 52.7847 5.81556 59.5557 11.13 64.87C16.4444 70.1844 23.2153 73.8036 30.5866 75.2698C37.9579 76.7361 45.5984 75.9835 52.542 73.1074C59.4856 70.2313 65.4204 65.3607 69.5958 59.1117C73.7713 52.8626 76 45.5157 76 38C76 27.9218 71.9964 18.2563 64.8701 11.1299C57.7437 4.00356 48.0782 0 38 0Z" fill="#778894"/>
<path d="M18.3818 38H16.7849C16.5767 38 16.3771 38.164 16.2299 38.4559C16.0827 38.7478 16 39.1437 16 39.5565C15.9999 39.9744 16.0817 40.376 16.2282 40.6765C16.3746 40.977 16.5743 41.1527 16.7849 41.1667H18.3818C18.5924 41.1527 18.792 40.977 18.9385 40.6765C19.085 40.376 19.1668 39.9744 19.1667 39.5565C19.1667 39.1437 19.084 38.7478 18.9368 38.4559C18.7896 38.164 18.5899 38 18.3818 38Z" fill="#778894"/>
<path d="M60.2157 38H58.6189C58.4107 38 58.2111 38.164 58.0639 38.4559C57.9167 38.7478 57.834 39.1437 57.834 39.5565C57.8339 39.9744 57.9157 40.376 58.0622 40.6765C58.2086 40.977 58.4083 41.1527 58.6189 41.1667H60.2157C60.4264 41.1527 60.626 40.977 60.7725 40.6765C60.9189 40.376 61.0008 39.9744 61.0007 39.5565C61.0007 39.1437 60.918 38.7478 60.7708 38.4559C60.6236 38.164 60.4239 38 60.2157 38Z" fill="#778894"/>
<path d="M31.2762 31.6667C30.8583 31.6666 30.4567 31.7693 30.1562 31.9532C29.8557 32.1371 29.6799 32.3877 29.666 32.6521V46.5147C29.6799 46.7792 29.8557 47.0298 30.1562 47.2136C30.4567 47.3975 30.8583 47.5002 31.2762 47.5001C31.689 47.5001 32.0849 47.3963 32.3768 47.2115C32.6687 47.0267 32.8327 46.7761 32.8327 46.5147V32.6521C32.8327 32.3908 32.6687 32.1401 32.3768 31.9553C32.0849 31.7706 31.689 31.6667 31.2762 31.6667Z" fill="#778894"/>
<path d="M26.0833 25.3333C25.6585 25.3414 25.2557 25.4444 24.9603 25.6204C24.6648 25.7964 24.4998 26.0317 24.5 26.2765V46.5881C24.5 46.8299 24.6668 47.0619 24.9637 47.2329C25.2607 47.4039 25.6634 47.4999 26.0833 47.4999C26.5033 47.4999 26.906 47.4039 27.2029 47.2329C27.4999 47.0619 27.6667 46.8299 27.6667 46.5881V26.2765C27.6669 26.0317 27.5018 25.7964 27.2064 25.6204C26.9109 25.4444 26.5082 25.3414 26.0833 25.3333Z" fill="#778894"/>
<path d="M21.9437 34.8337C21.7383 34.8302 21.5336 34.8473 21.3418 34.8841C21.1499 34.9209 20.9749 34.9766 20.8272 35.0479C20.6794 35.1192 20.5619 35.2046 20.4817 35.299C20.4015 35.3934 20.3603 35.4949 20.3604 35.5975V40.2328C20.3181 40.3468 20.3267 40.4641 20.3854 40.5762C20.4441 40.6884 20.5516 40.7927 20.7002 40.8818C20.8488 40.9709 21.0349 41.0427 21.2452 41.0919C21.4555 41.1411 21.685 41.1666 21.9173 41.1666C22.1496 41.1666 22.3791 41.1411 22.5894 41.0919C22.7998 41.0427 22.9858 40.9709 23.1344 40.8818C23.283 40.7927 23.3905 40.6884 23.4492 40.5762C23.508 40.4641 23.5165 40.3468 23.4743 40.2328V35.5975C23.4743 35.3949 23.313 35.2006 23.026 35.0574C22.7389 34.9142 22.3496 34.8337 21.9437 34.8337Z" fill="#778894"/>
<path d="M49.0833 25.3334C48.6585 25.3415 48.2557 25.4445 47.9603 25.6205C47.6648 25.7965 47.4998 26.0318 47.5 26.2766V46.5882C47.5 46.83 47.6668 47.062 47.9637 47.233C48.2607 47.404 48.6634 47.5 49.0833 47.5C49.5033 47.5 49.906 47.404 50.2029 47.233C50.4999 47.062 50.6667 46.83 50.6667 46.5882V26.2766C50.6669 26.0318 50.5018 25.7965 50.2064 25.6205C49.9109 25.4445 49.5082 25.3415 49.0833 25.3334Z" fill="#778894"/>
<path d="M43.7225 22.1667C43.3097 22.1667 42.9138 22.2594 42.6219 22.4243C42.33 22.5892 42.166 22.8128 42.166 23.046V49.7875C42.166 50.0207 42.33 50.2443 42.6219 50.4092C42.9138 50.5741 43.3097 50.6667 43.7225 50.6667C44.1404 50.6669 44.542 50.5752 44.8425 50.4111C45.143 50.2471 45.3188 50.0234 45.3327 49.7875V23.046C45.3188 22.8101 45.143 22.5864 44.8425 22.4223C44.542 22.2583 44.1404 22.1666 43.7225 22.1667Z" fill="#778894"/>
<path d="M54.2225 31.6673C53.8097 31.6673 53.4138 31.7721 53.1219 31.9587C52.83 32.1453 52.666 32.3983 52.666 32.6621V46.6581C52.7344 46.8945 52.9302 47.1082 53.2195 47.262C53.5087 47.4159 53.8731 47.5001 54.2493 47.5001C54.6256 47.5001 54.99 47.4159 55.2792 47.262C55.5685 47.1082 55.7643 46.8945 55.8327 46.6581V32.6621C55.8328 32.5286 55.7908 32.3963 55.7093 32.2734C55.6277 32.1504 55.5083 32.0391 55.358 31.9463C55.2077 31.8535 55.0297 31.7809 54.8347 31.733C54.6396 31.6851 54.4314 31.6627 54.2225 31.6673Z" fill="#778894"/>
<path d="M35.3905 22.1667C34.9777 22.1667 34.5818 22.2594 34.2899 22.4243C33.998 22.5892 33.834 22.8128 33.834 23.046V49.7875C33.834 50.0207 33.998 50.2443 34.2899 50.4092C34.5818 50.5741 34.9777 50.6667 35.3905 50.6667C35.8084 50.6669 36.21 50.5752 36.5105 50.4111C36.8109 50.2471 36.9867 50.0234 37.0007 49.7875V23.046C36.9867 22.8101 36.8109 22.5864 36.5105 22.4223C36.21 22.2583 35.8084 22.1666 35.3905 22.1667Z" fill="#778894"/>
<path d="M39.6097 25.3334C39.187 25.3412 38.7854 25.443 38.4863 25.618C38.1873 25.7929 38.0134 26.028 38 26.2753V46.5581C38 46.8079 38.1696 47.0475 38.4715 47.2242C38.7733 47.4008 39.1828 47.5 39.6097 47.5C39.8186 47.5001 40.0255 47.4756 40.2178 47.4279C40.4102 47.3801 40.5842 47.3103 40.7294 47.2223C40.8746 47.1344 40.9881 47.0303 41.0631 46.9162C41.138 46.8021 41.1729 46.6803 41.1657 46.5581V26.2753C41.166 26.0308 41.0038 25.7959 40.7134 25.6201C40.423 25.4443 40.0272 25.3415 39.6097 25.3334Z" fill="#778894"/>
</g>
<defs>
<clipPath id="clip0_934_3033">
<rect width="76" height="76" fill="white"/>
</clipPath>
</defs>
</svg>
