<svg width="77" height="76" viewBox="0 0 77 76" fill="none" xmlns="http://www.w3.org/2000/svg">
<g clip-path="url(#clip0_934_3015)">
<path d="M38.8879 44.9057C38.7345 44.3367 38.5079 43.7927 38.2144 43.2888C38.5854 42.1254 38.882 40.937 39.1022 39.7317L39.7451 39.5053C39.0738 40.6015 38.7323 41.8867 38.7655 43.1918C38.7795 43.7676 38.841 44.3411 38.9492 44.9057M31.6631 48.4305C32.5533 48.1937 33.3738 47.727 34.051 47.0723L34.2041 46.8783V49.0126C33.3242 48.8871 32.4544 48.6925 31.6019 48.4305H31.6631ZM54.6233 45.3908C53.7925 45.5513 52.9361 45.4731 52.1436 45.1644C51.4296 44.9152 50.7799 44.4946 50.2456 43.9356L49.2353 42.9654L48.6537 44.2266C48.035 45.5936 47.0294 46.7236 45.776 47.4604L44.6739 48.0748L45.5923 49.0126L45.8984 49.3359C46.4833 49.9829 46.8861 50.7891 47.0618 51.6643C47.124 51.892 47.1314 52.1326 47.0833 52.3641C47.0352 52.5957 46.9331 52.8108 46.7862 52.9901C46.5936 53.1005 46.3778 53.1583 46.1587 53.1583C45.9395 53.1583 45.7238 53.1005 45.5311 52.9901C44.7293 52.7231 44.0172 52.2179 43.48 51.5349C42.8496 50.858 42.4418 49.9851 42.3167 49.0449V48.2041H36.9899L38.5206 55.1891H34.6633L35.2449 52.4727H34.2653C32.4455 52.2629 30.6627 51.7839 28.9692 51.0498L28.1732 50.6941L27.8058 51.3409C27.4034 52.1848 26.7612 52.8745 25.969 53.3135C25.2499 53.7776 24.4238 54.0237 23.5812 54.0249C23.36 54.0363 23.1394 53.9925 22.9373 53.897C22.7351 53.8015 22.5572 53.6569 22.4179 53.4752C22.0505 52.7961 22.7546 51.2762 24.3159 50.2414L26.5201 48.8832L23.9791 48.4628C23.2719 48.3321 22.602 48.0336 22.0199 47.5897C20.5198 46.4902 19.9075 44.938 20.3361 44.356C20.5062 44.1675 20.7201 44.0295 20.9565 43.9557C21.1928 43.8819 21.4434 43.875 21.6831 43.9356C22.5137 44.0038 23.3094 44.3176 23.9791 44.841C24.7698 45.3852 25.3798 46.1766 25.7241 47.1047V47.428L25.969 47.6221C28.6386 49.5898 31.7553 50.7728 35 51.0498H35.9797V46.4256C35.9852 45.9835 35.8806 45.5476 35.6765 45.1617C35.4723 44.7758 35.1757 44.4533 34.8163 44.2266L33.9285 43.6769L33.4693 44.6147C33.2712 45.0027 33.0125 45.3525 32.704 45.6495C32.2967 46.0972 31.7759 46.4115 31.2039 46.5549C30.8366 46.5549 30.5611 46.5549 30.4386 46.5549C30.3161 46.5549 30.4386 45.9082 30.5917 45.2614L31.1427 44.0973L29.9182 43.8709C28.4644 43.6322 27.1254 42.895 26.1074 41.773C25.0895 40.651 24.4492 39.2065 24.2853 37.6621V36.5626L23.275 36.8536C22.3079 37.0164 21.3169 36.8344 20.4586 36.3362C19.6908 35.9218 19.0529 35.2817 18.6218 34.493C18.4787 34.3301 18.3738 34.1342 18.3153 33.9208C18.2568 33.7074 18.2464 33.4825 18.285 33.2642C18.4092 33.0689 18.5783 32.9101 18.7764 32.8027C18.9745 32.6952 19.1951 32.6426 19.4177 32.6497C20.2582 32.6169 21.0921 32.8176 21.8362 33.2318L22.2342 33.4582L24.4383 34.881L23.5506 32.294C23.3524 31.713 23.2489 31.1007 23.2444 30.4831C23.2444 28.5752 24.1016 27.2494 24.8975 27.2494C25.6935 27.2494 26.5201 28.6722 26.5201 30.4831C26.5306 31.1021 26.4266 31.7172 26.2139 32.294L25.3261 34.881L27.5609 33.2642H27.8058C28.5509 32.8528 29.3841 32.6522 30.2243 32.6821C30.806 32.6821 31.2039 32.9408 31.357 33.2965C31.4365 33.5176 31.4585 33.7571 31.4208 33.9903C31.3832 34.2234 31.2871 34.4416 31.1427 34.6223C30.6899 35.3599 30.0547 35.9526 29.3059 36.3362C28.481 36.8344 27.5188 37.0171 26.5813 36.8536L25.3568 36.4979L25.6017 37.9208C25.8517 39.2086 26.5094 40.3682 27.4664 41.2087C28.4235 42.0491 29.6228 42.5205 30.8672 42.545H33.4081H34.1735L34.9694 42.7391L35.2143 41.9306C36.3728 38.3433 36.5111 34.476 35.6123 30.8065V30.3861L35.2449 30.1921C34.4505 29.6582 33.8306 28.8793 33.4693 27.9608C33.1091 27.1666 32.971 26.2803 33.0714 25.4061C33.0735 25.1691 33.1303 24.9362 33.237 24.7277C33.3437 24.5191 33.497 24.3413 33.6836 24.2096C33.9019 24.151 34.1305 24.1499 34.3493 24.2063C34.5681 24.2626 34.7705 24.3748 34.9388 24.533C35.6195 25.0473 36.1499 25.7532 36.4695 26.5703C36.6534 27.0269 36.7869 27.5043 36.8674 27.9931L37.0817 29.6747L38.3369 28.6075C38.69 28.3037 39.0816 28.0534 39.5002 27.8638C40.2475 27.4662 41.0854 27.2981 41.9187 27.3787C42.1421 27.3862 42.3607 27.4485 42.5573 27.5608C42.754 27.673 42.9231 27.8321 43.0514 28.0255C43.3575 28.7692 42.5003 30.1921 40.8472 31.0005C40.0604 31.3741 39.1965 31.5299 38.3369 31.4533L37.1124 31.2269L37.296 32.5204C37.296 33.2318 37.4797 33.9109 37.5103 34.6223V35.9482L38.6736 35.4955C39.7451 35.0427 40.6329 35.2691 40.786 35.4955C40.9391 35.7218 40.4186 36.8536 39.2247 37.4034C38.8591 37.5861 38.4647 37.6957 38.0614 37.7267H37.3573V38.4705C37.1435 40.003 36.7846 41.5088 36.2858 42.9654L36.1021 43.4828L36.4082 43.9032C36.8289 44.4624 37.0939 45.1342 37.1736 45.8435V46.7166H41.5513L40.9084 45.3261C40.5955 44.6179 40.4385 43.8439 40.4492 43.0625C40.4492 41.1545 41.3064 39.8287 42.0718 39.8287C42.8371 39.8287 43.6943 41.2515 43.6943 43.0625C43.7122 43.748 43.5976 44.4302 43.3575 45.0674L42.5616 47.1047L44.5208 46.3285C45.5282 45.9296 46.4022 45.2262 47.0337 44.3061C47.6652 43.3861 48.0263 42.29 48.072 41.1545V40.7988L47.8577 40.5078C47.2973 39.6928 47.0166 38.7005 47.0618 37.6944C47.0618 35.7865 47.9189 34.4607 48.6843 34.4607C49.4496 34.4607 50.3068 35.8835 50.3068 37.6944C50.3226 38.5355 50.1439 39.368 49.7864 40.1197L48.8067 41.8983L50.7354 41.5426C51.5162 41.3972 52.3195 41.4754 53.062 41.7689C54.7764 42.3834 55.7866 43.7092 55.5111 44.4853C55.4414 44.7106 55.3172 44.9127 55.1507 45.0715C54.9842 45.2303 54.7813 45.3404 54.5621 45.3908H54.6233ZM53.7967 40.0874C53.2088 39.8996 52.6031 39.7803 51.9905 39.7317C52.1509 39.1208 52.2333 38.49 52.2355 37.8561C52.2355 34.9134 50.7048 32.5851 48.7761 32.5851C46.8475 32.5851 45.3168 34.9134 45.3168 37.8561C45.2864 39.1756 45.639 40.4732 46.327 41.5749C46.2414 42.2318 45.9991 42.855 45.6229 43.3858C45.6229 40.4431 44.0922 38.1148 42.1636 38.1148H41.8575C42.2373 37.7252 42.5028 37.2283 42.6222 36.6835C42.7417 36.1386 42.71 35.569 42.531 35.0427C42.298 34.4781 41.9049 34.0038 41.4059 33.6853C40.9069 33.3667 40.3266 33.2196 39.7451 33.2642C40.3906 33.1649 41.0195 32.9689 41.6125 32.6821C44.1535 31.4533 45.5311 29.0279 44.6739 27.1847C44.4206 26.6911 44.0565 26.2708 43.6134 25.9606C43.1704 25.6505 42.662 25.4601 42.133 25.4061C40.956 25.2973 39.7728 25.5205 38.7043 26.0529L38.2757 26.2469C38.2229 26.0712 38.1616 25.8985 38.092 25.7295C37.65 24.584 36.9063 23.5964 35.949 22.8838C35.5256 22.5229 35.0188 22.2877 34.4807 22.2024C33.9426 22.1171 33.3927 22.1849 32.8877 22.3987C32.4081 22.6447 31.9976 23.0188 31.6969 23.4839C31.3962 23.949 31.2157 24.489 31.1733 25.0504C31.0222 26.2886 31.2136 27.5464 31.7244 28.6722C32.1811 29.8541 32.9587 30.8667 33.9592 31.5826C34.69 34.5528 34.6795 37.6725 33.9285 40.6371H30.8672C30.2458 40.6187 29.6389 40.434 29.1035 40.1003C28.5681 39.7666 28.1216 39.2949 27.8058 38.7292C28.6584 38.6211 29.4869 38.3586 30.2549 37.9531C31.3047 37.3914 32.1927 36.5428 32.8265 35.4955C33.1481 35.0452 33.3434 34.5084 33.39 33.9464C33.4366 33.3845 33.3326 32.82 33.09 32.3175C32.8473 31.815 32.4758 31.3947 32.0178 31.1047C31.5598 30.8146 31.0338 30.6665 30.4998 30.6772C29.7664 30.6205 29.0294 30.7082 28.3263 30.9359V30.3861C28.3263 27.4111 26.8262 25.1151 24.8975 25.1151C22.9689 25.1151 21.4382 27.4111 21.4382 30.3861C21.423 30.5582 21.423 30.7314 21.4382 30.9035C20.7245 30.6763 19.9775 30.5886 19.234 30.6448C18.7001 30.6341 18.1741 30.7823 17.7161 31.0723C17.2581 31.3624 16.8865 31.7827 16.6439 32.2852C16.4012 32.7877 16.2973 33.3522 16.3439 33.9141C16.3905 34.4761 16.5858 35.0128 16.9074 35.4631C17.5448 36.5191 18.4451 37.3693 19.5096 37.9208C20.4515 38.4487 21.5048 38.7157 22.5709 38.6969C22.9007 40.2731 23.6262 41.7265 24.6712 42.9043C25.7163 44.0821 27.0422 44.941 28.5099 45.3908C28.3889 46.0028 28.4643 46.64 28.7242 47.2017C28.177 46.9098 27.6455 46.5859 27.1323 46.2315C26.6517 45.0191 25.8421 43.984 24.8057 43.2565C23.8924 42.5498 22.8115 42.1244 21.6831 42.0276C21.1578 41.9607 20.6251 42.0387 20.1368 42.2541C19.6486 42.4695 19.2215 42.8148 18.8973 43.2565C17.7952 44.938 18.7136 47.5897 21.0096 49.2713C21.3186 49.4966 21.6465 49.6915 21.9893 49.8533C21.3556 50.3862 20.9047 51.1238 20.7056 51.9531C20.5066 52.7825 20.5703 53.6579 20.8872 54.4453C21.1729 54.904 21.5646 55.2783 22.0252 55.5329C22.4858 55.7875 23.0002 55.914 23.5199 55.9005C24.7057 55.9113 25.8711 55.5756 26.8874 54.9304C27.7361 54.4278 28.4681 53.7318 29.0304 52.8931C30.3306 53.4024 31.6733 53.7814 33.0408 54.0249L32.3979 57H40.7554L39.2553 50.015H40.7248C41.0148 51.0258 41.5171 51.9543 42.1942 52.7314C42.9518 53.677 43.9507 54.3729 45.0719 54.7363C45.5796 54.9457 46.131 55.0082 46.6691 54.9172C47.2073 54.8263 47.7128 54.5852 48.1332 54.2189C48.511 53.8262 48.7857 53.3367 48.9306 52.7982C49.0755 52.2597 49.0856 51.6907 48.9598 51.1469C48.778 50.1068 48.3576 49.1297 47.7353 48.3011C48.5631 47.6851 49.27 46.9054 49.817 46.0052C50.3521 46.4063 50.94 46.7222 51.562 46.943C52.6718 47.3546 53.8638 47.4548 55.0213 47.234C55.5483 47.1413 56.0432 46.9044 56.4568 46.547C56.8703 46.1896 57.1881 45.7241 57.3785 45.1967C57.9602 43.3212 56.3989 41.0575 53.7355 40.0874H53.7967Z" fill="#778894"/>
<path d="M38.5 73.625C31.4361 73.6375 24.5274 71.5535 18.6488 67.6368C12.7702 63.7202 8.18615 58.147 5.47714 51.6233C2.76813 45.0995 2.05604 37.9185 3.43106 30.9898C4.80609 24.061 8.20636 17.6962 13.2013 12.7013C18.1962 7.70635 24.561 4.30607 31.4898 2.93105C38.4186 1.55603 45.5995 2.26811 52.1233 4.97712C58.6471 7.68613 64.2202 12.2702 68.1368 18.1488C72.0535 24.0274 74.1375 30.9361 74.125 38C74.0916 47.4381 70.3276 56.48 63.6538 63.1538C56.98 69.8276 47.9381 73.5916 38.5 73.625ZM38.5 0C30.9843 0 23.6374 2.22866 17.3883 6.40415C11.1393 10.5796 6.26872 16.5144 3.39259 23.458C0.516465 30.4016 -0.236062 38.0421 1.23018 45.4134C2.69641 52.7847 6.31556 59.5557 11.63 64.87C16.9444 70.1844 23.7153 73.8036 31.0866 75.2698C38.4579 76.7361 46.0984 75.9835 53.042 73.1074C59.9856 70.2313 65.9204 65.3607 70.0958 59.1117C74.2713 52.8626 76.5 45.5157 76.5 38C76.5 27.9218 72.4964 18.2563 65.3701 11.1299C58.2437 4.00356 48.5782 0 38.5 0Z" fill="#778894"/>
</g>
<defs>
<clipPath id="clip0_934_3015">
<rect width="76" height="76" fill="white" transform="translate(0.5)"/>
</clipPath>
</defs>
</svg>
