<svg width="76" height="76" viewBox="0 0 76 76" fill="none" xmlns="http://www.w3.org/2000/svg">
<g clip-path="url(#clip0_934_3047)">
<path d="M48.6047 41.8135C48.4057 39.7508 47.6398 37.7925 46.3994 36.1753C45.1303 34.5392 43.4405 33.3165 41.5292 32.6514C41.464 30.2141 40.6232 27.8692 39.1401 25.988C40.1322 25.0101 41.3199 24.2754 42.6171 23.837C43.9144 23.3987 45.2886 23.2677 46.6402 23.4536C47.9918 23.6395 49.2869 24.1376 50.4317 24.9118C51.5765 25.686 52.5422 26.7169 53.2589 27.9298C53.9756 29.1427 54.4252 30.5072 54.5753 31.9243C54.7253 33.3415 54.572 34.7758 54.1265 36.1233C53.6809 37.4708 52.9543 38.6977 51.9993 39.7152C51.0442 40.7326 49.8847 41.515 48.6047 42.0057M38.4662 52.4814C36.0915 52.4833 33.8083 51.5237 32.0953 49.8037C30.3822 48.0837 29.3723 45.7368 29.2773 43.2551C29.9236 43.3825 30.5799 43.4468 31.2376 43.4473C33.9466 43.412 36.533 42.2609 38.4356 40.2438C40.3383 42.2609 42.9247 43.412 45.6336 43.4473C46.2913 43.4468 46.9476 43.3825 47.5939 43.2551C47.4994 45.7258 46.498 48.0633 44.7981 49.7816C43.0981 51.4999 40.8303 52.4669 38.4662 52.4814ZM22.0487 32.7475C22.068 30.8637 22.6163 29.0274 23.6254 27.4669C24.6344 25.9064 26.0598 24.6904 27.7242 23.9702C29.3886 23.25 31.2186 23.0573 32.9869 23.416C34.7552 23.7748 36.3836 24.6692 37.6699 25.988C36.196 27.8949 35.3763 30.2637 35.342 32.7155C33.4084 33.3697 31.6962 34.5932 30.4106 36.2394C29.1702 37.8565 28.4042 39.8148 28.2053 41.8776C26.3973 41.2166 24.832 39.9813 23.7282 38.3443C22.6244 36.7074 22.0372 34.7506 22.0487 32.7475ZM36.4447 32.3631C36.5366 30.3279 37.2445 28.3758 38.4662 26.7889C39.6501 28.4006 40.315 30.3634 40.3653 32.3951C39.0699 32.1386 37.74 32.1386 36.4447 32.3951V32.3631ZM41.4067 33.8367C43.0486 34.4709 44.4832 35.5823 45.5417 37.0402C46.7053 38.437 47.4416 40.1667 47.6552 42.0057C47.0226 42.1595 46.3749 42.2347 45.7255 42.23C43.3043 42.2278 40.9817 41.2262 39.2626 39.4429C40.5064 37.8338 41.2919 35.8909 41.5292 33.8367H41.4067ZM36.4753 33.5163C37.1101 33.3768 37.7564 33.3017 38.405 33.2921C39.0636 33.3033 39.7199 33.3784 40.3653 33.5163C40.2526 35.4374 39.591 37.2789 38.4662 38.8022C37.2965 37.2976 36.601 35.4511 36.4753 33.5163ZM35.4033 33.8367C35.6237 35.9246 36.4102 37.903 37.6699 39.539C35.9508 41.3223 33.6282 42.3239 31.207 42.3261C30.5539 42.2994 29.9062 42.1919 29.2773 42.0057C29.4074 40.0914 30.1032 38.2667 31.2682 36.784C32.3594 35.4204 33.7908 34.4001 35.4033 33.8367ZM55.8333 32.7475C55.8315 30.6443 55.237 28.5882 54.1243 26.8364C53.0115 25.0845 51.4297 23.7145 49.5767 22.8975C47.7236 22.0806 45.6814 21.853 43.7054 22.2431C41.7293 22.6332 39.907 23.6238 38.4662 25.091C37.3613 23.9512 36.0235 23.0884 34.5536 22.5675C33.0837 22.0467 31.5199 21.8813 29.9801 22.0839C28.4403 22.2866 26.9644 22.8519 25.6637 23.7373C24.363 24.6228 23.2712 25.8053 22.4706 27.1958C21.67 28.5864 21.1815 30.1488 21.0417 31.7654C20.9019 33.382 21.1146 35.0107 21.6637 36.5289C22.2128 38.0471 23.084 39.4153 24.2118 40.5304C25.3396 41.6455 26.6945 42.4786 28.1746 42.9668C28.1746 45.8046 29.2525 48.5261 31.171 50.5328C33.0896 52.5394 35.6917 53.6667 38.405 53.6667C41.1182 53.6667 43.7204 52.5394 45.6389 50.5328C47.5575 48.5261 48.6353 45.8046 48.6353 42.9668C50.7208 42.2899 52.5445 40.9328 53.8396 39.094C55.1348 37.2553 55.8334 35.0313 55.8333 32.7475Z" fill="#778894"/>
<path d="M37.9807 27.6762C37.0243 28.9726 36.4376 30.4855 36.2785 32.0654C37.3644 31.9204 38.4661 31.9204 39.552 32.0654C39.432 30.4971 38.8907 28.9852 37.9807 27.6762ZM40.5013 32.9746H40.0103C38.6699 32.7236 37.2915 32.7236 35.9511 32.9746H35.4601V32.5357C35.5186 30.4644 36.2896 28.4696 37.6534 26.8611L37.9807 26.4535L38.2753 26.8297C39.6224 28.4549 40.3705 30.461 40.4031 32.5357L40.5013 32.9746ZM36.3112 33.9465C36.5024 35.4369 37.0759 36.8587 37.9807 38.0849C38.8855 36.8587 39.4591 35.4369 39.6502 33.9465C38.5246 33.7507 37.3714 33.7507 36.2458 33.9465H36.3112ZM37.9807 39.3077L37.6206 38.806C36.353 37.3044 35.5986 35.4654 35.4601 33.539V33.2255H35.7875C37.2092 32.9118 38.6868 32.9118 40.1085 33.2255H40.4359V33.539C40.2682 35.4701 39.492 37.3069 38.2099 38.806L37.9807 39.3077ZM41.5489 32.5357C43.5922 33.2015 45.3969 34.4081 46.7537 36.0157C48.0206 37.5154 48.8457 39.3123 49.1434 41.2201C51.1514 40.4221 52.8097 38.9841 53.8376 37.1494C54.8655 35.3147 55.1998 33.1962 54.7838 31.1526C54.3678 29.109 53.2272 27.2658 51.555 25.9353C49.8828 24.6047 47.7819 23.8685 45.608 23.8513C43.2422 23.8745 40.9687 24.7342 39.2247 26.2654C40.6622 28.0728 41.4747 30.2648 41.5489 32.5357ZM48.456 42.2547V41.9412C48.2618 40.0011 47.4763 38.1586 46.1972 36.6428C44.8768 35.0745 43.0992 33.9177 41.0906 33.3195H40.8287V33.0373C40.7749 30.7522 39.9348 28.5481 38.439 26.767L38.1771 26.2654L38.4063 26.0459C40.3319 24.2436 42.9155 23.2313 45.608 23.2243C48.0123 23.2347 50.3352 24.0598 52.1652 25.5533C53.9953 27.0469 55.2143 29.1126 55.6064 31.3845C55.9985 33.6564 55.5383 35.9879 54.3075 37.966C53.0766 39.9441 51.1545 41.4412 48.8815 42.192L48.456 42.2547ZM30.2225 23.8513C28.0486 23.8685 25.9476 24.6047 24.2755 25.9353C22.6033 27.2658 21.4627 29.109 21.0467 31.1526C20.6307 33.1962 20.965 35.3147 21.9929 37.1494C23.0207 38.9841 24.6791 40.4221 26.6871 41.2201C26.9848 39.3123 27.8099 37.5154 29.0767 36.0157C30.4336 34.4081 32.2383 33.2015 34.2816 32.5357C34.3558 30.2648 35.1683 28.0728 36.6058 26.2654C34.8651 24.7291 32.5895 23.8685 30.2225 23.8513ZM27.3745 42.2547H26.8835C24.4635 41.6076 22.3789 40.1262 21.0307 38.0957C19.6824 36.0652 19.1658 33.6289 19.5801 31.2555C19.9945 28.8821 21.3106 26.7394 23.2753 25.2394C25.2399 23.7394 27.7143 22.9882 30.2225 23.1303C32.915 23.1373 35.4986 24.1495 37.4242 25.9519L37.6534 26.2654L37.4242 26.5476C35.9284 28.3286 35.0884 30.5328 35.0345 32.8179V33.1H34.7727C32.764 33.6983 30.9864 34.8551 29.666 36.4233C28.3446 37.9998 27.5567 39.9247 27.4072 41.9412L27.3745 42.2547ZM28.5857 41.7531C30.0137 41.9832 31.4777 41.8996 32.8671 41.5086C34.2564 41.1175 35.5349 40.4293 36.6058 39.4958C35.4301 38.0206 34.6642 36.2839 34.3798 34.4482C32.8962 35.0395 31.5907 35.9772 30.5826 37.1757C29.4713 38.4859 28.778 40.0752 28.5857 41.7531ZM30.2225 42.6309C29.5289 42.6277 28.8376 42.5542 28.1602 42.4115H27.8328V41.9412C28.0057 40.0608 28.7485 38.2699 29.9697 36.7883C31.191 35.3067 32.8376 34.1992 34.7072 33.6017L35.1655 33.4449V33.9152C35.373 35.8917 36.1811 37.7665 37.4897 39.3077L37.7188 39.5585L37.4897 39.8093C35.5478 41.6268 32.9377 42.6403 30.2225 42.6309ZM39.2247 39.4958C40.2943 40.4313 41.5726 41.1208 42.9624 41.512C44.3521 41.9031 45.8167 41.9856 47.2448 41.7531C47.0525 40.0752 46.3592 38.4859 45.2479 37.1757C44.2418 35.9752 42.9357 35.0371 41.4506 34.4482C41.1663 36.2839 40.4004 38.0206 39.2247 39.4958ZM45.608 42.6309C42.9155 42.6239 40.3319 41.6116 38.4063 39.8093L38.1771 39.5585L38.4063 39.3077C39.7149 37.7665 40.5229 35.8917 40.7305 33.9152V33.4449L41.1888 33.6017C43.0583 34.1992 44.7049 35.3067 45.9262 36.7883C47.1475 38.2699 47.8902 40.0608 48.0632 41.9412V42.2861H47.7358C47.0419 42.4755 46.3284 42.5912 45.608 42.6309ZM28.553 43.6028C28.7495 45.8514 29.821 47.9473 31.5551 49.4748C33.2891 51.0024 35.5592 51.8502 37.9152 51.8502C40.2713 51.8502 42.5414 51.0024 44.2754 49.4748C46.0095 47.9473 47.081 45.8514 47.2775 43.6028C45.6139 43.8289 43.9186 43.7018 42.312 43.2304C40.7054 42.759 39.2267 41.955 37.9807 40.8752C36.7186 41.9707 35.218 42.7837 33.5874 43.2555C31.9569 43.7272 30.2373 43.8459 28.553 43.6028ZM37.9807 52.5694C35.3394 52.5788 32.7984 51.6016 30.8974 49.8454C28.9964 48.0891 27.8853 45.6922 27.8001 43.1639V42.6936H28.2911C29.9782 43.0069 31.7193 42.9254 33.3664 42.456C35.0135 41.9866 36.5179 41.1431 37.7516 39.9974L38.0135 39.7466L38.2753 39.9974C39.509 41.1431 41.0134 41.9866 42.6605 42.456C44.3076 42.9254 46.0487 43.0069 47.7358 42.6936H48.1941V43.1639C48.1006 45.695 46.9824 48.092 45.0761 49.8475C43.1699 51.6029 40.6252 52.5791 37.9807 52.5694ZM30.2225 22.754C27.6897 22.7334 25.2333 23.5842 23.3002 25.1517C21.3671 26.7192 20.0858 28.8992 19.6894 31.2952C19.2929 33.6911 19.8076 36.1437 21.14 38.2068C22.4723 40.27 24.5336 41.8065 26.949 42.5369H27.2108V42.7877C27.2108 45.4734 28.3248 48.0491 30.3077 49.9482C32.2906 51.8473 34.98 52.9142 37.7843 52.9142C40.5886 52.9142 43.278 51.8473 45.2609 49.9482C47.2438 48.0491 48.3578 45.4734 48.3578 42.7877V42.5369H48.6197C51.035 41.8065 53.0963 40.27 54.4287 38.2068C55.761 36.1437 56.2757 33.6911 55.8793 31.2952C55.4828 28.8992 54.2015 26.7192 52.2684 25.1517C50.3353 23.5842 47.8789 22.7334 45.3461 22.754C42.568 22.7656 39.9033 23.8111 37.9152 25.6697L37.9807 25.9205L37.7188 25.6697C35.7146 23.796 33.0233 22.7492 30.2225 22.754ZM37.9807 53.6667C35.0406 53.6602 32.2176 52.5622 30.1053 50.6035C27.993 48.6449 26.756 45.9781 26.6543 43.1639C24.1254 42.3282 21.9855 40.6645 20.6119 38.4659C19.2382 36.2673 18.7188 33.6749 19.1453 31.1455C19.5718 28.6161 20.9167 26.312 22.9431 24.6393C24.9696 22.9665 27.5474 22.0324 30.2225 22.0016C33.0946 21.9977 35.8635 23.0272 37.9807 24.8859C39.5996 23.4511 41.6207 22.5003 43.7959 22.1501C45.9711 21.7999 48.2058 22.0656 50.2255 22.9146C52.2453 23.7636 53.9622 25.1589 55.1657 26.9293C56.3691 28.6997 57.0066 30.7681 56.9999 32.8806C57.0117 35.1522 56.2744 37.3693 54.893 39.2159C53.5116 41.0625 51.5567 42.4441 49.3071 43.1639C49.2054 45.9781 47.9684 48.6449 45.8561 50.6035C43.7438 52.5622 40.9208 53.6602 37.9807 53.6667Z" fill="#778894"/>
<path d="M38 2.24835C30.9415 2.23584 24.0379 4.31668 18.162 8.22775C12.2862 12.1388 7.70202 17.7044 4.9893 24.2208C2.27657 30.7372 1.55709 37.9117 2.92185 44.837C4.28661 51.7622 7.6743 58.1273 12.6565 63.1273C17.6388 68.1272 23.9918 71.5375 30.9122 72.9268C37.8326 74.3161 45.0095 73.6221 51.5355 70.9325C58.0615 68.243 63.6433 63.6786 67.5752 57.8167C71.5071 51.9547 73.6125 45.0585 73.625 38C73.6251 28.54 69.8758 19.4656 63.1984 12.7644C56.521 6.06334 47.46 2.28187 38 2.24835ZM38 76C30.4843 76 23.1374 73.7713 16.8883 69.5958C10.6393 65.4204 5.76872 59.4856 2.89259 52.542C0.0164649 45.5984 -0.736062 37.9579 0.730176 30.5866C2.19641 23.2153 5.81556 16.4444 11.13 11.13C16.4444 5.81556 23.2153 2.19641 30.5866 0.730176C37.9579 -0.736062 45.5984 0.0164649 52.542 2.89259C59.4856 5.76872 65.4204 10.6393 69.5958 16.8883C73.7713 23.1374 76 30.4843 76 38C76 48.0782 71.9964 57.7437 64.8701 64.8701C57.7437 71.9964 48.0782 76 38 76Z" fill="#778894"/>
</g>
<defs>
<clipPath id="clip0_934_3047">
<rect width="76" height="76" fill="white"/>
</clipPath>
</defs>
</svg>
