<svg width="76" height="76" viewBox="0 0 76 76" fill="none" xmlns="http://www.w3.org/2000/svg">
<g clip-path="url(#clip0_934_3028)">
<path d="M45.2236 51.9364H30.8417C29.3871 50.7069 28.3294 49.1268 27.7865 47.3723C27.2436 45.6178 27.2369 43.7579 27.7671 42C28.2974 40.2422 29.3437 38.6556 30.7894 37.4171C32.2351 36.1786 34.0233 35.3371 35.9545 34.9863H36.7792V30.3969H39.2861V34.9863H40.1108C42.0351 35.3411 43.8158 36.1833 45.2555 37.4196C46.6953 38.6559 47.7377 40.2379 48.2672 41.9901C48.7967 43.7424 48.7926 45.5965 48.2554 47.3467C47.7181 49.0969 46.6688 50.675 45.2236 51.9058M38.9233 24.033L38.7254 25.2262H37.34L37.142 24.033H38.9233ZM39.2861 28.5306H35.6577V27.0926H40.4406V28.5306H39.2861ZM41.3972 33.3341V30.2745C41.7362 30.143 42.0263 29.9222 42.2314 29.6394C42.4366 29.3567 42.548 29.0244 42.5518 28.6835V26.9702C42.5552 26.5425 42.3892 26.1285 42.0851 25.8069C41.781 25.4854 41.3601 25.2787 40.9024 25.2262L41.3313 22.1666H34.8L35.2618 25.2262C34.7982 25.2717 34.3694 25.4754 34.0585 25.7976C33.7476 26.1199 33.5769 26.5378 33.5795 26.9702V28.6835C33.5833 29.0244 33.6947 29.3567 33.8998 29.6394C34.105 29.9222 34.395 30.143 34.734 30.2745V33.3341C32.0434 34.0107 29.6666 35.4876 27.9683 37.5381C26.27 39.5886 25.3442 42.0994 25.333 44.6851C25.3327 46.3803 25.731 48.055 26.5001 49.5927C27.2692 51.1304 28.3906 52.494 29.7861 53.5885L30.05 53.8333H45.9493L46.2132 53.5885C47.6088 52.494 48.7302 51.1304 49.4993 49.5927C50.2684 48.055 50.6666 46.3803 50.6663 44.6851C50.6686 42.1141 49.7639 39.613 48.0903 37.5635C46.4167 35.514 44.0661 34.0286 41.3972 33.3341Z" fill="#778894"/>
<path d="M38 2.24835C30.9415 2.23584 24.0379 4.31668 18.162 8.22775C12.2862 12.1388 7.70202 17.7044 4.9893 24.2208C2.27657 30.7372 1.55709 37.9117 2.92185 44.837C4.28661 51.7622 7.6743 58.1273 12.6565 63.1273C17.6388 68.1272 23.9918 71.5375 30.9122 72.9268C37.8326 74.3161 45.0095 73.6221 51.5355 70.9325C58.0615 68.243 63.6433 63.6786 67.5752 57.8167C71.5071 51.9547 73.6125 45.0585 73.625 38C73.6251 28.54 69.8758 19.4656 63.1984 12.7644C56.521 6.06334 47.46 2.28187 38 2.24835ZM38 76C30.4843 76 23.1374 73.7713 16.8883 69.5958C10.6393 65.4204 5.76872 59.4856 2.89259 52.542C0.0164649 45.5984 -0.736062 37.9579 0.730176 30.5866C2.19641 23.2153 5.81556 16.4444 11.13 11.13C16.4444 5.81556 23.2153 2.19641 30.5866 0.730176C37.9579 -0.736062 45.5984 0.0164649 52.542 2.89259C59.4856 5.76872 65.4204 10.6393 69.5958 16.8883C73.7713 23.1374 76 30.4843 76 38C76 48.0782 71.9964 57.7437 64.8701 64.8701C57.7437 71.9964 48.0782 76 38 76Z" fill="#778894"/>
</g>
<defs>
<clipPath id="clip0_934_3028">
<rect width="76" height="76" fill="white"/>
</clipPath>
</defs>
</svg>
