<svg width="76" height="76" viewBox="0 0 76 76" fill="none" xmlns="http://www.w3.org/2000/svg">
<g clip-path="url(#clip0_934_3009)">
<path d="M38.059 53.0977C35.7116 53.0977 33.4603 52.0408 31.8005 50.1596C30.1406 48.2783 29.2081 45.7267 29.2081 43.0662C29.2785 40.744 29.7812 38.465 30.6832 36.3785C31.4401 34.4469 32.4333 32.6458 33.6335 31.0283C34.9326 29.2669 36.4191 27.6945 38.059 26.3469C39.6242 27.6607 41.0498 29.1756 42.3075 30.8611C43.4937 32.5023 44.4855 34.3122 45.2578 36.2447C46.1683 38.3722 46.6519 40.7018 46.6739 43.0662C46.6747 45.681 45.7747 48.1929 44.1655 50.0666C42.5564 51.9404 40.3653 53.028 38.059 53.0977ZM46.0839 35.8769C45.2554 33.857 44.183 31.9776 42.8975 30.2927C41.5423 28.4613 39.997 26.8221 38.295 25.4107C38.2244 25.3602 38.1425 25.3334 38.059 25.3334C37.9755 25.3334 37.8936 25.3602 37.823 25.4107C36.1152 26.8262 34.5605 28.4648 33.191 30.2927C31.9256 31.9945 30.855 33.8708 30.0047 35.8769C29.0672 38.1286 28.5547 40.5772 28.5 43.0662C28.5 44.4802 28.7457 45.8803 29.2231 47.1866C29.7006 48.4929 30.4003 49.6799 31.2825 50.6797C32.1646 51.6796 33.2119 52.4727 34.3645 53.0138C35.5171 53.5549 36.7524 53.8334 38 53.8334C39.2476 53.8334 40.4829 53.5549 41.6355 53.0138C42.7881 52.4727 43.8354 51.6796 44.7175 50.6797C45.5997 49.6799 46.2994 48.4929 46.7769 47.1866C47.2543 45.8803 47.5 44.4802 47.5 43.0662C47.4797 40.5439 46.9764 38.0568 46.0248 35.7766" fill="#778894"/>
<path d="M39.6485 27.5968C38.0918 28.7813 36.6611 30.1164 35.3783 31.5817C34.0784 33.1076 32.983 34.7895 32.1187 36.5867C31.1727 38.5861 30.6727 40.7596 30.6518 42.9626C30.6518 45.3046 31.6031 47.5507 33.2964 49.2067C34.9898 50.8627 37.2864 51.7931 39.6811 51.7931C42.0758 51.7931 44.3725 50.8627 46.0658 49.2067C47.7591 47.5507 48.7104 45.3046 48.7104 42.9626C48.6854 40.7565 48.174 38.5818 47.211 36.5867C46.3697 34.7869 45.2723 33.1126 43.9513 31.6136C42.6668 30.1292 41.2244 28.7827 39.6485 27.5968ZM39.6485 53.8334C38.1763 53.8334 36.7186 53.5483 35.3596 52.9944C34.0007 52.4405 32.7673 51.6289 31.7309 50.6063C30.6944 49.5838 29.8753 48.3705 29.3208 47.0367C28.7663 45.7029 28.4875 44.2748 28.5004 42.8351C28.5177 40.3547 29.0849 37.9075 30.1629 35.6622C31.116 33.7058 32.3329 31.8831 33.7811 30.2428C35.3117 28.4636 37.0638 26.8786 38.9966 25.5246C39.1659 25.4005 39.3717 25.3334 39.5833 25.3334C39.7949 25.3334 40.0008 25.4005 40.1701 25.5246C42.1028 26.8786 43.8549 28.4636 45.3856 30.2428C46.8386 31.9028 48.0557 33.7472 49.0038 35.726C50.0585 37.9565 50.6248 40.3779 50.6662 42.8351C50.6923 45.7212 49.5472 48.4997 47.4818 50.5614C45.4165 52.6231 42.5995 53.7997 39.6485 53.8334Z" fill="#778894"/>
<path d="M38 2.24835C30.9415 2.23583 24.0379 4.31668 18.162 8.22775C12.2862 12.1388 7.70202 17.7044 4.9893 24.2208C2.27657 30.7372 1.55709 37.9117 2.92185 44.837C4.28661 51.7622 7.6743 58.1273 12.6565 63.1273C17.6388 68.1272 23.9918 71.5375 30.9122 72.9268C37.8326 74.3161 45.0095 73.6221 51.5355 70.9325C58.0615 68.243 63.6433 63.6786 67.5752 57.8167C71.5071 51.9547 73.6125 45.0585 73.625 38C73.6251 28.54 69.8758 19.4656 63.1984 12.7644C56.521 6.06334 47.46 2.28187 38 2.24835ZM38 76C30.4843 76 23.1374 73.7713 16.8883 69.5958C10.6393 65.4204 5.76872 59.4856 2.89259 52.542C0.0164649 45.5984 -0.736062 37.9579 0.730176 30.5866C2.19641 23.2153 5.81556 16.4444 11.13 11.13C16.4444 5.81556 23.2153 2.19641 30.5866 0.730176C37.9579 -0.736062 45.5984 0.0164649 52.542 2.89259C59.4856 5.76872 65.4204 10.6393 69.5958 16.8883C73.7713 23.1374 76 30.4843 76 38C76 48.0782 71.9964 57.7437 64.8701 64.8701C57.7437 71.9964 48.0782 76 38 76Z" fill="#778894"/>
</g>
<defs>
<clipPath id="clip0_934_3009">
<rect width="76" height="76" fill="white"/>
</clipPath>
</defs>
</svg>
