<svg width="127" height="126" viewBox="0 0 127 126" fill="none" xmlns="http://www.w3.org/2000/svg">
<g clip-path="url(#clip0_946_4218)">
<path d="M8.10996 43.9259C10.8841 43.9259 13.1769 41.8159 13.1769 38.8706C13.1769 37.4828 12.5117 36.1093 11.4927 35.2313C10.3604 34.2684 9.11486 33.9144 7.71366 33.5321C6.18507 33.1214 4.64233 32.6966 3.41097 31.5921C2.05223 30.3743 1.3587 28.6467 1.3587 26.82C1.3587 22.6993 4.47249 19.938 8.30811 19.938C12.1437 19.938 15.0594 22.9542 15.0311 26.8625H12.4834C12.3136 24.2711 10.5302 22.4019 8.01088 22.4019C5.63308 22.4019 3.80727 24.441 3.80727 26.8625C3.80727 29.9353 6.25584 30.6716 8.64779 31.3655C10.4028 31.8894 11.9314 32.201 13.3468 33.5462C14.8046 34.8631 15.6255 36.8739 15.6255 38.913C15.6255 43.1329 12.1437 46.3898 8.18073 46.3898C4.00542 46.3898 0.566105 43.2461 0.594412 38.7856H3.21282C3.28359 41.5894 5.36416 43.94 8.10996 43.94V43.9259Z" fill="white" stroke="white" stroke-width="0.25" stroke-miterlimit="10"/>
<path d="M34.5347 45.9367V42.3683C33.1476 45.0305 30.3594 46.3757 27.5145 46.3757C24.6696 46.3757 21.8531 45.1296 19.5319 42.3683C18.8667 41.6036 17.7485 39.2247 17.7485 36.3501C17.7485 33.8295 18.9799 31.224 19.631 30.6009C22.3768 27.5281 24.9244 26.5935 27.4437 26.5935C30.2886 26.5935 33.1759 27.9104 34.5347 30.6009V27.0042H36.8842V45.9226H34.5347V45.9367ZM27.5145 43.9259C31.2935 43.9259 34.5347 40.5416 34.5347 36.5908C34.5347 32.3993 31.4917 29.0433 27.4437 29.0433C23.3958 29.0433 20.1971 32.371 20.1971 36.5483C20.1971 40.7257 23.6364 43.9118 27.5145 43.9118V43.9259Z" fill="white" stroke="white" stroke-width="0.25" stroke-miterlimit="10"/>
<path d="M41.8945 27.0183L48.1504 42.694L54.4063 27.0183H57.053L49.4101 45.9367H46.8624L39.2478 27.0183H41.8945Z" fill="white" stroke="white" stroke-width="0.25" stroke-miterlimit="10"/>
<path d="M75.4951 45.9367V42.3683C74.1081 45.0305 71.3198 46.3757 68.475 46.3757C65.6301 46.3757 62.8135 45.1296 60.4923 42.3683C59.8271 41.6036 58.709 39.2247 58.709 36.3501C58.709 33.8295 59.9403 31.224 60.5914 30.6009C63.3372 27.5281 65.8848 26.5935 68.4042 26.5935C71.2491 26.5935 74.1364 27.9104 75.4951 30.6009V27.0042H77.8446V45.9226H75.4951V45.9367ZM68.475 43.9259C72.254 43.9259 75.4951 40.5416 75.4951 36.5908C75.4951 32.3993 72.4521 29.0433 68.4042 29.0433C64.3563 29.0433 61.1576 32.371 61.1576 36.5483C61.1576 40.7257 64.5969 43.9118 68.475 43.9118V43.9259Z" fill="white" stroke="white" stroke-width="0.25" stroke-miterlimit="10"/>
<path d="M84.4686 20.377V45.9366H82.02V20.377H84.4686Z" fill="white" stroke="white" stroke-width="0.25" stroke-miterlimit="10"/>
<path d="M91.0924 20.377V45.9366H88.6438V20.377H91.0924Z" fill="white" stroke="white" stroke-width="0.25" stroke-miterlimit="10"/>
<path d="M104.071 46.3899C98.9477 46.3899 94.5742 42.0284 94.5742 36.605C94.5742 31.1815 98.7778 26.6077 104.071 26.6077C109.365 26.6077 113.469 31.1107 113.469 36.3642C113.469 41.6178 109.294 46.3899 104.071 46.3899ZM104.071 43.9401C108.105 43.9401 111.021 40.4849 111.021 36.3642C111.021 34.2826 110.355 32.5975 108.898 31.139C107.61 29.8646 105.855 29.0574 104.057 29.0574C100.052 29.0574 97.0086 32.4843 97.0086 36.605C97.0086 40.7257 100.193 43.9401 104.057 43.9401H104.071Z" fill="white" stroke="white" stroke-width="0.25" stroke-miterlimit="10"/>
<path d="M121.197 43.9259C122.952 43.9259 124.381 42.6515 124.381 40.7823C124.381 38.5025 122.655 37.667 120.871 37.1431C119.711 36.7607 118.494 36.3784 117.588 35.4863C116.625 34.5942 116.13 33.2348 116.13 31.8895C116.13 28.8167 118.508 26.5935 121.367 26.5935C124.226 26.5935 126.363 28.9441 126.363 31.7196H123.914C123.914 30.0628 122.683 29.0574 121.098 29.0574C119.711 29.0574 118.579 30.2327 118.579 31.6913C118.579 33.7729 120.164 34.3251 121.763 34.8349C124.481 35.727 126.83 36.9448 126.83 40.3717C126.83 43.7985 124.353 46.3899 120.97 46.3899C117.885 46.3899 115.309 43.5861 115.479 40.3717H117.927C117.857 42.3116 119.357 43.9401 121.211 43.9401L121.197 43.9259Z" fill="white" stroke="white" stroke-width="0.25" stroke-miterlimit="10"/>
<path d="M0 52.3089V51.0061H7.65708V52.3089H4.5433V65.3648H3.1704V52.3089H0Z" fill="white"/>
<path d="M9.70936 54.7302V56.2596C10.2472 54.9993 11.4219 54.532 12.6675 54.4895V55.9056C11.9173 55.9622 11.4078 56.1463 10.8275 56.6419C9.8792 57.4774 9.78012 58.1996 9.78012 59.4032V65.3506H8.40723V54.7302H9.70936Z" fill="white"/>
<path d="M23.042 65.3648V63.3681C22.2635 64.8691 20.6925 65.6196 19.0931 65.6196C17.4938 65.6196 15.9086 64.9258 14.6065 63.3681C14.2385 62.9433 13.6016 61.5981 13.6016 59.9838C13.6016 58.5677 14.2951 57.1092 14.6631 56.7552C16.2058 55.0276 17.6353 54.5037 19.0507 54.5037C20.65 54.5037 22.2635 55.24 23.0278 56.7552V54.7302H24.3441V65.3506H23.0278L23.042 65.3648ZM19.0931 64.2319C21.2162 64.2319 23.042 62.3344 23.042 60.1112C23.042 57.7606 21.3294 55.8772 19.0648 55.8772C16.8003 55.8772 14.9886 57.7464 14.9886 60.097C14.9886 62.4477 16.9277 64.2319 19.0931 64.2319Z" fill="white"/>
<path d="M35.7944 65.3648V63.4248C34.7754 64.9259 33.4449 65.6197 31.6899 65.6197C30.2179 65.6197 28.8592 64.9967 27.4297 63.4248C26.9343 62.9717 26.3115 61.584 26.3115 60.0263C26.3115 56.8544 28.8167 54.5037 31.7748 54.5037C33.3034 54.5037 34.8744 55.1976 35.7236 56.5853V51.0061H37.0965V65.3648H35.7944ZM27.6844 59.998C27.6844 62.3345 29.4819 64.232 31.7182 64.232C33.9545 64.232 35.752 62.3345 35.752 59.998C35.752 57.6615 33.8978 55.8773 31.6757 55.8773C29.4536 55.8773 27.6703 57.704 27.6703 59.998H27.6844Z" fill="white"/>
<path d="M40.8189 51.0061V53.4559H39.446V51.0061H40.8189ZM40.8189 54.7303V65.3507H39.446V54.7303H40.8189Z" fill="white"/>
<path d="M44.4706 54.7302V56.2596C45.249 55.1126 46.2964 54.4895 47.6268 54.4895C48.9573 54.4895 50.3302 55.1126 51.236 56.2596C52.0144 57.2933 52.1701 58.412 52.1701 59.7572V65.3506H50.7972V59.7572C50.7972 58.8368 50.7265 57.9871 50.2028 57.2366C49.5942 56.3445 48.6176 55.8772 47.5844 55.8772C46.6361 55.8772 45.6453 56.3587 45.0933 57.18C44.5555 57.9447 44.5697 58.8651 44.5555 59.7714V65.3648H43.1826V54.7444H44.4847L44.4706 54.7302Z" fill="white"/>
<path d="M63.493 67.7862C62.5022 68.919 60.9312 69.5138 59.4733 69.5138C57.2371 69.5138 55.0433 67.942 54.4913 65.6055H55.8359C56.6285 67.1773 57.8457 68.1261 59.5866 68.1261C60.8887 68.1261 62.2474 67.503 62.9127 66.2852C63.3514 65.4497 63.3514 64.77 63.3514 63.8354V63.2548C62.7003 64.855 60.9595 65.6055 59.3743 65.6055C58.0297 65.6055 56.6709 64.9966 55.7085 64.0478C54.6328 62.9858 54.1091 61.6264 54.1091 60.0687C54.1091 58.5111 54.7036 57.2083 55.0716 56.7835C56.4162 55.0134 57.8457 54.4895 59.2893 54.4895C60.9028 54.4895 62.5588 55.2542 63.3373 56.7835V54.7302H64.6535V63.8354C64.6535 65.4922 64.5969 66.4976 63.4646 67.7862H63.493ZM59.4026 64.2319C60.4782 64.2319 61.4265 63.8637 62.1908 63.0283C62.8843 62.2778 63.3373 61.1024 63.3373 60.0546C63.3373 57.6615 61.5398 55.8772 59.261 55.8772C57.138 55.8772 55.482 57.7606 55.482 59.9413C55.482 62.2919 57.0672 64.2319 59.3884 64.2319H59.4026Z" fill="white"/>
<path d="M81.1991 61.1025L84.6809 64.6427L83.6902 65.6197L80.5481 62.4195C79.6705 64.2603 78.425 65.6197 76.3303 65.6197C73.9667 65.6197 72.0701 63.6231 72.0701 61.1733C72.0701 59.1201 73.5562 57.7323 75.1555 56.8969C74.3205 56.0189 73.6977 55.2259 73.6977 53.909C73.6977 52.1673 75.2971 50.8079 76.9106 50.7795C78.7364 50.7937 80.2791 52.2381 80.2933 54.1781C80.2791 55.8348 78.9487 56.8827 77.6041 57.4066L80.2084 60.083L82.204 56.0472H83.7468L81.1991 61.1167V61.1025ZM73.443 61.2725C73.443 62.8301 74.7026 64.2462 76.2171 64.2178C77.9863 64.232 78.8213 62.816 79.529 61.3574L76.2171 57.9731L75.6226 58.2988C74.4337 58.9218 73.443 59.7573 73.443 61.2441V61.2725ZM75.0848 53.994C75.0848 54.9427 75.9765 55.7357 76.5851 56.3446C77.59 55.9764 78.9346 55.2826 78.9346 53.9798C78.9346 52.9461 77.9297 52.1531 76.9955 52.1531C75.9765 52.1531 75.0848 52.8895 75.0848 53.994Z" fill="white"/>
<path d="M3.39697 70.4343L8.42149 82.6548L13.4177 70.4343H15.5407V84.7931H14.1678V72.0345L9.00178 84.7931H7.82704L2.66098 72.0345V84.7931H1.28809V70.4343H3.41112H3.39697Z" fill="white"/>
<path d="M27.1748 84.7788V82.7822C26.3964 84.2832 24.8253 85.0337 23.226 85.0337C21.6266 85.0337 20.0414 84.3398 18.7393 82.7822C18.3713 82.3574 17.7344 81.0121 17.7344 79.3978C17.7344 77.9818 18.4279 76.5233 18.7959 76.1692C20.3386 74.4417 21.7681 73.9177 23.1835 73.9177C24.7829 73.9177 26.3964 74.6541 27.1607 76.1692V74.1443H28.4769V84.7647H27.1607L27.1748 84.7788ZM23.226 83.646C25.349 83.646 27.1748 81.7485 27.1748 79.5253C27.1748 77.1746 25.4622 75.2913 23.1977 75.2913C20.9331 75.2913 19.1214 77.1605 19.1214 79.5111C19.1214 81.8618 21.0605 83.646 23.226 83.646Z" fill="white"/>
<path d="M32.1427 74.1585V75.6878C32.9212 74.5408 33.9685 73.9177 35.299 73.9177C36.6294 73.9177 38.0023 74.5408 38.9081 75.6878C39.6866 76.7215 39.8423 77.8402 39.8423 79.1854V84.7788H38.4694V79.1854C38.4694 78.265 38.3986 77.4154 37.8749 76.6649C37.2663 75.7727 36.2897 75.3055 35.2565 75.3055C34.3082 75.3055 33.3175 75.7869 32.7655 76.6082C32.2276 77.3729 32.2418 78.2933 32.2276 79.1996V84.793H30.8547V74.1726H32.1569L32.1427 74.1585Z" fill="white"/>
<path d="M51.2217 84.7788V82.7822C50.4432 84.2832 48.8722 85.0337 47.2728 85.0337C45.6735 85.0337 44.0883 84.3398 42.7862 82.7822C42.4182 82.3574 41.7812 81.0121 41.7812 79.3978C41.7812 77.9818 42.4748 76.5233 42.8428 76.1692C44.3855 74.4417 45.815 73.9177 47.2304 73.9177C48.8297 73.9177 50.4432 74.6541 51.2075 76.1692V74.1443H52.5238V84.7647H51.2075L51.2217 84.7788ZM47.2728 83.646C49.3959 83.646 51.2217 81.7485 51.2217 79.5253C51.2217 77.1746 49.5091 75.2913 47.2445 75.2913C44.98 75.2913 43.1683 77.1605 43.1683 79.5111C43.1683 81.8618 45.1073 83.646 47.2728 83.646Z" fill="white"/>
<path d="M63.8609 87.2144C62.8701 88.3473 61.2991 88.942 59.8412 88.942C57.605 88.942 55.4112 87.3702 54.8592 85.0337H56.2038C56.9964 86.6055 58.2136 87.5543 59.9545 87.5543C61.2566 87.5543 62.6154 86.9312 63.2806 85.7134C63.7193 84.8779 63.7193 84.1982 63.7193 83.2636V82.6831C63.0683 84.269 61.3274 85.0337 59.7422 85.0337C58.3976 85.0337 57.0388 84.4248 56.0764 83.4761C55.0007 82.414 54.4771 81.0546 54.4771 79.497C54.4771 77.9393 55.0715 76.6365 55.4395 76.2117C56.7841 74.4417 58.2136 73.9177 59.6573 73.9177C61.2708 73.9177 62.9267 74.6824 63.7052 76.2117V74.1585H65.0215V83.2636C65.0215 84.9204 64.9648 85.9258 63.8326 87.2144H63.8609ZM59.7705 83.6601C60.8462 83.6601 61.7944 83.292 62.5587 82.4565C63.2523 81.706 63.7052 80.5307 63.7052 79.4828C63.7052 77.0897 61.9077 75.3055 59.6289 75.3055C57.5059 75.3055 55.8499 77.1888 55.8499 79.3695C55.8499 81.7201 57.4351 83.6601 59.7563 83.6601H59.7705Z" fill="white"/>
<path d="M72.2114 83.6601C73.7117 83.6601 75.2403 82.7822 75.8631 81.3237H77.2926C76.5849 83.4619 74.5043 85.0337 72.3388 85.0337C69.3666 85.0337 67.0029 82.5839 67.0029 79.4828C67.0029 76.3817 69.3524 73.9319 72.2964 73.9319C73.8957 73.9319 75.3677 74.6966 76.3867 75.9852C77.335 77.203 77.5332 78.4491 77.5757 79.9926H68.3758C68.4466 82.0175 70.329 83.6601 72.2114 83.6601ZM72.3247 75.3055C70.4139 75.3055 68.7155 76.7215 68.3758 78.6898H76.2028C75.8489 76.8065 74.1929 75.3055 72.3105 75.3055H72.3247Z" fill="white"/>
<path d="M80.7887 74.1585V75.532C81.2841 74.4275 82.3739 73.9177 83.5062 73.9177C84.8508 73.9177 85.9831 74.4983 86.804 75.532C86.903 75.6736 86.9738 75.8011 87.0587 75.9427C87.1153 75.8011 87.1861 75.6878 87.2569 75.532C87.9646 74.4983 89.2808 73.9177 90.4697 73.9177C91.5737 73.9177 92.6211 74.4841 93.626 75.532C94.4469 76.3816 94.5743 77.472 94.5743 78.7181V84.7788H93.2014V78.8597C93.2014 78.0809 93.1448 77.2313 92.6918 76.5657C92.1399 75.7444 91.3331 75.3055 90.3848 75.3055C89.5073 75.3055 88.6439 75.7727 88.1344 76.5091C87.6956 77.1746 87.7098 78.0809 87.7098 78.8597V84.7788H86.3369V78.704C86.3369 77.911 86.2944 77.2879 85.8557 76.5799C85.332 75.8011 84.4828 75.2913 83.5628 75.2913C82.7136 75.2913 81.8502 75.6736 81.3265 76.4241C80.8595 77.118 80.8453 77.8827 80.8453 78.6898V84.7647H79.4724V74.1443H80.7745L80.7887 74.1585Z" fill="white"/>
<path d="M101.736 83.6601C103.236 83.6601 104.765 82.7822 105.373 81.3237H106.803C106.095 83.4619 104.015 85.0337 101.863 85.0337C98.891 85.0337 96.5273 82.5839 96.5273 79.4828C96.5273 76.3817 98.8768 73.9319 101.821 73.9319C103.42 73.9319 104.892 74.6966 105.911 75.9852C106.859 77.203 107.058 78.4491 107.1 79.9926H97.9002C97.971 82.0175 99.8534 83.6601 101.736 83.6601ZM101.849 75.3055C99.9384 75.3055 98.2399 76.7215 97.9002 78.6898H105.727C105.373 76.8065 103.717 75.3055 101.835 75.3055H101.849Z" fill="white"/>
<path d="M110.313 74.1585V75.6878C111.091 74.5408 112.139 73.9177 113.469 73.9177C114.8 73.9177 116.158 74.5408 117.078 75.6878C117.857 76.7215 118.012 77.8402 118.012 79.1854V84.7788H116.64V79.1854C116.64 78.265 116.569 77.4154 116.045 76.6649C115.436 75.7727 114.46 75.3055 113.427 75.3055C112.478 75.3055 111.488 75.7869 110.936 76.6082C110.398 77.3729 110.412 78.2933 110.398 79.1996V84.793H109.025V74.1726H110.327L110.313 74.1585Z" fill="white"/>
<path d="M119.414 75.4613V74.1585H121.537V70.4343H122.909V74.1585H125.273V75.4613H122.909V84.7789H121.537V75.4613H119.414Z" fill="white"/>
<path d="M8.05346 104.462C4.09046 104.462 0.693604 101.163 0.693604 96.9711C0.693604 95.0736 1.52866 93.1478 2.81664 91.8167C4.24615 90.344 6.08611 89.6218 8.06761 89.6218C9.49712 89.6218 10.9125 90.0325 12.1014 90.8396C12.9931 91.4627 14.1536 92.5672 14.4933 93.6717H12.9364C11.974 91.9866 9.97835 90.9954 8.06761 90.9954C6.59564 90.9954 5.10952 91.5193 3.97723 92.6097C2.84495 93.7 2.08065 95.3427 2.08065 96.9853C2.08065 100.483 4.85475 103.088 8.12423 103.088C10.5728 103.088 12.9931 101.403 13.6866 98.8969H5.98704V97.5942H15.3284C15.0736 101.545 11.7617 104.476 8.05346 104.476V104.462Z" fill="white"/>
<path d="M18.5553 93.5867V95.116C19.0931 93.8557 20.2679 93.3884 21.5134 93.3459V94.762C20.7633 94.8186 20.2537 95.0027 19.6734 95.4983C18.7251 96.3338 18.6261 97.056 18.6261 98.2596V104.207H17.2532V93.5867H18.5553Z" fill="white"/>
<path d="M27.7268 104.462C24.8394 104.462 22.3909 102.012 22.3909 98.9677C22.3909 95.9232 24.7545 93.3601 27.7268 93.3601C30.699 93.3601 33.006 95.8807 33.006 98.8402C33.006 101.8 30.6566 104.476 27.7268 104.476V104.462ZM27.7268 103.088C29.9913 103.088 31.6332 101.148 31.6332 98.8402C31.6332 97.6791 31.2652 96.7161 30.4443 95.909C29.7224 95.1868 28.7317 94.7478 27.7268 94.7478C25.4763 94.7478 23.7638 96.6737 23.7638 98.9818C23.7638 101.29 25.5471 103.103 27.7268 103.103V103.088Z" fill="white"/>
<path d="M42.6305 104.207V102.55C41.9653 103.91 40.6773 104.448 39.2619 104.448C37.9598 104.448 36.8417 103.966 35.6952 102.55C35.0866 101.871 34.9734 100.582 34.9734 99.1942V93.5867H36.3463V99.1942C36.3463 100.016 36.3887 100.823 36.7992 101.545C37.3512 102.55 38.3419 103.074 39.4601 103.074C40.4508 103.074 41.3566 102.607 41.9511 101.771C42.4748 101.007 42.5597 100.101 42.5597 99.1942V93.5867H43.9326V104.207H42.6305Z" fill="white"/>
<path d="M47.5702 95.4134C48.3769 94.0398 50.1603 93.3601 51.6181 93.3601C53.0759 93.3601 54.4771 93.9548 55.7793 95.4134C56.3879 95.994 56.9823 97.3958 56.9823 98.9535C56.9823 102.125 54.4347 104.476 51.4766 104.476C49.9763 104.476 48.292 103.711 47.6268 102.239V107.945H46.2539V93.5867H47.556V95.4134H47.5702ZM51.6181 94.7337C49.3818 94.7337 47.5419 96.4613 47.5419 98.8119C47.5419 99.9731 47.825 100.95 48.6176 101.786C49.3818 102.621 50.4151 103.088 51.519 103.088C53.7836 103.088 55.6094 101.318 55.6094 98.9252C55.6094 96.5321 53.8261 94.7337 51.6181 94.7337Z" fill="white"/>
<path d="M65.7149 89.8484V102.904H71.4047V104.207H64.342V89.8484H65.7149Z" fill="white"/>
<path d="M71.7444 94.8895V93.5868H73.8674V89.8625H75.2403V93.5868H77.604V94.8895H75.2403V104.207H73.8674V94.8895H71.7444Z" fill="white"/>
<path d="M88.0918 104.207V102.267C87.0727 103.768 85.7423 104.462 83.9872 104.462C82.5153 104.462 81.1565 103.839 79.727 102.267C79.2316 101.814 78.6089 100.426 78.6089 98.8686C78.6089 95.6967 81.1141 93.346 84.0722 93.346C85.6008 93.346 87.1718 94.0399 88.021 95.4276V89.8484H89.3939V104.207H88.0918ZM79.9818 98.8403C79.9818 101.177 81.7793 103.074 84.0156 103.074C86.2518 103.074 88.0493 101.177 88.0493 98.8403C88.0493 96.5038 86.1952 94.7196 83.9731 94.7196C81.751 94.7196 79.9676 96.5463 79.9676 98.8403H79.9818Z" fill="white"/>
<path d="M0.594482 16.2421V0H62.941V16.2421H58.6666L58.6949 4.27647L4.91132 4.31895V16.2279L0.594482 16.2421Z" fill="white"/>
<path d="M0.594482 109.744V126H62.941V109.744H58.6666L58.6949 121.723L4.91132 121.667V109.772L0.594482 109.744Z" fill="white"/>
</g>
<defs>
<clipPath id="clip0_946_4218">
<rect width="127" height="126" fill="white"/>
</clipPath>
</defs>
</svg>
