<svg width="128" height="126" viewBox="0 0 128 126" fill="none" xmlns="http://www.w3.org/2000/svg">
<g clip-path="url(#clip0_810_2812)">
<path d="M8.60996 43.9258C11.3841 43.9258 13.6769 41.8159 13.6769 38.8705C13.6769 37.4828 13.0117 36.1092 11.9927 35.2313C10.8604 34.2684 9.61486 33.9144 8.21366 33.532C6.68507 33.1214 5.14233 32.6966 3.91097 31.592C2.55223 30.3742 1.8587 28.6467 1.8587 26.82C1.8587 22.6993 4.97249 19.938 8.80811 19.938C12.6437 19.938 15.5594 22.9541 15.5311 26.8624H12.9834C12.8136 24.2711 11.0302 22.4019 8.51088 22.4019C6.13308 22.4019 4.30727 24.441 4.30727 26.8624C4.30727 29.9353 6.75584 30.6716 9.14779 31.3655C10.9028 31.8894 12.4314 32.2009 13.8468 33.5462C15.3046 34.8631 16.1255 36.8739 16.1255 38.913C16.1255 43.1328 12.6437 46.3897 8.68073 46.3897C4.50542 46.3897 1.0661 43.2461 1.09441 38.7856H3.71282C3.78359 41.5893 5.86416 43.94 8.60996 43.94V43.9258Z" fill="white" stroke="white" stroke-width="0.25" stroke-miterlimit="10"/>
<path d="M35.0347 45.9366V42.3682C33.6476 45.0303 30.8594 46.3756 28.0145 46.3756C25.1696 46.3756 22.3531 45.1295 20.0319 42.3682C19.3667 41.6035 18.2485 39.2245 18.2485 36.35C18.2485 33.8294 19.4799 31.2239 20.131 30.6008C22.8768 27.528 25.4244 26.5934 27.9437 26.5934C30.7886 26.5934 33.6759 27.9103 35.0347 30.6008V27.004H37.3842V45.9224H35.0347V45.9366ZM28.0145 43.9258C31.7935 43.9258 35.0347 40.5415 35.0347 36.5907C35.0347 32.3992 31.9917 29.0431 27.9437 29.0431C23.8958 29.0431 20.6971 32.3709 20.6971 36.5482C20.6971 40.7255 24.1364 43.9117 28.0145 43.9117V43.9258Z" fill="white" stroke="white" stroke-width="0.25" stroke-miterlimit="10"/>
<path d="M42.3945 27.0182L48.6504 42.6939L54.9063 27.0182H57.553L49.9101 45.9366H47.3624L39.7478 27.0182H42.3945Z" fill="white" stroke="white" stroke-width="0.25" stroke-miterlimit="10"/>
<path d="M75.9951 45.9366V42.3682C74.6081 45.0303 71.8198 46.3756 68.975 46.3756C66.1301 46.3756 63.3135 45.1295 60.9923 42.3682C60.3271 41.6035 59.209 39.2245 59.209 36.35C59.209 33.8294 60.4403 31.2239 61.0914 30.6008C63.8372 27.528 66.3848 26.5934 68.9042 26.5934C71.7491 26.5934 74.6364 27.9103 75.9951 30.6008V27.004H78.3446V45.9224H75.9951V45.9366ZM68.975 43.9258C72.754 43.9258 75.9951 40.5415 75.9951 36.5907C75.9951 32.3992 72.9521 29.0431 68.9042 29.0431C64.8563 29.0431 61.6576 32.3709 61.6576 36.5482C61.6576 40.7255 65.0969 43.9117 68.975 43.9117V43.9258Z" fill="white" stroke="white" stroke-width="0.25" stroke-miterlimit="10"/>
<path d="M84.9686 20.3769V45.9366H82.52V20.3769H84.9686Z" fill="white" stroke="white" stroke-width="0.25" stroke-miterlimit="10"/>
<path d="M91.5924 20.3769V45.9366H89.1438V20.3769H91.5924Z" fill="white" stroke="white" stroke-width="0.25" stroke-miterlimit="10"/>
<path d="M104.571 46.3897C99.4477 46.3897 95.0742 42.0283 95.0742 36.6048C95.0742 31.1814 99.2778 26.6075 104.571 26.6075C109.865 26.6075 113.969 31.1106 113.969 36.3641C113.969 41.6177 109.794 46.3897 104.571 46.3897ZM104.571 43.94C108.605 43.94 111.521 40.4848 111.521 36.3641C111.521 34.2825 110.855 32.5974 109.398 31.1389C108.11 29.8645 106.355 29.0573 104.557 29.0573C100.552 29.0573 97.5086 32.4841 97.5086 36.6048C97.5086 40.7255 100.693 43.94 104.557 43.94H104.571Z" fill="white" stroke="white" stroke-width="0.25" stroke-miterlimit="10"/>
<path d="M121.697 43.9258C123.452 43.9258 124.881 42.6514 124.881 40.7822C124.881 38.5024 123.155 37.6669 121.371 37.1429C120.211 36.7606 118.994 36.3783 118.088 35.4862C117.125 34.5941 116.63 33.2347 116.63 31.8894C116.63 28.8166 119.008 26.5934 121.867 26.5934C124.726 26.5934 126.863 28.944 126.863 31.7195H124.414C124.414 30.0627 123.183 29.0573 121.598 29.0573C120.211 29.0573 119.079 30.2326 119.079 31.6912C119.079 33.7727 120.664 34.325 122.263 34.8348C124.981 35.7269 127.33 36.9447 127.33 40.3715C127.33 43.7984 124.853 46.3897 121.47 46.3897C118.385 46.3897 115.809 43.586 115.979 40.3715H118.427C118.357 42.3115 119.857 43.94 121.711 43.94L121.697 43.9258Z" fill="white" stroke="white" stroke-width="0.25" stroke-miterlimit="10"/>
<path d="M0.5 52.3088V51.0061H8.15708V52.3088H5.0433V65.3648H3.6704V52.3088H0.5Z" fill="white"/>
<path d="M10.2094 54.7303V56.2596C10.7472 54.9993 11.9219 54.532 13.1675 54.4895V55.9056C12.4173 55.9622 11.9078 56.1463 11.3275 56.6419C10.3792 57.4774 10.2801 58.1996 10.2801 59.4032V65.3506H8.90723V54.7303H10.2094Z" fill="white"/>
<path d="M23.542 65.3648V63.3682C22.7635 64.8692 21.1925 65.6197 19.5931 65.6197C17.9938 65.6197 16.4086 64.9258 15.1065 63.3682C14.7385 62.9434 14.1016 61.5981 14.1016 59.9838C14.1016 58.5678 14.7951 57.1092 15.1631 56.7552C16.7058 55.0276 18.1353 54.5037 19.5507 54.5037C21.15 54.5037 22.7635 55.2401 23.5278 56.7552V54.7303H24.8441V65.3506H23.5278L23.542 65.3648ZM19.5931 64.232C21.7162 64.232 23.542 62.3345 23.542 60.1113C23.542 57.7606 21.8294 55.8773 19.5648 55.8773C17.3003 55.8773 15.4886 57.7465 15.4886 60.0971C15.4886 62.4477 17.4277 64.232 19.5931 64.232Z" fill="white"/>
<path d="M36.2944 65.3648V63.4248C35.2754 64.9258 33.9449 65.6197 32.1899 65.6197C30.7179 65.6197 29.3592 64.9966 27.9297 63.4248C27.4343 62.9717 26.8115 61.5839 26.8115 60.0263C26.8115 56.8543 29.3167 54.5037 32.2748 54.5037C33.8034 54.5037 35.3744 55.1976 36.2236 56.5853V51.0061H37.5965V65.3648H36.2944ZM28.1844 59.998C28.1844 62.3344 29.9819 64.232 32.2182 64.232C34.4545 64.232 36.252 62.3344 36.252 59.998C36.252 57.6615 34.3978 55.8773 32.1757 55.8773C29.9536 55.8773 28.1703 57.704 28.1703 59.998H28.1844Z" fill="white"/>
<path d="M41.3189 51.0061V53.4558H39.946V51.0061H41.3189ZM41.3189 54.7303V65.3506H39.946V54.7303H41.3189Z" fill="white"/>
<path d="M44.9706 54.7303V56.2596C45.749 55.1126 46.7964 54.4895 48.1268 54.4895C49.4573 54.4895 50.8302 55.1126 51.736 56.2596C52.5144 57.2933 52.6701 58.412 52.6701 59.7572V65.3506H51.2972V59.7572C51.2972 58.8368 51.2265 57.9872 50.7028 57.2367C50.0942 56.3446 49.1176 55.8773 48.0844 55.8773C47.1361 55.8773 46.1453 56.3587 45.5933 57.18C45.0555 57.9447 45.0697 58.8651 45.0555 59.7714V65.3648H43.6826V54.7444H44.9847L44.9706 54.7303Z" fill="white"/>
<path d="M63.993 67.7862C63.0022 68.9191 61.4312 69.5138 59.9733 69.5138C57.7371 69.5138 55.5433 67.942 54.9913 65.6055H56.3359C57.1285 67.1773 58.3457 68.1261 60.0866 68.1261C61.3887 68.1261 62.7474 67.503 63.4127 66.2852C63.8514 65.4498 63.8514 64.77 63.8514 63.8355V63.2549C63.2003 64.855 61.4595 65.6055 59.8743 65.6055C58.5297 65.6055 57.1709 64.9966 56.2085 64.0479C55.1328 62.9858 54.6091 61.6264 54.6091 60.0688C54.6091 58.5111 55.2036 57.2083 55.5716 56.7835C56.9162 55.0135 58.3457 54.4895 59.7893 54.4895C61.4028 54.4895 63.0588 55.2542 63.8373 56.7835V54.7303H65.1535V63.8355C65.1535 65.4922 65.0969 66.4976 63.9646 67.7862H63.993ZM59.9026 64.2319C60.9782 64.2319 61.9265 63.8638 62.6908 63.0283C63.3843 62.2778 63.8373 61.1025 63.8373 60.0546C63.8373 57.6615 62.0398 55.8773 59.761 55.8773C57.638 55.8773 55.982 57.7606 55.982 59.9413C55.982 62.292 57.5672 64.2319 59.8884 64.2319H59.9026Z" fill="white"/>
<path d="M81.6991 61.1025L85.1809 64.6426L84.1902 65.6197L81.0481 62.4194C80.1705 64.2603 78.925 65.6197 76.8303 65.6197C74.4667 65.6197 72.5701 63.6231 72.5701 61.1733C72.5701 59.12 74.0562 57.7323 75.6555 56.8968C74.8205 56.0189 74.1977 55.2259 74.1977 53.909C74.1977 52.1672 75.7971 50.8078 77.4106 50.7795C79.2364 50.7937 80.7791 52.238 80.7933 54.178C80.7791 55.8348 79.4487 56.8827 78.1041 57.4066L80.7084 60.0829L82.704 56.0472H84.2468L81.6991 61.1166V61.1025ZM73.943 61.2724C73.943 62.8301 75.2026 64.2461 76.7171 64.2178C78.4863 64.232 79.3213 62.8159 80.029 61.3574L76.7171 57.973L76.1226 58.2987C74.9337 58.9218 73.943 59.7572 73.943 61.2441V61.2724ZM75.5848 53.9939C75.5848 54.9427 76.4765 55.7357 77.0851 56.3446C78.09 55.9764 79.4346 55.2825 79.4346 53.9798C79.4346 52.946 78.4297 52.1531 77.4955 52.1531C76.4765 52.1531 75.5848 52.8894 75.5848 53.9939Z" fill="white"/>
<path d="M3.89697 70.4342L8.92149 82.6547L13.9177 70.4342H16.0407V84.793H14.6678V72.0344L9.50178 84.793H8.32704L3.16098 72.0344V84.793H1.78809V70.4342H3.91112H3.89697Z" fill="white"/>
<path d="M27.6748 84.7788V82.7822C26.8964 84.2832 25.3253 85.0337 23.726 85.0337C22.1266 85.0337 20.5414 84.3399 19.2393 82.7822C18.8713 82.3574 18.2344 81.0121 18.2344 79.3978C18.2344 77.9818 18.9279 76.5233 19.2959 76.1693C20.8386 74.4417 22.2681 73.9177 23.6835 73.9177C25.2829 73.9177 26.8964 74.6541 27.6607 76.1693V74.1443H28.9769V84.7647H27.6607L27.6748 84.7788ZM23.726 83.646C25.849 83.646 27.6748 81.7485 27.6748 79.5253C27.6748 77.1747 25.9622 75.2913 23.6977 75.2913C21.4331 75.2913 19.6214 77.1605 19.6214 79.5111C19.6214 81.8618 21.5605 83.646 23.726 83.646Z" fill="white"/>
<path d="M32.6427 74.1585V75.6878C33.4212 74.5408 34.4685 73.9177 35.799 73.9177C37.1294 73.9177 38.5023 74.5408 39.4081 75.6878C40.1866 76.7215 40.3423 77.8402 40.3423 79.1854V84.7788H38.9694V79.1854C38.9694 78.265 38.8986 77.4154 38.3749 76.6649C37.7663 75.7728 36.7897 75.3055 35.7565 75.3055C34.8082 75.3055 33.8175 75.7869 33.2655 76.6082C32.7276 77.3729 32.7418 78.2933 32.7276 79.1996V84.793H31.3547V74.1726H32.6569L32.6427 74.1585Z" fill="white"/>
<path d="M51.7217 84.7788V82.7822C50.9432 84.2832 49.3722 85.0337 47.7728 85.0337C46.1735 85.0337 44.5883 84.3399 43.2862 82.7822C42.9182 82.3574 42.2812 81.0121 42.2812 79.3978C42.2812 77.9818 42.9748 76.5233 43.3428 76.1693C44.8855 74.4417 46.315 73.9177 47.7304 73.9177C49.3297 73.9177 50.9432 74.6541 51.7075 76.1693V74.1443H53.0238V84.7647H51.7075L51.7217 84.7788ZM47.7728 83.646C49.8959 83.646 51.7217 81.7485 51.7217 79.5253C51.7217 77.1747 50.0091 75.2913 47.7445 75.2913C45.48 75.2913 43.6683 77.1605 43.6683 79.5111C43.6683 81.8618 45.6073 83.646 47.7728 83.646Z" fill="white"/>
<path d="M64.3609 87.2144C63.3701 88.3473 61.7991 88.942 60.3412 88.942C58.105 88.942 55.9112 87.3702 55.3592 85.0337H56.7038C57.4964 86.6055 58.7136 87.5543 60.4545 87.5543C61.7566 87.5543 63.1154 86.9312 63.7806 85.7134C64.2193 84.878 64.2193 84.1982 64.2193 83.2637V82.6831C63.5683 84.2691 61.8274 85.0337 60.2422 85.0337C58.8976 85.0337 57.5388 84.4248 56.5764 83.4761C55.5007 82.414 54.9771 81.0546 54.9771 79.497C54.9771 77.9393 55.5715 76.6366 55.9395 76.2117C57.2841 74.4417 58.7136 73.9177 60.1573 73.9177C61.7708 73.9177 63.4267 74.6824 64.2052 76.2117V74.1585H65.5215V83.2637C65.5215 84.9204 65.4648 85.9258 64.3326 87.2144H64.3609ZM60.2705 83.6602C61.3462 83.6602 62.2944 83.292 63.0587 82.4565C63.7523 81.706 64.2052 80.5307 64.2052 79.4828C64.2052 77.0897 62.4077 75.3055 60.1289 75.3055C58.0059 75.3055 56.3499 77.1888 56.3499 79.3695C56.3499 81.7202 57.9351 83.6602 60.2563 83.6602H60.2705Z" fill="white"/>
<path d="M72.7114 83.6601C74.2117 83.6601 75.7403 82.7822 76.3631 81.3237H77.7926C77.0849 83.4619 75.0043 85.0337 72.8388 85.0337C69.8666 85.0337 67.5029 82.5839 67.5029 79.4828C67.5029 76.3817 69.8524 73.9319 72.7964 73.9319C74.3957 73.9319 75.8677 74.6966 76.8867 75.9852C77.835 77.203 78.0332 78.4491 78.0757 79.9926H68.8758C68.9466 82.0175 70.829 83.6601 72.7114 83.6601ZM72.8247 75.3055C70.9139 75.3055 69.2155 76.7215 68.8758 78.6898H76.7028C76.3489 76.8065 74.6929 75.3055 72.8105 75.3055H72.8247Z" fill="white"/>
<path d="M81.2887 74.1585V75.532C81.7841 74.4275 82.8739 73.9177 84.0062 73.9177C85.3508 73.9177 86.4831 74.4983 87.304 75.532C87.403 75.6736 87.4738 75.8011 87.5587 75.9427C87.6153 75.8011 87.6861 75.6878 87.7569 75.532C88.4646 74.4983 89.7808 73.9177 90.9697 73.9177C92.0737 73.9177 93.1211 74.4842 94.126 75.532C94.9469 76.3817 95.0743 77.472 95.0743 78.7181V84.7788H93.7014V78.8597C93.7014 78.0809 93.6448 77.2313 93.1918 76.5657C92.6399 75.7444 91.8331 75.3055 90.8848 75.3055C90.0073 75.3055 89.1439 75.7728 88.6344 76.5091C88.1956 77.1746 88.2098 78.0809 88.2098 78.8597V84.7788H86.8369V78.704C86.8369 77.911 86.7944 77.2879 86.3557 76.5799C85.832 75.8011 84.9828 75.2913 84.0628 75.2913C83.2136 75.2913 82.3502 75.6736 81.8265 76.4241C81.3595 77.118 81.3453 77.8827 81.3453 78.6898V84.7647H79.9724V74.1443H81.2745L81.2887 74.1585Z" fill="white"/>
<path d="M102.236 83.6601C103.736 83.6601 105.265 82.7822 105.873 81.3237H107.303C106.595 83.4619 104.515 85.0337 102.363 85.0337C99.391 85.0337 97.0273 82.5839 97.0273 79.4828C97.0273 76.3817 99.3768 73.9319 102.321 73.9319C103.92 73.9319 105.392 74.6966 106.411 75.9852C107.359 77.203 107.558 78.4491 107.6 79.9926H98.4002C98.471 82.0175 100.353 83.6601 102.236 83.6601ZM102.349 75.3055C100.438 75.3055 98.7399 76.7215 98.4002 78.6898H106.227C105.873 76.8065 104.217 75.3055 102.335 75.3055H102.349Z" fill="white"/>
<path d="M110.813 74.1585V75.6878C111.591 74.5408 112.639 73.9177 113.969 73.9177C115.3 73.9177 116.658 74.5408 117.578 75.6878C118.357 76.7215 118.512 77.8402 118.512 79.1854V84.7788H117.14V79.1854C117.14 78.265 117.069 77.4154 116.545 76.6649C115.936 75.7728 114.96 75.3055 113.927 75.3055C112.978 75.3055 111.988 75.7869 111.436 76.6082C110.898 77.3729 110.912 78.2933 110.898 79.1996V84.793H109.525V74.1726H110.827L110.813 74.1585Z" fill="white"/>
<path d="M119.914 75.4612V74.1585H122.037V70.4342H123.409V74.1585H125.773V75.4612H123.409V84.7788H122.037V75.4612H119.914Z" fill="white"/>
<path d="M8.55322 104.462C4.59022 104.462 1.19336 101.163 1.19336 96.971C1.19336 95.0735 2.02842 93.1477 3.3164 91.8166C4.74591 90.3439 6.58587 89.6217 8.56737 89.6217C9.99688 89.6217 11.4122 90.0324 12.6011 90.8395C13.4928 91.4626 14.6534 92.5671 14.9931 93.6716H13.4362C12.4738 91.9865 10.4781 90.9953 8.56737 90.9953C7.0954 90.9953 5.60927 91.5192 4.47699 92.6096C3.3447 93.6999 2.58041 95.3425 2.58041 96.9852C2.58041 100.483 5.35451 103.088 8.62398 103.088C11.0726 103.088 13.4928 101.403 14.1863 98.8968H6.48679V97.5941H15.8282C15.5734 101.545 12.2615 104.476 8.55322 104.476V104.462Z" fill="white"/>
<path d="M19.0555 93.5866V95.116C19.5934 93.8557 20.7681 93.3884 22.0136 93.3459V94.7619C21.2635 94.8186 20.754 95.0027 20.1737 95.4983C19.2254 96.3338 19.1263 97.0559 19.1263 98.2596V104.207H17.7534V93.5866H19.0555Z" fill="white"/>
<path d="M28.227 104.462C25.3397 104.462 22.8911 102.012 22.8911 98.9676C22.8911 95.9231 25.2548 93.3601 28.227 93.3601C31.1993 93.3601 33.5063 95.8806 33.5063 98.8402C33.5063 101.8 31.1568 104.476 28.227 104.476V104.462ZM28.227 103.088C30.4916 103.088 32.1334 101.148 32.1334 98.8402C32.1334 97.679 31.7654 96.7161 30.9445 95.909C30.2227 95.1868 29.2319 94.7478 28.227 94.7478C25.9766 94.7478 24.264 96.6736 24.264 98.9818C24.264 101.29 26.0474 103.102 28.227 103.102V103.088Z" fill="white"/>
<path d="M43.1305 104.207V102.55C42.4653 103.91 41.1773 104.448 39.7619 104.448C38.4598 104.448 37.3417 103.966 36.1952 102.55C35.5866 101.871 35.4734 100.582 35.4734 99.1942V93.5866H36.8463V99.1942C36.8463 100.016 36.8887 100.823 37.2992 101.545C37.8512 102.55 38.8419 103.074 39.9601 103.074C40.9508 103.074 41.8566 102.607 42.4511 101.771C42.9748 101.007 43.0597 100.1 43.0597 99.1942V93.5866H44.4326V104.207H43.1305Z" fill="white"/>
<path d="M48.0702 95.4133C48.8769 94.0398 50.6603 93.3601 52.1181 93.3601C53.5759 93.3601 54.9771 93.9548 56.2793 95.4133C56.8879 95.9939 57.4823 97.3958 57.4823 98.9535C57.4823 102.125 54.9347 104.476 51.9766 104.476C50.4763 104.476 48.792 103.711 48.1268 102.239V107.945H46.7539V93.5866H48.056V95.4133H48.0702ZM52.1181 94.7336C49.8818 94.7336 48.0419 96.4612 48.0419 98.8119C48.0419 99.973 48.325 100.95 49.1176 101.786C49.8818 102.621 50.9151 103.088 52.019 103.088C54.2836 103.088 56.1094 101.318 56.1094 98.9251C56.1094 96.532 54.3261 94.7336 52.1181 94.7336Z" fill="white"/>
<path d="M66.2149 89.8483V102.904H71.9047V104.207H64.842V89.8483H66.2149Z" fill="white"/>
<path d="M72.2444 94.8894V93.5866H74.3674V89.8624H75.7403V93.5866H78.104V94.8894H75.7403V104.207H74.3674V94.8894H72.2444Z" fill="white"/>
<path d="M88.5918 104.207V102.267C87.5727 103.768 86.2423 104.462 84.4872 104.462C83.0153 104.462 81.6565 103.839 80.227 102.267C79.7316 101.814 79.1089 100.426 79.1089 98.8685C79.1089 95.6965 81.6141 93.3459 84.5722 93.3459C86.1008 93.3459 87.6718 94.0398 88.521 95.4275V89.8483H89.8939V104.207H88.5918ZM80.4818 98.8402C80.4818 101.177 82.2793 103.074 84.5156 103.074C86.7518 103.074 88.5493 101.177 88.5493 98.8402C88.5493 96.5037 86.6952 94.7195 84.4731 94.7195C82.251 94.7195 80.4676 96.5462 80.4676 98.8402H80.4818Z" fill="white"/>
<path d="M1.09424 16.2421V0H63.4407V16.2421H59.1663L59.1947 4.27647L5.41108 4.31895V16.2279L1.09424 16.2421Z" fill="white"/>
<path d="M1.09424 109.744V126H63.4407V109.744H59.1663L59.1947 121.724L5.41108 121.667V109.772L1.09424 109.744Z" fill="white"/>
</g>
<defs>
<clipPath id="clip0_810_2812">
<rect width="127" height="126" fill="white" transform="translate(0.5)"/>
</clipPath>
</defs>
</svg>
