<svg width="128" height="127" viewBox="0 0 128 127" fill="none" xmlns="http://www.w3.org/2000/svg">
<g clip-path="url(#clip0_1335_531)">
<path d="M9.25873 43.5352C12.0875 43.5352 14.4256 41.4393 14.4256 38.5135C14.4256 37.1351 13.7473 35.7706 12.7081 34.8985C11.5535 33.942 10.2834 33.5903 8.85462 33.2106C7.2959 32.8026 5.72275 32.3806 4.46711 31.2835C3.08158 30.0738 2.37439 28.3577 2.37439 26.5431C2.37439 22.4498 5.54955 19.7069 9.46079 19.7069C13.372 19.7069 16.3451 22.703 16.3163 26.5853H13.7184C13.5452 24.0112 11.7267 22.1544 9.1577 22.1544C6.73303 22.1544 4.87122 24.18 4.87122 26.5853C4.87122 29.6377 7.36806 30.3692 9.80717 31.0584C11.5968 31.5789 13.1555 31.8883 14.5988 33.2246C16.0853 34.5328 16.9224 36.5302 16.9224 38.5557C16.9224 42.7475 13.372 45.9828 9.33089 45.9828C5.07328 45.9828 1.56616 42.86 1.59503 38.4291H4.26505C4.33722 41.2143 6.45881 43.5493 9.25873 43.5493V43.5352Z" fill="#778894" stroke="#778894" stroke-width="0.25" stroke-miterlimit="10"/>
<path d="M34.3441 45.5455V41.9906C32.995 44.6426 30.283 45.9828 27.516 45.9828C24.7489 45.9828 22.0094 44.7414 19.7518 41.9906C19.1048 41.2288 18.0172 38.8589 18.0172 35.9953C18.0172 33.4843 19.2149 30.8887 19.8481 30.268C22.5188 27.2069 24.9967 26.2759 27.4471 26.2759C30.2142 26.2759 33.0225 27.5878 34.3441 30.268V26.685H36.6293V45.5313H34.3441V45.5455ZM27.516 43.5423C31.1916 43.5423 34.3441 40.1708 34.3441 36.2351C34.3441 32.0596 31.3843 28.7163 27.4471 28.7163C23.51 28.7163 20.3988 32.0313 20.3988 36.1928C20.3988 40.3542 23.744 43.5282 27.516 43.5282V43.5423Z" fill="#778894" stroke="#778894" stroke-width="0.25" stroke-miterlimit="10"/>
<path d="M42.5177 26.2759L48.6724 41.6977L54.8271 26.2759H57.4311L49.9117 44.8879H47.4053L39.9138 26.2759H42.5177Z" fill="#778894" stroke="#778894" stroke-width="0.25" stroke-miterlimit="10"/>
<path d="M74.8527 45.5455V41.9906C73.5036 44.6426 70.7917 45.9828 68.0246 45.9828C65.2576 45.9828 62.5181 44.7414 60.2604 41.9906C59.6134 41.2288 58.5259 38.8589 58.5259 35.9953C58.5259 33.4843 59.7236 30.8887 60.3568 30.268C63.0275 27.2069 65.5054 26.2759 67.9558 26.2759C70.7228 26.2759 73.5312 27.5878 74.8527 30.268V26.685H77.1379V45.5313H74.8527V45.5455ZM68.0246 43.5423C71.7003 43.5423 74.8527 40.1708 74.8527 36.2351C74.8527 32.0596 71.893 28.7163 67.9558 28.7163C64.0186 28.7163 60.9075 32.0313 60.9075 36.1928C60.9075 40.3542 64.2527 43.5282 68.0246 43.5282V43.5423Z" fill="#778894" stroke="#778894" stroke-width="0.25" stroke-miterlimit="10"/>
<path d="M85.8966 19.7069V44.8879H83.7069V19.7069H85.8966Z" fill="#778894" stroke="#778894" stroke-width="0.25" stroke-miterlimit="10"/>
<path d="M92.4655 19.7069V44.8879H90.2759V19.7069H92.4655Z" fill="#778894" stroke="#778894" stroke-width="0.25" stroke-miterlimit="10"/>
<path d="M105.105 45.9828C100.058 45.9828 95.75 41.6379 95.75 36.2351C95.75 30.8323 99.8907 26.2759 105.105 26.2759C110.319 26.2759 114.362 30.7618 114.362 35.9953C114.362 41.2288 110.249 45.9828 105.105 45.9828ZM105.105 43.5423C109.078 43.5423 111.95 40.1003 111.95 35.9953C111.95 33.9216 111.295 32.2429 109.859 30.79C108.59 29.5204 106.861 28.7163 105.091 28.7163C101.145 28.7163 98.148 32.1301 98.148 36.2351C98.148 40.3401 101.285 43.5423 105.091 43.5423H105.105Z" fill="#778894" stroke="#778894" stroke-width="0.25" stroke-miterlimit="10"/>
<path d="M122.071 43.53C123.762 43.53 125.14 42.2613 125.14 40.4005C125.14 38.131 123.476 37.2993 121.757 36.7778C120.638 36.3971 119.465 36.0165 118.592 35.1285C117.664 34.2404 117.187 32.8871 117.187 31.548C117.187 28.489 119.479 26.2759 122.234 26.2759C124.99 26.2759 127.05 28.6159 127.05 31.3788H124.69C124.69 29.7295 123.503 28.7287 121.975 28.7287C120.638 28.7287 119.547 29.8987 119.547 31.3506C119.547 33.4228 121.075 33.9725 122.616 34.48C125.236 35.3681 127.5 36.5804 127.5 39.9918C127.5 43.4031 125.113 45.9828 121.852 45.9828C118.879 45.9828 116.396 43.1917 116.559 39.9918H118.919C118.851 41.923 120.297 43.5441 122.084 43.5441L122.071 43.53Z" fill="#778894" stroke="#778894" stroke-width="0.25" stroke-miterlimit="10"/>
<path d="M0.5 51.6534V50.3621H8.16379V51.6534H5.04728V64.5948H3.67318V51.6534H0.5Z" fill="#A7B4C8"/>
<path d="M10.5972 53.8892V55.4308C11.1501 54.1604 12.3576 53.6894 13.638 53.6465V55.074C12.8669 55.1311 12.3431 55.3166 11.7466 55.8162C10.7718 56.6584 10.6699 57.3864 10.6699 58.5997V64.5948H9.25867V53.8892H10.5972Z" fill="#A7B4C8"/>
<path d="M23.2592 64.3438V62.3773C22.4658 63.8556 20.8647 64.5948 19.2347 64.5948C17.6047 64.5948 15.9891 63.9114 14.6621 62.3773C14.287 61.9589 13.6379 60.6339 13.6379 59.044C13.6379 57.6493 14.3447 56.2128 14.7198 55.8641C16.2921 54.1626 17.749 53.6465 19.1914 53.6465C20.8214 53.6465 22.4658 54.3718 23.2447 55.8641V53.8697H24.5862V64.3298H23.2447L23.2592 64.3438ZM19.2347 63.228C21.3984 63.228 23.2592 61.3592 23.2592 59.1695C23.2592 56.8543 21.5138 54.9994 19.2058 54.9994C16.8979 54.9994 15.0516 56.8404 15.0516 59.1555C15.0516 61.4707 17.0277 63.228 19.2347 63.228Z" fill="#A7B4C8"/>
<path d="M36.4023 64.3466V62.4571C35.3678 63.919 34.0173 64.5948 32.2356 64.5948C30.7414 64.5948 29.3621 63.988 27.9109 62.4571C27.4081 62.0158 26.7759 60.6643 26.7759 59.1472C26.7759 56.0579 29.319 53.7685 32.3219 53.7685C33.8736 53.7685 35.4684 54.4443 36.3305 55.7959V50.3621H37.7242V64.3466H36.4023ZM28.1696 59.1196C28.1696 61.3952 29.9943 63.2433 32.2644 63.2433C34.5345 63.2433 36.3592 61.3952 36.3592 59.1196C36.3592 56.844 34.477 55.1063 32.2213 55.1063C29.9655 55.1063 28.1552 56.8854 28.1552 59.1196H28.1696Z" fill="#A7B4C8"/>
<path d="M41.0086 50.3621V52.7927H39.9138V50.3621H41.0086ZM41.0086 54.0572V64.5948H39.9138V54.0572H41.0086Z" fill="#A7B4C8"/>
<path d="M44.4534 53.8889V55.4285C45.212 54.2738 46.2327 53.6465 47.5293 53.6465C48.8258 53.6465 50.1638 54.2738 51.0465 55.4285C51.8051 56.4691 51.9569 57.5953 51.9569 58.9496V64.5806H50.6189V58.9496C50.6189 58.023 50.55 57.1677 50.0396 56.4121C49.4465 55.514 48.4948 55.0436 47.4879 55.0436C46.5638 55.0436 45.5982 55.5283 45.0603 56.3551C44.5362 57.1249 44.55 58.0515 44.5362 58.9639V64.5948H43.1982V53.9031H44.4672L44.4534 53.8889Z" fill="#A7B4C8"/>
<path d="M63.8898 67.2117C62.8611 68.3674 61.2299 68.9741 59.7163 68.9741C57.3944 68.9741 55.1165 67.3706 54.5434 64.9869H55.9395C56.7624 66.5905 58.0263 67.5584 59.8338 67.5584C61.1858 67.5584 62.5966 66.9228 63.2873 65.6804C63.7429 64.828 63.7429 64.1346 63.7429 63.1811V62.5888C63.0669 64.2213 61.2593 64.9869 59.6134 64.9869C58.2173 64.9869 56.8065 64.3657 55.8072 63.3978C54.6903 62.3144 54.1466 60.9275 54.1466 59.3384C54.1466 57.7493 54.7638 56.4202 55.1459 55.9869C56.542 54.1811 58.0263 53.6465 59.5252 53.6465C61.2005 53.6465 62.9199 54.4266 63.7282 55.9869V53.8921H65.0949V63.1811C65.0949 64.8714 65.0361 65.8971 63.8604 67.2117H63.8898ZM59.6428 63.5856C60.7597 63.5856 61.7443 63.21 62.5378 62.3577C63.2579 61.592 63.7282 60.393 63.7282 59.324C63.7282 56.8825 61.8618 55.0623 59.4958 55.0623C57.2915 55.0623 55.5721 56.9837 55.5721 59.2084C55.5721 61.6065 57.218 63.5856 59.6281 63.5856H59.6428Z" fill="#A7B4C8"/>
<path d="M82.5715 60.2625L85.8965 63.6577L84.9503 64.5948L81.9497 61.5255C81.1117 63.2911 79.9223 64.5948 77.9218 64.5948C75.6646 64.5948 73.8534 62.6799 73.8534 60.3304C73.8534 58.3612 75.2726 57.0303 76.8 56.229C76.0025 55.387 75.4078 54.6265 75.4078 53.3634C75.4078 51.693 76.9351 50.3892 78.476 50.3621C80.2196 50.3756 81.6929 51.7609 81.7064 53.6215C81.6929 55.2104 80.4224 56.2154 79.1383 56.7179L81.6253 59.2847L83.5311 55.4141H85.0044L82.5715 60.2761V60.2625ZM75.1645 60.4255C75.1645 61.9194 76.3674 63.2775 77.8137 63.2503C79.5032 63.2639 80.3007 61.9058 80.9765 60.507L77.8137 57.2611L77.246 57.5735C76.1106 58.1711 75.1645 58.9723 75.1645 60.3983V60.4255ZM76.7324 53.4449C76.7324 54.3548 77.5839 55.1154 78.1651 55.6993C79.1248 55.3462 80.4088 54.6808 80.4088 53.4313C80.4088 52.4399 79.4492 51.6794 78.5571 51.6794C77.5839 51.6794 76.7324 52.3856 76.7324 53.4449Z" fill="#A7B4C8"/>
<path d="M3.70079 70.069L8.71829 82.1822L13.7075 70.069H15.8276V84.3017H14.4566V71.655L9.29778 84.3017H8.12467L2.96583 71.655V84.3017H1.59485V70.069H3.71492H3.70079Z" fill="#A7B4C8"/>
<path d="M27.6384 84.0507V82.0842C26.8451 83.5625 25.2439 84.3017 23.614 84.3017C21.984 84.3017 20.3684 83.6183 19.0414 82.0842C18.6663 81.6658 18.0172 80.3408 18.0172 78.7509C18.0172 77.3562 18.724 75.9197 19.0991 75.571C20.6713 73.8695 22.1282 73.3534 23.5707 73.3534C25.2007 73.3534 26.8451 74.0787 27.624 75.571V73.5766H28.9655V84.0367H27.624L27.6384 84.0507ZM23.614 82.9349C25.7776 82.9349 27.6384 81.066 27.6384 78.8764C27.6384 76.5612 25.893 74.7063 23.5851 74.7063C21.2772 74.7063 19.4308 76.5473 19.4308 78.8624C19.4308 81.1776 21.407 82.9349 23.614 82.9349Z" fill="#A7B4C8"/>
<path d="M32.4103 73.5958V75.1354C33.1689 73.9807 34.1896 73.3534 35.4862 73.3534C36.7827 73.3534 38.1207 73.9807 39.0034 75.1354C39.762 76.176 39.9138 77.3022 39.9138 78.6565V84.2875H38.5758V78.6565C38.5758 77.7299 38.5069 76.8746 37.9965 76.119C37.4034 75.2209 36.4517 74.7505 35.4448 74.7505C34.5207 74.7505 33.5552 75.2352 33.0172 76.062C32.4931 76.8318 32.5069 77.7584 32.4931 78.6708V84.3017H31.1552V73.61H32.4241L32.4103 73.5958Z" fill="#A7B4C8"/>
<path d="M51.7246 84.0507V82.0842C50.9312 83.5625 49.3301 84.3017 47.7001 84.3017C46.0702 84.3017 44.4546 83.6183 43.1275 82.0842C42.7525 81.6658 42.1034 80.3408 42.1034 78.7509C42.1034 77.3562 42.8102 75.9197 43.1852 75.571C44.7575 73.8695 46.2144 73.3534 47.6569 73.3534C49.2868 73.3534 50.9313 74.0787 51.7102 75.571V73.5766H53.0517V84.0367H51.7102L51.7246 84.0507ZM47.7001 82.9349C49.8638 82.9349 51.7246 81.066 51.7246 78.8764C51.7246 76.5612 49.9792 74.7063 47.6713 74.7063C45.3634 74.7063 43.517 76.5473 43.517 78.8624C43.517 81.1776 45.4932 82.9349 47.7001 82.9349Z" fill="#A7B4C8"/>
<path d="M64.9846 86.9186C63.9559 88.0743 62.3246 88.681 60.811 88.681C58.4891 88.681 56.2112 87.0775 55.6381 84.6938H57.0342C57.8572 86.2974 59.121 87.2653 60.9286 87.2653C62.2806 87.2653 63.6913 86.6296 64.382 85.3873C64.8376 84.5349 64.8376 83.8415 64.8376 82.888V82.2957C64.1616 83.9137 62.354 84.6938 60.7081 84.6938C59.312 84.6938 57.9012 84.0726 56.9019 83.1047C55.7851 82.0213 55.2413 80.6344 55.2413 79.0453C55.2413 77.4562 55.8585 76.1271 56.2406 75.6937C57.6367 73.888 59.121 73.3534 60.62 73.3534C62.2953 73.3534 64.0146 74.1335 64.8229 75.6937V73.599H66.1896V82.888C66.1896 84.5783 66.1308 85.6039 64.9552 86.9186H64.9846ZM60.7375 83.2925C61.8544 83.2925 62.839 82.9169 63.6326 82.0646C64.3527 81.2989 64.8229 80.0999 64.8229 79.0309C64.8229 76.5894 62.9566 74.7692 60.5906 74.7692C58.3862 74.7692 56.6668 76.6905 56.6668 78.9153C56.6668 81.3134 58.3127 83.2925 60.7228 83.2925H60.7375Z" fill="#A7B4C8"/>
<path d="M73.7728 82.9471C75.3264 82.9471 76.9093 82.0813 77.5541 80.643H79.0344C78.3016 82.7516 76.1471 84.3017 73.9047 84.3017C70.8269 84.3017 68.3793 81.8858 68.3793 78.8276C68.3793 75.7693 70.8122 73.3534 73.8607 73.3534C75.5169 73.3534 77.0412 74.1075 78.0964 75.3783C79.0784 76.5793 79.2836 77.8082 79.3275 79.3303H69.8009C69.8742 81.3273 71.8235 82.9471 73.7728 82.9471ZM73.89 74.708C71.9114 74.708 70.1527 76.1045 69.8009 78.0456H77.9059C77.5395 76.1883 75.8247 74.708 73.8754 74.708H73.89Z" fill="#A7B4C8"/>
<path d="M81.7583 73.5961V74.9807C82.2611 73.8673 83.3672 73.3534 84.5164 73.3534C85.8811 73.3534 87.0303 73.9387 87.8635 74.9807C87.9641 75.1234 88.0359 75.2519 88.1221 75.3946C88.1795 75.2519 88.2514 75.1377 88.3232 74.9807C89.0414 73.9387 90.3774 73.3534 91.5841 73.3534C92.7045 73.3534 93.7676 73.9244 94.7875 74.9807C95.6207 75.8371 95.75 76.9363 95.75 78.1924V84.3017H94.3565V78.3351C94.3565 77.55 94.2991 76.6936 93.8394 76.0227C93.2791 75.1948 92.4603 74.7523 91.4979 74.7523C90.6072 74.7523 89.731 75.2234 89.2138 75.9656C88.7685 76.6365 88.7829 77.55 88.7829 78.3351V84.3017H87.3894V78.1781C87.3894 77.3788 87.3464 76.7507 86.901 76.037C86.3695 75.2519 85.5076 74.738 84.5739 74.738C83.712 74.738 82.8357 75.1234 82.3042 75.88C81.8301 76.5794 81.8158 77.3502 81.8158 78.1638V84.2874H80.4224V73.5818H81.744L81.7583 73.5961Z" fill="#A7B4C8"/>
<path d="M103.333 82.9471C104.887 82.9471 106.47 82.0813 107.1 80.643H108.58C107.847 82.7516 105.693 84.3017 103.465 84.3017C100.387 84.3017 97.9397 81.8858 97.9397 78.8276C97.9397 75.7693 100.373 73.3534 103.421 73.3534C105.077 73.3534 106.602 74.1075 107.657 75.3783C108.639 76.5793 108.844 77.8082 108.888 79.3303H99.3614C99.4346 81.3273 101.384 82.9471 103.333 82.9471ZM103.45 74.708C101.472 74.708 99.7131 76.1045 99.3614 78.0456H107.466C107.1 76.1883 105.385 74.708 103.436 74.708H103.45Z" fill="#A7B4C8"/>
<path d="M111.238 73.5958V75.1354C111.997 73.9807 113.017 73.3534 114.314 73.3534C115.61 73.3534 116.935 73.9807 117.831 75.1354C118.59 76.176 118.741 77.3022 118.741 78.6565V84.2875H117.403V78.6565C117.403 77.7299 117.335 76.8746 116.824 76.119C116.231 75.2209 115.279 74.7505 114.272 74.7505C113.348 74.7505 112.383 75.2352 111.845 76.062C111.321 76.8318 111.335 77.7584 111.321 78.6708V84.3017H109.983V73.61H111.252L111.238 73.5958Z" fill="#A7B4C8"/>
<path d="M120.931 75.0567V73.7641H122.914V70.069H124.197V73.7641H126.405V75.0567H124.197V84.3017H122.914V75.0567H120.931Z" fill="#A7B4C8"/>
<path d="M8.75252 105.089C4.89839 105.089 1.59485 101.684 1.59485 97.3593C1.59485 95.4013 2.40697 93.4141 3.65956 92.0406C5.0498 90.521 6.83922 89.7758 8.76629 89.7758C10.1565 89.7758 11.533 90.1996 12.6892 91.0324C13.5564 91.6754 14.6851 92.8151 15.0155 93.9548H13.5014C12.5654 92.216 10.6245 91.1932 8.76629 91.1932C7.33475 91.1932 5.88945 91.7338 4.78827 92.8589C3.68709 93.984 2.94379 95.6789 2.94379 97.3739C2.94379 100.983 5.64169 103.672 8.82135 103.672C11.2026 103.672 13.5564 101.933 14.2309 99.3465H6.74287V98.0022H15.8276C15.5798 102.079 12.3589 105.103 8.75252 105.103V105.089Z" fill="#A7B4C8"/>
<path d="M19.3557 94.3978V95.9394C19.9086 94.669 21.1162 94.198 22.3965 94.1552V95.5826C21.6254 95.6397 21.1016 95.8252 20.5051 96.3248C19.5303 97.167 19.4285 97.895 19.4285 99.1083V105.103H18.0172V94.3978H19.3557Z" fill="#A7B4C8"/>
<path d="M27.8999 105.089C24.922 105.089 22.3966 102.677 22.3966 99.6781C22.3966 96.6795 24.8344 94.1552 27.8999 94.1552C30.9655 94.1552 33.3449 96.6377 33.3449 99.5526C33.3449 102.467 30.9217 105.103 27.8999 105.103V105.089ZM27.8999 103.737C30.2356 103.737 31.9289 101.826 31.9289 99.5526C31.9289 98.409 31.5494 97.4606 30.7027 96.6656C29.9582 95.9543 28.9364 95.522 27.8999 95.522C25.5789 95.522 23.8126 97.4187 23.8126 99.6921C23.8126 101.965 25.6519 103.751 27.8999 103.751V103.737Z" fill="#A7B4C8"/>
<path d="M43.0201 104.861V103.191C42.3697 104.561 41.1106 105.103 39.7269 105.103C38.454 105.103 37.3609 104.618 36.2401 103.191C35.6451 102.506 35.5344 101.207 35.5344 99.8077V94.1552H36.8766V99.8077C36.8766 100.636 36.9181 101.449 37.3194 102.177C37.859 103.191 38.8276 103.719 39.9207 103.719C40.8892 103.719 41.7748 103.248 42.3559 102.406C42.8679 101.635 42.9509 100.721 42.9509 99.8077V94.1552H44.293V104.861H43.0201Z" fill="#A7B4C8"/>
<path d="M47.826 96.1588C48.6493 94.8184 50.4692 94.1552 51.9569 94.1552C53.4446 94.1552 54.8745 94.7355 56.2034 96.1588C56.8244 96.7253 57.4311 98.0934 57.4311 99.6134C57.4311 102.709 54.8312 105.002 51.8125 105.002C50.2815 105.002 48.5627 104.256 47.8838 102.819V108.388H46.4828V94.3763H47.8116V96.1588H47.826ZM51.9569 95.4955C49.6748 95.4955 47.7972 97.1814 47.7972 99.4752C47.7972 100.608 48.086 101.562 48.8949 102.377C49.6748 103.192 50.7292 103.648 51.8558 103.648C54.1668 103.648 56.03 101.921 56.03 99.5857C56.03 97.2504 54.2101 95.4955 51.9569 95.4955Z" fill="#A7B4C8"/>
<path d="M67.4666 90.8707V103.812H72.7587V105.103H66.1897V90.8707H67.4666Z" fill="#A7B4C8"/>
<path d="M72.7587 95.8585V94.5659H74.742V90.8707H76.0246V94.5659H78.2328V95.8585H76.0246V105.103H74.742V95.8585H72.7587Z" fill="#A7B4C8"/>
<path d="M90.0488 104.855V102.966C89.0143 104.428 87.6637 105.103 85.8821 105.103C84.3879 105.103 83.0086 104.497 81.5574 102.966C81.0545 102.524 80.4224 101.173 80.4224 99.6558C80.4224 96.5665 82.9655 94.2772 85.9683 94.2772C87.5201 94.2772 89.1149 94.9529 89.977 96.3045V90.8707H91.3706V104.855H90.0488ZM81.816 99.6282C81.816 101.904 83.6408 103.752 85.9109 103.752C88.181 103.752 90.0057 101.904 90.0057 99.6282C90.0057 97.3527 88.1235 95.6149 85.8678 95.6149C83.612 95.6149 81.8017 97.394 81.8017 99.6282H81.816Z" fill="#A7B4C8"/>
<path d="M1.59485 16.4224V0H64V16.4224H59.7216L59.75 4.32395L5.91575 4.3669V16.4081L1.59485 16.4224Z" fill="#D4EDFC"/>
<path d="M1.59485 110.578V127H64V110.578H59.7216L59.75 122.68L5.91575 122.623V110.606L1.59485 110.578Z" fill="#D4EDFC"/>
</g>
<defs>
<clipPath id="clip0_1335_531">
<rect width="127" height="127" fill="white" transform="translate(0.5)"/>
</clipPath>
</defs>
</svg>
