<svg width="84" height="84" viewBox="0 0 84 84" fill="none" xmlns="http://www.w3.org/2000/svg">
<path d="M5.79314 28.7946C7.66415 28.7946 9.2106 27.4084 9.2106 25.4732C9.2106 24.5615 8.76194 23.659 8.07463 23.0822C7.31095 22.4495 6.47091 22.2169 5.52586 21.9657C4.49489 21.6959 3.45438 21.4168 2.62389 20.6911C1.70747 19.891 1.23972 18.756 1.23972 17.5558C1.23972 14.8484 3.33983 13.0342 5.92679 13.0342C8.51374 13.0342 10.4802 15.0159 10.4611 17.5837H8.74285C8.6283 15.8811 7.4255 14.653 5.72632 14.653C4.1226 14.653 2.89117 15.9928 2.89117 17.5837C2.89117 19.6026 4.54262 20.0864 6.15589 20.5423C7.33959 20.8865 8.37056 21.0912 9.32515 21.975C10.3084 22.8403 10.8621 24.1614 10.8621 25.5011C10.8621 28.2736 8.51374 30.4135 5.84087 30.4135C3.02482 30.4135 0.705146 28.3481 0.724238 25.4174H2.49024C2.53797 27.2595 3.94123 28.804 5.79314 28.804V28.7946Z" fill="#D4EDFC" stroke="#778894" stroke-width="0.25" stroke-miterlimit="10"/>
<path d="M22.3853 30.1241V27.7729C21.493 29.527 19.6992 30.4134 17.8691 30.4134C16.0389 30.4134 14.227 29.5923 12.7337 27.7729C12.3057 27.2691 11.5864 25.7016 11.5864 23.8075C11.5864 22.1467 12.3786 20.4299 12.7974 20.0194C14.5639 17.9947 16.2028 17.3789 17.8235 17.3789C19.6537 17.3789 21.5112 18.2466 22.3853 20.0194V17.6495H23.8968V30.1148H22.3853V30.1241ZM17.8691 28.7992C20.3002 28.7992 22.3853 26.5693 22.3853 23.9661C22.3853 21.2043 20.4277 18.9931 17.8235 18.9931C15.2194 18.9931 13.1616 21.1857 13.1616 23.9381C13.1616 26.6906 15.3742 28.7899 17.8691 28.7899V28.7992Z" fill="#D4EDFC" stroke="#778894" stroke-width="0.25" stroke-miterlimit="10"/>
<path d="M27.7911 17.3789L31.862 27.5792L35.9328 17.3789H37.6551L32.6816 29.6893H31.0238L26.0688 17.3789H27.7911Z" fill="#D4EDFC" stroke="#778894" stroke-width="0.25" stroke-miterlimit="10"/>
<path d="M49.1783 30.1241V27.7729C48.2859 29.527 46.4922 30.4134 44.662 30.4134C42.8319 30.4134 41.0199 29.5923 39.5267 27.7729C39.0987 27.2691 38.3794 25.7016 38.3794 23.8075C38.3794 22.1467 39.1716 20.4299 39.5904 20.0194C41.3568 17.9947 42.9958 17.3789 44.6165 17.3789C46.4467 17.3789 48.3042 18.2466 49.1783 20.0194V17.6495H50.6897V30.1148H49.1783V30.1241ZM44.662 28.7992C47.0932 28.7992 49.1783 26.5693 49.1783 23.9661C49.1783 21.2043 47.2206 18.9931 44.6165 18.9931C42.0124 18.9931 39.9546 21.1857 39.9546 23.9381C39.9546 26.6906 42.1672 28.7899 44.662 28.7899V28.7992Z" fill="#D4EDFC" stroke="#778894" stroke-width="0.25" stroke-miterlimit="10"/>
<path d="M56.4829 13.0342V29.6894H55.0347V13.0342H56.4829Z" fill="#D4EDFC" stroke="#778894" stroke-width="0.25" stroke-miterlimit="10"/>
<path d="M60.8277 13.0342V29.6894H59.3794V13.0342H60.8277Z" fill="#D4EDFC" stroke="#778894" stroke-width="0.25" stroke-miterlimit="10"/>
<path d="M69.1874 30.4134C65.8494 30.4134 63 27.5396 63 23.9661C63 20.3926 65.7387 17.3789 69.1874 17.3789C72.6362 17.3789 75.3103 20.346 75.3103 23.8075C75.3103 27.2691 72.5901 30.4134 69.1874 30.4134ZM69.1874 28.7992C71.8155 28.7992 73.7151 26.5226 73.7151 23.8075C73.7151 22.4359 73.2817 21.3256 72.3319 20.3646C71.4928 19.5249 70.3493 18.9931 69.1782 18.9931C66.5686 18.9931 64.5861 21.251 64.5861 23.9661C64.5861 26.6813 66.6608 28.7992 69.1782 28.7992H69.1874Z" fill="#D4EDFC" stroke="#778894" stroke-width="0.25" stroke-miterlimit="10"/>
<path d="M80.4091 28.7911C81.5279 28.7911 82.4392 27.9519 82.4392 26.7212C82.4392 25.2201 81.3384 24.67 80.2016 24.325C79.4617 24.0733 78.6857 23.8216 78.1083 23.2342C77.4947 22.6468 77.1789 21.7517 77.1789 20.866C77.1789 18.8427 78.6947 17.3789 80.5174 17.3789C82.34 17.3789 83.7024 18.9266 83.7024 20.7541H82.1415C82.1415 19.6632 81.3565 19.0012 80.3459 19.0012C79.4617 19.0012 78.7399 19.7751 78.7399 20.7354C78.7399 22.106 79.7504 22.4696 80.77 22.8053C82.5024 23.3927 84.0002 24.1945 84.0002 26.4508C84.0002 28.7072 82.4212 30.4134 80.2647 30.4134C78.2977 30.4134 76.6556 28.5673 76.7639 26.4508H78.3248C78.2797 27.7282 79.2361 28.8004 80.4181 28.8004L80.4091 28.7911Z" fill="#D4EDFC" stroke="#778894" stroke-width="0.25" stroke-miterlimit="10"/>
<path d="M0 34.1637V33.3096H5.06897V34.1637H3.00765V42.7234H2.0988V34.1637H0Z" fill="#A7B4C8"/>
<path d="M6.67829 35.6429V36.6626C7.04397 35.8223 7.84269 35.5107 8.68952 35.4824V36.4265C8.1795 36.4643 7.83307 36.587 7.43852 36.9175C6.79377 37.4745 6.72641 37.956 6.72641 38.7585V42.7238H5.79297V35.6429H6.67829Z" fill="#A7B4C8"/>
<path d="M15.0531 42.5578V41.2571C14.5284 42.2349 13.4693 42.7238 12.3912 42.7238C11.3131 42.7238 10.2446 42.2718 9.36684 41.2571C9.11878 40.9803 8.68945 40.104 8.68945 39.0524C8.68945 38.1299 9.15695 37.1798 9.405 36.9491C10.4449 35.8237 11.4085 35.4824 12.3626 35.4824C13.4407 35.4824 14.5284 35.9621 15.0435 36.9491V35.63H15.9308V42.5485H15.0435L15.0531 42.5578ZM12.3912 41.8198C13.8223 41.8198 15.0531 40.5837 15.0531 39.1354C15.0531 37.6041 13.8987 36.3772 12.3722 36.3772C10.8456 36.3772 9.62444 37.5949 9.62444 39.1262C9.62444 40.6575 10.9315 41.8198 12.3912 41.8198Z" fill="#A7B4C8"/>
<path d="M23.7465 42.5592V41.3095C23.0623 42.2764 22.169 42.7234 20.9906 42.7234C20.0023 42.7234 19.09 42.322 18.1301 41.3095C17.7975 41.0176 17.3794 40.1236 17.3794 39.1202C17.3794 37.0769 19.0614 35.5627 21.0476 35.5627C22.0739 35.5627 23.1288 36.0096 23.699 36.9036V33.3096H24.6208V42.5592H23.7465ZM18.3012 39.102C18.3012 40.6071 19.5081 41.8294 21.0096 41.8294C22.5111 41.8294 23.718 40.6071 23.718 39.102C23.718 37.5969 22.4731 36.4475 20.9811 36.4475C19.4891 36.4475 18.2917 37.6242 18.2917 39.102H18.3012Z" fill="#A7B4C8"/>
<path d="M26.793 33.3096V34.9173H26.0688V33.3096H26.793ZM26.793 35.7536V42.7234H26.0688V35.7536H26.793Z" fill="#A7B4C8"/>
<path d="M29.0714 35.6427V36.661C29.5732 35.8973 30.2483 35.4824 31.1058 35.4824C31.9634 35.4824 32.8483 35.8973 33.4322 36.661C33.934 37.3493 34.0343 38.0942 34.0343 38.99V42.7144H33.1494V38.99C33.1494 38.3771 33.1038 37.8114 32.7662 37.3116C32.3739 36.7176 31.7444 36.4065 31.0785 36.4065C30.4672 36.4065 29.8286 36.727 29.4728 37.2739C29.1261 37.7831 29.1353 38.3959 29.1261 38.9994V42.7238H28.2412V35.6521H29.0805L29.0714 35.6427Z" fill="#A7B4C8"/>
<path d="M41.9273 44.4546C41.2469 45.219 40.1679 45.6204 39.1668 45.6204C37.631 45.6204 36.1244 44.5597 35.7453 42.9832H36.6687C37.2131 44.0438 38.049 44.684 39.2445 44.684C40.1388 44.684 41.0719 44.2635 41.5287 43.4418C41.8301 42.878 41.8301 42.4194 41.8301 41.7888V41.397C41.3829 42.4767 40.1874 42.9832 39.0987 42.9832C38.1753 42.9832 37.2422 42.5723 36.5813 41.9321C35.8426 41.2155 35.4829 40.2982 35.4829 39.2471C35.4829 38.1961 35.8911 37.317 36.1439 37.0303C37.0673 35.836 38.049 35.4824 39.0404 35.4824C40.1485 35.4824 41.2857 35.9984 41.8203 37.0303V35.6449H42.7243V41.7888C42.7243 42.9067 42.6854 43.5851 41.9078 44.4546H41.9273ZM39.1182 42.0563C39.8569 42.0563 40.5081 41.8079 41.033 41.2441C41.5093 40.7377 41.8203 39.9446 41.8203 39.2376C41.8203 37.6228 40.5859 36.4188 39.021 36.4188C37.563 36.4188 36.4257 37.6896 36.4257 39.1611C36.4257 40.7473 37.5144 42.0563 39.1085 42.0563H39.1182Z" fill="#A7B4C8"/>
<path d="M54.2834 39.8579L56.4826 42.1036L55.8568 42.7234L53.8721 40.6933C53.3179 41.861 52.5311 42.7234 51.208 42.7234C49.715 42.7234 48.5171 41.4568 48.5171 39.9028C48.5171 38.6003 49.4558 37.72 50.466 37.1901C49.9385 36.6331 49.5452 36.1301 49.5452 35.2947C49.5452 34.1899 50.5554 33.3275 51.5746 33.3096C52.7278 33.3186 53.7023 34.2348 53.7112 35.4654C53.7023 36.5164 52.8619 37.1811 52.0126 37.5134L53.6576 39.2112L54.9181 36.6511H55.8926L54.2834 39.8669V39.8579ZM49.3843 39.9657C49.3843 40.9538 50.1799 41.852 51.1365 41.8341C52.254 41.8431 52.7815 40.9448 53.2285 40.0196L51.1365 37.8727L50.761 38.0793C50.0101 38.4746 49.3843 39.0046 49.3843 39.9477V39.9657ZM50.4213 35.3486C50.4213 35.9505 50.9845 36.4535 51.3689 36.8397C52.0037 36.6062 52.853 36.166 52.853 35.3396C52.853 34.6839 52.2182 34.1809 51.6282 34.1809C50.9845 34.1809 50.4213 34.648 50.4213 35.3486Z" fill="#A7B4C8"/>
<path d="M2.11703 46.3438L5.43569 54.3557L8.73566 46.3438H10.1379V55.7575H9.23112V47.3928L5.81897 55.7575H5.04306L1.63091 47.3928V55.7575H0.724121V46.3438H2.12637H2.11703Z" fill="#A7B4C8"/>
<path d="M17.9501 55.5919V54.2913C17.4253 55.2691 16.3663 55.758 15.2882 55.758C14.2101 55.758 13.1416 55.306 12.2638 54.2913C12.0158 54.0145 11.5864 53.1382 11.5864 52.0866C11.5864 51.1641 12.0539 50.2139 12.302 49.9833C13.3419 48.8579 14.3055 48.5166 15.2596 48.5166C16.3377 48.5166 17.4253 48.9963 17.9405 49.9833V48.6642H18.8278V55.5827H17.9405L17.9501 55.5919ZM15.2882 54.854C16.7193 54.854 17.9501 53.6179 17.9501 52.1696C17.9501 50.6383 16.7956 49.4114 15.2691 49.4114C13.7426 49.4114 12.5214 50.6291 12.5214 52.1604C12.5214 53.6917 13.8285 54.854 15.2882 54.854Z" fill="#A7B4C8"/>
<path d="M21.1061 48.6769V49.6952C21.6078 48.9315 22.2829 48.5166 23.1405 48.5166C23.9981 48.5166 24.883 48.9315 25.4669 49.6952C25.9686 50.3835 26.069 51.1284 26.069 52.0241V55.7485H25.1841V52.0241C25.1841 51.4113 25.1384 50.8455 24.8009 50.3458C24.4086 49.7518 23.7791 49.4406 23.1131 49.4406C22.5019 49.4406 21.8633 49.7612 21.5075 50.3081C21.1608 50.8172 21.1699 51.4301 21.1608 52.0336V55.758H20.2759V48.6863H21.1152L21.1061 48.6769Z" fill="#A7B4C8"/>
<path d="M33.8807 55.5919V54.2913C33.356 55.2691 32.297 55.758 31.2189 55.758C30.1408 55.758 29.0722 55.306 28.1945 54.2913C27.9464 54.0145 27.5171 53.1382 27.5171 52.0866C27.5171 51.1641 27.9846 50.2139 28.2326 49.9833C29.2726 48.8579 30.2362 48.5166 31.1903 48.5166C32.2683 48.5166 33.356 48.9963 33.8712 49.9833V48.6642H34.7585V55.5827H33.8712L33.8807 55.5919ZM31.2189 54.854C32.65 54.854 33.8807 53.6179 33.8807 52.1696C33.8807 50.6383 32.7263 49.4114 31.1998 49.4114C29.6733 49.4114 28.4521 50.6291 28.4521 52.1604C28.4521 53.6917 29.7592 54.854 31.2189 54.854Z" fill="#A7B4C8"/>
<path d="M42.6514 57.4888C41.971 58.2532 40.8921 58.6545 39.8909 58.6545C38.3551 58.6545 36.8485 57.5939 36.4695 56.0173H37.3929C37.9372 57.0779 38.7731 57.7181 39.9687 57.7181C40.8629 57.7181 41.796 57.2977 42.2529 56.476C42.5542 55.9122 42.5542 55.4536 42.5542 54.8229V54.4312C42.1071 55.5014 40.9115 56.0173 39.8229 56.0173C38.8995 56.0173 37.9663 55.6065 37.3054 54.9663C36.5667 54.2496 36.207 53.3324 36.207 52.2813C36.207 51.2302 36.6153 50.3512 36.868 50.0645C37.7914 48.8701 38.7731 48.5166 39.7645 48.5166C40.8726 48.5166 42.0099 49.0326 42.5445 50.0645V48.679H43.4484V54.8229C43.4484 55.9409 43.4095 56.6193 42.6319 57.4888H42.6514ZM39.8423 55.0905C40.581 55.0905 41.2323 54.8421 41.7571 54.2783C42.2334 53.7719 42.5445 52.9788 42.5445 52.2717C42.5445 50.6569 41.31 49.453 39.7451 49.453C38.2871 49.453 37.1499 50.7238 37.1499 52.1953C37.1499 53.7814 38.2385 55.0905 39.8326 55.0905H39.8423Z" fill="#A7B4C8"/>
<path d="M48.4639 54.862C49.4914 54.862 50.5384 54.2894 50.9649 53.338H51.944C51.4593 54.7327 50.0343 55.758 48.5511 55.758C46.5154 55.758 44.8965 54.1601 44.8965 52.1373C44.8965 50.1145 46.5057 48.5166 48.522 48.5166C49.6174 48.5166 50.6256 49.0154 51.3236 49.8559C51.9731 50.6502 52.1088 51.463 52.1379 52.4698H45.8368C45.8853 53.7906 47.1746 54.862 48.4639 54.862ZM48.5414 49.4125C47.2327 49.4125 46.0695 50.3362 45.8368 51.6201H51.1975C50.9552 50.3916 49.821 49.4125 48.5317 49.4125H48.5414Z" fill="#A7B4C8"/>
<path d="M53.7459 48.6771V49.5929C54.0785 48.8565 54.8101 48.5166 55.5702 48.5166C56.4728 48.5166 57.2329 48.9037 57.784 49.5929C57.8505 49.6873 57.898 49.7723 57.955 49.8667C57.993 49.7723 58.0405 49.6967 58.088 49.5929C58.5631 48.9037 59.4467 48.5166 60.2448 48.5166C60.9859 48.5166 61.6891 48.8942 62.3636 49.5929C62.9147 50.1594 63.0002 50.8863 63.0002 51.7172V55.758H62.0786V51.8116C62.0786 51.2923 62.0406 50.7258 61.7366 50.2821C61.366 49.7345 60.8244 49.4418 60.1878 49.4418C59.5988 49.4418 59.0192 49.7534 58.6771 50.2443C58.3826 50.6881 58.3921 51.2923 58.3921 51.8116V55.758H57.4705V51.7077C57.4705 51.179 57.442 50.7636 57.1474 50.2915C56.7959 49.7723 56.2258 49.4324 55.6082 49.4324C55.0381 49.4324 54.4585 49.6873 54.107 50.1877C53.7934 50.6503 53.7839 51.1601 53.7839 51.6983V55.7485H52.8623V48.6677H53.7364L53.7459 48.6771Z" fill="#A7B4C8"/>
<path d="M68.0156 54.862C69.0432 54.862 70.0901 54.2894 70.507 53.338H71.486C71.0014 54.7327 69.5763 55.758 68.1029 55.758C66.0671 55.758 64.4482 54.1601 64.4482 52.1373C64.4482 50.1145 66.0574 48.5166 68.0738 48.5166C69.1692 48.5166 70.1774 49.0154 70.8753 49.8559C71.5248 50.6502 71.6605 51.463 71.6896 52.4698H65.3886C65.437 53.7906 66.7263 54.862 68.0156 54.862ZM68.0932 49.4125C66.7845 49.4125 65.6212 50.3362 65.3886 51.6201H70.7493C70.507 50.3916 69.3728 49.4125 68.0835 49.4125H68.0932Z" fill="#A7B4C8"/>
<path d="M73.2438 48.6769V49.6952C73.7455 48.9315 74.4206 48.5166 75.2782 48.5166C76.1358 48.5166 77.0116 48.9315 77.6046 49.6952C78.1063 50.3835 78.2067 51.1284 78.2067 52.0241V55.7485H77.3218V52.0241C77.3218 51.4113 77.2761 50.8455 76.9386 50.3458C76.5463 49.7518 75.9168 49.4406 75.2508 49.4406C74.6396 49.4406 74.001 49.7612 73.6452 50.3081C73.2985 50.8172 73.3076 51.4301 73.2985 52.0336V55.758H72.4136V48.6863H73.2529L73.2438 48.6769Z" fill="#A7B4C8"/>
<path d="M79.6553 49.6428V48.7878H80.9671V46.3438H81.8154V48.7878H83.276V49.6428H81.8154V55.7575H80.9671V49.6428H79.6553Z" fill="#A7B4C8"/>
<path d="M5.45833 69.5072C2.90914 69.5072 0.724121 67.2554 0.724121 64.3947C0.724121 63.0997 1.26127 61.7853 2.08976 60.8769C3.00929 59.8718 4.19284 59.3789 5.46743 59.3789C6.38696 59.3789 7.29739 59.6592 8.06215 60.21C8.63571 60.6353 9.38226 61.3891 9.60076 62.1429H8.5993C7.98021 60.9929 6.69651 60.3164 5.46743 60.3164C4.52059 60.3164 3.56465 60.6739 2.83631 61.4181C2.10797 62.1622 1.61634 63.2833 1.61634 64.4044C1.61634 66.7915 3.40077 68.5697 5.50385 68.5697C7.07889 68.5697 8.63571 67.4197 9.08182 65.7091H4.12911V64.8199H10.1379C9.97404 67.5163 7.84364 69.5168 5.45833 69.5168V69.5072Z" fill="#A7B4C8"/>
<path d="M12.4718 62.4359V63.4555C12.8374 62.6153 13.6361 62.3037 14.483 62.2754V63.2195C13.973 63.2573 13.6265 63.38 13.232 63.7105C12.5872 64.2675 12.5199 64.749 12.5199 65.5515V69.5168H11.5864V62.4359H12.4718Z" fill="#A7B4C8"/>
<path d="M18.1229 69.5075C16.1533 69.5075 14.4829 67.9117 14.4829 65.9284C14.4829 63.9451 16.0953 62.2754 18.1229 62.2754C20.1505 62.2754 21.7243 63.9174 21.7243 65.8453C21.7243 67.7733 20.1215 69.5168 18.1229 69.5168V69.5075ZM18.1229 68.6128C19.6677 68.6128 20.7877 67.349 20.7877 65.8453C20.7877 65.0889 20.5367 64.4616 19.9767 63.9358C19.4843 63.4654 18.8084 63.1794 18.1229 63.1794C16.5877 63.1794 15.4195 64.434 15.4195 65.9376C15.4195 67.4412 16.636 68.622 18.1229 68.622V68.6128Z" fill="#A7B4C8"/>
<path d="M28.1235 69.3563V68.2516C27.6934 69.158 26.8605 69.5168 25.9454 69.5168C25.1034 69.5168 24.3804 69.1958 23.6391 68.2516C23.2456 67.7985 23.1724 66.9393 23.1724 66.0141V62.2754H24.0601V66.0141C24.0601 66.5617 24.0875 67.0998 24.3529 67.5813C24.7099 68.2517 25.3505 68.601 26.0735 68.601C26.7141 68.601 27.2998 68.2894 27.6842 67.7324C28.0228 67.2226 28.0777 66.6183 28.0777 66.0141V62.2754H28.9655V69.3563H28.1235Z" fill="#A7B4C8"/>
<path d="M31.302 63.6006C31.8466 62.7141 33.0503 62.2754 34.0343 62.2754C35.0183 62.2754 35.964 62.6593 36.8429 63.6006C37.2537 63.9754 37.655 64.8802 37.655 65.8855C37.655 67.9328 35.9354 69.45 33.9387 69.45C32.9261 69.45 31.7892 68.9564 31.3402 68.0059V71.6892H30.4136V62.4216H31.2925V63.6006H31.302ZM34.0343 63.1619C32.5248 63.1619 31.2829 64.277 31.2829 65.7941C31.2829 66.5436 31.474 67.1742 32.009 67.7135C32.5248 68.2527 33.2222 68.5543 33.9674 68.5543C35.4959 68.5543 36.7283 67.4118 36.7283 65.8673C36.7283 64.3227 35.5246 63.1619 34.0343 63.1619Z" fill="#A7B4C8"/>
<path d="M44.2928 60.1025V68.6622H47.7931V69.5163H43.4482V60.1025H44.2928Z" fill="#A7B4C8"/>
<path d="M47.793 63.4016V62.5466H49.1048V60.1025H49.9531V62.5466H51.4137V63.4016H49.9531V69.5163H49.1048V63.4016H47.793Z" fill="#A7B4C8"/>
<path d="M59.2294 69.3521V68.1024C58.5452 69.0694 57.6519 69.5163 56.4735 69.5163C55.4852 69.5163 54.5729 69.115 53.6131 68.1024C53.2804 67.8105 52.8623 66.9166 52.8623 65.9132C52.8623 63.8699 54.5444 62.3556 56.5305 62.3556C57.5568 62.3556 58.6117 62.8026 59.1819 63.6966V60.1025H60.1037V69.3521H59.2294ZM53.7841 65.8949C53.7841 67.4001 54.991 68.6224 56.4925 68.6224C57.994 68.6224 59.2009 67.4001 59.2009 65.8949C59.2009 64.3898 57.956 63.2405 56.464 63.2405C54.972 63.2405 53.7746 64.4172 53.7746 65.8949H53.7841Z" fill="#A7B4C8"/>
<path d="M0.724121 10.8621V0H42V10.8621H39.1702L39.1889 2.85993L3.58204 2.88834V10.8526L0.724121 10.8621Z" fill="#D4EDFC"/>
<path d="M0.724121 73.1377V83.9998H42V73.1377H39.1702L39.1889 81.1423L3.58204 81.1045V73.1566L0.724121 73.1377Z" fill="#D4EDFC"/>
</svg>
