<svg width="128" height="126" viewBox="0 0 128 126" fill="none" xmlns="http://www.w3.org/2000/svg">
<g clip-path="url(#clip0_1210_4628)">
<path d="M8.11285 43.7975C10.888 43.7975 13.1818 41.6938 13.1818 38.757C13.1818 37.3733 12.5163 36.0037 11.4969 35.1284C10.3641 34.1683 9.11814 33.8153 7.7164 33.4341C6.18722 33.0246 4.64389 32.601 3.41206 31.4997C2.05279 30.2855 1.359 28.563 1.359 26.7416C1.359 22.6329 4.47398 19.8797 8.31107 19.8797C12.1482 19.8797 15.0649 22.8871 15.0366 26.784H12.488C12.3181 24.2002 10.534 22.3364 8.01374 22.3364C5.63502 22.3364 3.80851 24.3696 3.80851 26.784C3.80851 29.8478 6.25802 30.582 8.65089 31.2738C10.4066 31.7963 11.9358 32.1069 13.3517 33.4482C14.8101 34.7613 15.6313 36.7662 15.6313 38.7993C15.6313 43.0068 12.1482 46.2542 8.18364 46.2542C4.00673 46.2542 0.566094 43.1198 0.594412 38.6723H3.21383C3.28462 41.4678 5.366 43.8116 8.11285 43.8116V43.7975Z" fill="#778894" stroke="#778894" stroke-width="0.25" stroke-miterlimit="10"/>
<path d="M34.548 45.8024V42.2444C33.1604 44.8988 30.3711 46.2401 27.5251 46.2401C24.6791 46.2401 21.8615 44.9976 19.5394 42.2444C18.8739 41.482 17.7554 39.11 17.7554 36.2438C17.7554 33.7306 18.9872 31.1327 19.6385 30.5114C22.3854 27.4476 24.934 26.5157 27.4543 26.5157C30.3003 26.5157 33.1887 27.8288 34.548 30.5114V26.9252H36.8984V45.7883H34.548V45.8024ZM27.5251 43.7975C31.3056 43.7975 34.548 40.423 34.548 36.4838C34.548 32.3045 31.5038 28.9583 27.4543 28.9583C23.4048 28.9583 20.2049 32.2763 20.2049 36.4414C20.2049 40.6066 23.6455 43.7834 27.5251 43.7834V43.7975Z" fill="#778894" stroke="#778894" stroke-width="0.25" stroke-miterlimit="10"/>
<path d="M41.9107 26.9393L48.169 42.5691L54.4272 26.9393H57.075L49.4291 45.8024H46.8805L39.2629 26.9393H41.9107Z" fill="#778894" stroke="#778894" stroke-width="0.25" stroke-miterlimit="10"/>
<path d="M75.5242 45.8024V42.2444C74.1366 44.8988 71.3473 46.2401 68.5013 46.2401C65.6553 46.2401 62.8377 44.9976 60.5156 42.2444C59.8501 41.482 58.7316 39.11 58.7316 36.2438C58.7316 33.7306 59.9634 31.1327 60.6147 30.5114C63.3616 27.4476 65.9102 26.5157 68.4305 26.5157C71.2765 26.5157 74.1649 27.8288 75.5242 30.5114V26.9252H77.8746V45.7883H75.5242V45.8024ZM68.5013 43.7975C72.2818 43.7975 75.5242 40.423 75.5242 36.4838C75.5242 32.3045 72.48 28.9583 68.4305 28.9583C64.381 28.9583 61.1811 32.2763 61.1811 36.4414C61.1811 40.6066 64.6217 43.7834 68.5013 43.7834V43.7975Z" fill="#778894" stroke="#778894" stroke-width="0.25" stroke-miterlimit="10"/>
<path d="M84.501 20.3174V45.8024H82.0515V20.3174H84.501Z" fill="#778894" stroke="#778894" stroke-width="0.25" stroke-miterlimit="10"/>
<path d="M91.1275 20.3174V45.8024H88.678V20.3174H91.1275Z" fill="#778894" stroke="#778894" stroke-width="0.25" stroke-miterlimit="10"/>
<path d="M104.111 46.2542C98.9857 46.2542 94.6106 41.9055 94.6106 36.4979C94.6106 31.0903 98.8158 26.5298 104.111 26.5298C109.407 26.5298 113.513 31.0197 113.513 36.2579C113.513 41.4961 109.336 46.2542 104.111 46.2542ZM104.111 43.8116C108.147 43.8116 111.063 40.3666 111.063 36.2579C111.063 34.1824 110.398 32.5022 108.94 31.0479C107.651 29.7772 105.895 28.9724 104.097 28.9724C100.09 28.9724 97.0459 32.3892 97.0459 36.4979C97.0459 40.6066 100.232 43.8116 104.097 43.8116H104.111Z" fill="#778894" stroke="#778894" stroke-width="0.25" stroke-miterlimit="10"/>
<path d="M121.244 43.7975C122.999 43.7975 124.429 42.5268 124.429 40.6631C124.429 38.3899 122.702 37.5569 120.918 37.0344C119.757 36.6532 118.539 36.272 117.633 35.3825C116.67 34.493 116.175 33.1376 116.175 31.7963C116.175 28.7324 118.553 26.5157 121.414 26.5157C124.274 26.5157 126.412 28.8595 126.412 31.6268H123.962C123.962 29.9749 122.73 28.9724 121.145 28.9724C119.757 28.9724 118.624 30.1443 118.624 31.5986C118.624 33.6741 120.21 34.2247 121.81 34.733C124.529 35.6225 126.879 36.8368 126.879 40.2536C126.879 43.6704 124.401 46.2542 121.017 46.2542C117.93 46.2542 115.354 43.4586 115.523 40.2536H117.973C117.902 42.1879 119.403 43.8116 121.258 43.8116L121.244 43.7975Z" fill="#778894" stroke="#778894" stroke-width="0.25" stroke-miterlimit="10"/>
<path d="M0 52.156V50.8571H7.66003V52.156H4.54504V65.1738H3.17162V52.156H0Z" fill="#778894"/>
<path d="M9.71303 54.5704V56.0953C10.2511 54.8387 11.4263 54.3727 12.6723 54.3304V55.7423C11.9218 55.7988 11.4121 55.9823 10.8316 56.4765C9.88294 57.3095 9.78382 58.0296 9.78382 59.2297V65.1597H8.4104V54.5704H9.71303Z" fill="#778894"/>
<path d="M23.0509 65.1738V63.183C22.2721 64.6797 20.7005 65.428 19.1005 65.428C17.5005 65.428 15.9147 64.7362 14.6121 63.183C14.244 62.7595 13.6068 61.4182 13.6068 59.8086C13.6068 58.3967 14.3006 56.9424 14.6687 56.5894C16.2121 54.8669 17.6421 54.3445 19.058 54.3445C20.658 54.3445 22.2721 55.0787 23.0367 56.5894V54.5704H24.3535V65.1597H23.0367L23.0509 65.1738ZM19.1005 64.0443C21.2244 64.0443 23.0509 62.1524 23.0509 59.9357C23.0509 57.5919 21.3376 55.714 19.0722 55.714C16.8068 55.714 14.9944 57.5778 14.9944 59.9215C14.9944 62.2653 16.9342 64.0443 19.1005 64.0443Z" fill="#778894"/>
<path d="M35.8082 65.1738V63.2395C34.7887 64.7362 33.4578 65.428 31.7021 65.428C30.2295 65.428 28.8703 64.8068 27.4402 63.2395C26.9447 62.7877 26.3217 61.404 26.3217 59.8509C26.3217 56.6883 28.8278 54.3445 31.787 54.3445C33.3162 54.3445 34.8879 55.0363 35.7374 56.42V50.8571H37.1108V65.1738H35.8082ZM27.6951 59.8227C27.6951 62.1524 29.4933 64.0443 31.7304 64.0443C33.9675 64.0443 35.7657 62.1524 35.7657 59.8227C35.7657 57.493 33.9109 55.714 31.6879 55.714C29.465 55.714 27.6809 57.5354 27.6809 59.8227H27.6951Z" fill="#778894"/>
<path d="M40.8346 50.8571V53.2997H39.4612V50.8571H40.8346ZM40.8346 54.5704V65.1597H39.4612V54.5704H40.8346Z" fill="#778894"/>
<path d="M44.4877 54.5704V56.0953C45.2664 54.9516 46.3142 54.3304 47.6452 54.3304C48.9761 54.3304 50.3495 54.9516 51.2557 56.0953C52.0344 57.126 52.1902 58.2414 52.1902 59.5827V65.1597H50.8168V59.5827C50.8168 58.6649 50.746 57.8178 50.2221 57.0695C49.6133 56.18 48.6363 55.714 47.6027 55.714C46.654 55.714 45.6629 56.1941 45.1107 57.013C44.5726 57.7754 44.5868 58.6932 44.5726 59.5968V65.1739H43.1992V54.5845H44.5018L44.4877 54.5704Z" fill="#778894"/>
<path d="M63.5173 67.5882C62.5262 68.7178 60.9545 69.3108 59.4962 69.3108C57.259 69.3108 55.0644 67.7435 54.5122 65.4139H55.8573C56.6502 66.9811 57.8679 67.9271 59.6094 67.9271C60.9121 67.9271 62.2713 67.3058 62.9368 66.0916C63.3757 65.2586 63.3757 64.5809 63.3757 63.649V63.0701C62.7244 64.6656 60.9828 65.4139 59.397 65.4139C58.0519 65.4139 56.6927 64.8068 55.7299 63.8608C54.6538 62.8018 54.1299 61.4464 54.1299 59.8933C54.1299 58.3402 54.7246 57.0412 55.0927 56.6177C56.4378 54.8528 57.8679 54.3304 59.3121 54.3304C60.9262 54.3304 62.5828 55.0928 63.3616 56.6177V54.5704H64.6784V63.649C64.6784 65.3009 64.6217 66.3034 63.489 67.5882H63.5173ZM59.4254 64.0443C60.5014 64.0443 61.4501 63.6772 62.2147 62.8442C62.9085 62.0959 63.3616 60.924 63.3616 59.8792C63.3616 57.4931 61.5634 55.714 59.2838 55.714C57.1599 55.714 55.5033 57.5919 55.5033 59.7662C55.5033 62.11 57.0891 64.0443 59.4112 64.0443H59.4254Z" fill="#778894"/>
<path d="M81.2302 60.924L84.7133 64.4538L83.7222 65.428L80.5789 62.2371C79.701 64.0726 78.4551 65.428 76.3595 65.428C73.995 65.428 72.0977 63.4372 72.0977 60.9946C72.0977 58.9473 73.5844 57.5637 75.1843 56.7306C74.3489 55.8552 73.7259 55.0646 73.7259 53.7515C73.7259 52.0148 75.3259 50.6594 76.94 50.6312C78.7666 50.6453 80.3099 52.0854 80.324 54.0198C80.3099 55.6717 78.9789 56.7165 77.6338 57.2389L80.2391 59.9074L82.2355 55.8835H83.7788L81.2302 60.9381V60.924ZM73.4711 61.0934C73.4711 62.6465 74.7312 64.0584 76.2462 64.0302C78.0161 64.0443 78.8515 62.6324 79.5595 61.1781L76.2462 57.8037L75.6516 58.1284C74.4622 58.7497 73.4711 59.5827 73.4711 61.0652V61.0934ZM75.1135 53.8362C75.1135 54.7822 76.0055 55.5729 76.6144 56.18C77.6197 55.8129 78.9648 55.121 78.9648 53.8221C78.9648 52.7914 77.9595 52.0007 77.025 52.0007C76.0055 52.0007 75.1135 52.7349 75.1135 53.8362Z" fill="#778894"/>
<path d="M3.39815 70.2285L8.4246 82.4133L13.4227 70.2285H15.5466V84.5453H14.1732V71.824L9.00512 84.5453H7.82992L2.66188 71.824V84.5453H1.28845V70.2285H3.4123H3.39815Z" fill="#778894"/>
<path d="M27.1853 84.5312V82.5404C26.4065 84.037 24.8349 84.7853 23.2349 84.7853C21.6349 84.7853 20.0491 84.0935 18.7465 82.5404C18.3784 82.1168 17.7412 80.7755 17.7412 79.1659C17.7412 77.754 18.435 76.2997 18.8031 75.9468C20.3465 74.2242 21.7765 73.7018 23.1924 73.7018C24.7924 73.7018 26.4065 74.436 27.1711 75.9468V73.9277H28.4879V84.5171H27.1711L27.1853 84.5312ZM23.2349 83.4017C25.3588 83.4017 27.1853 81.5097 27.1853 79.293C27.1853 76.9492 25.472 75.0714 23.2066 75.0714C20.9411 75.0714 19.1288 76.9351 19.1288 79.2789C19.1288 81.6226 21.0686 83.4017 23.2349 83.4017Z" fill="#778894"/>
<path d="M32.1552 73.9418V75.4667C32.9339 74.3231 33.9817 73.7018 35.3126 73.7018C36.6436 73.7018 38.017 74.3231 38.9232 75.4667C39.7019 76.4974 39.8577 77.6128 39.8577 78.9541V84.5312H38.4843V78.9541C38.4843 78.0364 38.4135 77.1892 37.8896 76.4409C37.2807 75.5514 36.3038 75.0855 35.2702 75.0855C34.3215 75.0855 33.3304 75.5655 32.7782 76.3844C32.2401 77.1469 32.2543 78.0646 32.2401 78.9682V84.5453H30.8667V73.956H32.1693L32.1552 73.9418Z" fill="#778894"/>
<path d="M51.2414 84.5312V82.5404C50.4627 84.037 48.891 84.7853 47.2911 84.7853C45.6911 84.7853 44.1053 84.0935 42.8027 82.5404C42.4345 82.1168 41.7974 80.7755 41.7974 79.1659C41.7974 77.754 42.4912 76.2997 42.8593 75.9468C44.4026 74.2242 45.8327 73.7018 47.2486 73.7018C48.8486 73.7018 50.4627 74.436 51.2273 75.9468V73.9277H52.5441V84.5171H51.2273L51.2414 84.5312ZM47.2911 83.4017C49.4149 83.4017 51.2414 81.5097 51.2414 79.293C51.2414 76.9492 49.5282 75.0714 47.2627 75.0714C44.9973 75.0714 43.1849 76.9351 43.1849 79.2789C43.1849 81.6226 45.1247 83.4017 47.2911 83.4017Z" fill="#778894"/>
<path d="M63.8855 86.9597C62.8943 88.0892 61.3227 88.6822 59.8643 88.6822C57.6272 88.6822 55.4325 87.115 54.8803 84.7853H56.2254C57.0183 86.3525 58.236 87.2985 59.9776 87.2985C61.2802 87.2985 62.6395 86.6773 63.305 85.463C63.7439 84.63 63.7439 83.9523 63.7439 83.0204V82.4415C63.0926 84.0229 61.351 84.7853 59.7652 84.7853C58.4201 84.7853 57.0608 84.1782 56.098 83.2322C55.0219 82.1733 54.498 80.8178 54.498 79.2647C54.498 77.7116 55.0927 76.4127 55.4609 75.9891C56.806 74.2242 58.236 73.7018 59.6802 73.7018C61.2944 73.7018 62.951 74.4642 63.7297 75.9891V73.9418H65.0465V83.0204C65.0465 84.6724 64.9899 85.6748 63.8572 86.9597H63.8855ZM59.7935 83.4158C60.8696 83.4158 61.8183 83.0487 62.5828 82.2156C63.2766 81.4673 63.7297 80.2954 63.7297 79.2506C63.7297 76.8645 61.9315 75.0855 59.6519 75.0855C57.5281 75.0855 55.8715 76.9633 55.8715 79.1377C55.8715 81.4814 57.4573 83.4158 59.7794 83.4158H59.7935Z" fill="#778894"/>
<path d="M72.2393 83.4158C73.7402 83.4158 75.2694 82.5404 75.8924 81.0861H77.3224C76.6145 83.2181 74.5331 84.7853 72.3668 84.7853C69.3934 84.7853 67.0288 82.3427 67.0288 79.2506C67.0288 76.1585 69.3792 73.7159 72.3243 73.7159C73.9243 73.7159 75.3968 74.4783 76.4162 75.7632C77.3649 76.9774 77.5631 78.2199 77.6056 79.7589H68.4022C68.473 81.7779 70.3562 83.4158 72.2393 83.4158ZM72.3526 75.0855C70.4411 75.0855 68.7421 76.4974 68.4022 78.4599H76.2322C75.8782 76.5821 74.2216 75.0855 72.3384 75.0855H72.3526Z" fill="#778894"/>
<path d="M80.8197 73.9418V75.3114C81.3153 74.2101 82.4055 73.7018 83.5382 73.7018C84.8834 73.7018 86.0161 74.2807 86.8373 75.3114C86.9364 75.4526 87.0072 75.5797 87.0922 75.7208C87.1488 75.5797 87.2196 75.4667 87.2904 75.3114C87.9983 74.2807 89.3151 73.7018 90.5045 73.7018C91.6089 73.7018 92.6567 74.2666 93.6619 75.3114C94.4832 76.1585 94.6106 77.2457 94.6106 78.4882V84.5312H93.2372V78.6294C93.2372 77.8528 93.1805 77.0057 92.7274 76.3421C92.1752 75.5232 91.3682 75.0855 90.4195 75.0855C89.5417 75.0855 88.678 75.5514 88.1682 76.2856C87.7293 76.9492 87.7435 77.8528 87.7435 78.6294V84.5312H86.37V78.4741C86.37 77.6834 86.3276 77.0622 85.8886 76.3562C85.3648 75.5797 84.5152 75.0714 83.5949 75.0714C82.7453 75.0714 81.8816 75.4526 81.3578 76.2009C80.8905 76.8927 80.8764 77.6552 80.8764 78.46V84.5171H79.5029V73.9277H80.8056L80.8197 73.9418Z" fill="#778894"/>
<path d="M101.775 83.4158C103.276 83.4158 104.805 82.5404 105.414 81.0861H106.844C106.136 83.2181 104.055 84.7853 101.902 84.7853C98.929 84.7853 96.5645 82.3427 96.5645 79.2506C96.5645 76.1585 98.9149 73.7159 101.86 73.7159C103.46 73.7159 104.932 74.4783 105.952 75.7632C106.901 76.9774 107.099 78.2199 107.141 79.7589H97.9379C98.0087 81.7779 99.8918 83.4158 101.775 83.4158ZM101.888 75.0855C99.9768 75.0855 98.2777 76.4974 97.9379 78.4599H105.768C105.414 76.5821 103.757 75.0855 101.874 75.0855H101.888Z" fill="#778894"/>
<path d="M110.355 73.9418V75.4667C111.134 74.3231 112.182 73.7018 113.513 73.7018C114.844 73.7018 116.203 74.3231 117.123 75.4667C117.902 76.4974 118.058 77.6128 118.058 78.9541V84.5312H116.684V78.9541C116.684 78.0364 116.614 77.1892 116.09 76.4409C115.481 75.5514 114.504 75.0855 113.47 75.0855C112.522 75.0855 111.531 75.5655 110.978 76.3844C110.44 77.1469 110.454 78.0646 110.44 78.9682V84.5453H109.067V73.956H110.37L110.355 73.9418Z" fill="#778894"/>
<path d="M119.46 75.2408V73.9418H121.583V70.2285H122.957V73.9418H125.321V75.2408H122.957V84.5312H121.583V75.2408H119.46Z" fill="#778894"/>
<path d="M8.05654 104.157C4.09201 104.157 0.693848 100.867 0.693848 96.6877C0.693848 94.7958 1.52923 92.8755 2.8177 91.5484C4.24776 90.08 6.08843 89.3599 8.0707 89.3599C9.50076 89.3599 10.9167 89.7693 12.106 90.5741C12.998 91.1954 14.1591 92.2967 14.4989 93.398H12.9414C11.9786 91.7178 9.98216 90.7294 8.0707 90.7294C6.59816 90.7294 5.11146 91.2519 3.97874 92.339C2.84602 93.4262 2.08143 95.064 2.08143 96.7018C2.08143 100.189 4.8566 102.787 8.12733 102.787C10.5768 102.787 12.998 101.107 13.6918 98.6079H5.98932V97.309H15.3343C15.0794 101.248 11.7662 104.171 8.05654 104.171V104.157Z" fill="#778894"/>
<path d="M18.5625 93.3132V94.8381C19.1006 93.5815 20.2758 93.1156 21.5218 93.0732V94.4851C20.7713 94.5416 20.2616 94.7252 19.6811 95.2193C18.7324 96.0524 18.6333 96.7724 18.6333 97.9725V103.903H17.2599V93.3132H18.5625Z" fill="#778894"/>
<path d="M27.7375 104.157C24.849 104.157 22.3995 101.714 22.3995 98.6785C22.3995 95.6429 24.7641 93.0874 27.7375 93.0874C30.7109 93.0874 33.0188 95.6006 33.0188 98.5515C33.0188 101.502 30.6684 104.171 27.7375 104.171V104.157ZM27.7375 102.787C30.0029 102.787 31.6454 100.853 31.6454 98.5515C31.6454 97.3937 31.2772 96.4336 30.456 95.6288C29.7339 94.9087 28.7428 94.471 27.7375 94.471C25.4862 94.471 23.773 96.3912 23.773 98.6926C23.773 100.994 25.557 102.801 27.7375 102.801V102.787Z" fill="#778894"/>
<path d="M42.647 103.903V102.251C41.9815 103.606 40.693 104.143 39.2771 104.143C37.9745 104.143 36.8559 103.663 35.709 102.251C35.1002 101.573 34.9869 100.288 34.9869 98.9044V93.3132H36.3604V98.9044C36.3604 99.7233 36.4028 100.528 36.8135 101.248C37.3657 102.251 38.3568 102.773 39.4753 102.773C40.4665 102.773 41.3727 102.307 41.9673 101.474C42.4912 100.712 42.5762 99.8081 42.5762 98.9044V93.3132H43.9496V103.903H42.647Z" fill="#778894"/>
<path d="M47.5885 95.1346C48.3956 93.7651 50.1796 93.0874 51.638 93.0874C53.0964 93.0874 54.4981 93.6804 55.8007 95.1346C56.4096 95.7135 57.0043 97.1113 57.0043 98.6644C57.0043 101.827 54.4556 104.171 51.4964 104.171C49.9955 104.171 48.3106 103.408 47.6452 101.94V107.63H46.2717V93.3133H47.5744V95.1346H47.5885ZM51.638 94.4569C49.4009 94.4569 47.5602 96.1794 47.5602 98.5232C47.5602 99.681 47.8434 100.655 48.6363 101.488C49.4009 102.321 50.4345 102.787 51.5389 102.787C53.8043 102.787 55.6308 101.022 55.6308 98.6362C55.6308 96.25 53.8468 94.4569 51.638 94.4569Z" fill="#778894"/>
<path d="M65.7404 89.5858V102.604H71.4323V103.903H64.3669V89.5858H65.7404Z" fill="#778894"/>
<path d="M71.7721 94.6122V93.3133H73.8959V89.5999H75.2694V93.3133H77.6339V94.6122H75.2694V103.903H73.8959V94.6122H71.7721Z" fill="#778894"/>
<path d="M88.1257 103.903V101.968C87.1063 103.465 85.7753 104.157 84.0196 104.157C82.547 104.157 81.1878 103.536 79.7577 101.968C79.2622 101.516 78.6392 100.133 78.6392 98.5797C78.6392 95.417 81.1453 93.0732 84.1045 93.0732C85.6337 93.0732 87.2054 93.7651 88.0549 95.1487V89.5858H89.4283V103.903H88.1257ZM80.0126 98.5515C80.0126 100.881 81.8108 102.773 84.0479 102.773C86.285 102.773 88.0832 100.881 88.0832 98.5515C88.0832 96.2218 86.2284 94.4428 84.0054 94.4428C81.7825 94.4428 79.9984 96.2642 79.9984 98.5515H80.0126Z" fill="#778894"/>
<path d="M0.594482 16.1946V0H62.965V16.1946H58.6889L58.7173 4.26397L4.91298 4.30633V16.1805L0.594482 16.1946Z" fill="#778894"/>
<path d="M0.594727 109.423V125.632H62.9652V109.423H58.6892L58.7175 121.368L4.91323 121.311V109.451L0.594727 109.423Z" fill="#778894"/>
</g>
<defs>
<clipPath id="clip0_1210_4628">
<rect width="127.049" height="125.632" fill="white"/>
</clipPath>
</defs>
</svg>
