<svg width="116" height="116" viewBox="0 0 116 116" fill="none" xmlns="http://www.w3.org/2000/svg">
<g clip-path="url(#clip0_810_3918)">
<path d="M8.00008 39.7645C10.5839 39.7645 12.7194 37.8501 12.7194 35.1777C12.7194 33.9186 12.0998 32.6724 11.1507 31.8758C10.0961 31.0021 8.93604 30.6809 7.63097 30.334C6.20726 29.9615 4.77036 29.576 3.62348 28.5739C2.35796 27.469 1.71202 25.9015 1.71202 24.2441C1.71202 20.5054 4.61217 18 8.18464 18C11.7571 18 14.4727 20.7366 14.4463 24.2827H12.0735C11.9153 21.9315 10.2543 20.2355 7.9078 20.2355C5.69314 20.2355 3.99259 22.0857 3.99259 24.2827C3.99259 27.0707 6.27317 27.7388 8.50102 28.3683C10.1356 28.8437 11.5594 29.1263 12.8776 30.3469C14.2354 31.5418 15 33.3662 15 35.2163C15 39.045 11.7571 42 8.06599 42C4.17715 42 0.973797 39.1478 1.00016 35.1006H3.43893C3.50484 37.6445 5.44267 39.7773 8.00008 39.7773V39.7645Z" fill="#D4EDFC" stroke="#778894" stroke-width="0.25" stroke-miterlimit="10"/>
<path d="M30.9127 41.6006V38.3536C29.6805 40.7759 27.2034 42 24.676 42C22.1487 42 19.6465 40.8661 17.5843 38.3536C16.9933 37.6578 16 35.4932 16 32.8776C16 30.5841 17.0939 28.2133 17.6723 27.6464C20.1117 24.8504 22.375 24 24.6132 24C27.1405 24 29.7056 25.1983 30.9127 27.6464V24.3737H33V41.5877H30.9127V41.6006ZM24.676 39.7709C28.0333 39.7709 30.9127 36.6915 30.9127 33.0966C30.9127 29.2827 28.2093 26.2291 24.6132 26.2291C21.017 26.2291 18.1753 29.257 18.1753 33.058C18.1753 36.859 21.2308 39.7581 24.676 39.7581V39.7709Z" fill="#D4EDFC" stroke="#778894" stroke-width="0.25" stroke-miterlimit="10"/>
<path d="M38.3784 24L44 38.0861L49.6216 24H52L45.132 41H42.8426L36 24H38.3784Z" fill="#D4EDFC" stroke="#778894" stroke-width="0.25" stroke-miterlimit="10"/>
<path d="M67.9127 41.6006V38.3536C66.6805 40.7759 64.2034 42 61.676 42C59.1487 42 56.6465 40.8661 54.5843 38.3536C53.9933 37.6578 53 35.4932 53 32.8776C53 30.5841 54.0939 28.2133 54.6723 27.6464C57.1117 24.8504 59.375 24 61.6132 24C64.1405 24 66.7056 25.1983 67.9127 27.6464V24.3737H70V41.5877H67.9127V41.6006ZM61.676 39.7709C65.0333 39.7709 67.9127 36.6915 67.9127 33.0966C67.9127 29.2827 65.2093 26.2291 61.6132 26.2291C58.017 26.2291 55.1753 29.257 55.1753 33.058C55.1753 36.859 58.2308 39.7581 61.676 39.7581V39.7709Z" fill="#D4EDFC" stroke="#778894" stroke-width="0.25" stroke-miterlimit="10"/>
<path d="M78 18V41H76V18H78Z" fill="#D4EDFC" stroke="#778894" stroke-width="0.25" stroke-miterlimit="10"/>
<path d="M84 18V41H82V18H84Z" fill="#D4EDFC" stroke="#778894" stroke-width="0.25" stroke-miterlimit="10"/>
<path d="M95.5446 42C90.9348 42 87 38.0315 87 33.0966C87 28.1618 90.782 24 95.5446 24C100.307 24 104 28.0974 104 32.8776C104 37.6578 100.243 42 95.5446 42ZM95.5446 39.7709C99.1738 39.7709 101.797 36.6271 101.797 32.8776C101.797 30.9835 101.199 29.4503 99.8869 28.1231C98.7281 26.9635 97.1491 26.2291 95.5318 26.2291C91.9281 26.2291 89.1903 29.3472 89.1903 33.0966C89.1903 36.8461 92.0554 39.7709 95.5318 39.7709H95.5446Z" fill="#D4EDFC" stroke="#778894" stroke-width="0.25" stroke-miterlimit="10"/>
<path d="M111.041 39.7597C112.586 39.7597 113.844 38.6009 113.844 36.9013C113.844 34.8283 112.324 34.0687 110.754 33.5923C109.733 33.2446 108.661 32.897 107.864 32.0858C107.016 31.2747 106.58 30.0386 106.58 28.8155C106.58 26.0215 108.673 24 111.19 24C113.707 24 115.589 26.1373 115.589 28.6609H113.433C113.433 27.1545 112.349 26.2403 110.954 26.2403C109.733 26.2403 108.736 27.309 108.736 28.6352C108.736 30.5279 110.131 31.03 111.539 31.4936C113.932 32.3047 116 33.412 116 36.5279C116 39.6438 113.819 42 110.842 42C108.125 42 105.857 39.4506 106.007 36.5279H108.163C108.1 38.2918 109.421 39.7725 111.053 39.7725L111.041 39.7597Z" fill="#D4EDFC" stroke="#778894" stroke-width="0.25" stroke-miterlimit="10"/>
<path d="M0 47.1795V46H7V47.1795H4.15342V59H2.89834V47.1795H0Z" fill="#A7B4C8"/>
<path d="M9.22259 49.2216V50.6297C9.72758 49.4694 10.8306 49.0391 12 49V50.3038C11.2957 50.3559 10.8173 50.5254 10.2724 50.9817C9.38206 51.751 9.28904 52.4159 9.28904 53.5241V59H8V49.2216H9.22259Z" fill="#A7B4C8"/>
<path d="M20.7879 58.7707V56.9745C20.0632 58.3248 18.6008 59 17.112 59C15.6232 59 14.1476 58.3758 12.9354 56.9745C12.5929 56.5924 12 55.3822 12 53.9299C12 52.6561 12.6456 51.3439 12.9881 51.0255C14.4242 49.4713 15.7549 49 17.0725 49C18.5613 49 20.0632 49.6624 20.7747 51.0255V49.2038H22V58.758H20.7747L20.7879 58.7707ZM17.112 57.7516C19.0883 57.7516 20.7879 56.0446 20.7879 54.0446C20.7879 51.9299 19.1937 50.2357 17.0856 50.2357C14.9776 50.2357 13.2912 51.9172 13.2912 54.0318C13.2912 56.1465 15.0962 57.7516 17.112 57.7516Z" fill="#A7B4C8"/>
<path d="M32.7927 58.7733V57.0475C31.8478 58.3828 30.6142 59 28.9869 59C27.622 59 26.3622 58.4457 25.0367 57.0475C24.5774 56.6444 24 55.4099 24 54.0242C24 51.2025 26.3228 49.1114 29.0656 49.1114C30.4829 49.1114 31.9396 49.7287 32.727 50.9632V46H34V58.7733H32.7927ZM25.273 53.999C25.273 56.0775 26.9396 57.7655 29.0131 57.7655C31.0866 57.7655 32.7533 56.0775 32.7533 53.999C32.7533 51.9205 31.0341 50.3333 28.9738 50.3333C26.9134 50.3333 25.2598 51.9583 25.2598 53.999H25.273Z" fill="#A7B4C8"/>
<path d="M37 46V48.2201H36V46H37ZM37 49.3751V59H36V49.3751H37Z" fill="#A7B4C8"/>
<path d="M40.1465 49.2214V50.6276C40.8394 49.5729 41.7717 49 42.9559 49C44.1402 49 45.3622 49.5729 46.1685 50.6276C46.8614 51.5781 47 52.6068 47 53.8438V58.987H45.778V53.8438C45.778 52.9974 45.715 52.2161 45.2488 51.526C44.7071 50.7057 43.8378 50.276 42.9181 50.276C42.074 50.276 41.1921 50.7188 40.7008 51.474C40.222 52.1771 40.2346 53.0234 40.222 53.8568V59H39V49.2344H40.1591L40.1465 49.2214Z" fill="#A7B4C8"/>
<path d="M57.8993 61.3902C56.9597 62.4458 55.4698 63 54.0872 63C51.9664 63 49.8859 61.5353 49.3624 59.3582H50.6376C51.3893 60.8228 52.5436 61.7069 54.1946 61.7069C55.4295 61.7069 56.7181 61.1263 57.349 59.9915C57.7651 59.213 57.7651 58.5796 57.7651 57.7088V57.1678C57.1476 58.6588 55.4966 59.3582 53.9933 59.3582C52.7181 59.3582 51.4295 58.7908 50.5168 57.9067C49.4966 56.9171 49 55.6503 49 54.1989C49 52.7474 49.5638 51.5335 49.9128 51.1376C51.1879 49.4882 52.5436 49 53.9128 49C55.443 49 57.0134 49.7125 57.7517 51.1376V49.2243H59V57.7088C59 59.2526 58.9463 60.1894 57.8725 61.3902H57.8993ZM54.0201 58.0782C55.0403 58.0782 55.9396 57.7352 56.6644 56.9566C57.3221 56.2573 57.7517 55.1621 57.7517 54.1857C57.7517 51.9557 56.047 50.2931 53.8859 50.2931C51.8725 50.2931 50.302 52.0481 50.302 54.0801C50.302 56.2705 51.8054 58.0782 54.0067 58.0782H54.0201Z" fill="#A7B4C8"/>
<path d="M74.963 55.0429L78 58.1441L77.1358 59L74.3951 56.1966C73.6296 57.8092 72.5432 59 70.7161 59C68.6543 59 67 57.251 67 55.105C67 53.3063 68.2963 52.0906 69.6914 51.3588C68.963 50.5897 68.4198 49.895 68.4198 48.7414C68.4198 47.2156 69.8148 46.0248 71.2222 46C72.8148 46.0124 74.1605 47.2777 74.1728 48.9771C74.1605 50.4284 73 51.3464 71.8272 51.8053L74.0988 54.1498L75.8395 50.6145H77.1852L74.963 55.0553V55.0429ZM68.1975 55.1918C68.1975 56.5563 69.2963 57.7968 70.6173 57.7719C72.1605 57.7843 72.8889 56.5439 73.5062 55.2662L70.6173 52.3015L70.0988 52.5868C69.0617 53.1326 68.1975 53.8645 68.1975 55.167V55.1918ZM69.6296 48.8158C69.6296 49.6469 70.4074 50.3416 70.9383 50.875C71.8148 50.5525 72.9877 49.9447 72.9877 48.8034C72.9877 47.8979 72.1111 47.2032 71.2963 47.2032C70.4074 47.2032 69.6296 47.8483 69.6296 48.8158Z" fill="#A7B4C8"/>
<path d="M2.92354 64L7.50645 75.0641L12.0636 64H14V77H12.7478V65.4487L8.03575 77H6.96425L2.25223 65.4487V77H1V64H2.93644H2.92354Z" fill="#A7B4C8"/>
<path d="M24.7879 76.7707V74.9745C24.0632 76.3248 22.6008 77 21.112 77C19.6232 77 18.1476 76.3758 16.9354 74.9745C16.5929 74.5924 16 73.3822 16 71.9299C16 70.6561 16.6456 69.3439 16.9881 69.0255C18.4242 67.4713 19.7549 67 21.0725 67C22.5613 67 24.0632 67.6624 24.7747 69.0255V67.2038H26V76.758H24.7747L24.7879 76.7707ZM21.112 75.7516C23.0883 75.7516 24.7879 74.0446 24.7879 72.0446C24.7879 69.9299 23.1937 68.2357 21.0856 68.2357C18.9776 68.2357 17.2912 69.9172 17.2912 72.0318C17.2912 74.1465 19.0962 75.7516 21.112 75.7516Z" fill="#A7B4C8"/>
<path d="M29.1465 67.2214V68.6276C29.8394 67.5729 30.7717 67 31.9559 67C33.1402 67 34.3622 67.5729 35.1685 68.6276C35.8614 69.5781 36 70.6068 36 71.8437V76.987H34.778V71.8437C34.778 70.9974 34.715 70.2161 34.2488 69.526C33.7071 68.7057 32.8378 68.276 31.9181 68.276C31.074 68.276 30.1921 68.7187 29.7008 69.474C29.222 70.1771 29.2346 71.0234 29.222 71.8568V77H28V67.2344H29.1591L29.1465 67.2214Z" fill="#A7B4C8"/>
<path d="M46.7879 76.7707V74.9745C46.0632 76.3248 44.6008 77 43.112 77C41.6232 77 40.1476 76.3758 38.9354 74.9745C38.5929 74.5924 38 73.3822 38 71.9299C38 70.6561 38.6456 69.3439 38.9881 69.0255C40.4242 67.4713 41.7549 67 43.0725 67C44.5613 67 46.0632 67.6624 46.7747 69.0255V67.2038H48V76.758H46.7747L46.7879 76.7707ZM43.112 75.7516C45.0883 75.7516 46.7879 74.0446 46.7879 72.0446C46.7879 69.9299 45.1937 68.2357 43.0856 68.2357C40.9776 68.2357 39.2912 69.9172 39.2912 72.0318C39.2912 74.1465 41.0962 75.7516 43.112 75.7516Z" fill="#A7B4C8"/>
<path d="M58.8993 79.3902C57.9597 80.4458 56.4698 81 55.0872 81C52.9664 81 50.8859 79.5353 50.3624 77.3582H51.6376C52.3893 78.8228 53.5436 79.7069 55.1946 79.7069C56.4295 79.7069 57.7181 79.1263 58.349 77.9915C58.7651 77.213 58.7651 76.5796 58.7651 75.7088V75.1678C58.1477 76.6456 56.4966 77.3582 54.9933 77.3582C53.7181 77.3582 52.4295 76.7908 51.5168 75.9067C50.4966 74.9171 50 73.6503 50 72.1989C50 70.7474 50.5638 69.5335 50.9127 69.1376C52.1879 67.4882 53.5436 67 54.9128 67C56.443 67 58.0134 67.7125 58.7517 69.1376V67.2243H60V75.7088C60 77.2526 59.9463 78.1894 58.8725 79.3902H58.8993ZM55.0201 76.0782C56.0403 76.0782 56.9396 75.7352 57.6644 74.9566C58.3221 74.2573 58.7517 73.1621 58.7517 72.1857C58.7517 69.9557 57.047 68.2931 54.8859 68.2931C52.8725 68.2931 51.302 70.0481 51.302 72.0801C51.302 74.2705 52.8054 76.0782 55.0067 76.0782H55.0201Z" fill="#A7B4C8"/>
<path d="M66.9264 75.7628C68.3454 75.7628 69.7912 74.9719 70.3802 73.6582H71.7323C71.0629 75.5842 69.095 77 67.0469 77C64.2356 77 62 74.7934 62 72C62 69.2066 64.2222 67 67.0067 67C68.5194 67 69.9116 67.6888 70.8755 68.8495C71.7724 69.9464 71.9598 71.0689 72 72.4592H63.2985C63.3655 74.2832 65.1459 75.7628 66.9264 75.7628ZM67.0335 68.2372C65.2262 68.2372 63.6198 69.5128 63.2985 71.2857H70.7015C70.3668 69.5893 68.8005 68.2372 67.0201 68.2372H67.0335Z" fill="#A7B4C8"/>
<path d="M74.2202 67.2216V68.4863C74.6795 67.4694 75.6898 67 76.7395 67C77.9859 67 79.0356 67.5345 79.7966 68.4863C79.8885 68.6167 79.9541 68.734 80.0328 68.8644C80.0853 68.734 80.1509 68.6297 80.2165 68.4863C80.8725 67.5345 82.0928 67 83.1949 67C84.2184 67 85.1893 67.5215 86.1209 68.4863C86.8819 69.2686 87 70.2725 87 71.4198V77H85.7273V71.5502C85.7273 70.8331 85.6748 70.0508 85.2549 69.4381C84.7432 68.6819 83.9953 68.2777 83.1162 68.2777C82.3027 68.2777 81.5023 68.708 81.03 69.3859C80.6232 69.9987 80.6364 70.8331 80.6364 71.5502V77H79.3636V71.4068C79.3636 70.6767 79.3243 70.103 78.9175 69.4511C78.4321 68.734 77.6448 68.2647 76.7919 68.2647C76.0047 68.2647 75.2043 68.6167 74.7188 69.3077C74.2858 69.9465 74.2727 70.6506 74.2727 71.3937V76.987H73V67.2086H74.2071L74.2202 67.2216Z" fill="#A7B4C8"/>
<path d="M93.9264 75.7628C95.3454 75.7628 96.7912 74.9719 97.3668 73.6582H98.7189C98.0495 75.5842 96.0817 77 94.0469 77C91.2356 77 89 74.7934 89 72C89 69.2066 91.2222 67 94.0067 67C95.5194 67 96.9117 67.6888 97.8755 68.8495C98.7724 69.9464 98.9598 71.0689 99 72.4592H90.2985C90.3655 74.2832 92.1459 75.7628 93.9264 75.7628ZM94.0335 68.2372C92.2262 68.2372 90.6198 69.5128 90.2985 71.2857H97.7015C97.3668 69.5893 95.8005 68.2372 94.0201 68.2372H94.0335Z" fill="#A7B4C8"/>
<path d="M101.146 67.2214V68.6276C101.839 67.5729 102.772 67 103.956 67C105.14 67 106.35 67.5729 107.169 68.6276C107.861 69.5781 108 70.6068 108 71.8437V76.987H106.778V71.8437C106.778 70.9974 106.715 70.2161 106.249 69.526C105.707 68.7057 104.838 68.276 103.918 68.276C103.074 68.276 102.192 68.7187 101.701 69.474C101.222 70.1771 101.235 71.0234 101.222 71.8568V77H100V67.2344H101.159L101.146 67.2214Z" fill="#A7B4C8"/>
<path d="M110 68.5558V67.3751H111.812V64H112.983V67.3751H115V68.5558H112.983V77H111.812V68.5558H110Z" fill="#A7B4C8"/>
<path d="M7.53772 95.9867C4.01741 95.9867 1 92.877 1 88.9266C1 87.1382 1.74178 85.3232 2.88588 84.0686C4.15571 82.6806 5.79014 82 7.55029 82C8.82012 82 10.0774 82.387 11.1335 83.1478C11.9255 83.735 12.9565 84.776 13.2582 85.817H11.8752C11.0203 84.2288 9.24758 83.2946 7.55029 83.2946C6.24275 83.2946 4.92263 83.7884 3.91683 84.816C2.91103 85.8437 2.23211 87.3918 2.23211 88.9399C2.23211 92.2364 4.69633 94.6921 7.60058 94.6921C9.77563 94.6921 11.9255 93.1039 12.5416 90.7417H5.70213V89.5138H14C13.7737 93.2374 10.8317 96 7.53772 96V95.9867Z" fill="#A7B4C8"/>
<path d="M17.2226 86.2216V87.6297C17.7276 86.4694 18.8306 86.0391 20 86V87.3038C19.2957 87.3559 18.8173 87.5254 18.2724 87.9818C17.3821 88.751 17.289 89.4159 17.289 90.5241V96H16V86.2216H17.2226Z" fill="#A7B4C8"/>
<path d="M25.0267 95.9873C22.3067 95.9873 20 93.7834 20 91.0446C20 88.3057 22.2267 86 25.0267 86C27.8267 86 30 88.2675 30 90.9299C30 93.5924 27.7867 96 25.0267 96V95.9873ZM25.0267 94.7516C27.16 94.7516 28.7067 93.0064 28.7067 90.9299C28.7067 89.8854 28.36 89.0191 27.5867 88.293C26.9067 87.6433 25.9733 87.2484 25.0267 87.2484C22.9067 87.2484 21.2933 88.9809 21.2933 91.0573C21.2933 93.1338 22.9733 94.7643 25.0267 94.7643V94.7516Z" fill="#A7B4C8"/>
<path d="M38.8373 95.7783V94.2529C38.2433 95.5046 37.0932 96 35.8294 96C34.6667 96 33.6682 95.5567 32.6445 94.2529C32.1011 93.6271 32 92.4407 32 91.163V86H33.2259V91.163C33.2259 91.9192 33.2638 92.6623 33.6303 93.3272C34.1232 94.2529 35.0079 94.7353 36.0063 94.7353C36.891 94.7353 37.6998 94.3051 38.2306 93.5359C38.6983 92.8318 38.7741 91.9974 38.7741 91.163V86H40V95.7783H38.8373Z" fill="#A7B4C8"/>
<path d="M43.2269 87.8301C43.9789 86.6058 45.6412 86 47 86C48.3588 86 49.6649 86.5301 50.8786 87.8301C51.4459 88.3476 52 89.5971 52 90.9854C52 93.8126 49.6253 95.9078 46.8681 95.9078C45.4697 95.9078 43.8997 95.2262 43.2797 93.9136V99H42V86.2019H43.2137V87.8301H43.2269ZM47 87.2243C44.9156 87.2243 43.2005 88.7641 43.2005 90.8592C43.2005 91.8942 43.4644 92.765 44.2032 93.5097C44.9156 94.2544 45.8786 94.6709 46.9077 94.6709C49.0185 94.6709 50.7203 93.0932 50.7203 90.9602C50.7203 88.8272 49.0581 87.2243 47 87.2243Z" fill="#A7B4C8"/>
<path d="M61.1663 83V94.8205H66V96H60V83H61.1663Z" fill="#A7B4C8"/>
<path d="M66 87.5558V86.3751H67.8116V83H68.9831V86.3751H71V87.5558H68.9831V96H67.8116V87.5558H66Z" fill="#A7B4C8"/>
<path d="M81.7927 95.7733V94.0475C80.8478 95.3828 79.6142 96 77.9869 96C76.622 96 75.3622 95.4457 74.0367 94.0475C73.5774 93.6444 73 92.4099 73 91.0242C73 88.2025 75.3228 86.1114 78.0656 86.1114C79.4829 86.1114 80.9396 86.7287 81.727 87.9632V83H83V95.7733H81.7927ZM74.273 90.999C74.273 93.0775 75.9396 94.7655 78.0131 94.7655C80.0866 94.7655 81.7533 93.0775 81.7533 90.999C81.7533 88.9205 80.0341 87.3333 77.9738 87.3333C75.9134 87.3333 74.2598 88.9583 74.2598 90.999H74.273Z" fill="#A7B4C8"/>
<path d="M1 15V0H58V15H54.0922L54.118 3.94943L4.94665 3.98867V14.9869L1 15Z" fill="#D4EDFC"/>
<path d="M1 101V116H58V101H54.0922L54.118 112.054L4.94665 112.002V101.026L1 101Z" fill="#D4EDFC"/>
</g>
<defs>
<clipPath id="clip0_810_3918">
<rect width="116" height="116" fill="white"/>
</clipPath>
</defs>
</svg>
