<svg width="84" height="84" viewBox="0 0 84 84" fill="none" xmlns="http://www.w3.org/2000/svg">
<g clip-path="url(#clip0_1020_9243)">
<path d="M6.00006 28.4165C7.84561 28.4165 9.37102 27.0605 9.37102 25.1676C9.37102 24.2757 8.92846 23.3929 8.2505 22.8287C7.49721 22.2099 6.6686 21.9823 5.73641 21.7366C4.71947 21.4727 3.69312 21.1997 2.87392 20.4898C1.96997 19.7072 1.50858 18.5969 1.50858 17.4229C1.50858 14.7746 3.58012 13 6.13188 13C8.68364 13 10.6234 14.9384 10.6045 17.4502H8.90963C8.79664 15.7848 7.61021 14.5835 5.93414 14.5835C4.35224 14.5835 3.13757 15.894 3.13757 17.4502C3.13757 19.4251 4.76655 19.8983 6.35787 20.3442C7.52546 20.6809 8.5424 20.8812 9.48401 21.7457C10.4539 22.5921 11 23.8844 11 25.1949C11 27.9069 8.68364 30 6.04714 30C3.26939 30 0.981283 27.9797 1.00012 25.113H2.74209C2.78917 26.9149 4.17334 28.4256 6.00006 28.4256V28.4165Z" fill="#D4EDFC" stroke="#778894" stroke-width="0.25" stroke-miterlimit="10"/>
<path d="M22.5266 29.7115V27.3665C21.6568 29.116 19.9083 30 18.1243 30C16.3402 30 14.574 29.1811 13.1183 27.3665C12.7012 26.864 12 25.3006 12 23.4116C12 21.7552 12.7722 20.0429 13.1805 19.6335C14.9024 17.6142 16.5 17 18.0799 17C19.8639 17 21.6746 17.8654 22.5266 19.6335V17.2699H24V29.7022H22.5266V29.7115ZM18.1243 28.3901C20.4941 28.3901 22.5266 26.1661 22.5266 23.5698C22.5266 20.8153 20.6183 18.6099 18.0799 18.6099C15.5414 18.6099 13.5355 20.7967 13.5355 23.5419C13.5355 26.287 15.6923 28.3808 18.1243 28.3808V28.3901Z" fill="#D4EDFC" stroke="#778894" stroke-width="0.25" stroke-miterlimit="10"/>
<path d="M27.7838 17L32 26.9431L36.2162 17H38L32.849 29H31.132L26 17H27.7838Z" fill="#D4EDFC" stroke="#778894" stroke-width="0.25" stroke-miterlimit="10"/>
<path d="M49.5266 29.7115V27.3665C48.6568 29.116 46.9083 30 45.1243 30C43.3402 30 41.574 29.1811 40.1183 27.3665C39.7012 26.864 39 25.3006 39 23.4116C39 21.7552 39.7722 20.0429 40.1805 19.6335C41.9024 17.6142 43.5 17 45.0799 17C46.8639 17 48.6746 17.8654 49.5266 19.6335V17.2699H51V29.7022H49.5266V29.7115ZM45.1243 28.3901C47.4941 28.3901 49.5266 26.1661 49.5266 23.5698C49.5266 20.8153 47.6183 18.6099 45.0799 18.6099C42.5414 18.6099 40.5355 20.7967 40.5355 23.5419C40.5355 26.287 42.6923 28.3808 45.1243 28.3808V28.3901Z" fill="#D4EDFC" stroke="#778894" stroke-width="0.25" stroke-miterlimit="10"/>
<path d="M56 13V29H55V13H56Z" fill="#D4EDFC" stroke="#778894" stroke-width="0.25" stroke-miterlimit="10"/>
<path d="M60 13V29H59V13H60Z" fill="#D4EDFC" stroke="#778894" stroke-width="0.25" stroke-miterlimit="10"/>
<path d="M69.0315 30C65.7775 30 63 27.1339 63 23.5698C63 20.0057 65.6697 17 69.0315 17C72.3933 17 75 19.9592 75 23.4116C75 26.864 72.3483 30 69.0315 30ZM69.0315 28.3901C71.5933 28.3901 73.4449 26.1195 73.4449 23.4116C73.4449 22.0437 73.0225 20.9363 72.0966 19.9778C71.2787 19.1403 70.164 18.6099 69.0225 18.6099C66.4786 18.6099 64.5461 20.8618 64.5461 23.5698C64.5461 26.2777 66.5685 28.3901 69.0225 28.3901H69.0315Z" fill="#D4EDFC" stroke="#778894" stroke-width="0.25" stroke-miterlimit="10"/>
<path d="M80.5286 28.382C81.6102 28.382 82.4911 27.5451 82.4911 26.3176C82.4911 24.8205 81.427 24.2718 80.328 23.9278C79.6128 23.6767 78.8627 23.4256 78.3045 22.8398C77.7114 22.2539 77.4061 21.3612 77.4061 20.4778C77.4061 18.4599 78.8714 17 80.6333 17C82.3951 17 83.7122 18.5436 83.7122 20.3662H82.2033C82.2033 19.2783 81.4444 18.618 80.4676 18.618C79.6128 18.618 78.915 19.3898 78.915 20.3476C78.915 21.7146 79.8919 22.0773 80.8775 22.412C82.5521 22.9979 84 23.7976 84 26.0479C84 28.2983 82.4736 30 80.3891 30C78.4877 30 76.9002 28.1588 77.0049 26.0479H78.5138C78.4702 27.3219 79.3947 28.3913 80.5373 28.3913L80.5286 28.382Z" fill="#D4EDFC" stroke="#778894" stroke-width="0.25" stroke-miterlimit="10"/>
<path d="M0 33.9073V33H5V33.9073H2.96673V43H2.07024V33.9073H0Z" fill="#A7B4C8"/>
<path d="M6.91694 35.1552V36.1408C7.29568 35.3286 8.12292 35.0274 9 35V35.9126C8.47176 35.9492 8.11296 36.0678 7.70432 36.3872C7.03654 36.9257 6.96678 37.3911 6.96678 38.1669V42H6V35.1552H6.91694Z" fill="#A7B4C8"/>
<path d="M15.1515 41.8395V40.5822C14.6443 41.5274 13.6206 42 12.5784 42C11.5362 42 10.5033 41.5631 9.65481 40.5822C9.41502 40.3146 9 39.4675 9 38.451C9 37.5592 9.45191 36.6408 9.6917 36.4178C10.697 35.3299 11.6285 35 12.5507 35C13.5929 35 14.6443 35.4637 15.1423 36.4178V35.1427H16V41.8306H15.1423L15.1515 41.8395ZM12.5784 41.1261C13.9618 41.1261 15.1515 39.9312 15.1515 38.5312C15.1515 37.051 14.0356 35.865 12.5599 35.865C11.0843 35.865 9.90382 37.042 9.90382 38.5223C9.90382 40.0025 11.1673 41.1261 12.5784 41.1261Z" fill="#A7B4C8"/>
<path d="M23.1549 42.8256V41.4981C22.4934 42.5252 21.6299 43 20.4908 43C19.5354 43 18.6535 42.5736 17.7257 41.4981C17.4042 41.188 17 40.2384 17 39.1725C17 37.0019 18.626 35.3934 20.5459 35.3934C21.5381 35.3934 22.5577 35.8682 23.1089 36.8178V33H24V42.8256H23.1549ZM17.8911 39.1531C17.8911 40.7519 19.0577 42.0504 20.5092 42.0504C21.9606 42.0504 23.1273 40.7519 23.1273 39.1531C23.1273 37.5543 21.9239 36.3333 20.4816 36.3333C19.0394 36.3333 17.8819 37.5833 17.8819 39.1531H17.8911Z" fill="#A7B4C8"/>
<path d="M27 33V34.7078H26V33H27ZM27 35.5962V43H26V35.5962H27Z" fill="#A7B4C8"/>
<path d="M28.8598 35.1549V36.1393C29.3795 35.401 30.0787 35 30.9669 35C31.8551 35 32.7717 35.401 33.3764 36.1393C33.8961 36.8047 34 37.5247 34 38.3906V41.9909H33.0835V38.3906C33.0835 37.7982 33.0362 37.2513 32.6866 36.7682C32.2803 36.194 31.6283 35.8932 30.9386 35.8932C30.3055 35.8932 29.6441 36.2031 29.2756 36.7318C28.9165 37.224 28.926 37.8164 28.9165 38.3997V42H28V35.1641H28.8693L28.8598 35.1549Z" fill="#A7B4C8"/>
<path d="M41.2295 43.8501C40.5718 44.6041 39.5289 45 38.5611 45C37.0765 45 35.6201 43.9538 35.2537 42.3987H36.1463C36.6725 43.4449 37.4805 44.0763 38.6362 44.0763C39.5007 44.0763 40.4027 43.6616 40.8443 42.8511C41.1356 42.295 41.1356 41.8426 41.1356 41.2205V40.8341C40.7034 41.8992 39.5477 42.3987 38.4953 42.3987C37.6027 42.3987 36.7007 41.9934 36.0617 41.3619C35.3477 40.655 35 39.7502 35 38.7135C35 37.6767 35.3946 36.8096 35.6389 36.5269C36.5315 35.3487 37.4805 35 38.4389 35C39.5101 35 40.6094 35.509 41.1262 36.5269V35.1602H42V41.2205C42 42.3233 41.9624 42.9925 41.2107 43.8501H41.2295ZM38.5141 41.4844C39.2282 41.4844 39.8577 41.2394 40.3651 40.6833C40.8255 40.1838 41.1262 39.4015 41.1262 38.7041C41.1262 37.1112 39.9329 35.9237 38.4201 35.9237C37.0107 35.9237 35.9114 37.1772 35.9114 38.6287C35.9114 40.1932 36.9638 41.4844 38.5047 41.4844H38.5141Z" fill="#A7B4C8"/>
<path d="M53.7912 39.9561L56 42.3416L55.3715 43L53.3782 40.8435C52.8215 42.084 52.0314 43 50.7026 43C49.2031 43 48 41.6546 48 40.0038C48 38.6202 48.9428 37.6851 49.9574 37.1221C49.4276 36.5305 49.0325 35.9962 49.0325 35.1088C49.0325 33.9351 50.0471 33.0191 51.0707 33C52.229 33.0095 53.2076 33.9828 53.2166 35.2901C53.2076 36.4065 52.3636 37.1126 51.5107 37.4656L53.1627 39.2691L54.4287 36.5496H55.4074L53.7912 39.9656V39.9561ZM48.8709 40.0706C48.8709 41.1202 49.67 42.0744 50.6308 42.0553C51.7531 42.0649 52.2828 41.1107 52.7318 40.1279L50.6308 37.8473L50.2536 38.0668C49.4994 38.4866 48.8709 39.0496 48.8709 40.0515V40.0706ZM49.9125 35.166C49.9125 35.8053 50.4781 36.3397 50.8642 36.75C51.5017 36.5019 52.3547 36.0343 52.3547 35.1565C52.3547 34.4599 51.7172 33.9256 51.1246 33.9256C50.4781 33.9256 49.9125 34.4218 49.9125 35.166Z" fill="#A7B4C8"/>
<path d="M2.33168 46L5.50447 54.5108L8.65938 46H10V56H9.13307V47.1144L5.8709 56H5.1291L1.86693 47.1144V56H1V46H2.34062H2.33168Z" fill="#A7B4C8"/>
<path d="M18.1515 54.8395V53.5822C17.6443 54.5274 16.6206 55 15.5784 55C14.5362 55 13.5033 54.5631 12.6548 53.5822C12.415 53.3146 12 52.4675 12 51.451C12 50.5592 12.4519 49.6408 12.6917 49.4178C13.697 48.3299 14.6285 48 15.5507 48C16.5929 48 17.6443 48.4637 18.1423 49.4178V48.1427H19V54.8306H18.1423L18.1515 54.8395ZM15.5784 54.1261C16.9618 54.1261 18.1515 52.9312 18.1515 51.5312C18.1515 50.051 17.0356 48.865 15.5599 48.865C14.0843 48.865 12.9038 50.042 12.9038 51.5223C12.9038 53.0025 14.1673 54.1261 15.5784 54.1261Z" fill="#A7B4C8"/>
<path d="M20.8598 48.1549V49.1393C21.3795 48.401 22.0787 48 22.9669 48C23.8551 48 24.7717 48.401 25.3764 49.1393C25.8961 49.8047 26 50.5247 26 51.3906V54.9909H25.0835V51.3906C25.0835 50.7982 25.0362 50.2513 24.6866 49.7682C24.2803 49.194 23.6283 48.8932 22.9386 48.8932C22.3055 48.8932 21.6441 49.2031 21.2756 49.7318C20.9165 50.224 20.926 50.8164 20.9165 51.3997V55H20V48.1641H20.8693L20.8598 48.1549Z" fill="#A7B4C8"/>
<path d="M33.1515 54.8395V53.5822C32.6443 54.5274 31.6206 55 30.5784 55C29.5362 55 28.5033 54.5631 27.6548 53.5822C27.415 53.3146 27 52.4675 27 51.451C27 50.5592 27.4519 49.6408 27.6917 49.4178C28.697 48.3299 29.6285 48 30.5507 48C31.5929 48 32.6443 48.4637 33.1423 49.4178V48.1427H34V54.8306H33.1423L33.1515 54.8395ZM30.5784 54.1261C31.9618 54.1261 33.1515 52.9312 33.1515 51.5312C33.1515 50.051 32.0356 48.865 30.5599 48.865C29.0843 48.865 27.9038 50.042 27.9038 51.5223C27.9038 53.0025 29.1673 54.1261 30.5784 54.1261Z" fill="#A7B4C8"/>
<path d="M42.2295 56.8501C41.5718 57.6041 40.5289 58 39.5611 58C38.0765 58 36.6201 56.9538 36.2537 55.3987H37.1463C37.6725 56.4449 38.4805 57.0763 39.6362 57.0763C40.5007 57.0763 41.4027 56.6616 41.8443 55.8511C42.1356 55.295 42.1356 54.8426 42.1356 54.2205V53.8341C41.7034 54.8897 40.5477 55.3987 39.4953 55.3987C38.6027 55.3987 37.7007 54.9934 37.0617 54.3619C36.3476 53.655 36 52.7502 36 51.7135C36 50.6767 36.3946 49.8096 36.6389 49.5269C37.5315 48.3487 38.4805 48 39.4389 48C40.5101 48 41.6094 48.509 42.1262 49.5269V48.1602H43V54.2205C43 55.3233 42.9624 55.9925 42.2107 56.8501H42.2295ZM39.5141 54.4844C40.2282 54.4844 40.8577 54.2394 41.3651 53.6833C41.8255 53.1838 42.1262 52.4015 42.1262 51.7041C42.1262 50.1112 40.9329 48.9237 39.4201 48.9237C38.0107 48.9237 36.9114 50.1772 36.9114 51.6287C36.9114 53.1932 37.9638 54.4844 39.5047 54.4844H39.5141Z" fill="#A7B4C8"/>
<path d="M48.4485 54.1339C49.4418 54.1339 50.4538 53.5804 50.8661 52.6607H51.8126C51.344 54.0089 49.9665 55 48.5328 55C46.5649 55 45 53.4554 45 51.5C45 49.5446 46.5556 48 48.5047 48C49.5636 48 50.5382 48.4821 51.2129 49.2946C51.8407 50.0625 51.9719 50.8482 52 51.8214H45.909C45.9558 53.0982 47.2021 54.1339 48.4485 54.1339ZM48.5234 48.8661C47.2584 48.8661 46.1339 49.7589 45.909 51H51.091C50.8568 49.8125 49.7604 48.8661 48.5141 48.8661H48.5234Z" fill="#A7B4C8"/>
<path d="M53.8716 48.1551V49.0404C54.1996 48.3286 54.9213 48 55.671 48C56.5614 48 57.3112 48.3742 57.8547 49.0404C57.9203 49.1317 57.9672 49.2138 58.0234 49.3051C58.0609 49.2138 58.1078 49.1408 58.1546 49.0404C58.6232 48.3742 59.4948 48 60.2821 48C61.0131 48 61.7067 48.3651 62.3721 49.0404C62.9157 49.588 63 50.2907 63 51.0939V55H62.0909V51.1851C62.0909 50.6832 62.0534 50.1356 61.7535 49.7066C61.388 49.1773 60.8538 48.8944 60.2259 48.8944C59.6448 48.8944 59.0731 49.1956 58.7357 49.6701C58.4452 50.0991 58.4545 50.6832 58.4545 51.1851V55H57.5455V51.0847C57.5455 50.5737 57.5173 50.1721 57.2268 49.7158C56.88 49.2138 56.3177 48.8853 55.7085 48.8853C55.1462 48.8853 54.5745 49.1317 54.2277 49.6154C53.9185 50.0626 53.9091 50.5554 53.9091 51.0756V54.9909H53V48.146H53.8622L53.8716 48.1551Z" fill="#A7B4C8"/>
<path d="M67.4485 54.1339C68.4418 54.1339 69.4538 53.5804 69.8568 52.6607H70.8032C70.3347 54.0089 68.9572 55 67.5328 55C65.5649 55 64 53.4554 64 51.5C64 49.5446 65.5556 48 67.5047 48C68.5636 48 69.5382 48.4821 70.2129 49.2946C70.8407 50.0625 70.9719 50.8482 71 51.8214H64.909C64.9558 53.0982 66.2021 54.1339 67.4485 54.1339ZM67.5234 48.8661C66.2584 48.8661 65.1339 49.7589 64.909 51H70.091C69.8568 49.8125 68.7604 48.8661 67.5141 48.8661H67.5234Z" fill="#A7B4C8"/>
<path d="M72.8598 48.1549V49.1393C73.3795 48.401 74.0787 48 74.9669 48C75.8551 48 76.7622 48.401 77.3764 49.1393C77.8961 49.8047 78 50.5247 78 51.3906V54.9909H77.0835V51.3906C77.0835 50.7982 77.0362 50.2513 76.6866 49.7682C76.2803 49.194 75.6283 48.8932 74.9386 48.8932C74.3055 48.8932 73.6441 49.2031 73.2756 49.7318C72.9165 50.224 72.926 50.8164 72.9165 51.3997V55H72V48.1641H72.8693L72.8598 48.1549Z" fill="#A7B4C8"/>
<path d="M79 49.5044V48.5962H80.4493V46H81.3865V48.5962H83V49.5044H81.3865V56H80.4493V49.5044H79Z" fill="#A7B4C8"/>
<path d="M5.52611 68.9905C3.08897 68.9905 1 66.7693 1 63.9476C1 62.6702 1.51354 61.3737 2.30561 60.4776C3.18472 59.4862 4.31625 59 5.53482 59C6.41393 59 7.28433 59.2765 8.01547 59.8198C8.56383 60.2393 9.27756 60.9828 9.48646 61.7264H8.52901C7.93714 60.592 6.70986 59.9247 5.53482 59.9247C4.62959 59.9247 3.71567 60.2774 3.01934 61.0114C2.32302 61.7455 1.853 62.8513 1.853 63.9571C1.853 66.3117 3.55899 68.0658 5.56963 68.0658C7.07544 68.0658 8.56383 66.9314 8.99033 65.244H4.25532V64.367H10C9.84333 67.0267 7.80658 69 5.52611 69V68.9905Z" fill="#A7B4C8"/>
<path d="M12.9169 62.1551V63.1408C13.2957 62.3286 14.1229 62.0274 15 62V62.9126C14.4718 62.9492 14.113 63.0678 13.7043 63.3872C13.0365 63.9257 12.9668 64.3911 12.9668 65.1669V69H12V62.1551H12.9169Z" fill="#A7B4C8"/>
<path d="M17.5187 68.9911C15.6147 68.9911 14 67.4484 14 65.5312C14 63.614 15.5587 62 17.5187 62C19.4787 62 21 63.5873 21 65.451C21 67.3147 19.4507 69 17.5187 69V68.9911ZM17.5187 68.1261C19.012 68.1261 20.0947 66.9045 20.0947 65.451C20.0947 64.7197 19.852 64.1134 19.3107 63.6051C18.8347 63.1503 18.1813 62.8739 17.5187 62.8739C16.0347 62.8739 14.9053 64.0866 14.9053 65.5401C14.9053 66.9936 16.0813 68.135 17.5187 68.135V68.1261Z" fill="#A7B4C8"/>
<path d="M28.128 68.8448V67.7771C27.6825 68.6532 26.8199 69 25.872 69C25 69 24.2512 68.6897 23.4834 67.7771C23.0758 67.339 23 66.5085 23 65.6141V62H23.9194V65.6141C23.9194 66.1434 23.9479 66.6636 24.2227 67.1291C24.5924 67.7771 25.2559 68.1147 26.0047 68.1147C26.6682 68.1147 27.2749 67.8136 27.673 67.2751C28.0237 66.7823 28.0806 66.1982 28.0806 65.6141V62H29V68.8448H28.128Z" fill="#A7B4C8"/>
<path d="M30.8588 63.4078C31.3852 62.466 32.5488 62 33.5 62C34.4512 62 35.3654 62.4078 36.215 63.4078C36.6121 63.8058 37 64.767 37 65.8349C37 68.0097 35.3377 69.6214 33.4077 69.6214C32.4288 69.6214 31.3298 69.0971 30.8958 68.0874V72H30V62.1553H30.8496V63.4078H30.8588ZM33.5 62.9417C32.0409 62.9417 30.8404 64.1262 30.8404 65.7379C30.8404 66.534 31.0251 67.2039 31.5422 67.7767C32.0409 68.3495 32.715 68.6699 33.4354 68.6699C34.9129 68.6699 36.1042 67.4563 36.1042 65.8155C36.1042 64.1748 34.9406 62.9417 33.5 62.9417Z" fill="#A7B4C8"/>
<path d="M43.7776 60V69.0927H47V70H43V60H43.7776Z" fill="#A7B4C8"/>
<path d="M48 63.5044V62.5962H49.4493V60H50.3865V62.5962H52V63.5044H50.3865V70H49.4493V63.5044H48Z" fill="#A7B4C8"/>
<path d="M59.1549 69.8256V68.4981C58.4934 69.5252 57.6299 70 56.4908 70C55.5354 70 54.6535 69.5736 53.7257 68.4981C53.4042 68.188 53 67.2384 53 66.1725C53 64.0019 54.626 62.3934 56.5459 62.3934C57.5381 62.3934 58.5577 62.8682 59.1089 63.8178V60H60V69.8256H59.1549ZM53.8911 66.1531C53.8911 67.7519 55.0577 69.0504 56.5092 69.0504C57.9606 69.0504 59.1273 67.7519 59.1273 66.1531C59.1273 64.5543 57.9239 63.3333 56.4816 63.3333C55.0394 63.3333 53.8819 64.5833 53.8819 66.1531H53.8911Z" fill="#A7B4C8"/>
<path d="M1 11V0H42V11H39.1891L39.2077 2.89625L3.83882 2.92502V10.9904L1 11Z" fill="#D4EDFC"/>
<path d="M1 73V84H42V73H39.1891L39.2077 81.1063L3.83882 81.0679V73.0192L1 73Z" fill="#D4EDFC"/>
</g>
<defs>
<clipPath id="clip0_1020_9243">
<rect width="84" height="84" fill="white"/>
</clipPath>
</defs>
</svg>
