<svg width="30" height="30" viewBox="0 0 30 30" fill="none" xmlns="http://www.w3.org/2000/svg">
<path fill-rule="evenodd" clip-rule="evenodd" d="M3.18267 7.25863C3.15632 7.40676 3.14258 7.55912 3.14258 7.71449V22.2859C3.14258 23.6957 4.27362 24.8574 5.69203 24.8574H24.3074C25.7259 24.8574 26.8569 23.6957 26.8569 22.2859V7.71449C26.8569 7.5595 26.8432 7.40749 26.817 7.2597C26.9041 6.98471 26.8504 6.67225 26.6475 6.43838C26.5745 6.35424 26.4888 6.28778 26.3956 6.23937C25.9362 5.57836 25.1757 5.14307 24.3074 5.14307H5.69203C4.8236 5.14307 4.0629 5.57855 3.60354 6.23979C3.5107 6.28817 3.42523 6.35449 3.35248 6.43838C3.14988 6.67195 3.09602 6.9839 3.18267 7.25863ZM4.85686 8.87786V22.2859C4.85686 22.7698 5.24116 23.1431 5.69203 23.1431H24.3074C24.7583 23.1431 25.1426 22.7698 25.1426 22.2859V8.87832L16.6447 16.249L16.637 16.2557L16.6369 16.2557C16.1792 16.6432 15.6001 16.8571 15 16.8571C14.3999 16.8571 13.8208 16.6432 13.363 16.2557L13.3552 16.2491L13.3553 16.249L4.85686 8.87786ZM24.7242 6.97196C24.6005 6.89879 24.4576 6.85735 24.3074 6.85735H5.69203C5.54194 6.85735 5.39922 6.89872 5.2756 6.97177L14.474 14.9501C14.6239 15.0757 14.8099 15.1429 15 15.1429C15.19 15.1429 15.376 15.0757 15.526 14.9501L24.7242 6.97196Z" fill="#3B4B58"/>
</svg>
