<svg width="735" height="80" viewBox="0 0 735 80" fill="none" xmlns="http://www.w3.org/2000/svg">
<path d="M10.1411 40.221H56.8347V78.674H66.9758V1.32596H56.8347V35.1381H10.1411V1.32596H0V78.674H10.1411V40.221Z" fill="#EFF1F5"/>
<path d="M85.8149 1.32596L112.784 49.3923V78.674H122.925V48.3978L150.339 1.32596H144.321L120.473 42.0994H120.027L97.2933 1.32596H85.8149Z" fill="#EFF1F5"/>
<path d="M170.276 78.674V1.32596H195.907C202.074 1.32596 207.72 2.32044 212.846 4.30939C217.973 6.22468 222.356 8.91344 225.996 12.3757C229.711 15.7643 232.571 19.8158 234.577 24.5304C236.657 29.2449 237.698 34.3278 237.698 39.779C237.698 45.4512 236.62 50.6814 234.466 55.4696C232.386 60.1842 229.488 64.2726 225.773 67.7348C222.133 71.1971 217.861 73.8858 212.958 75.8011C208.054 77.7164 202.817 78.674 197.245 78.674H170.276ZM180.417 73.8122H192.676C198.768 73.8122 203.931 72.8177 208.166 70.8287C212.475 68.7661 216.004 66.1142 218.753 62.8729C221.502 59.6317 223.507 56.0221 224.77 52.0442C226.033 47.9926 226.665 43.9779 226.665 40C226.665 35.5801 225.922 31.3444 224.436 27.2928C222.95 23.1676 220.759 19.558 217.861 16.4641C215.038 13.2965 211.509 10.7919 207.274 8.95027C203.04 7.10865 198.173 6.18784 192.676 6.18784H180.417V73.8122Z" fill="#EFF1F5"/>
<path d="M256.518 1.32596V78.674H266.659V44.5304H271.562C273.642 44.5304 275.351 44.7145 276.688 45.0829C278.1 45.4512 279.363 46.0773 280.477 46.9613C281.592 47.8453 282.632 48.9871 283.598 50.3867C284.563 51.7864 285.715 53.5175 287.052 55.5801L295.856 68.5083C296.97 70.2026 298.048 71.7495 299.088 73.1492C300.202 74.5488 301.391 75.7643 302.654 76.7956C303.917 77.7532 305.329 78.5267 306.889 79.116C308.523 79.7053 310.455 80 312.684 80C314.318 80 315.655 79.9263 316.695 79.779C317.736 79.6317 318.776 79.2634 319.816 78.674V74.5856C319.444 74.6593 319.073 74.733 318.701 74.8066C318.33 74.8066 317.958 74.8066 317.587 74.8066C316.027 74.8066 314.652 74.5856 313.464 74.1436C312.275 73.7017 311.161 73.0755 310.12 72.2652C309.08 71.3812 308.077 70.3499 307.112 69.1713C306.146 67.919 305.143 66.5193 304.103 64.9724C300.982 60.4788 298.568 56.9061 296.859 54.2541C295.15 51.5285 293.776 49.4291 292.736 47.9558C291.77 46.4825 290.953 45.4144 290.284 44.7514C289.69 44.0884 288.947 43.5359 288.055 43.0939L286.941 42.5414V42.0994C290.507 41.8785 293.553 41.105 296.079 39.779C298.679 38.453 300.797 36.7956 302.431 34.8066C304.066 32.8177 305.254 30.6814 305.997 28.3978C306.74 26.0405 307.112 23.7569 307.112 21.547C307.112 19.558 306.703 17.3849 305.886 15.0276C305.143 12.6703 303.806 10.4972 301.874 8.50828C300.017 6.44567 297.453 4.75138 294.184 3.42541C290.916 2.02578 286.792 1.32596 281.815 1.32596H256.518ZM266.659 6.18784H277.914C280.737 6.18784 283.263 6.593 285.492 7.40331C287.795 8.21363 289.764 9.35543 291.398 10.8287C293.033 12.2284 294.259 13.9227 295.076 15.9116C295.968 17.9006 296.413 20.0737 296.413 22.4309C296.413 24.4199 296.005 26.4457 295.187 28.5083C294.445 30.4972 293.293 32.3389 291.733 34.0331C290.173 35.6538 288.241 36.9797 285.938 38.011C283.709 39.0424 281.109 39.558 278.137 39.558H266.659V6.18784Z" fill="#EFF1F5"/>
<path d="M330.849 40C330.849 44.1252 331.629 48.5451 333.189 53.2597C334.824 57.9006 337.35 62.2099 340.767 66.1878C344.185 70.1657 348.531 73.4807 353.806 76.1326C359.081 78.7109 365.395 80 372.751 80C377.728 80 382.223 79.4107 386.235 78.232C390.321 76.9797 393.961 75.3223 397.156 73.2597C400.425 71.1971 403.248 68.8398 405.626 66.1878C408.003 63.4622 409.935 60.6261 411.42 57.6796C412.981 54.6593 414.132 51.639 414.875 48.6188C415.692 45.5985 416.101 42.7256 416.101 40C416.101 35.8748 415.247 31.4917 413.538 26.8508C411.829 22.1363 409.192 17.7901 405.626 13.8122C402.059 9.83425 397.527 6.55617 392.03 3.9779C386.606 1.32596 380.18 0 372.751 0C365.395 0 359.081 1.28913 353.806 3.8674C348.531 6.44567 344.185 9.72376 340.767 13.7017C337.35 17.6059 334.824 21.9153 333.189 26.6298C331.629 31.3444 330.849 35.8011 330.849 40ZM341.77 40C341.77 34.8435 342.55 30.1289 344.11 25.8564C345.745 21.5101 347.936 17.7901 350.685 14.6961C353.508 11.6022 356.815 9.2081 360.604 7.51381C364.393 5.74585 368.516 4.86188 372.973 4.86188C377.357 4.86188 381.48 5.74585 385.343 7.51381C389.281 9.2081 392.698 11.6022 395.596 14.6961C398.568 17.7901 400.908 21.5101 402.617 25.8564C404.325 30.1289 405.18 34.8435 405.18 40C405.18 45.1565 404.325 49.9079 402.617 54.2541C400.908 58.5267 398.568 62.2099 395.596 65.3039C392.698 68.3978 389.281 70.8287 385.343 72.5967C381.48 74.291 377.357 75.1381 372.973 75.1381C368.516 75.1381 364.393 74.291 360.604 72.5967C356.815 70.8287 353.508 68.3978 350.685 65.3039C347.936 62.2099 345.745 58.5267 344.11 54.2541C342.55 49.9079 341.77 45.1565 341.77 40Z" fill="#EFF1F5"/>
<path d="M439.667 1.32596H427.185L457.609 40.1105L427.743 78.674H433.76L460.395 44.0884H460.84L488.032 78.674H500.625L466.858 35.9116L493.493 1.32596H487.586L464.072 31.7127H463.515L439.667 1.32596Z" fill="#EFF1F5"/>
<path d="M519.456 1.32596V78.674H569.827V72.5967H529.597V40.221H564.144V35.1381H529.597V7.40331H569.827V1.32596H519.456Z" fill="#EFF1F5"/>
<path d="M584.18 1.32596V48.8398C584.18 51.86 584.477 55.2118 585.071 58.895C585.666 62.5046 587.077 65.8932 589.306 69.0608C591.535 72.1547 594.841 74.7698 599.224 76.9061C603.608 78.9687 609.588 80 617.166 80C621.921 80 626.119 79.2634 629.759 77.7901C633.474 76.3168 636.557 74.291 639.009 71.7127C641.535 69.1344 643.429 66.151 644.692 62.7624C645.955 59.3002 646.587 55.6169 646.587 51.7127V1.32596H641.683V48.0663C641.683 49.6869 641.646 51.3444 641.572 53.0387C641.498 54.6593 641.275 56.3168 640.903 58.0111C640.532 59.6317 639.937 61.2523 639.12 62.8729C638.377 64.4936 637.263 66.1142 635.777 67.7348C633.102 70.6077 630.094 72.5599 626.75 73.5912C623.407 74.6225 619.915 75.1381 616.275 75.1381C613.154 75.1381 610.368 74.6593 607.917 73.7017C605.539 72.744 603.273 71.3075 601.119 69.3923C599.41 67.919 598.11 66.4457 597.219 64.9724C596.327 63.4991 595.658 62.0626 595.213 60.663C594.767 59.1897 594.507 57.7164 594.432 56.2431C594.358 54.7698 594.321 53.2965 594.321 51.8232V1.32596H584.18Z" fill="#EFF1F5"/>
<path d="M670.987 1.32596V78.674H681.128V44.5304H686.032C688.112 44.5304 689.821 44.7145 691.158 45.0829C692.57 45.4512 693.833 46.0773 694.947 46.9613C696.062 47.8453 697.102 48.9871 698.068 50.3867C699.033 51.7864 700.185 53.5175 701.522 55.5801L710.326 68.5083C711.44 70.2026 712.518 71.7495 713.558 73.1492C714.672 74.5488 715.861 75.7643 717.124 76.7956C718.387 77.7532 719.798 78.5267 721.359 79.116C722.993 79.7053 724.925 80 727.154 80C728.788 80 730.125 79.9263 731.165 79.779C732.205 79.6317 733.246 79.2634 734.286 78.674V74.5856C733.914 74.6593 733.543 74.733 733.171 74.8066C732.8 74.8066 732.428 74.8066 732.057 74.8066C730.497 74.8066 729.122 74.5856 727.934 74.1436C726.745 73.7017 725.63 73.0755 724.59 72.2652C723.55 71.3812 722.547 70.3499 721.581 69.1713C720.616 67.919 719.613 66.5193 718.573 64.9724C715.452 60.4788 713.038 56.9061 711.329 54.2541C709.62 51.5285 708.246 49.4291 707.206 47.9558C706.24 46.4825 705.423 45.4144 704.754 44.7514C704.16 44.0884 703.417 43.5359 702.525 43.0939L701.411 42.5414V42.0994C704.977 41.8785 708.023 41.105 710.549 39.779C713.149 38.453 715.266 36.7956 716.901 34.8066C718.535 32.8177 719.724 30.6814 720.467 28.3978C721.21 26.0405 721.581 23.7569 721.581 21.547C721.581 19.558 721.173 17.3849 720.356 15.0276C719.613 12.6703 718.275 10.4972 716.344 8.50828C714.486 6.44567 711.923 4.75138 708.654 3.42541C705.385 2.02578 701.262 1.32596 696.284 1.32596H670.987ZM681.128 6.18784H692.384C695.207 6.18784 697.733 6.593 699.962 7.40331C702.265 8.21363 704.234 9.35543 705.868 10.8287C707.503 12.2284 708.729 13.9227 709.546 15.9116C710.437 17.9006 710.883 20.0737 710.883 22.4309C710.883 24.4199 710.475 26.4457 709.657 28.5083C708.914 30.4972 707.763 32.3389 706.203 34.0331C704.642 35.6538 702.711 36.9797 700.408 38.011C698.179 39.0424 695.579 39.558 692.607 39.558H681.128V6.18784Z" fill="#EFF1F5"/>
</svg>
