<svg width="490" height="80" viewBox="0 0 490 80" fill="none" xmlns="http://www.w3.org/2000/svg">
<path d="M0 59.116C0.148406 62.2836 0.964639 65.1565 2.4487 67.7348C4.00696 70.3131 6.08465 72.523 8.68175 74.3646C11.3531 76.1326 14.4696 77.5322 18.0313 78.5635C21.5931 79.5212 25.4887 80 29.7183 80C34.0221 80 37.8806 79.4843 41.294 78.453C44.7815 77.4217 47.7496 75.9484 50.1983 74.0331C52.647 72.1179 54.5392 69.7974 55.8749 67.0718C57.2105 64.3462 57.8783 61.326 57.8783 58.0111C57.8783 53.4438 56.7282 49.7238 54.4279 46.8508C52.1276 43.9042 49.2337 41.4733 45.7462 39.558C42.3328 37.5691 38.5856 35.9116 34.5044 34.5856C30.4974 33.2597 26.7502 31.86 23.2626 30.3867C19.8493 28.9134 16.9925 27.2192 14.6922 25.3039C12.3919 23.3886 11.2418 20.8471 11.2418 17.6796C11.2418 15.9116 11.6128 14.2541 12.3548 12.7072C13.171 11.1602 14.3212 9.83425 15.8052 8.72928C17.3635 7.55064 19.2557 6.62983 21.4818 5.96685C23.7079 5.2302 26.2679 4.86188 29.1618 4.86188C33.985 4.86188 38.0661 5.89318 41.4053 7.9558C44.8186 9.94475 46.8221 13.1123 47.4157 17.4586H54.9844C54.5392 14.733 53.5375 12.302 51.9792 10.1657C50.4209 7.9558 48.4546 6.11418 46.0801 4.64088C43.7056 3.09392 40.9972 1.95211 37.9548 1.21547C34.9867 0.405156 31.8702 0 28.6053 0C25.1919 0 21.927 0.441988 18.8105 1.32596C15.7681 2.20994 13.0597 3.49908 10.6852 5.19337C8.38494 6.88766 6.52986 9.02394 5.12001 11.6022C3.78435 14.1805 3.11653 17.1271 3.11653 20.442C3.11653 24.7882 4.22957 28.2873 6.45566 30.9392C8.68175 33.5912 11.4644 35.8011 14.8035 37.5691C18.2168 39.337 21.8899 40.8471 25.8226 42.0994C29.7554 43.3517 33.3914 44.7882 36.7305 46.4088C40.1438 47.9558 42.9635 49.8711 45.1896 52.1547C47.4157 54.4383 48.5288 57.4954 48.5288 61.326C48.5288 66.1142 46.7479 69.6133 43.1861 71.8232C39.6986 74.0331 35.0238 75.1381 29.1618 75.1381C24.487 75.1381 20.7397 74.5488 17.92 73.3702C15.1003 72.1179 12.9484 70.6446 11.4644 68.9503C9.9803 67.256 8.97856 65.5249 8.45914 63.7569C7.93972 61.9153 7.64291 60.3683 7.56871 59.116H0Z" fill="#EFF1F5"/>
<path d="M80.9441 1.32596V78.674H131.254V72.5967H91.0728V40.221H125.577V35.1381H91.0728V7.40331H131.254V1.32596H80.9441Z" fill="#EFF1F5"/>
<path d="M150.041 1.32596V78.674H160.17V44.5304H165.067C167.145 44.5304 168.852 44.7145 170.187 45.0829C171.597 45.4512 172.859 46.0773 173.972 46.9613C175.085 47.8453 176.123 48.9871 177.088 50.3867C178.053 51.7864 179.203 53.5175 180.539 55.5801L189.332 68.5083C190.445 70.2026 191.521 71.7495 192.559 73.1492C193.673 74.5488 194.86 75.7643 196.121 76.7956C197.383 77.7532 198.792 78.5267 200.351 79.116C201.983 79.7053 203.913 80 206.139 80C207.771 80 209.107 79.9263 210.146 79.779C211.184 79.6317 212.223 79.2634 213.262 78.674V74.5856C212.891 74.6593 212.52 74.733 212.149 74.8066C211.778 74.8066 211.407 74.8066 211.036 74.8066C209.478 74.8066 208.105 74.5856 206.918 74.1436C205.73 73.7017 204.617 73.0755 203.579 72.2652C202.54 71.3812 201.538 70.3499 200.573 69.1713C199.609 67.919 198.607 66.5193 197.568 64.9724C194.452 60.4788 192.04 56.9061 190.333 54.2541C188.627 51.5285 187.254 49.4291 186.215 47.9558C185.25 46.4825 184.434 45.4144 183.766 44.7514C183.173 44.0884 182.431 43.5359 181.54 43.0939L180.427 42.5414V42.0994C183.989 41.8785 187.031 41.105 189.554 39.779C192.151 38.453 194.266 36.7956 195.899 34.8066C197.531 32.8177 198.718 30.6814 199.46 28.3978C200.202 26.0405 200.573 23.7569 200.573 21.547C200.573 19.558 200.165 17.3849 199.349 15.0276C198.607 12.6703 197.271 10.4972 195.342 8.50828C193.487 6.44567 190.927 4.75138 187.662 3.42541C184.397 2.02578 180.279 1.32596 175.307 1.32596H150.041ZM160.17 6.18784H171.412C174.231 6.18784 176.754 6.593 178.98 7.40331C181.281 8.21363 183.247 9.35543 184.879 10.8287C186.512 12.2284 187.736 13.9227 188.553 15.9116C189.443 17.9006 189.888 20.0737 189.888 22.4309C189.888 24.4199 189.48 26.4457 188.664 28.5083C187.922 30.4972 186.772 32.3389 185.213 34.0331C183.655 35.6538 181.726 36.9797 179.426 38.011C177.199 39.0424 174.602 39.558 171.634 39.558H160.17V6.18784Z" fill="#EFF1F5"/>
<path d="M215.425 1.32596L248.037 78.674H254.716L286.326 1.32596H280.538L254.604 64.9724H254.159L227.446 1.32596H215.425Z" fill="#EFF1F5"/>
<path d="M309.644 1.32596V78.674H319.773V1.32596H309.644Z" fill="#EFF1F5"/>
<path d="M418.652 64.4199C411.083 71.4917 402.104 75.0276 391.716 75.0276C385.928 75.0276 380.808 74.0331 376.356 72.0442C371.904 70.0552 368.194 67.4033 365.225 64.0884C362.257 60.7735 359.994 56.9429 358.436 52.5967C356.952 48.2505 356.21 43.7201 356.21 39.0055C356.21 33.9963 356.989 29.4291 358.547 25.3039C360.18 21.105 362.443 17.4954 365.337 14.4751C368.231 11.4549 371.644 9.0976 375.577 7.40331C379.584 5.70902 383.925 4.86188 388.599 4.86188C391.79 4.86188 394.684 5.2302 397.281 5.96685C399.952 6.7035 402.29 7.66114 404.293 8.83978C406.371 10.0184 408.041 11.3812 409.302 12.9282C410.638 14.4015 411.565 15.9116 412.085 17.4586H420.321C419.208 14.954 417.761 12.6335 415.98 10.4972C414.274 8.36096 412.122 6.51933 409.525 4.97237C406.928 3.42541 403.885 2.20994 400.398 1.32596C396.91 0.441988 392.94 0 388.488 0C382.032 0 376.133 0.920809 370.791 2.76243C365.522 4.60405 360.996 7.25598 357.212 10.7182C353.427 14.1068 350.496 18.232 348.418 23.0939C346.341 27.8821 345.302 33.2597 345.302 39.2265C345.302 44.3831 346.118 49.4291 347.751 54.3646C349.457 59.2265 352.054 63.5727 355.542 67.4033C359.029 71.1602 363.482 74.2173 368.898 76.5746C374.315 78.8582 380.771 80 388.265 80C393.014 80 397.244 79.558 400.954 78.674C404.739 77.7901 408.003 76.7219 410.749 75.4696C413.569 74.1436 415.906 72.744 417.761 71.2707C419.616 69.7974 421.026 68.5083 421.991 67.4033L418.652 64.4199Z" fill="#EFF1F5"/>
<path d="M439.69 1.32596V78.674H490V72.5967H449.819V40.221H484.323V35.1381H449.819V7.40331H490V1.32596H439.69Z" fill="#EFF1F5"/>
</svg>
