<svg width="752" height="80" viewBox="0 0 752 80" fill="none" xmlns="http://www.w3.org/2000/svg">
<path d="M73.4349 64.4199C65.8574 71.4917 56.8684 75.0276 46.4679 75.0276C40.6733 75.0276 35.5474 74.0331 31.09 72.0442C26.6327 70.0552 22.9182 67.4033 19.9467 64.0884C16.9751 60.7735 14.7093 56.9429 13.1492 52.5967C11.6634 48.2505 10.9205 43.7201 10.9205 39.0055C10.9205 33.9963 11.7006 29.4291 13.2606 25.3039C14.895 21.105 17.1608 17.4954 20.0581 14.4751C22.9554 11.4549 26.3727 9.0976 30.31 7.40331C34.3216 5.70902 38.6675 4.86188 43.3478 4.86188C46.5422 4.86188 49.4395 5.2302 52.0396 5.96685C54.714 6.7035 57.0541 7.66114 59.0599 8.83978C61.14 10.0184 62.8115 11.3812 64.0745 12.9282C65.4117 14.4015 66.3403 15.9116 66.8603 17.4586H75.1064C73.9921 14.954 72.5434 12.6335 70.7605 10.4972C69.0518 8.36096 66.8974 6.51933 64.2973 4.97237C61.6972 3.42541 58.6513 2.20994 55.1598 1.32596C51.6682 0.441988 47.6937 0 43.2363 0C36.7732 0 30.8672 0.920809 25.5183 2.76243C20.2438 4.60405 15.7122 7.25598 11.9234 10.7182C8.13467 14.1068 5.20025 18.232 3.12015 23.0939C1.04005 27.8821 0 33.2597 0 39.2265C0 44.3831 0.817182 49.4291 2.45154 54.3646C4.1602 59.2265 6.76032 63.5727 10.2519 67.4033C13.7435 71.1602 18.2009 74.2173 23.624 76.5746C29.0471 78.8582 35.5102 80 43.0135 80C47.768 80 52.0025 79.558 55.7169 78.674C59.5057 77.7901 62.7744 76.7219 65.5231 75.4696C68.3461 74.1436 70.6862 72.744 72.5434 71.2707C74.4007 69.7974 75.8121 68.5083 76.7779 67.4033L73.4349 64.4199Z" fill="#EFF1F5"/>
<path d="M139.012 55.9116L149.709 78.674H160.518L124.191 1.32596H118.619L85.6348 78.674H90.7607L100.567 55.9116H139.012ZM136.671 50.9392H102.684L118.731 13.7017H119.176L136.671 50.9392Z" fill="#EFF1F5"/>
<path d="M194.9 78.674V7.40331H224.764V1.32596H154.895V7.40331H184.759V78.674H194.9Z" fill="#EFF1F5"/>
<path d="M242.507 1.32596V78.674H292.875V72.5967H252.647V40.221H287.192V35.1381H252.647V7.40331H292.875V1.32596H242.507Z" fill="#EFF1F5"/>
<path d="M382.667 44.1989H360.603V48.7293H373.084V68.7293C369.741 70.8656 366.324 72.4494 362.832 73.4807C359.341 74.512 355.366 75.0276 350.909 75.0276C345.04 75.0276 339.914 74.1436 335.531 72.3757C331.148 70.6077 327.508 68.1768 324.61 65.0829C321.713 61.9153 319.522 58.1952 318.036 53.9226C316.624 49.5764 315.919 44.825 315.919 39.6685C315.919 34.5856 316.587 29.9079 317.924 25.6354C319.336 21.3628 321.416 17.6796 324.165 14.5856C326.913 11.4917 330.256 9.0976 334.194 7.40331C338.205 5.70902 342.848 4.86188 348.123 4.86188C351.614 4.86188 354.883 5.2302 357.929 5.96685C360.975 6.7035 363.686 7.66114 366.064 8.83978C368.441 10.0184 370.373 11.3812 371.858 12.9282C373.418 14.4015 374.421 15.9116 374.867 17.4586H382.89C382.222 15.8379 381.07 14.0331 379.436 12.0442C377.876 9.98158 375.721 8.0663 372.973 6.29834C370.224 4.53039 366.807 3.05709 362.721 1.87845C358.709 0.62615 353.955 0 348.457 0C342.143 0 336.311 0.883977 330.962 2.65193C325.688 4.41989 321.119 6.96132 317.256 10.2762C313.393 13.5912 310.384 17.6796 308.23 22.5414C306.075 27.3296 304.998 32.7808 304.998 38.895C304.998 44.1252 305.815 49.2081 307.45 54.1436C309.158 59.0055 311.721 63.3886 315.138 67.2928C318.63 71.1234 323.05 74.2173 328.399 76.5746C333.748 78.8582 340.137 80 347.566 80C353.137 80 358.078 79.4107 362.386 78.232C366.695 76.9797 370.261 75.6169 373.084 74.1436V78.674H382.667V44.1989Z" fill="#EFF1F5"/>
<path d="M397.111 40C397.111 44.1252 397.891 48.5451 399.451 53.2597C401.085 57.9006 403.611 62.2099 407.028 66.1878C410.446 70.1657 414.792 73.4807 420.066 76.1326C425.341 78.7109 431.655 80 439.01 80C443.987 80 448.482 79.4107 452.493 78.232C456.579 76.9797 460.219 75.3223 463.414 73.2597C466.683 71.1971 469.506 68.8398 471.883 66.1878C474.26 63.4622 476.192 60.6261 477.677 57.6796C479.237 54.6593 480.389 51.639 481.132 48.6188C481.949 45.5985 482.358 42.7256 482.358 40C482.358 35.8748 481.503 31.4917 479.795 26.8508C478.086 22.1363 475.449 17.7901 471.883 13.8122C468.317 9.83425 463.785 6.55617 458.288 3.9779C452.865 1.32596 446.439 0 439.01 0C431.655 0 425.341 1.28913 420.066 3.8674C414.792 6.44567 410.446 9.72376 407.028 13.7017C403.611 17.6059 401.085 21.9153 399.451 26.6298C397.891 31.3444 397.111 35.8011 397.111 40ZM408.031 40C408.031 34.8435 408.811 30.1289 410.371 25.8564C412.006 21.5101 414.197 17.7901 416.946 14.6961C419.769 11.6022 423.075 9.2081 426.864 7.51381C430.652 5.74585 434.775 4.86188 439.233 4.86188C443.616 4.86188 447.739 5.74585 451.602 7.51381C455.539 9.2081 458.956 11.6022 461.854 14.6961C464.825 17.7901 467.165 21.5101 468.874 25.8564C470.583 30.1289 471.437 34.8435 471.437 40C471.437 45.1565 470.583 49.9079 468.874 54.2541C467.165 58.5267 464.825 62.2099 461.854 65.3039C458.956 68.3978 455.539 70.8287 451.602 72.5967C447.739 74.291 443.616 75.1381 439.233 75.1381C434.775 75.1381 430.652 74.291 426.864 72.5967C423.075 70.8287 419.769 68.3978 416.946 65.3039C414.197 62.2099 412.006 58.5267 410.371 54.2541C408.811 49.9079 408.031 45.1565 408.031 40Z" fill="#EFF1F5"/>
<path d="M503.47 1.32596V78.674H513.611V44.5304H518.514C520.594 44.5304 522.303 44.7145 523.64 45.0829C525.051 45.4512 526.314 46.0773 527.429 46.9613C528.543 47.8453 529.583 48.9871 530.549 50.3867C531.515 51.7864 532.666 53.5175 534.003 55.5801L542.807 68.5083C543.921 70.2026 544.998 71.7495 546.038 73.1492C547.152 74.5488 548.341 75.7643 549.604 76.7956C550.867 77.7532 552.278 78.5267 553.839 79.116C555.473 79.7053 557.404 80 559.633 80C561.267 80 562.605 79.9263 563.645 79.779C564.685 79.6317 565.725 79.2634 566.765 78.674V74.5856C566.393 74.6593 566.022 74.733 565.651 74.8066C565.279 74.8066 564.908 74.8066 564.536 74.8066C562.976 74.8066 561.602 74.5856 560.413 74.1436C559.224 73.7017 558.11 73.0755 557.07 72.2652C556.03 71.3812 555.027 70.3499 554.061 69.1713C553.096 67.919 552.093 66.5193 551.053 64.9724C547.933 60.4788 545.518 56.9061 543.81 54.2541C542.101 51.5285 540.726 49.4291 539.686 47.9558C538.721 46.4825 537.903 45.4144 537.235 44.7514C536.641 44.0884 535.898 43.5359 535.006 43.0939L533.892 42.5414V42.0994C537.458 41.8785 540.504 41.105 543.029 39.779C545.63 38.453 547.747 36.7956 549.381 34.8066C551.016 32.8177 552.204 30.6814 552.947 28.3978C553.69 26.0405 554.061 23.7569 554.061 21.547C554.061 19.558 553.653 17.3849 552.836 15.0276C552.093 12.6703 550.755 10.4972 548.824 8.50828C546.967 6.44567 544.404 4.75138 541.135 3.42541C537.866 2.02578 533.743 1.32596 528.766 1.32596H503.47ZM513.611 6.18784H524.866C527.689 6.18784 530.215 6.593 532.443 7.40331C534.746 8.21363 536.715 9.35543 538.349 10.8287C539.984 12.2284 541.209 13.9227 542.026 15.9116C542.918 17.9006 543.364 20.0737 543.364 22.4309C543.364 24.4199 542.955 26.4457 542.138 28.5083C541.395 30.4972 540.244 32.3389 538.684 34.0331C537.123 35.6538 535.192 36.9797 532.889 38.011C530.66 39.0424 528.06 39.558 525.089 39.558H513.611V6.18784Z" fill="#EFF1F5"/>
<path d="M590.055 1.32596V78.674H600.195V1.32596H590.055Z" fill="#EFF1F5"/>
<path d="M633.555 1.32596V78.674H683.923V72.5967H643.695V40.221H678.24V35.1381H643.695V7.40331H683.923V1.32596H633.555Z" fill="#EFF1F5"/>
<path d="M693.483 59.116C693.632 62.2836 694.449 65.1565 695.935 67.7348C697.495 70.3131 699.575 72.523 702.175 74.3646C704.849 76.1326 707.969 77.5322 711.535 78.5635C715.101 79.5212 719.001 80 723.236 80C727.545 80 731.408 79.4843 734.825 78.453C738.317 77.4217 741.288 75.9484 743.74 74.0331C746.191 72.1179 748.086 69.7974 749.423 67.0718C750.76 64.3462 751.429 61.326 751.429 58.0111C751.429 53.4438 750.277 49.7238 747.974 46.8508C745.671 43.9042 742.774 41.4733 739.282 39.558C735.865 37.5691 732.113 35.9116 728.028 34.5856C724.016 33.2597 720.264 31.86 716.773 30.3867C713.355 28.9134 710.495 27.2192 708.192 25.3039C705.889 23.3886 704.738 20.8471 704.738 17.6796C704.738 15.9116 705.109 14.2541 705.852 12.7072C706.669 11.1602 707.821 9.83425 709.307 8.72928C710.867 7.55064 712.761 6.62983 714.99 5.96685C717.218 5.2302 719.781 4.86188 722.679 4.86188C727.508 4.86188 731.593 5.89318 734.936 7.9558C738.354 9.94475 740.36 13.1123 740.954 17.4586H748.531C748.086 14.733 747.083 12.302 745.523 10.1657C743.963 7.9558 741.994 6.11418 739.617 4.64088C737.239 3.09392 734.528 1.95211 731.482 1.21547C728.51 0.405156 725.39 0 722.122 0C718.704 0 715.435 0.441988 712.315 1.32596C709.269 2.20994 706.558 3.49908 704.181 5.19337C701.878 6.88766 700.021 9.02394 698.609 11.6022C697.272 14.1805 696.603 17.1271 696.603 20.442C696.603 24.7882 697.718 28.2873 699.946 30.9392C702.175 33.5912 704.961 35.8011 708.304 37.5691C711.721 39.337 715.398 40.8471 719.336 42.0994C723.273 43.3517 726.913 44.7882 730.256 46.4088C733.674 47.9558 736.497 49.8711 738.725 52.1547C740.954 54.4383 742.068 57.4954 742.068 61.326C742.068 66.1142 740.285 69.6133 736.719 71.8232C733.228 74.0331 728.548 75.1381 722.679 75.1381C717.998 75.1381 714.247 74.5488 711.424 73.3702C708.601 72.1179 706.447 70.6446 704.961 68.9503C703.475 67.256 702.472 65.5249 701.952 63.7569C701.432 61.9153 701.135 60.3683 701.061 59.116H693.483Z" fill="#EFF1F5"/>
</svg>
