<svg width="846" height="80" viewBox="0 0 846 80" fill="none" xmlns="http://www.w3.org/2000/svg">
<path d="M73.395 64.4199C65.8216 71.4917 56.8375 75.0276 46.4426 75.0276C40.6512 75.0276 35.5281 74.0331 31.0731 72.0442C26.6182 70.0552 22.9058 67.4033 19.9358 64.0884C16.9659 60.7735 14.7013 56.9429 13.142 52.5967C11.6571 48.2505 10.9146 43.7201 10.9146 39.0055C10.9146 33.9963 11.6942 29.4291 13.2534 25.3039C14.8869 21.105 17.1515 17.4954 20.0472 14.4751C22.9429 11.4549 26.3583 9.0976 30.2935 7.40331C34.303 5.70902 38.6465 4.86188 43.3242 4.86188C46.5169 4.86188 49.4126 5.2302 52.0113 5.96685C54.6843 6.7035 57.0231 7.66114 59.0278 8.83978C61.1068 10.0184 62.7774 11.3812 64.0396 12.9282C65.3761 14.4015 66.3042 15.9116 66.824 17.4586H75.0656C73.9518 14.954 72.504 12.6335 70.722 10.4972C69.0143 8.36096 66.8611 6.51933 64.2624 4.97237C61.6637 3.42541 58.6194 2.20994 55.1298 1.32596C51.6401 0.441988 47.6678 0 43.2128 0C36.7532 0 30.8504 0.920809 25.5045 2.76243C20.2328 4.60405 15.7036 7.25598 11.9169 10.7182C8.13025 14.1068 5.19742 18.232 3.11845 23.0939C1.03948 27.8821 0 33.2597 0 39.2265C0 44.3831 0.816737 49.4291 2.45021 54.3646C4.15793 59.2265 6.75664 63.5727 10.2463 67.4033C13.736 71.1602 18.191 74.2173 23.6111 76.5746C29.0313 78.8582 35.4909 80 42.9901 80C47.742 80 51.9742 79.558 55.6866 78.674C59.4733 77.7901 62.7403 76.7219 65.4875 75.4696C68.3089 74.1436 70.6478 72.744 72.504 71.2707C74.3602 69.7974 75.7709 68.5083 76.7362 67.4033L73.395 64.4199Z" fill="#EFF1F5"/>
<path d="M86.6506 40C86.6506 44.1252 87.4302 48.5451 88.9894 53.2597C90.6229 57.9006 93.1474 62.2099 96.5628 66.1878C99.9783 70.1657 104.322 73.4807 109.593 76.1326C114.865 78.7109 121.176 80 128.527 80C133.502 80 137.994 79.4107 142.003 78.232C146.087 76.9797 149.725 75.3223 152.918 73.2597C156.185 71.1971 159.006 68.8398 161.382 66.1878C163.758 63.4622 165.688 60.6261 167.173 57.6796C168.733 54.6593 169.884 51.639 170.626 48.6188C171.443 45.5985 171.851 42.7256 171.851 40C171.851 35.8748 170.997 31.4917 169.29 26.8508C167.582 22.1363 164.946 17.7901 161.382 13.8122C157.818 9.83425 153.289 6.55617 147.795 3.9779C142.374 1.32596 135.952 0 128.527 0C121.176 0 114.865 1.28913 109.593 3.8674C104.322 6.44567 99.9783 9.72376 96.5628 13.7017C93.1474 17.6059 90.6229 21.9153 88.9894 26.6298C87.4302 31.3444 86.6506 35.8011 86.6506 40ZM97.5652 40C97.5652 34.8435 98.3448 30.1289 99.904 25.8564C101.537 21.5101 103.728 17.7901 106.475 14.6961C109.296 11.6022 112.601 9.2081 116.387 7.51381C120.174 5.74585 124.295 4.86188 128.75 4.86188C133.13 4.86188 137.251 5.74585 141.112 7.51381C145.047 9.2081 148.463 11.6022 151.358 14.6961C154.328 17.7901 156.667 21.5101 158.375 25.8564C160.083 30.1289 160.937 34.8435 160.937 40C160.937 45.1565 160.083 49.9079 158.375 54.2541C156.667 58.5267 154.328 62.2099 151.358 65.3039C148.463 68.3978 145.047 70.8287 141.112 72.5967C137.251 74.291 133.13 75.1381 128.75 75.1381C124.295 75.1381 120.174 74.291 116.387 72.5967C112.601 70.8287 109.296 68.3978 106.475 65.3039C103.728 62.2099 101.537 58.5267 99.904 54.2541C98.3448 49.9079 97.5652 45.1565 97.5652 40Z" fill="#EFF1F5"/>
<path d="M200.526 1.32596H192.952V78.674H197.853V15.5801H198.298L232.713 80H234.717L269.911 16.0221H270.357V78.674H280.492V1.32596H272.807L236.722 67.7348H236.277L200.526 1.32596Z" fill="#EFF1F5"/>
<path d="M316.977 1.32596H309.404V78.674H314.305V15.5801H314.75L349.164 80H351.169L386.363 16.0221H386.809V78.674H396.943V1.32596H389.259L353.174 67.7348H352.728L316.977 1.32596Z" fill="#EFF1F5"/>
<path d="M425.856 1.32596V78.674H476.196V72.5967H435.991V40.221H470.516V35.1381H435.991V7.40331H476.196V1.32596H425.856Z" fill="#EFF1F5"/>
<path d="M494.995 1.32596V78.674H505.13V44.5304H510.031C512.11 44.5304 513.818 44.7145 515.154 45.0829C516.565 45.4512 517.827 46.0773 518.941 46.9613C520.055 47.8453 521.094 48.9871 522.059 50.3867C523.024 51.7864 524.175 53.5175 525.512 55.5801L534.31 68.5083C535.424 70.2026 536.501 71.7495 537.54 73.1492C538.654 74.5488 539.842 75.7643 541.104 76.7956C542.366 77.7532 543.777 78.5267 545.336 79.116C546.97 79.7053 548.9 80 551.128 80C552.761 80 554.098 79.9263 555.137 79.779C556.177 79.6317 557.216 79.2634 558.255 78.674V74.5856C557.884 74.6593 557.513 74.733 557.142 74.8066C556.771 74.8066 556.399 74.8066 556.028 74.8066C554.469 74.8066 553.095 74.5856 551.907 74.1436C550.719 73.7017 549.605 73.0755 548.566 72.2652C547.527 71.3812 546.524 70.3499 545.559 69.1713C544.594 67.919 543.591 66.5193 542.552 64.9724C539.433 60.4788 537.02 56.9061 535.313 54.2541C533.605 51.5285 532.231 49.4291 531.192 47.9558C530.227 46.4825 529.41 45.4144 528.742 44.7514C528.148 44.0884 527.405 43.5359 526.514 43.0939L525.4 42.5414V42.0994C528.964 41.8785 532.009 41.105 534.533 39.779C537.132 38.453 539.248 36.7956 540.881 34.8066C542.515 32.8177 543.703 30.6814 544.445 28.3978C545.188 26.0405 545.559 23.7569 545.559 21.547C545.559 19.558 545.151 17.3849 544.334 15.0276C543.591 12.6703 542.255 10.4972 540.324 8.50828C538.468 6.44567 535.907 4.75138 532.64 3.42541C529.373 2.02578 525.252 1.32596 520.277 1.32596H494.995ZM505.13 6.18784H516.379C519.201 6.18784 521.725 6.593 523.953 7.40331C526.254 8.21363 528.222 9.35543 529.855 10.8287C531.489 12.2284 532.714 13.9227 533.531 15.9116C534.422 17.9006 534.867 20.0737 534.867 22.4309C534.867 24.4199 534.459 26.4457 533.642 28.5083C532.9 30.4972 531.749 32.3389 530.189 34.0331C528.63 35.6538 526.7 36.9797 524.398 38.011C522.171 39.0424 519.572 39.558 516.602 39.558H505.13V6.18784Z" fill="#EFF1F5"/>
<path d="M642.677 64.4199C635.104 71.4917 626.119 75.0276 615.725 75.0276C609.933 75.0276 604.81 74.0331 600.355 72.0442C595.9 70.0552 592.188 67.4033 589.218 64.0884C586.248 60.7735 583.983 56.9429 582.424 52.5967C580.939 48.2505 580.196 43.7201 580.196 39.0055C580.196 33.9963 580.976 29.4291 582.535 25.3039C584.169 21.105 586.433 17.4954 589.329 14.4751C592.225 11.4549 595.64 9.0976 599.575 7.40331C603.585 5.70902 607.928 4.86188 612.606 4.86188C615.799 4.86188 618.695 5.2302 621.293 5.96685C623.966 6.7035 626.305 7.66114 628.31 8.83978C630.389 10.0184 632.059 11.3812 633.322 12.9282C634.658 14.4015 635.586 15.9116 636.106 17.4586H644.347C643.234 14.954 641.786 12.6335 640.004 10.4972C638.296 8.36096 636.143 6.51933 633.544 4.97237C630.946 3.42541 627.901 2.20994 624.412 1.32596C620.922 0.441988 616.95 0 612.495 0C606.035 0 600.132 0.920809 594.786 2.76243C589.515 4.60405 584.986 7.25598 581.199 10.7182C577.412 14.1068 574.479 18.232 572.4 23.0939C570.321 27.8821 569.282 33.2597 569.282 39.2265C569.282 44.3831 570.099 49.4291 571.732 54.3646C573.44 59.2265 576.039 63.5727 579.528 67.4033C583.018 71.1602 587.473 74.2173 592.893 76.5746C598.313 78.8582 604.773 80 612.272 80C617.024 80 621.256 79.558 624.969 78.674C628.755 77.7901 632.022 76.7219 634.769 75.4696C637.591 74.1436 639.93 72.744 641.786 71.2707C643.642 69.7974 645.053 68.5083 646.018 67.4033L642.677 64.4199Z" fill="#EFF1F5"/>
<path d="M668.184 1.32596V78.674H678.319V1.32596H668.184Z" fill="#EFF1F5"/>
<path d="M754.984 55.9116L765.676 78.674H776.479L740.171 1.32596H734.603L701.636 78.674H706.759L716.56 55.9116H754.984ZM752.645 50.9392H718.676L734.714 13.7017H735.159L752.645 50.9392Z" fill="#EFF1F5"/>
<path d="M795.374 78.674V1.32596H805.509V72.5967H845.714V78.674H795.374Z" fill="#EFF1F5"/>
</svg>
