<svg width="631" height="80" viewBox="0 0 631 80" fill="none" xmlns="http://www.w3.org/2000/svg">
<path d="M10.1 46.4088C12.0238 46.9245 14.0956 47.3665 16.3154 47.7348C18.5352 48.0295 20.977 48.1768 23.6407 48.1768C28.1543 48.1768 32.1499 47.5506 35.6276 46.2983C39.1052 45.046 41.991 43.3517 44.2847 41.2155C46.6525 39.0055 48.4283 36.5009 49.6122 33.7017C50.7961 30.8287 51.3881 27.7716 51.3881 24.5304C51.3881 21.4365 50.8701 18.4899 49.8342 15.6906C48.7983 12.8177 47.2075 10.3499 45.0617 8.28729C42.9899 6.15101 40.3631 4.45672 37.1814 3.20442C33.9997 1.95211 30.2631 1.32596 25.9715 1.32596H0V78.674H10.1V46.4088ZM10.1 6.18784H21.7539C24.8616 6.18784 27.5993 6.74033 29.9671 7.8453C32.3349 8.95027 34.2957 10.4236 35.8496 12.2652C37.4034 14.0331 38.5503 16.0589 39.2902 18.3425C40.1041 20.5525 40.5111 22.7624 40.5111 24.9724C40.5111 27.1087 40.1411 29.2818 39.4012 31.4917C38.7353 33.628 37.6254 35.5801 36.0715 37.3481C34.5177 39.116 32.5569 40.5525 30.1891 41.6575C27.8213 42.7624 24.9726 43.3149 21.6429 43.3149C19.3491 43.3149 17.2403 43.2412 15.3165 43.0939C13.3927 42.8729 11.6539 42.4678 10.1 41.8785V6.18784Z" fill="#EFF1F5"/>
<path d="M70.2021 1.32596V78.674H80.3021V44.5304H85.1856C87.2574 44.5304 88.9593 44.7145 90.2911 45.0829C91.697 45.4512 92.9549 46.0773 94.0648 46.9613C95.1747 47.8453 96.2106 48.9871 97.1725 50.3867C98.1344 51.7864 99.2813 53.5175 100.613 55.5801L109.381 68.5083C110.491 70.2026 111.564 71.7495 112.6 73.1492C113.71 74.5488 114.894 75.7643 116.152 76.7956C117.41 77.7532 118.815 78.5267 120.369 79.116C121.997 79.7053 123.921 80 126.141 80C127.769 80 129.1 79.9263 130.136 79.779C131.172 79.6317 132.208 79.2634 133.244 78.674V74.5856C132.874 74.6593 132.504 74.733 132.134 74.8066C131.764 74.8066 131.394 74.8066 131.024 74.8066C129.47 74.8066 128.102 74.5856 126.918 74.1436C125.734 73.7017 124.624 73.0755 123.588 72.2652C122.552 71.3812 121.553 70.3499 120.591 69.1713C119.629 67.919 118.63 66.5193 117.595 64.9724C114.487 60.4788 112.082 56.9061 110.38 54.2541C108.678 51.5285 107.31 49.4291 106.274 47.9558C105.312 46.4825 104.498 45.4144 103.832 44.7514C103.24 44.0884 102.5 43.5359 101.612 43.0939L100.502 42.5414V42.0994C104.054 41.8785 107.088 41.105 109.603 39.779C112.193 38.453 114.302 36.7956 115.93 34.8066C117.558 32.8177 118.741 30.6814 119.481 28.3978C120.221 26.0405 120.591 23.7569 120.591 21.547C120.591 19.558 120.184 17.3849 119.37 15.0276C118.63 12.6703 117.299 10.4972 115.375 8.50828C113.525 6.44567 110.972 4.75138 107.716 3.42541C104.461 2.02578 100.354 1.32596 95.3967 1.32596H70.2021ZM80.3021 6.18784H91.512C94.3238 6.18784 96.8395 6.593 99.0593 7.40331C101.353 8.21363 103.314 9.35543 104.942 10.8287C106.57 12.2284 107.79 13.9227 108.604 15.9116C109.492 17.9006 109.936 20.0737 109.936 22.4309C109.936 24.4199 109.529 26.4457 108.715 28.5083C107.975 30.4972 106.829 32.3389 105.275 34.0331C103.721 35.6538 101.797 36.9797 99.5033 38.011C97.2835 39.0424 94.6937 39.558 91.734 39.558H80.3021V6.18784Z" fill="#EFF1F5"/>
<path d="M144.232 40C144.232 44.1252 145.009 48.5451 146.563 53.2597C148.191 57.9006 150.707 62.2099 154.11 66.1878C157.514 70.1657 161.843 73.4807 167.096 76.1326C172.35 78.7109 178.639 80 185.964 80C190.922 80 195.398 79.4107 199.394 78.232C203.464 76.9797 207.089 75.3223 210.271 73.2597C213.527 71.1971 216.339 68.8398 218.706 66.1878C221.074 63.4622 222.998 60.6261 224.478 57.6796C226.032 54.6593 227.178 51.639 227.918 48.6188C228.732 45.5985 229.139 42.7256 229.139 40C229.139 35.8748 228.288 31.4917 226.587 26.8508C224.885 22.1363 222.258 17.7901 218.706 13.8122C215.155 9.83425 210.641 6.55617 205.166 3.9779C199.764 1.32596 193.364 0 185.964 0C178.639 0 172.35 1.28913 167.096 3.8674C161.843 6.44567 157.514 9.72376 154.11 13.7017C150.707 17.6059 148.191 21.9153 146.563 26.6298C145.009 31.3444 144.232 35.8011 144.232 40ZM155.109 40C155.109 34.8435 155.886 30.1289 157.44 25.8564C159.068 21.5101 161.251 17.7901 163.989 14.6961C166.8 11.6022 170.093 9.2081 173.867 7.51381C177.64 5.74585 181.747 4.86188 186.186 4.86188C190.552 4.86188 194.659 5.74585 198.506 7.51381C202.428 9.2081 205.831 11.6022 208.717 14.6961C211.677 17.7901 214.008 21.5101 215.71 25.8564C217.411 30.1289 218.262 34.8435 218.262 40C218.262 45.1565 217.411 49.9079 215.71 54.2541C214.008 58.5267 211.677 62.2099 208.717 65.3039C205.831 68.3978 202.428 70.8287 198.506 72.5967C194.659 74.291 190.552 75.1381 186.186 75.1381C181.747 75.1381 177.64 74.291 173.867 72.5967C170.093 70.8287 166.8 68.3978 163.989 65.3039C161.251 62.2099 159.068 58.5267 157.44 54.2541C155.886 49.9079 155.109 45.1565 155.109 40Z" fill="#EFF1F5"/>
<path d="M251.278 78.674V1.32596H276.805C282.947 1.32596 288.57 2.32044 293.676 4.30939C298.781 6.22468 303.147 8.91344 306.772 12.3757C310.472 15.7643 313.321 19.8158 315.319 24.5304C317.39 29.2449 318.426 34.3278 318.426 39.779C318.426 45.4512 317.353 50.6814 315.208 55.4696C313.136 60.1842 310.25 64.2726 306.55 67.7348C302.925 71.1971 298.67 73.8858 293.787 75.8011C288.903 77.7164 283.687 78.674 278.137 78.674H251.278ZM261.378 73.8122H273.587C279.654 73.8122 284.797 72.8177 289.014 70.8287C293.306 68.7661 296.82 66.1142 299.558 62.8729C302.296 59.6317 304.294 56.0221 305.552 52.0442C306.809 47.9926 307.438 43.9779 307.438 40C307.438 35.5801 306.698 31.3444 305.219 27.2928C303.739 23.1676 301.556 19.558 298.67 16.4641C295.858 13.2965 292.344 10.7919 288.126 8.95027C283.909 7.10865 279.062 6.18784 273.587 6.18784H261.378V73.8122Z" fill="#EFF1F5"/>
<path d="M332.731 1.32596V48.8398C332.731 51.86 333.026 55.2118 333.618 58.895C334.21 62.5046 335.616 65.8932 337.836 69.0608C340.056 72.1547 343.348 74.7698 347.714 76.9061C352.08 78.9687 358.036 80 365.583 80C370.319 80 374.5 79.2634 378.125 77.7901C381.825 76.3168 384.896 74.291 387.337 71.7127C389.853 69.1344 391.74 66.151 392.998 62.7624C394.256 59.3002 394.885 55.6169 394.885 51.7127V1.32596H390.001V48.0663C390.001 49.6869 389.964 51.3444 389.89 53.0387C389.816 54.6593 389.594 56.3168 389.224 58.0111C388.854 59.6317 388.262 61.2523 387.448 62.8729C386.708 64.4936 385.598 66.1142 384.119 67.7348C381.455 70.6077 378.458 72.5599 375.128 73.5912C371.799 74.6225 368.321 75.1381 364.695 75.1381C361.588 75.1381 358.813 74.6593 356.371 73.7017C354.003 72.744 351.747 71.3075 349.601 69.3923C347.899 67.919 346.604 66.4457 345.716 64.9724C344.828 63.4991 344.162 62.0626 343.718 60.663C343.275 59.1897 343.016 57.7164 342.942 56.2431C342.868 54.7698 342.831 53.2965 342.831 51.8232V1.32596H332.731Z" fill="#EFF1F5"/>
<path d="M484.559 64.4199C477.012 71.4917 468.059 75.0276 457.7 75.0276C451.928 75.0276 446.823 74.0331 442.383 72.0442C437.944 70.0552 434.244 67.4033 431.284 64.0884C428.325 60.7735 426.068 56.9429 424.514 52.5967C423.034 48.2505 422.294 43.7201 422.294 39.0055C422.294 33.9963 423.071 29.4291 424.625 25.3039C426.253 21.105 428.51 17.4954 431.395 14.4751C434.281 11.4549 437.685 9.0976 441.606 7.40331C445.602 5.70902 449.93 4.86188 454.592 4.86188C457.774 4.86188 460.659 5.2302 463.249 5.96685C465.913 6.7035 468.244 7.66114 470.242 8.83978C472.313 10.0184 473.978 11.3812 475.236 12.9282C476.568 14.4015 477.493 15.9116 478.011 17.4586H486.224C485.114 14.954 483.671 12.6335 481.895 10.4972C480.194 8.36096 478.048 6.51933 475.458 4.97237C472.868 3.42541 469.835 2.20994 466.357 1.32596C462.879 0.441988 458.921 0 454.481 0C448.044 0 442.161 0.920809 436.834 2.76243C431.58 4.60405 427.067 7.25598 423.293 10.7182C419.519 14.1068 416.597 18.232 414.525 23.0939C412.453 27.8821 411.417 33.2597 411.417 39.2265C411.417 44.3831 412.231 49.4291 413.859 54.3646C415.561 59.2265 418.151 63.5727 421.628 67.4033C425.106 71.1602 429.545 74.2173 434.947 76.5746C440.348 78.8582 446.786 80 454.259 80C458.995 80 463.212 79.558 466.912 78.674C470.686 77.7901 473.941 76.7219 476.679 75.4696C479.491 74.1436 481.821 72.744 483.671 71.2707C485.521 69.7974 486.927 68.5083 487.889 67.4033L484.559 64.4199Z" fill="#EFF1F5"/>
<path d="M534.285 78.674V7.40331H564.03V1.32596H494.439V7.40331H524.185V78.674H534.285Z" fill="#EFF1F5"/>
<path d="M572.49 59.116C572.638 62.2836 573.452 65.1565 574.931 67.7348C576.485 70.3131 578.557 72.523 581.147 74.3646C583.811 76.1326 586.918 77.5322 590.47 78.5635C594.022 79.5212 597.906 80 602.124 80C606.415 80 610.263 79.4843 613.667 78.453C617.144 77.4217 620.104 75.9484 622.546 74.0331C624.988 72.1179 626.874 69.7974 628.206 67.0718C629.538 64.3462 630.204 61.326 630.204 58.0111C630.204 53.4438 629.057 49.7238 626.763 46.8508C624.47 43.9042 621.584 41.4733 618.106 39.558C614.703 37.5691 610.966 35.9116 606.896 34.5856C602.901 33.2597 599.164 31.86 595.686 30.3867C592.283 28.9134 589.434 27.2192 587.14 25.3039C584.846 23.3886 583.7 20.8471 583.7 17.6796C583.7 15.9116 584.07 14.2541 584.809 12.7072C585.623 11.1602 586.77 9.83425 588.25 8.72928C589.804 7.55064 591.691 6.62983 593.911 5.96685C596.13 5.2302 598.683 4.86188 601.569 4.86188C606.378 4.86188 610.448 5.89318 613.778 7.9558C617.181 9.94475 619.179 13.1123 619.771 17.4586H627.318C626.874 14.733 625.875 12.302 624.322 10.1657C622.768 7.9558 620.807 6.11418 618.439 4.64088C616.071 3.09392 613.371 1.95211 610.337 1.21547C607.377 0.405156 604.27 0 601.014 0C597.61 0 594.355 0.441988 591.247 1.32596C588.213 2.20994 585.512 3.49908 583.145 5.19337C580.851 6.88766 579.001 9.02394 577.595 11.6022C576.263 14.1805 575.597 17.1271 575.597 20.442C575.597 24.7882 576.707 28.2873 578.927 30.9392C581.147 33.5912 583.922 35.8011 587.251 37.5691C590.655 39.337 594.318 40.8471 598.239 42.0994C602.161 43.3517 605.786 44.7882 609.116 46.4088C612.52 47.9558 615.332 49.8711 617.551 52.1547C619.771 54.4383 620.881 57.4954 620.881 61.326C620.881 66.1142 619.105 69.6133 615.554 71.8232C612.076 74.0331 607.414 75.1381 601.569 75.1381C596.907 75.1381 593.171 74.5488 590.359 73.3702C587.547 72.1179 585.401 70.6446 583.922 68.9503C582.442 67.256 581.443 65.5249 580.925 63.7569C580.407 61.9153 580.111 60.3683 580.037 59.116H572.49Z" fill="#EFF1F5"/>
</svg>
