<svg width="185" height="80" viewBox="0 0 185 80" fill="none" xmlns="http://www.w3.org/2000/svg">
<path d="M42.4331 54.3292H52.9858V60.1936H42.4331V78.7828H33.4355V60.1936H0L38.3231 1.3278H42.4331V54.3292ZM8.66434 54.3292H33.4355V16.1549L8.66434 54.3292Z" fill="#EFF1F5"/>
<path d="M66.2162 40.2766C66.2162 38.1374 66.3643 35.6662 66.6605 32.8631C67.0308 29.9862 67.5862 27.0724 68.3268 24.1217C69.1414 21.0973 70.1781 18.1466 71.437 15.2697C72.77 12.3928 74.3992 9.84785 76.3246 7.63485C78.25 5.34809 80.5457 3.50392 83.2117 2.10235C85.8776 0.700783 88.9879 0 92.5425 0C96.0971 0 99.2074 0.700783 101.873 2.10235C104.613 3.50392 106.946 5.34809 108.871 7.63485C110.871 9.84785 112.537 12.3928 113.87 15.2697C115.203 18.1466 116.24 21.0973 116.98 24.1217C117.795 27.0724 118.35 29.9862 118.647 32.8631C119.017 35.6662 119.202 38.1374 119.202 40.2766C119.202 44.9239 118.684 49.6081 117.647 54.3292C116.61 58.9765 114.981 63.2181 112.759 67.0539C110.612 70.8898 107.835 74.0249 104.428 76.4592C101.096 78.8197 97.1339 80 92.5425 80C87.9511 80 83.9892 78.8197 80.6568 76.4592C77.3984 74.0249 74.6954 70.8898 72.5479 67.0539C70.4003 63.2181 68.8081 58.9765 67.7714 54.3292C66.7346 49.6081 66.2162 44.9239 66.2162 40.2766ZM77.3243 40.2766C77.3243 44.0387 77.4725 47.9852 77.7687 52.1162C78.0649 56.2471 78.7314 60.0092 79.7681 63.4025C80.8789 66.7958 82.4341 69.5989 84.4335 71.8119C86.433 74.0249 89.136 75.1314 92.5425 75.1314C96.023 75.1314 98.8001 74.0249 100.874 71.8119C102.947 69.5989 104.502 66.7958 105.539 63.4025C106.65 60.0092 107.353 56.2471 107.65 52.1162C107.946 47.9852 108.094 44.0387 108.094 40.2766C108.094 36.4408 107.946 32.4205 107.65 28.2158C107.353 24.0111 106.65 20.2121 105.539 16.8188C104.502 13.3518 102.947 10.5118 100.874 8.29875C98.8001 6.01198 96.023 4.8686 92.5425 4.8686C89.136 4.8686 86.433 6.01198 84.4335 8.29875C82.4341 10.5118 80.8789 13.3518 79.7681 16.8188C78.7314 20.2121 78.0649 24.0111 77.7687 28.2158C77.4725 32.4205 77.3243 36.4408 77.3243 40.2766Z" fill="#EFF1F5"/>
<path d="M173.733 54.3292H184.286V60.1936H173.733V78.7828H164.735V60.1936H131.3L169.623 1.3278H173.733V54.3292ZM139.964 54.3292H164.735V16.1549L139.964 54.3292Z" fill="#EFF1F5"/>
</svg>
