<svg width="568" height="80" viewBox="0 0 568 80" fill="none" xmlns="http://www.w3.org/2000/svg">
<path d="M9.44246 46.4088C11.241 46.9245 13.1779 47.3665 15.2532 47.7348C17.3285 48.0295 19.6113 48.1768 22.1016 48.1768C26.3213 48.1768 30.0568 47.5506 33.308 46.2983C36.5593 45.046 39.2571 43.3517 41.4016 41.2155C43.6152 39.0055 45.2754 36.5009 46.3822 33.7017C47.489 30.8287 48.0424 27.7716 48.0424 24.5304C48.0424 21.4365 47.5582 18.4899 46.5897 15.6906C45.6213 12.8177 44.134 10.3499 42.1279 8.28729C40.191 6.15101 37.7353 4.45672 34.7607 3.20442C31.7862 1.95211 28.2928 1.32596 24.2806 1.32596H0V78.674H9.44246V46.4088ZM9.44246 6.18784H20.3376C23.243 6.18784 25.8025 6.74033 28.0161 7.8453C30.2297 8.95027 32.0629 10.4236 33.5156 12.2652C34.9682 14.0331 36.0405 16.0589 36.7322 18.3425C37.4932 20.5525 37.8736 22.7624 37.8736 24.9724C37.8736 27.1087 37.5277 29.2818 36.836 31.4917C36.2134 33.628 35.1758 35.5801 33.7231 37.3481C32.2704 39.116 30.4373 40.5525 28.2236 41.6575C26.01 42.7624 23.3468 43.3149 20.2339 43.3149C18.0894 43.3149 16.1179 43.2412 14.3193 43.0939C12.5208 42.8729 10.8952 42.4678 9.44246 41.8785V6.18784Z" fill="#EFF1F5"/>
<path d="M105.996 55.9116L115.957 78.674H126.022L92.195 1.32596H87.0068L56.2929 78.674H61.066L70.1971 55.9116H105.996ZM103.816 50.9392H72.1687L87.1106 13.7017H87.5256L103.816 50.9392Z" fill="#EFF1F5"/>
<path d="M143.626 1.32596V78.674H153.068V44.5304H157.634C159.571 44.5304 161.162 44.7145 162.407 45.0829C163.721 45.4512 164.897 46.0773 165.935 46.9613C166.972 47.8453 167.941 48.9871 168.84 50.3867C169.739 51.7864 170.812 53.5175 172.057 55.5801L180.254 68.5083C181.292 70.2026 182.295 71.7495 183.263 73.1492C184.301 74.5488 185.408 75.7643 186.584 76.7956C187.76 77.7532 189.074 78.5267 190.527 79.116C192.048 79.7053 193.847 80 195.922 80C197.444 80 198.689 79.9263 199.658 79.779C200.626 79.6317 201.595 79.2634 202.563 78.674V74.5856C202.217 74.6593 201.871 74.733 201.525 74.8066C201.18 74.8066 200.834 74.8066 200.488 74.8066C199.035 74.8066 197.755 74.5856 196.649 74.1436C195.542 73.7017 194.504 73.0755 193.536 72.2652C192.567 71.3812 191.633 70.3499 190.734 69.1713C189.835 67.919 188.901 66.5193 187.932 64.9724C185.027 60.4788 182.779 56.9061 181.188 54.2541C179.597 51.5285 178.317 49.4291 177.349 47.9558C176.449 46.4825 175.688 45.4144 175.066 44.7514C174.512 44.0884 173.821 43.5359 172.991 43.0939L171.953 42.5414V42.0994C175.273 41.8785 178.11 41.105 180.462 39.779C182.883 38.453 184.854 36.7956 186.376 34.8066C187.898 32.8177 189.005 30.6814 189.696 28.3978C190.388 26.0405 190.734 23.7569 190.734 21.547C190.734 19.558 190.354 17.3849 189.593 15.0276C188.901 12.6703 187.656 10.4972 185.857 8.50828C184.128 6.44567 181.741 4.75138 178.698 3.42541C175.654 2.02578 171.815 1.32596 167.18 1.32596H143.626ZM153.068 6.18784H163.548C166.177 6.18784 168.529 6.593 170.604 7.40331C172.748 8.21363 174.582 9.35543 176.103 10.8287C177.625 12.2284 178.767 13.9227 179.528 15.9116C180.358 17.9006 180.773 20.0737 180.773 22.4309C180.773 24.4199 180.392 26.4457 179.631 28.5083C178.94 30.4972 177.867 32.3389 176.415 34.0331C174.962 35.6538 173.164 36.9797 171.019 38.011C168.944 39.0424 166.523 39.558 163.756 39.558H153.068V6.18784Z" fill="#EFF1F5"/>
<path d="M246.974 78.674V7.40331H274.783V1.32596H209.723V7.40331H237.532V78.674H246.974Z" fill="#EFF1F5"/>
<path d="M349.827 1.32596V60.442H349.412L291.823 0H291.304V78.674H296.077V19.558H296.493L354.081 80H354.6V1.32596H349.827Z" fill="#EFF1F5"/>
<path d="M381.458 1.32596V78.674H428.359V72.5967H390.901V40.221H423.067V35.1381H390.901V7.40331H428.359V1.32596H381.458Z" fill="#EFF1F5"/>
<path d="M445.874 1.32596V78.674H455.316V44.5304H459.882C461.819 44.5304 463.41 44.7145 464.655 45.0829C465.969 45.4512 467.145 46.0773 468.183 46.9613C469.22 47.8453 470.189 48.9871 471.088 50.3867C471.987 51.7864 473.06 53.5175 474.305 55.5801L482.502 68.5083C483.54 70.2026 484.543 71.7495 485.511 73.1492C486.549 74.5488 487.656 75.7643 488.832 76.7956C490.008 77.7532 491.322 78.5267 492.775 79.116C494.297 79.7053 496.095 80 498.17 80C499.692 80 500.937 79.9263 501.906 79.779C502.874 79.6317 503.843 79.2634 504.811 78.674V74.5856C504.465 74.6593 504.12 74.733 503.774 74.8066C503.428 74.8066 503.082 74.8066 502.736 74.8066C501.283 74.8066 500.004 74.5856 498.897 74.1436C497.79 73.7017 496.752 73.0755 495.784 72.2652C494.815 71.3812 493.882 70.3499 492.982 69.1713C492.083 67.919 491.149 66.5193 490.181 64.9724C487.275 60.4788 485.027 56.9061 483.436 54.2541C481.845 51.5285 480.565 49.4291 479.597 47.9558C478.698 46.4825 477.937 45.4144 477.314 44.7514C476.761 44.0884 476.069 43.5359 475.239 43.0939L474.201 42.5414V42.0994C477.522 41.8785 480.358 41.105 482.71 39.779C485.131 38.453 487.102 36.7956 488.624 34.8066C490.146 32.8177 491.253 30.6814 491.945 28.3978C492.636 26.0405 492.982 23.7569 492.982 21.547C492.982 19.558 492.602 17.3849 491.841 15.0276C491.149 12.6703 489.904 10.4972 488.105 8.50828C486.376 6.44567 483.989 4.75138 480.946 3.42541C477.902 2.02578 474.063 1.32596 469.428 1.32596H445.874ZM455.316 6.18784H465.796C468.425 6.18784 470.777 6.593 472.852 7.40331C474.997 8.21363 476.83 9.35543 478.352 10.8287C479.874 12.2284 481.015 13.9227 481.776 15.9116C482.606 17.9006 483.021 20.0737 483.021 22.4309C483.021 24.4199 482.641 26.4457 481.88 28.5083C481.188 30.4972 480.116 32.3389 478.663 34.0331C477.21 35.6538 475.412 36.9797 473.267 38.011C471.192 39.0424 468.771 39.558 466.004 39.558H455.316V6.18784Z" fill="#EFF1F5"/>
<path d="M513.735 59.116C513.874 62.2836 514.635 65.1565 516.018 67.7348C517.471 70.3131 519.408 72.523 521.829 74.3646C524.319 76.1326 527.225 77.5322 530.545 78.5635C533.865 79.5212 537.497 80 541.44 80C545.452 80 549.049 79.4843 552.232 78.453C555.483 77.4217 558.25 75.9484 560.533 74.0331C562.815 72.1179 564.579 69.7974 565.825 67.0718C567.07 64.3462 567.692 61.326 567.692 58.0111C567.692 53.4438 566.62 49.7238 564.476 46.8508C562.331 43.9042 559.633 41.4733 556.382 39.558C553.2 37.5691 549.707 35.9116 545.902 34.5856C542.167 33.2597 538.673 31.86 535.422 30.3867C532.24 28.9134 529.577 27.2192 527.432 25.3039C525.288 23.3886 524.215 20.8471 524.215 17.6796C524.215 15.9116 524.561 14.2541 525.253 12.7072C526.014 11.1602 527.086 9.83425 528.47 8.72928C529.922 7.55064 531.686 6.62983 533.762 5.96685C535.837 5.2302 538.224 4.86188 540.921 4.86188C545.418 4.86188 549.222 5.89318 552.335 7.9558C555.517 9.94475 557.385 13.1123 557.939 17.4586H564.994C564.579 14.733 563.646 12.302 562.193 10.1657C560.74 7.9558 558.907 6.11418 556.693 4.64088C554.48 3.09392 551.955 1.95211 549.119 1.21547C546.352 0.405156 543.446 0 540.403 0C537.22 0 534.177 0.441988 531.271 1.32596C528.435 2.20994 525.91 3.49908 523.697 5.19337C521.552 6.88766 519.823 9.02394 518.508 11.6022C517.263 14.1805 516.641 17.1271 516.641 20.442C516.641 24.7882 517.678 28.2873 519.754 30.9392C521.829 33.5912 524.423 35.8011 527.536 37.5691C530.718 39.337 534.142 40.8471 537.808 42.0994C541.475 43.3517 544.864 44.7882 547.977 46.4088C551.159 47.9558 553.788 49.8711 555.863 52.1547C557.939 54.4383 558.976 57.4954 558.976 61.326C558.976 66.1142 557.316 69.6133 553.996 71.8232C550.744 74.0331 546.386 75.1381 540.921 75.1381C536.563 75.1381 533.07 74.5488 530.441 73.3702C527.813 72.1179 525.807 70.6446 524.423 68.9503C523.039 67.256 522.106 65.5249 521.621 63.7569C521.137 61.9153 520.86 60.3683 520.791 59.116H513.735Z" fill="#EFF1F5"/>
</svg>
