<svg width="782" height="80" viewBox="0 0 782 80" fill="none" xmlns="http://www.w3.org/2000/svg">
<path d="M62.8568 1.32596V60.442H62.411L0.557241 0H0V78.674H5.12662V19.558H5.57241L67.4262 80H67.9834V1.32596H62.8568Z" fill="#EFF1F5"/>
<path d="M96.8307 1.32596V78.674H147.205V72.5967H106.972V40.221H141.521V35.1381H106.972V7.40331H147.205V1.32596H96.8307Z" fill="#EFF1F5"/>
<path d="M155.987 1.32596L183.626 78.674H190.313L211.599 18.232H212.157L232.774 78.674H239.35L266.989 1.32596H261.862L238.793 65.8564H238.347L216.614 1.32596H211.822L189.644 65.5249H189.198L166.24 1.32596H155.987Z" fill="#EFF1F5"/>
<path d="M276.562 59.116C276.71 62.2836 277.528 65.1565 279.014 67.7348C280.574 70.3131 282.654 72.523 285.255 74.3646C287.93 76.1326 291.05 77.5322 294.616 78.5635C298.183 79.5212 302.084 80 306.319 80C310.628 80 314.491 79.4843 317.909 78.453C321.401 77.4217 324.373 75.9484 326.825 74.0331C329.277 72.1179 331.172 69.7974 332.509 67.0718C333.846 64.3462 334.515 61.326 334.515 58.0111C334.515 53.4438 333.363 49.7238 331.06 46.8508C328.757 43.9042 325.859 41.4733 322.367 39.558C318.949 37.5691 315.197 35.9116 311.111 34.5856C307.099 33.2597 303.347 31.86 299.855 30.3867C296.437 28.9134 293.576 27.2192 291.273 25.3039C288.97 23.3886 287.818 20.8471 287.818 17.6796C287.818 15.9116 288.19 14.2541 288.933 12.7072C289.75 11.1602 290.902 9.83425 292.388 8.72928C293.948 7.55064 295.842 6.62983 298.071 5.96685C300.3 5.2302 302.864 4.86188 305.761 4.86188C310.591 4.86188 314.677 5.89318 318.021 7.9558C321.438 9.94475 323.444 13.1123 324.039 17.4586H331.617C331.172 14.733 330.168 12.302 328.608 10.1657C327.048 7.9558 325.079 6.11418 322.701 4.64088C320.324 3.09392 317.612 1.95211 314.566 1.21547C311.594 0.405156 308.473 0 305.204 0C301.786 0 298.517 0.441988 295.397 1.32596C292.35 2.20994 289.638 3.49908 287.261 5.19337C284.958 6.88766 283.1 9.02394 281.689 11.6022C280.351 14.1805 279.682 17.1271 279.682 20.442C279.682 24.7882 280.797 28.2873 283.026 30.9392C285.255 33.5912 288.041 35.8011 291.384 37.5691C294.802 39.337 298.48 40.8471 302.418 42.0994C306.356 43.3517 309.996 44.7882 313.34 46.4088C316.758 47.9558 319.581 49.8711 321.81 52.1547C324.039 54.4383 325.153 57.4954 325.153 61.326C325.153 66.1142 323.37 69.6133 319.804 71.8232C316.312 74.0331 311.631 75.1381 305.761 75.1381C301.081 75.1381 297.328 74.5488 294.505 73.3702C291.682 72.1179 289.527 70.6446 288.041 68.9503C286.555 67.256 285.552 65.5249 285.032 63.7569C284.512 61.9153 284.215 60.3683 284.14 59.116H276.562Z" fill="#EFF1F5"/>
<path d="M357.61 78.674V1.32596H367.752V72.5967H407.985V78.674H357.61Z" fill="#EFF1F5"/>
<path d="M426.797 1.32596V78.674H477.171V72.5967H436.939V40.221H471.488V35.1381H436.939V7.40331H477.171V1.32596H426.797Z" fill="#EFF1F5"/>
<path d="M524.848 78.674V7.40331H554.716V1.32596H484.838V7.40331H514.706V78.674H524.848Z" fill="#EFF1F5"/>
<path d="M601.326 78.674V7.40331H631.195V1.32596H561.317V7.40331H591.185V78.674H601.326Z" fill="#EFF1F5"/>
<path d="M648.94 1.32596V78.674H699.314V72.5967H659.081V40.221H693.63V35.1381H659.081V7.40331H699.314V1.32596H648.94Z" fill="#EFF1F5"/>
<path d="M718.126 1.32596V78.674H728.268V44.5304H733.172C735.252 44.5304 736.961 44.7145 738.298 45.0829C739.71 45.4512 740.973 46.0773 742.087 46.9613C743.202 47.8453 744.242 48.9871 745.208 50.3867C746.174 51.7864 747.325 53.5175 748.663 55.5801L757.467 68.5083C758.582 70.2026 759.659 71.7495 760.699 73.1492C761.814 74.5488 763.002 75.7643 764.266 76.7956C765.529 77.7532 766.94 78.5267 768.501 79.116C770.135 79.7053 772.067 80 774.296 80C775.93 80 777.268 79.9263 778.308 79.779C779.348 79.6317 780.388 79.2634 781.429 78.674V74.5856C781.057 74.6593 780.686 74.733 780.314 74.8066C779.943 74.8066 779.571 74.8066 779.2 74.8066C777.639 74.8066 776.265 74.5856 775.076 74.1436C773.887 73.7017 772.773 73.0755 771.733 72.2652C770.692 71.3812 769.689 70.3499 768.723 69.1713C767.758 67.919 766.755 66.5193 765.714 64.9724C762.594 60.4788 760.179 56.9061 758.47 54.2541C756.761 51.5285 755.387 49.4291 754.347 47.9558C753.381 46.4825 752.563 45.4144 751.895 44.7514C751.3 44.0884 750.557 43.5359 749.666 43.0939L748.551 42.5414V42.0994C752.118 41.8785 755.164 41.105 757.69 39.779C760.291 38.453 762.408 36.7956 764.043 34.8066C765.677 32.8177 766.866 30.6814 767.609 28.3978C768.352 26.0405 768.723 23.7569 768.723 21.547C768.723 19.558 768.315 17.3849 767.498 15.0276C766.755 12.6703 765.417 10.4972 763.485 8.50828C761.628 6.44567 759.065 4.75138 755.796 3.42541C752.526 2.02578 748.403 1.32596 743.425 1.32596H718.126ZM728.268 6.18784H739.524C742.347 6.18784 744.874 6.593 747.103 7.40331C749.406 8.21363 751.375 9.35543 753.009 10.8287C754.644 12.2284 755.87 13.9227 756.687 15.9116C757.579 17.9006 758.024 20.0737 758.024 22.4309C758.024 24.4199 757.616 26.4457 756.799 28.5083C756.055 30.4972 754.904 32.3389 753.344 34.0331C751.783 35.6538 749.852 36.9797 747.548 38.011C745.319 39.0424 742.719 39.558 739.747 39.558H728.268V6.18784Z" fill="#EFF1F5"/>
</svg>
