<svg width="559" height="80" viewBox="0 0 559 80" fill="none" xmlns="http://www.w3.org/2000/svg">
<path d="M0 59.116C0.148711 62.2836 0.966619 65.1565 2.45372 67.7348C4.01519 70.3131 6.09713 72.523 8.69957 74.3646C11.3764 76.1326 14.4993 77.5322 18.0683 78.5635C21.6374 79.5212 25.541 80 29.7793 80C34.0919 80 37.9584 79.4844 41.3787 78.453C44.8734 77.4217 47.8476 75.9484 50.3013 74.0332C52.7551 72.1179 54.6511 69.7974 55.9895 67.0718C57.3279 64.3462 57.9971 61.326 57.9971 58.0111C57.9971 53.4438 56.8446 49.7238 54.5396 46.8508C52.2346 43.9042 49.3347 41.4733 45.84 39.558C42.4197 37.5691 38.6647 35.9116 34.5752 34.5856C30.56 33.2597 26.8051 31.86 23.3104 30.3867C19.89 28.9134 17.0274 27.2192 14.7223 25.3039C12.4173 23.3886 11.2648 20.8471 11.2648 17.6796C11.2648 15.9116 11.6366 14.2541 12.3802 12.7072C13.1981 11.1602 14.3506 9.83425 15.8377 8.72928C17.3991 7.55064 19.2952 6.62983 21.5259 5.96685C23.7565 5.2302 26.3218 4.86188 29.2216 4.86188C34.0547 4.86188 38.1443 5.89318 41.4902 7.9558C44.9106 9.94475 46.9182 13.1123 47.513 17.4586H55.0973C54.6511 14.733 53.6473 12.302 52.0859 10.1657C50.5244 7.9558 48.554 6.11418 46.1746 4.64088C43.7953 3.09392 41.0813 1.95211 38.0327 1.21547C35.0585 0.405156 31.9356 0 28.664 0C25.2436 0 21.972 0.441988 18.8491 1.32596C15.8005 2.20994 13.0865 3.49908 10.7072 5.19337C8.40215 6.88766 6.54326 9.02394 5.13051 11.6022C3.79212 14.1805 3.12292 17.1271 3.12292 20.442C3.12292 24.7882 4.23825 28.2873 6.46891 30.9392C8.69957 33.5912 11.4879 35.8011 14.8339 37.5691C18.2542 39.337 21.9348 40.8471 25.8756 42.0994C29.8165 43.3517 33.4599 44.7882 36.8059 46.4088C40.2262 47.9558 43.0517 49.8711 45.2824 52.1547C47.513 54.4383 48.6284 57.4954 48.6284 61.326C48.6284 66.1142 46.8438 69.6133 43.2748 71.8232C39.7801 74.0332 35.0957 75.1381 29.2216 75.1381C24.5372 75.1381 20.7823 74.5488 17.9568 73.3702C15.1313 72.1179 12.975 70.6446 11.4879 68.9503C10.0008 67.256 8.99699 65.5249 8.4765 63.7569C7.95601 61.9153 7.65859 60.3683 7.58424 59.116H0Z" fill="#EFF1F5"/>
<path d="M81.1102 1.32596V78.674H131.523V72.5967H91.2597V40.221H125.835V35.1381H91.2597V7.40331H131.523V1.32596H81.1102Z" fill="#EFF1F5"/>
<path d="M150.349 1.32596V78.674H160.499V44.5304H165.406C167.488 44.5304 169.198 44.7146 170.536 45.0829C171.949 45.4512 173.213 46.0774 174.329 46.9613C175.444 47.8453 176.485 48.9871 177.452 50.3867C178.418 51.7864 179.571 53.5175 180.909 55.5801L189.72 68.5083C190.835 70.2026 191.914 71.7495 192.955 73.1492C194.07 74.5488 195.26 75.7643 196.524 76.7956C197.788 77.7532 199.2 78.5267 200.762 79.116C202.398 79.7053 204.331 80 206.562 80C208.197 80 209.536 79.9263 210.577 79.779C211.618 79.6317 212.659 79.2634 213.7 78.674V74.5856C213.328 74.6593 212.956 74.733 212.584 74.8066C212.213 74.8066 211.841 74.8066 211.469 74.8066C209.908 74.8066 208.532 74.5856 207.342 74.1436C206.153 73.7017 205.037 73.0755 203.996 72.2652C202.955 71.3812 201.952 70.3499 200.985 69.1713C200.018 67.919 199.015 66.5193 197.974 64.9724C194.851 60.4788 192.434 56.9061 190.724 54.2541C189.014 51.5285 187.638 49.4291 186.597 47.9558C185.631 46.4825 184.813 45.4144 184.144 44.7514C183.549 44.0884 182.805 43.5359 181.913 43.0939L180.798 42.5414V42.0994C184.367 41.8785 187.415 41.105 189.943 39.779C192.546 38.453 194.665 36.7956 196.301 34.8066C197.936 32.8177 199.126 30.6814 199.87 28.3978C200.613 26.0405 200.985 23.7569 200.985 21.547C200.985 19.558 200.576 17.3849 199.758 15.0276C199.015 12.6703 197.676 10.4972 195.743 8.50828C193.884 6.44567 191.319 4.75138 188.047 3.42541C184.776 2.02578 180.649 1.32596 175.667 1.32596H150.349ZM160.499 6.18784H171.763C174.589 6.18784 177.117 6.593 179.348 7.40331C181.653 8.21363 183.623 9.35543 185.259 10.8287C186.895 12.2284 188.122 13.9227 188.939 15.9116C189.832 17.9006 190.278 20.0737 190.278 22.4309C190.278 24.4199 189.869 26.4457 189.051 28.5083C188.307 30.4972 187.155 32.3389 185.593 34.0331C184.032 35.6538 182.099 36.9797 179.794 38.0111C177.563 39.0424 174.961 39.558 171.986 39.558H160.499V6.18784Z" fill="#EFF1F5"/>
<path d="M215.867 1.32596L248.546 78.674H255.238L286.914 1.32596H281.114L255.127 64.9724H254.681L227.913 1.32596H215.867Z" fill="#EFF1F5"/>
<path d="M310.279 1.32596V78.674H320.429V1.32596H310.279Z" fill="#EFF1F5"/>
<path d="M419.511 64.4199C411.927 71.4917 402.93 75.0276 392.52 75.0276C386.72 75.0276 381.59 74.0331 377.128 72.0442C372.667 70.0553 368.949 67.4033 365.975 64.0884C363.001 60.7735 360.733 56.9429 359.171 52.5967C357.684 48.2505 356.941 43.7201 356.941 39.0055C356.941 33.9963 357.721 29.4291 359.283 25.3039C360.919 21.105 363.187 17.4954 366.086 14.4751C368.986 11.4549 372.407 9.0976 376.348 7.40331C380.363 5.70902 384.712 4.86188 389.397 4.86188C392.594 4.86188 395.494 5.2302 398.096 5.96685C400.773 6.7035 403.115 7.66114 405.123 8.83978C407.205 10.0184 408.878 11.3812 410.142 12.9282C411.48 14.4015 412.41 15.9116 412.93 17.4586H421.184C420.068 14.954 418.618 12.6335 416.834 10.4972C415.124 8.36096 412.967 6.51933 410.365 4.97237C407.763 3.42541 404.714 2.20994 401.219 1.32596C397.725 0.441988 393.747 0 389.285 0C382.816 0 376.905 0.920809 371.552 2.76243C366.272 4.60405 361.737 7.25598 357.945 10.7182C354.152 14.1068 351.215 18.232 349.133 23.0939C347.052 27.8821 346.011 33.2597 346.011 39.2265C346.011 44.3831 346.828 49.4291 348.464 54.3646C350.174 59.2265 352.777 63.5727 356.272 67.4033C359.766 71.1602 364.228 74.2173 369.655 76.5746C375.083 78.8582 381.552 80 389.062 80C393.821 80 398.059 79.558 401.777 78.674C405.569 77.7901 408.841 76.7219 411.592 75.4696C414.417 74.1437 416.76 72.744 418.618 71.2707C420.477 69.7974 421.89 68.5083 422.857 67.4033L419.511 64.4199Z" fill="#EFF1F5"/>
<path d="M440.593 1.32596V78.674H491.006V72.5967H450.742V40.221H485.317V35.1381H450.742V7.40331H491.006V1.32596H440.593Z" fill="#EFF1F5"/>
<path d="M500.574 59.116C500.723 62.2836 501.541 65.1565 503.028 67.7348C504.589 70.3131 506.671 72.523 509.274 74.3646C511.951 76.1326 515.074 77.5322 518.643 78.5635C522.212 79.5212 526.115 80 530.354 80C534.666 80 538.533 79.4844 541.953 78.453C545.448 77.4217 548.422 75.9484 550.876 74.0332C553.329 72.1179 555.225 69.7974 556.564 67.0718C557.902 64.3462 558.571 61.326 558.571 58.0111C558.571 53.4438 557.419 49.7238 555.114 46.8508C552.809 43.9042 549.909 41.4733 546.414 39.558C542.994 37.5691 539.239 35.9116 535.149 34.5856C531.134 33.2597 527.379 31.86 523.885 30.3867C520.464 28.9134 517.602 27.2192 515.297 25.3039C512.992 23.3886 511.839 20.8471 511.839 17.6796C511.839 15.9116 512.211 14.2541 512.954 12.7072C513.772 11.1602 514.925 9.83425 516.412 8.72928C517.973 7.55064 519.87 6.62983 522.1 5.96685C524.331 5.2302 526.896 4.86188 529.796 4.86188C534.629 4.86188 538.719 5.89318 542.065 7.9558C545.485 9.94475 547.492 13.1123 548.087 17.4586H555.672C555.225 14.733 554.222 12.302 552.66 10.1657C551.099 7.9558 549.128 6.11418 546.749 4.64088C544.37 3.09392 541.656 1.95211 538.607 1.21547C535.633 0.405156 532.51 0 529.238 0C525.818 0 522.546 0.441988 519.423 1.32596C516.375 2.20994 513.661 3.49908 511.281 5.19337C508.976 6.88766 507.118 9.02394 505.705 11.6022C504.366 14.1805 503.697 17.1271 503.697 20.442C503.697 24.7882 504.813 28.2873 507.043 30.9392C509.274 33.5912 512.062 35.8011 515.408 37.5691C518.828 39.337 522.509 40.8471 526.45 42.0994C530.391 43.3517 534.034 44.7882 537.38 46.4088C540.8 47.9558 543.626 49.8711 545.857 52.1547C548.087 54.4383 549.203 57.4954 549.203 61.326C549.203 66.1142 547.418 69.6133 543.849 71.8232C540.354 74.0332 535.67 75.1381 529.796 75.1381C525.112 75.1381 521.357 74.5488 518.531 73.3702C515.706 72.1179 513.549 70.6446 512.062 68.9503C510.575 67.256 509.571 65.5249 509.051 63.7569C508.53 61.9153 508.233 60.3683 508.159 59.116H500.574Z" fill="#EFF1F5"/>
</svg>
