<svg width="905" height="80" viewBox="0 0 905 80" fill="none" xmlns="http://www.w3.org/2000/svg">
<path d="M0 40C0 44.1252 0.780023 48.5451 2.34007 53.2597C3.9744 57.9006 6.50019 62.2099 9.91744 66.1878C13.3347 70.1657 17.6805 73.4807 22.955 76.1326C28.2294 78.7109 34.5439 80 41.8984 80C46.8757 80 51.3701 79.4107 55.3816 78.232C59.4675 76.9797 63.1076 75.3223 66.302 73.2597C69.5706 71.1971 72.3936 68.8398 74.7708 66.1878C77.148 63.4622 79.0795 60.6261 80.5652 57.6796C82.1253 54.6593 83.2767 51.639 84.0196 48.6188C84.8368 45.5985 85.2454 42.7256 85.2454 40C85.2454 35.8748 84.3911 31.4917 82.6824 26.8508C80.9738 22.1363 78.3366 17.7901 74.7708 13.8122C71.205 9.83425 66.6734 6.55617 61.1761 3.9779C55.7531 1.32596 49.3272 0 41.8984 0C34.5439 0 28.2294 1.28913 22.955 3.8674C17.6805 6.44567 13.3347 9.72376 9.91744 13.7017C6.50019 17.6059 3.9744 21.9153 2.34007 26.6298C0.780023 31.3444 0 35.8011 0 40ZM10.9203 40C10.9203 34.8435 11.7003 30.1289 13.2604 25.8564C14.8947 21.5101 17.0862 17.7901 19.8349 14.6961C22.6578 11.6022 25.9636 9.2081 29.7523 7.51381C33.541 5.74585 37.664 4.86188 42.1213 4.86188C46.5042 4.86188 50.6272 5.74585 54.4902 7.51381C58.4274 9.2081 61.8447 11.6022 64.7419 14.6961C67.7134 17.7901 70.0535 21.5101 71.7621 25.8564C73.4707 30.1289 74.3251 34.8435 74.3251 40C74.3251 45.1565 73.4707 49.9079 71.7621 54.2541C70.0535 58.5267 67.7134 62.2099 64.7419 65.3039C61.8447 68.3978 58.4274 70.8287 54.4902 72.5967C50.6272 74.291 46.5042 75.1381 42.1213 75.1381C37.664 75.1381 33.541 74.291 29.7523 72.5967C25.9636 70.8287 22.6578 68.3978 19.8349 65.3039C17.0862 62.2099 14.8947 58.5267 13.2604 54.2541C11.7003 49.9079 10.9203 45.1565 10.9203 40Z" fill="#EFF1F5"/>
<path d="M101.901 1.32596V48.8398C101.901 51.86 102.198 55.2118 102.792 58.895C103.386 62.5046 104.798 65.8932 107.026 69.0608C109.255 72.1547 112.561 74.7698 116.944 76.9061C121.327 78.9687 127.307 80 134.884 80C139.639 80 143.836 79.2634 147.476 77.7901C151.191 76.3168 154.274 74.291 156.725 71.7127C159.251 69.1344 161.145 66.151 162.408 62.7624C163.671 59.3002 164.302 55.6169 164.302 51.7127V1.32596H159.399V48.0663C159.399 49.6869 159.362 51.3444 159.288 53.0387C159.214 54.6593 158.991 56.3168 158.619 58.0111C158.248 59.6317 157.654 61.2523 156.836 62.8729C156.094 64.4936 154.979 66.1142 153.494 67.7348C150.819 70.6077 147.81 72.5599 144.468 73.5912C141.125 74.6225 137.633 75.1381 133.993 75.1381C130.873 75.1381 128.087 74.6593 125.636 73.7017C123.258 72.744 120.993 71.3075 118.838 69.3923C117.13 67.919 115.83 66.4457 114.938 64.9724C114.047 63.4991 113.378 62.0626 112.932 60.663C112.487 59.1897 112.227 57.7164 112.152 56.2431C112.078 54.7698 112.041 53.2965 112.041 51.8232V1.32596H101.901Z" fill="#EFF1F5"/>
<path d="M188.701 1.32596V78.674H198.842V44.5304H203.745C205.825 44.5304 207.533 44.7145 208.87 45.0829C210.282 45.4512 211.545 46.0773 212.659 46.9613C213.773 47.8453 214.813 48.9871 215.779 50.3867C216.745 51.7864 217.896 53.5175 219.234 55.5801L228.037 68.5083C229.151 70.2026 230.228 71.7495 231.268 73.1492C232.383 74.5488 233.571 75.7643 234.834 76.7956C236.097 77.7532 237.508 78.5267 239.068 79.116C240.703 79.7053 242.634 80 244.863 80C246.497 80 247.834 79.9263 248.874 79.779C249.914 79.6317 250.954 79.2634 251.995 78.674V74.5856C251.623 74.6593 251.252 74.733 250.88 74.8066C250.509 74.8066 250.137 74.8066 249.766 74.8066C248.206 74.8066 246.832 74.5856 245.643 74.1436C244.454 73.7017 243.34 73.0755 242.3 72.2652C241.26 71.3812 240.257 70.3499 239.291 69.1713C238.326 67.919 237.323 66.5193 236.283 64.9724C233.163 60.4788 230.748 56.9061 229.04 54.2541C227.331 51.5285 225.957 49.4291 224.917 47.9558C223.951 46.4825 223.134 45.4144 222.465 44.7514C221.871 44.0884 221.128 43.5359 220.236 43.0939L219.122 42.5414V42.0994C222.688 41.8785 225.734 41.105 228.26 39.779C230.86 38.453 232.977 36.7956 234.611 34.8066C236.245 32.8177 237.434 30.6814 238.177 28.3978C238.92 26.0405 239.291 23.7569 239.291 21.547C239.291 19.558 238.883 17.3849 238.066 15.0276C237.323 12.6703 235.985 10.4972 234.054 8.50828C232.197 6.44567 229.634 4.75138 226.365 3.42541C223.097 2.02578 218.974 1.32596 213.996 1.32596H188.701ZM198.842 6.18784H210.096C212.919 6.18784 215.445 6.593 217.674 7.40331C219.976 8.21363 221.945 9.35543 223.579 10.8287C225.214 12.2284 226.439 13.9227 227.257 15.9116C228.148 17.9006 228.594 20.0737 228.594 22.4309C228.594 24.4199 228.185 26.4457 227.368 28.5083C226.625 30.4972 225.474 32.3389 223.914 34.0331C222.354 35.6538 220.422 36.9797 218.119 38.011C215.891 39.0424 213.291 39.558 210.319 39.558H198.842V6.18784Z" fill="#EFF1F5"/>
<path d="M322.068 46.4088C323.999 46.9245 326.079 47.3665 328.308 47.7348C330.537 48.0295 332.988 48.1768 335.663 48.1768C340.194 48.1768 344.206 47.5506 347.697 46.2983C351.189 45.046 354.086 43.3517 356.389 41.2155C358.766 39.0055 360.549 36.5009 361.738 33.7017C362.926 30.8287 363.52 27.7716 363.52 24.5304C363.52 21.4365 363 18.4899 361.96 15.6906C360.92 12.8177 359.323 10.3499 357.169 8.28729C355.089 6.15101 352.452 4.45672 349.257 3.20442C346.063 1.95211 342.311 1.32596 338.003 1.32596H311.928V78.674H322.068V46.4088ZM322.068 6.18784H333.768C336.888 6.18784 339.637 6.74033 342.014 7.8453C344.391 8.95027 346.36 10.4236 347.92 12.2652C349.48 14.0331 350.632 16.0589 351.374 18.3425C352.192 20.5525 352.6 22.7624 352.6 24.9724C352.6 27.1087 352.229 29.2818 351.486 31.4917C350.817 33.628 349.703 35.5801 348.143 37.3481C346.583 39.116 344.614 40.5525 342.237 41.6575C339.86 42.7624 337 43.3149 333.657 43.3149C331.354 43.3149 329.237 43.2412 327.305 43.0939C325.374 42.8729 323.628 42.4678 322.068 41.8785V6.18784Z" fill="#EFF1F5"/>
<path d="M382.41 1.32596V78.674H392.55V44.5304H397.453C399.533 44.5304 401.242 44.7145 402.579 45.0829C403.99 45.4512 405.253 46.0773 406.367 46.9613C407.482 47.8453 408.522 48.9871 409.487 50.3867C410.453 51.7864 411.605 53.5175 412.942 55.5801L421.745 68.5083C422.859 70.2026 423.936 71.7495 424.977 73.1492C426.091 74.5488 427.279 75.7643 428.542 76.7956C429.805 77.7532 431.217 78.5267 432.777 79.116C434.411 79.7053 436.343 80 438.571 80C440.206 80 441.543 79.9263 442.583 79.779C443.623 79.6317 444.663 79.2634 445.703 78.674V74.5856C445.331 74.6593 444.96 74.733 444.589 74.8066C444.217 74.8066 443.846 74.8066 443.474 74.8066C441.914 74.8066 440.54 74.5856 439.351 74.1436C438.163 73.7017 437.048 73.0755 436.008 72.2652C434.968 71.3812 433.965 70.3499 433 69.1713C432.034 67.919 431.031 66.5193 429.991 64.9724C426.871 60.4788 424.456 56.9061 422.748 54.2541C421.039 51.5285 419.665 49.4291 418.625 47.9558C417.659 46.4825 416.842 45.4144 416.173 44.7514C415.579 44.0884 414.836 43.5359 413.945 43.0939L412.83 42.5414V42.0994C416.396 41.8785 419.442 41.105 421.968 39.779C424.568 38.453 426.685 36.7956 428.319 34.8066C429.954 32.8177 431.142 30.6814 431.885 28.3978C432.628 26.0405 433 23.7569 433 21.547C433 19.558 432.591 17.3849 431.774 15.0276C431.031 12.6703 429.694 10.4972 427.762 8.50828C425.905 6.44567 423.342 4.75138 420.073 3.42541C416.805 2.02578 412.682 1.32596 407.705 1.32596H382.41ZM392.55 6.18784H403.804C406.627 6.18784 409.153 6.593 411.382 7.40331C413.685 8.21363 415.653 9.35543 417.288 10.8287C418.922 12.2284 420.148 13.9227 420.965 15.9116C421.856 17.9006 422.302 20.0737 422.302 22.4309C422.302 24.4199 421.894 26.4457 421.076 28.5083C420.333 30.4972 419.182 32.3389 417.622 34.0331C416.062 35.6538 414.13 36.9797 411.828 38.011C409.599 39.0424 406.999 39.558 404.027 39.558H392.55V6.18784Z" fill="#EFF1F5"/>
<path d="M456.735 40C456.735 44.1252 457.515 48.5451 459.075 53.2597C460.709 57.9006 463.235 62.2099 466.652 66.1878C470.07 70.1657 474.416 73.4807 479.69 76.1326C484.964 78.7109 491.279 80 498.633 80C503.611 80 508.105 79.4107 512.117 78.232C516.203 76.9797 519.843 75.3223 523.037 73.2597C526.306 71.1971 529.129 68.8398 531.506 66.1878C533.883 63.4622 535.815 60.6261 537.3 57.6796C538.86 54.6593 540.012 51.639 540.755 48.6188C541.572 45.5985 541.98 42.7256 541.98 40C541.98 35.8748 541.126 31.4917 539.417 26.8508C537.709 22.1363 535.072 17.7901 531.506 13.8122C527.94 9.83425 523.408 6.55617 517.911 3.9779C512.488 1.32596 506.062 0 498.633 0C491.279 0 484.964 1.28913 479.69 3.8674C474.416 6.44567 470.07 9.72376 466.652 13.7017C463.235 17.6059 460.709 21.9153 459.075 26.6298C457.515 31.3444 456.735 35.8011 456.735 40ZM467.655 40C467.655 34.8435 468.435 30.1289 469.995 25.8564C471.63 21.5101 473.821 17.7901 476.57 14.6961C479.393 11.6022 482.699 9.2081 486.487 7.51381C490.276 5.74585 494.399 4.86188 498.856 4.86188C503.239 4.86188 507.362 5.74585 511.225 7.51381C515.162 9.2081 518.58 11.6022 521.477 14.6961C524.448 17.7901 526.789 21.5101 528.497 25.8564C530.206 30.1289 531.06 34.8435 531.06 40C531.06 45.1565 530.206 49.9079 528.497 54.2541C526.789 58.5267 524.448 62.2099 521.477 65.3039C518.58 68.3978 515.162 70.8287 511.225 72.5967C507.362 74.291 503.239 75.1381 498.856 75.1381C494.399 75.1381 490.276 74.291 486.487 72.5967C482.699 70.8287 479.393 68.3978 476.57 65.3039C473.821 62.2099 471.63 58.5267 469.995 54.2541C468.435 49.9079 467.655 45.1565 467.655 40Z" fill="#EFF1F5"/>
<path d="M584.376 1.32596V57.1271C584.376 58.895 584.302 60.8471 584.154 62.9834C584.079 65.046 583.671 66.9982 582.928 68.8398C582.185 70.6077 581.033 72.1179 579.473 73.3702C577.988 74.5488 575.833 75.1381 573.01 75.1381C570.559 75.1381 568.516 74.6961 566.882 73.8122C565.322 72.9282 564.059 71.8232 563.093 70.4972C562.201 69.1713 561.533 67.7716 561.087 66.2983C560.716 64.7514 560.53 63.3886 560.53 62.2099H550.835C550.984 67.8821 552.841 72.2652 556.407 75.3591C559.973 78.453 565.321 80 572.453 80C577.579 80 581.628 79.2634 584.599 77.7901C587.571 76.2431 589.762 74.3278 591.174 72.0442C592.659 69.6869 593.588 67.1455 593.96 64.4199C594.331 61.6943 594.517 59.1529 594.517 56.7956V1.32596H584.376Z" fill="#EFF1F5"/>
<path d="M623.455 1.32596V78.674H673.822V72.5967H633.595V40.221H668.139V35.1381H633.595V7.40331H673.822V1.32596H623.455Z" fill="#EFF1F5"/>
<path d="M758.264 64.4199C750.687 71.4917 741.698 75.0276 731.298 75.0276C725.503 75.0276 720.377 74.0331 715.92 72.0442C711.463 70.0552 707.748 67.4033 704.777 64.0884C701.805 60.7735 699.54 56.9429 697.979 52.5967C696.494 48.2505 695.751 43.7201 695.751 39.0055C695.751 33.9963 696.531 29.4291 698.091 25.3039C699.725 21.105 701.991 17.4954 704.888 14.4751C707.785 11.4549 711.203 9.0976 715.14 7.40331C719.152 5.70902 723.497 4.86188 728.178 4.86188C731.372 4.86188 734.269 5.2302 736.869 5.96685C739.544 6.7035 741.884 7.66114 743.889 8.83978C745.969 10.0184 747.641 11.3812 748.904 12.9282C750.241 14.4015 751.17 15.9116 751.69 17.4586H759.936C758.821 14.954 757.373 12.6335 755.59 10.4972C753.881 8.36096 751.727 6.51933 749.127 4.97237C746.527 3.42541 743.481 2.20994 739.989 1.32596C736.498 0.441988 732.523 0 728.066 0C721.603 0 715.697 0.920809 710.348 2.76243C705.074 4.60405 700.542 7.25598 696.754 10.7182C692.965 14.1068 690.031 18.232 687.951 23.0939C685.871 27.8821 684.831 33.2597 684.831 39.2265C684.831 44.3831 685.648 49.4291 687.282 54.3646C688.991 59.2265 691.591 63.5727 695.082 67.4033C698.574 71.1602 703.031 74.2173 708.454 76.5746C713.877 78.8582 720.34 80 727.843 80C732.598 80 736.832 79.558 740.546 78.674C744.335 77.7901 747.604 76.7219 750.352 75.4696C753.175 74.1436 755.516 72.744 757.373 71.2707C759.23 69.7974 760.641 68.5083 761.607 67.4033L758.264 64.4199Z" fill="#EFF1F5"/>
<path d="M808.188 78.674V7.40331H838.052V1.32596H768.184V7.40331H798.048V78.674H808.188Z" fill="#EFF1F5"/>
<path d="M846.545 59.116C846.694 62.2836 847.511 65.1565 848.997 67.7348C850.557 70.3131 852.637 72.523 855.237 74.3646C857.911 76.1326 861.031 77.5322 864.597 78.5635C868.163 79.5212 872.063 80 876.298 80C880.606 80 884.469 79.4843 887.886 78.453C891.378 77.4217 894.349 75.9484 896.801 74.0331C899.253 72.1179 901.147 69.7974 902.484 67.0718C903.821 64.3462 904.49 61.326 904.49 58.0111C904.49 53.4438 903.338 49.7238 901.035 46.8508C898.732 43.9042 895.835 41.4733 892.344 39.558C888.926 37.5691 885.175 35.9116 881.089 34.5856C877.078 33.2597 873.326 31.86 869.834 30.3867C866.417 28.9134 863.557 27.2192 861.254 25.3039C858.951 23.3886 857.8 20.8471 857.8 17.6796C857.8 15.9116 858.171 14.2541 858.914 12.7072C859.731 11.1602 860.883 9.83425 862.369 8.72928C863.929 7.55064 865.823 6.62983 868.052 5.96685C870.28 5.2302 872.843 4.86188 875.74 4.86188C880.569 4.86188 884.655 5.89318 887.998 7.9558C891.415 9.94475 893.421 13.1123 894.015 17.4586H901.593C901.147 14.733 900.144 12.302 898.584 10.1657C897.024 7.9558 895.055 6.11418 892.678 4.64088C890.301 3.09392 887.589 1.95211 884.543 1.21547C881.572 0.405156 878.452 0 875.183 0C871.766 0 868.497 0.441988 865.377 1.32596C862.331 2.20994 859.62 3.49908 857.243 5.19337C854.94 6.88766 853.083 9.02394 851.671 11.6022C850.334 14.1805 849.665 17.1271 849.665 20.442C849.665 24.7882 850.78 28.2873 853.008 30.9392C855.237 33.5912 858.023 35.8011 861.366 37.5691C864.783 39.337 868.46 40.8471 872.397 42.0994C876.335 43.3517 879.975 44.7882 883.318 46.4088C886.735 47.9558 889.558 49.8711 891.787 52.1547C894.015 54.4383 895.13 57.4954 895.13 61.326C895.13 66.1142 893.347 69.6133 889.781 71.8232C886.289 74.0331 881.609 75.1381 875.74 75.1381C871.06 75.1381 867.309 74.5488 864.486 73.3702C861.663 72.1179 859.508 70.6446 858.023 68.9503C856.537 67.256 855.534 65.5249 855.014 63.7569C854.494 61.9153 854.197 60.3683 854.123 59.116H846.545Z" fill="#EFF1F5"/>
</svg>
