<svg width="1085" height="80" viewBox="0 0 1085 80" fill="none" xmlns="http://www.w3.org/2000/svg">
<path d="M0 59.116C0.148628 62.2836 0.966081 65.1565 2.45236 67.7348C4.01295 70.3131 6.09374 72.523 8.69472 74.3646C11.37 76.1326 14.4912 77.5322 18.0583 78.5635C21.6253 79.5212 25.5268 80 29.7627 80C34.0729 80 37.9372 79.4843 41.3557 78.453C44.8484 77.4217 47.821 75.9484 50.2733 74.0331C52.7257 72.1179 54.6207 69.7974 55.9584 67.0718C57.296 64.3462 57.9648 61.326 57.9648 58.0111C57.9648 53.4438 56.813 49.7238 54.5092 46.8508C52.2055 43.9042 49.3073 41.4733 45.8145 39.558C42.3961 37.5691 38.6432 35.9116 34.556 34.5856C30.543 33.2597 26.7902 31.86 23.2974 30.3867C19.879 28.9134 17.0179 27.2192 14.7141 25.3039C12.4104 23.3886 11.2586 20.8471 11.2586 17.6796C11.2586 15.9116 11.6301 14.2541 12.3733 12.7072C13.1907 11.1602 14.3426 9.83425 15.8289 8.72928C17.3894 7.55064 19.2845 6.62983 21.5139 5.96685C23.7433 5.2302 26.3071 4.86188 29.2054 4.86188C34.0358 4.86188 38.123 5.89318 41.4671 7.9558C44.8856 9.94475 46.8921 13.1123 47.4866 17.4586H55.0666C54.6207 14.733 53.6175 12.302 52.0569 10.1657C50.4963 7.9558 48.527 6.11418 46.1489 4.64088C43.7709 3.09392 41.0584 1.95211 38.0116 1.21547C35.039 0.405156 31.9178 0 28.648 0C25.2296 0 21.9598 0.441988 18.8386 1.32596C15.7917 2.20994 13.0792 3.49908 10.7012 5.19337C8.39747 6.88766 6.53962 9.02394 5.12766 11.6022C3.79001 14.1805 3.12118 17.1271 3.12118 20.442C3.12118 24.7882 4.23589 28.2873 6.46531 30.9392C8.69472 33.5912 11.4815 35.8011 14.8256 37.5691C18.2441 39.337 21.9226 40.8471 25.8612 42.0994C29.7999 43.3517 33.4412 44.7882 36.7854 46.4088C40.2038 47.9558 43.0277 49.8711 45.2572 52.1547C47.4866 54.4383 48.6013 57.4954 48.6013 61.326C48.6013 66.1142 46.8177 69.6133 43.2507 71.8232C39.7579 74.0331 35.0762 75.1381 29.2054 75.1381C24.5236 75.1381 20.7707 74.5488 17.9468 73.3702C15.1229 72.1179 12.9678 70.6446 11.4815 68.9503C9.99522 67.256 8.99198 65.5249 8.47178 63.7569C7.95159 61.9153 7.65433 60.3683 7.58002 59.116H0Z" fill="#EFF1F5"/>
<path d="M76.6062 1.32596V48.8398C76.6062 51.86 76.9034 55.2118 77.4979 58.895C78.0925 62.5046 79.5044 65.8932 81.7338 69.0608C83.9632 72.1547 87.2702 74.7698 91.6547 76.9061C96.0393 78.9687 102.022 80 109.602 80C114.358 80 118.556 79.2634 122.198 77.7901C125.913 76.3168 128.997 74.291 131.45 71.7127C133.976 69.1344 135.871 66.151 137.135 62.7624C138.398 59.3002 139.03 55.6169 139.03 51.7127V1.32596H134.125V48.0663C134.125 49.6869 134.088 51.3444 134.014 53.0387C133.939 54.6593 133.716 56.3168 133.345 58.0111C132.973 59.6317 132.379 61.2523 131.561 62.8729C130.818 64.4936 129.703 66.1142 128.217 67.7348C125.542 70.6077 122.532 72.5599 119.188 73.5912C115.844 74.6225 112.351 75.1381 108.71 75.1381C105.589 75.1381 102.802 74.6593 100.349 73.7017C97.9714 72.744 95.7048 71.3075 93.5497 69.3923C91.8405 67.919 90.54 66.4457 89.6483 64.9724C88.7565 63.4991 88.0877 62.0626 87.6418 60.663C87.1959 59.1897 86.9358 57.7164 86.8615 56.2431C86.7872 54.7698 86.75 53.2965 86.75 51.8232V1.32596H76.6062Z" fill="#EFF1F5"/>
<path d="M173.581 46.4088C175.513 46.9245 177.594 47.3665 179.823 47.7348C182.053 48.0295 184.505 48.1768 187.18 48.1768C191.714 48.1768 195.727 47.5506 199.219 46.2983C202.712 45.046 205.61 43.3517 207.914 41.2155C210.292 39.0055 212.076 36.5009 213.265 33.7017C214.454 30.8287 215.048 27.7716 215.048 24.5304C215.048 21.4365 214.528 18.4899 213.488 15.6906C212.447 12.8177 210.849 10.3499 208.694 8.28729C206.614 6.15101 203.975 4.45672 200.78 3.20442C197.584 1.95211 193.832 1.32596 189.521 1.32596H163.437V78.674H173.581V46.4088ZM173.581 6.18784H185.285C188.407 6.18784 191.156 6.74033 193.534 7.8453C195.912 8.95027 197.882 10.4236 199.442 12.2652C201.003 14.0331 202.155 16.0589 202.898 18.3425C203.715 20.5525 204.124 22.7624 204.124 24.9724C204.124 27.1087 203.752 29.2818 203.009 31.4917C202.34 33.628 201.226 35.5801 199.665 37.3481C198.105 39.116 196.135 40.5525 193.757 41.6575C191.379 42.7624 188.518 43.3149 185.174 43.3149C182.87 43.3149 180.752 43.2412 178.82 43.0939C176.888 42.8729 175.142 42.4678 173.581 41.8785V6.18784Z" fill="#EFF1F5"/>
<path d="M244.088 46.4088C246.02 46.9245 248.101 47.3665 250.33 47.7348C252.559 48.0295 255.012 48.1768 257.687 48.1768C262.22 48.1768 266.233 47.5506 269.726 46.2983C273.219 45.046 276.117 43.3517 278.421 41.2155C280.799 39.0055 282.582 36.5009 283.771 33.7017C284.96 30.8287 285.555 27.7716 285.555 24.5304C285.555 21.4365 285.035 18.4899 283.994 15.6906C282.954 12.8177 281.356 10.3499 279.201 8.28729C277.12 6.15101 274.482 4.45672 271.287 3.20442C268.091 1.95211 264.338 1.32596 260.028 1.32596H233.944V78.674H244.088V46.4088ZM244.088 6.18784H255.792C258.913 6.18784 261.663 6.74033 264.041 7.8453C266.419 8.95027 268.388 10.4236 269.949 12.2652C271.509 14.0331 272.661 16.0589 273.404 18.3425C274.222 20.5525 274.631 22.7624 274.631 24.9724C274.631 27.1087 274.259 29.2818 273.516 31.4917C272.847 33.628 271.732 35.5801 270.172 37.3481C268.611 39.116 266.642 40.5525 264.264 41.6575C261.886 42.7624 259.025 43.3149 255.681 43.3149C253.377 43.3149 251.259 43.2412 249.327 43.0939C247.395 42.8729 245.648 42.4678 244.088 41.8785V6.18784Z" fill="#EFF1F5"/>
<path d="M296.647 40C296.647 44.1252 297.428 48.5451 298.988 53.2597C300.623 57.9006 303.15 62.2099 306.568 66.1878C309.987 70.1657 314.334 73.4807 319.61 76.1326C324.887 78.7109 331.203 80 338.561 80C343.54 80 348.036 79.4107 352.048 78.232C356.136 76.9797 359.777 75.3223 362.973 73.2597C366.242 71.1971 369.066 68.8398 371.444 66.1878C373.822 63.4622 375.755 60.6261 377.241 57.6796C378.802 54.6593 379.953 51.639 380.696 48.6188C381.514 45.5985 381.923 42.7256 381.923 40C381.923 35.8748 381.068 31.4917 379.359 26.8508C377.65 22.1363 375.011 17.7901 371.444 13.8122C367.877 9.83425 363.344 6.55617 357.845 3.9779C352.42 1.32596 345.992 0 338.561 0C331.203 0 324.887 1.28913 319.61 3.8674C314.334 6.44567 309.987 9.72376 306.568 13.7017C303.15 17.6059 300.623 21.9153 298.988 26.6298C297.428 31.3444 296.647 35.8011 296.647 40ZM307.572 40C307.572 34.8435 308.352 30.1289 309.913 25.8564C311.547 21.5101 313.74 17.7901 316.489 14.6961C319.313 11.6022 322.62 9.2081 326.41 7.51381C330.2 5.74585 334.325 4.86188 338.783 4.86188C343.168 4.86188 347.292 5.74585 351.157 7.51381C355.095 9.2081 358.514 11.6022 361.412 14.6961C364.385 17.7901 366.725 21.5101 368.435 25.8564C370.144 30.1289 370.999 34.8435 370.999 40C370.999 45.1565 370.144 49.9079 368.435 54.2541C366.725 58.5267 364.385 62.2099 361.412 65.3039C358.514 68.3978 355.095 70.8287 351.157 72.5967C347.292 74.291 343.168 75.1381 338.783 75.1381C334.325 75.1381 330.2 74.291 326.41 72.5967C322.62 70.8287 319.313 68.3978 316.489 65.3039C313.74 62.2099 311.547 58.5267 309.913 54.2541C308.352 49.9079 307.572 45.1565 307.572 40Z" fill="#EFF1F5"/>
<path d="M403.043 1.32596V78.674H413.186V44.5304H418.091C420.172 44.5304 421.881 44.7145 423.219 45.0829C424.631 45.4512 425.894 46.0773 427.009 46.9613C428.123 47.8453 429.164 48.9871 430.13 50.3867C431.096 51.7864 432.248 53.5175 433.586 55.5801L442.392 68.5083C443.506 70.2026 444.584 71.7495 445.624 73.1492C446.739 74.5488 447.928 75.7643 449.191 76.7956C450.455 77.7532 451.867 78.5267 453.427 79.116C455.062 79.7053 456.994 80 459.224 80C460.859 80 462.196 79.9263 463.237 79.779C464.277 79.6317 465.318 79.2634 466.358 78.674V74.5856C465.986 74.6593 465.615 74.733 465.243 74.8066C464.872 74.8066 464.5 74.8066 464.129 74.8066C462.568 74.8066 461.193 74.5856 460.004 74.1436C458.815 73.7017 457.7 73.0755 456.66 72.2652C455.62 71.3812 454.616 70.3499 453.65 69.1713C452.684 67.919 451.681 66.5193 450.641 64.9724C447.519 60.4788 445.104 56.9061 443.395 54.2541C441.686 51.5285 440.311 49.4291 439.271 47.9558C438.304 46.4825 437.487 45.4144 436.818 44.7514C436.224 44.0884 435.48 43.5359 434.589 43.0939L433.474 42.5414V42.0994C437.041 41.8785 440.088 41.105 442.615 39.779C445.216 38.453 447.334 36.7956 448.968 34.8066C450.603 32.8177 451.792 30.6814 452.536 28.3978C453.279 26.0405 453.65 23.7569 453.65 21.547C453.65 19.558 453.242 17.3849 452.424 15.0276C451.681 12.6703 450.343 10.4972 448.411 8.50828C446.553 6.44567 443.989 4.75138 440.72 3.42541C437.45 2.02578 433.325 1.32596 428.346 1.32596H403.043ZM413.186 6.18784H424.445C427.269 6.18784 429.796 6.593 432.025 7.40331C434.329 8.21363 436.298 9.35543 437.933 10.8287C439.568 12.2284 440.794 13.9227 441.611 15.9116C442.503 17.9006 442.949 20.0737 442.949 22.4309C442.949 24.4199 442.54 26.4457 441.723 28.5083C440.98 30.4972 439.828 32.3389 438.267 34.0331C436.707 35.6538 434.775 36.9797 432.471 38.011C430.241 39.0424 427.64 39.558 424.668 39.558H413.186V6.18784Z" fill="#EFF1F5"/>
<path d="M514.068 78.674V7.40331H543.942V1.32596H474.05V7.40331H503.924V78.674H514.068Z" fill="#EFF1F5"/>
<path d="M593.554 59.116C593.702 62.2836 594.52 65.1565 596.006 67.7348C597.567 70.3131 599.647 72.523 602.248 74.3646C604.924 76.1326 608.045 77.5322 611.612 78.5635C615.179 79.5212 619.08 80 623.316 80C627.627 80 631.491 79.4843 634.909 78.453C638.402 77.4217 641.375 75.9484 643.827 74.0331C646.279 72.1179 648.174 69.7974 649.512 67.0718C650.85 64.3462 651.518 61.326 651.518 58.0111C651.518 53.4438 650.367 49.7238 648.063 46.8508C645.759 43.9042 642.861 41.4733 639.368 39.558C635.95 37.5691 632.197 35.9116 628.11 34.5856C624.097 33.2597 620.344 31.86 616.851 30.3867C613.433 28.9134 610.571 27.2192 608.268 25.3039C605.964 23.3886 604.812 20.8471 604.812 17.6796C604.812 15.9116 605.184 14.2541 605.927 12.7072C606.744 11.1602 607.896 9.83425 609.382 8.72928C610.943 7.55064 612.838 6.62983 615.067 5.96685C617.297 5.2302 619.861 4.86188 622.759 4.86188C627.589 4.86188 631.677 5.89318 635.021 7.9558C638.439 9.94475 640.446 13.1123 641.04 17.4586H648.62C648.174 14.733 647.171 12.302 645.61 10.1657C644.05 7.9558 642.081 6.11418 639.703 4.64088C637.324 3.09392 634.612 1.95211 631.565 1.21547C628.593 0.405156 625.471 0 622.202 0C618.783 0 615.513 0.441988 612.392 1.32596C609.345 2.20994 606.633 3.49908 604.255 5.19337C601.951 6.88766 600.093 9.02394 598.681 11.6022C597.344 14.1805 596.675 17.1271 596.675 20.442C596.675 24.7882 597.789 28.2873 600.019 30.9392C602.248 33.5912 605.035 35.8011 608.379 37.5691C611.798 39.337 615.476 40.8471 619.415 42.0994C623.354 43.3517 626.995 44.7882 630.339 46.4088C633.757 47.9558 636.581 49.8711 638.811 52.1547C641.04 54.4383 642.155 57.4954 642.155 61.326C642.155 66.1142 640.371 69.6133 636.804 71.8232C633.312 74.0331 628.63 75.1381 622.759 75.1381C618.077 75.1381 614.324 74.5488 611.5 73.3702C608.677 72.1179 606.521 70.6446 605.035 68.9503C603.549 67.256 602.546 65.5249 602.025 63.7569C601.505 61.9153 601.208 60.3683 601.134 59.116H593.554Z" fill="#EFF1F5"/>
<path d="M674.619 1.32596V78.674H725.003V72.5967H684.762V40.221H719.318V35.1381H684.762V7.40331H725.003V1.32596H674.619Z" fill="#EFF1F5"/>
<path d="M743.819 1.32596V78.674H753.963V44.5304H758.868C760.948 44.5304 762.658 44.7145 763.995 45.0829C765.407 45.4512 766.671 46.0773 767.785 46.9613C768.9 47.8453 769.94 48.9871 770.906 50.3867C771.872 51.7864 773.024 53.5175 774.362 55.5801L783.168 68.5083C784.283 70.2026 785.36 71.7495 786.401 73.1492C787.516 74.5488 788.705 75.7643 789.968 76.7956C791.231 77.7532 792.643 78.5267 794.204 79.116C795.839 79.7053 797.771 80 800 80C801.635 80 802.973 79.9263 804.013 79.779C805.054 79.6317 806.094 79.2634 807.134 78.674V74.5856C806.763 74.6593 806.391 74.733 806.02 74.8066C805.648 74.8066 805.277 74.8066 804.905 74.8066C803.344 74.8066 801.97 74.5856 800.781 74.1436C799.592 73.7017 798.477 73.0755 797.436 72.2652C796.396 71.3812 795.393 70.3499 794.427 69.1713C793.461 67.919 792.457 66.5193 791.417 64.9724C788.296 60.4788 785.881 56.9061 784.171 54.2541C782.462 51.5285 781.087 49.4291 780.047 47.9558C779.081 46.4825 778.263 45.4144 777.595 44.7514C777 44.0884 776.257 43.5359 775.365 43.0939L774.25 42.5414V42.0994C777.818 41.8785 780.864 41.105 783.391 39.779C785.992 38.453 788.11 36.7956 789.745 34.8066C791.38 32.8177 792.569 30.6814 793.312 28.3978C794.055 26.0405 794.427 23.7569 794.427 21.547C794.427 19.558 794.018 17.3849 793.201 15.0276C792.457 12.6703 791.12 10.4972 789.188 8.50828C787.33 6.44567 784.766 4.75138 781.496 3.42541C778.226 2.02578 774.102 1.32596 769.123 1.32596H743.819ZM753.963 6.18784H765.221C768.045 6.18784 770.572 6.593 772.801 7.40331C775.105 8.21363 777.074 9.35543 778.709 10.8287C780.344 12.2284 781.57 13.9227 782.388 15.9116C783.28 17.9006 783.726 20.0737 783.726 22.4309C783.726 24.4199 783.317 26.4457 782.499 28.5083C781.756 30.4972 780.604 32.3389 779.044 34.0331C777.483 35.6538 775.551 36.9797 773.247 38.011C771.018 39.0424 768.417 39.558 765.444 39.558H753.963V6.18784Z" fill="#EFF1F5"/>
<path d="M809.301 1.32596L841.962 78.674H848.65L880.308 1.32596H874.511L848.538 64.9724H848.093L821.34 1.32596H809.301Z" fill="#EFF1F5"/>
<path d="M903.66 1.32596V78.674H913.804V1.32596H903.66Z" fill="#EFF1F5"/>
<path d="M1012.83 64.4199C1005.25 71.4917 996.259 75.0276 985.855 75.0276C980.058 75.0276 974.931 74.0331 970.472 72.0442C966.013 70.0552 962.297 67.4033 959.325 64.0884C956.352 60.7735 954.086 56.9429 952.525 52.5967C951.039 48.2505 950.296 43.7201 950.296 39.0055C950.296 33.9963 951.076 29.4291 952.637 25.3039C954.271 21.105 956.538 17.4954 959.436 14.4751C962.335 11.4549 965.753 9.0976 969.692 7.40331C973.705 5.70902 978.052 4.86188 982.734 4.86188C985.929 4.86188 988.827 5.2302 991.428 5.96685C994.104 6.7035 996.445 7.66114 998.451 8.83978C1000.53 10.0184 1002.2 11.3812 1003.47 12.9282C1004.8 14.4015 1005.73 15.9116 1006.25 17.4586H1014.5C1013.39 14.954 1011.94 12.6335 1010.16 10.4972C1008.45 8.36096 1006.29 6.51933 1003.69 4.97237C1001.09 3.42541 998.042 2.20994 994.55 1.32596C991.057 0.441988 987.081 0 982.622 0C976.157 0 970.249 0.920809 964.898 2.76243C959.622 4.60405 955.089 7.25598 951.299 10.7182C947.509 14.1068 944.573 18.232 942.493 23.0939C940.412 27.8821 939.372 33.2597 939.372 39.2265C939.372 44.3831 940.189 49.4291 941.824 54.3646C943.533 59.2265 946.134 63.5727 949.627 67.4033C953.12 71.1602 957.578 74.2173 963.003 76.5746C968.428 78.8582 974.894 80 982.399 80C987.155 80 991.391 79.558 995.107 78.674C998.897 77.7901 1002.17 76.7219 1004.92 75.4696C1007.74 74.1436 1010.08 72.744 1011.94 71.2707C1013.8 69.7974 1015.21 68.5083 1016.17 67.4033L1012.83 64.4199Z" fill="#EFF1F5"/>
<path d="M1033.9 1.32596V78.674H1084.29V72.5967H1044.04V40.221H1078.6V35.1381H1044.04V7.40331H1084.29V1.32596H1033.9Z" fill="#EFF1F5"/>
</svg>
