<svg width="211" height="80" viewBox="0 0 211 80" fill="none" xmlns="http://www.w3.org/2000/svg">
<path d="M0 1.2V71.2H9.15126V36.4H40.3259V31.8H9.15126V6.7H45.4546V1.2H0Z" fill="#EFF1F5"/>
<path d="M101.548 50.6L111.202 71.2H120.957L88.1732 1.2H83.145L53.3783 71.2H58.0042L66.8538 50.6H101.548ZM99.4363 46.1H68.7645L83.2456 12.4H83.6478L99.4363 46.1Z" fill="#EFF1F5"/>
<path d="M193.83 80L201.473 77.3L191.92 67.4C195.205 65.4667 198.02 63.2333 200.367 60.7C202.713 58.1 204.624 55.4 206.099 52.6C207.574 49.8 208.647 47 209.317 44.2C209.987 41.3333 210.323 38.6333 210.323 36.1C210.323 32.3 209.552 28.3 208.01 24.1C206.535 19.8333 204.188 15.9333 200.97 12.4C197.819 8.8 193.763 5.83333 188.802 3.5C183.908 1.16667 178.008 0 171.103 0C164.265 0 158.398 1.16667 153.504 3.5C148.677 5.83333 144.688 8.76666 141.537 12.3C138.453 15.8333 136.174 19.7333 134.699 24C133.224 28.2667 132.487 32.3 132.487 36.1C132.487 41.0333 133.425 45.7 135.302 50.1C137.18 54.5 139.828 58.3667 143.247 61.7C146.666 64.9667 150.722 67.5667 155.415 69.5C160.175 71.4333 165.404 72.4 171.103 72.4C173.382 72.4 175.628 72.2333 177.841 71.9C180.053 71.6333 182.232 71.1333 184.377 70.4L193.83 80ZM179.952 54.9L173.617 59L180.757 66.3C179.014 66.9667 177.271 67.4333 175.528 67.7C173.785 67.9 172.008 68 170.198 68C166.511 68 162.991 67.3 159.639 65.9C156.287 64.4333 153.337 62.3333 150.789 59.6C148.242 56.8 146.197 53.4333 144.655 49.5C143.18 45.5667 142.442 41.1 142.442 36.1C142.442 31.3667 143.18 27.0667 144.655 23.2C146.197 19.2667 148.242 15.9333 150.789 13.2C153.404 10.4 156.454 8.23333 159.94 6.7C163.427 5.16666 167.147 4.4 171.103 4.4C175.192 4.4 179.014 5.16666 182.567 6.7C186.12 8.23333 189.204 10.4 191.819 13.2C194.434 15.9333 196.478 19.2667 197.953 23.2C199.495 27.0667 200.266 31.3667 200.266 36.1C200.266 37.3667 200.166 39.0333 199.965 41.1C199.83 43.1 199.361 45.3333 198.557 47.8C197.752 50.2 196.478 52.7 194.735 55.3C193.059 57.9 190.679 60.4 187.595 62.8L179.952 54.9Z" fill="#EFF1F5"/>
</svg>
