<svg width="599" height="80" viewBox="0 0 599 80" fill="none" xmlns="http://www.w3.org/2000/svg">
<path d="M53.3662 55.9116L64.0617 78.674H74.8686L38.5484 1.32596H32.9778L0 78.674H5.12493L14.9292 55.9116H53.3662ZM51.0265 50.9392H17.046L33.0893 13.7017H33.5349L51.0265 50.9392Z" fill="#EFF1F5"/>
<path d="M93.7699 78.674H121.734C126.711 78.674 130.907 78.0479 134.324 76.7956C137.74 75.4696 140.488 73.7753 142.568 71.7127C144.648 69.6501 146.133 67.3297 147.025 64.7514C147.99 62.0994 148.473 59.4475 148.473 56.7956C148.473 52.5967 147.545 49.2449 145.688 46.7403C143.905 44.2357 141.751 42.3204 139.226 40.9945C136.7 39.6685 134.101 38.7845 131.427 38.3425C128.753 37.9006 126.599 37.6427 124.965 37.5691V37.1271C127.565 37.1271 130.016 36.6482 132.318 35.6906C134.621 34.6593 136.626 33.3702 138.335 31.8232C140.117 30.2026 141.528 28.361 142.568 26.2983C143.608 24.1621 144.128 21.9153 144.128 19.558C144.128 17.4954 143.682 15.3959 142.791 13.2597C141.9 11.1234 140.526 9.17127 138.669 7.40331C136.886 5.63536 134.547 4.19889 131.65 3.09392C128.827 1.91528 125.485 1.32596 121.623 1.32596H93.7699V78.674ZM103.908 73.8122V40H116.164C119.803 40 122.96 40.4788 125.634 41.4365C128.307 42.3941 130.499 43.6832 132.207 45.3039C133.989 46.9245 135.289 48.8029 136.106 50.9392C136.998 53.0755 137.443 55.3223 137.443 57.6796C137.443 60.2578 136.96 62.5414 135.995 64.5304C135.104 66.5193 133.878 68.2136 132.318 69.6133C130.759 71.0129 128.902 72.081 126.748 72.8177C124.668 73.4807 122.44 73.8122 120.063 73.8122H103.908ZM103.908 35.1381V6.18784H117.501C120.397 6.18784 122.848 6.593 124.854 7.40331C126.933 8.21363 128.605 9.28177 129.867 10.6077C131.204 11.9337 132.17 13.4438 132.764 15.1381C133.358 16.8324 133.655 18.5267 133.655 20.221C133.655 22.3573 133.21 24.3462 132.318 26.1878C131.501 28.0295 130.313 29.6133 128.753 30.9392C127.268 32.2652 125.522 33.2965 123.517 34.0331C121.586 34.7698 119.506 35.1381 117.278 35.1381H103.908Z" fill="#EFF1F5"/>
<path d="M161.771 40C161.771 44.1252 162.551 48.5451 164.111 53.2597C165.745 57.9006 168.27 62.2099 171.687 66.1878C175.104 70.1657 179.449 73.4807 184.722 76.1326C189.996 78.7109 196.309 80 203.662 80C208.639 80 213.132 79.4107 217.143 78.232C221.228 76.9797 224.868 75.3223 228.061 73.2597C231.329 71.1971 234.152 68.8398 236.529 66.1878C238.905 63.4622 240.837 60.6261 242.322 57.6796C243.882 54.6593 245.033 51.639 245.776 48.6188C246.593 45.5985 247.001 42.7256 247.001 40C247.001 35.8748 246.147 31.4917 244.439 26.8508C242.731 22.1363 240.094 17.7901 236.529 13.8122C232.963 9.83425 228.433 6.55617 222.936 3.9779C217.514 1.32596 211.09 0 203.662 0C196.309 0 189.996 1.28913 184.722 3.8674C179.449 6.44567 175.104 9.72376 171.687 13.7017C168.27 17.6059 165.745 21.9153 164.111 26.6298C162.551 31.3444 161.771 35.8011 161.771 40ZM172.69 40C172.69 34.8435 173.47 30.1289 175.029 25.8564C176.663 21.5101 178.855 17.7901 181.603 14.6961C184.425 11.6022 187.73 9.2081 191.518 7.51381C195.306 5.74585 199.429 4.86188 203.885 4.86188C208.267 4.86188 212.389 5.74585 216.252 7.51381C220.188 9.2081 223.605 11.6022 226.502 14.6961C229.473 17.7901 231.812 21.5101 233.521 25.8564C235.229 30.1289 236.083 34.8435 236.083 40C236.083 45.1565 235.229 49.9079 233.521 54.2541C231.812 58.5267 229.473 62.2099 226.502 65.3039C223.605 68.3978 220.188 70.8287 216.252 72.5967C212.389 74.291 208.267 75.1381 203.885 75.1381C199.429 75.1381 195.306 74.291 191.518 72.5967C187.73 70.8287 184.425 68.3978 181.603 65.3039C178.855 62.2099 176.663 58.5267 175.029 54.2541C173.47 49.9079 172.69 45.1565 172.69 40Z" fill="#EFF1F5"/>
<path d="M263.654 1.32596V48.8398C263.654 51.86 263.951 55.2118 264.545 58.895C265.139 62.5046 266.55 65.8932 268.778 69.0608C271.007 72.1547 274.312 74.7698 278.694 76.9061C283.076 78.9687 289.055 80 296.631 80C301.385 80 305.581 79.2634 309.221 77.7901C312.935 76.3168 316.017 74.291 318.468 71.7127C320.993 69.1344 322.887 66.151 324.15 62.7624C325.413 59.3002 326.044 55.6169 326.044 51.7127V1.32596H321.142V48.0663C321.142 49.6869 321.105 51.3444 321.03 53.0387C320.956 54.6593 320.733 56.3168 320.362 58.0111C319.991 59.6317 319.396 61.2523 318.579 62.8729C317.837 64.4936 316.723 66.1142 315.237 67.7348C312.563 70.6077 309.555 72.5599 306.213 73.5912C302.87 74.6225 299.379 75.1381 295.74 75.1381C292.621 75.1381 289.835 74.6593 287.384 73.7017C285.007 72.744 282.742 71.3075 280.588 69.3923C278.88 67.919 277.58 66.4457 276.689 64.9724C275.797 63.4991 275.129 62.0626 274.683 60.663C274.238 59.1897 273.978 57.7164 273.903 56.2431C273.829 54.7698 273.792 53.2965 273.792 51.8232V1.32596H263.654Z" fill="#EFF1F5"/>
<path d="M379.294 78.674V7.40331H409.152V1.32596H339.297V7.40331H369.156V78.674H379.294Z" fill="#EFF1F5"/>
<path d="M463.528 1.32596V48.8398C463.528 51.86 463.825 55.2118 464.419 58.895C465.014 62.5046 466.425 65.8932 468.653 69.0608C470.881 72.1547 474.187 74.7698 478.569 76.9061C482.951 78.9687 488.93 80 496.506 80C501.26 80 505.456 79.2634 509.096 77.7901C512.809 76.3168 515.892 74.291 518.343 71.7127C520.868 69.1344 522.762 66.151 524.025 62.7624C525.287 59.3002 525.919 55.6169 525.919 51.7127V1.32596H521.017V48.0663C521.017 49.6869 520.979 51.3444 520.905 53.0387C520.831 54.6593 520.608 56.3168 520.237 58.0111C519.865 59.6317 519.271 61.2523 518.454 62.8729C517.711 64.4936 516.597 66.1142 515.112 67.7348C512.438 70.6077 509.43 72.5599 506.087 73.5912C502.745 74.6225 499.254 75.1381 495.615 75.1381C492.495 75.1381 489.71 74.6593 487.259 73.7017C484.882 72.744 482.617 71.3075 480.463 69.3923C478.754 67.919 477.455 66.4457 476.563 64.9724C475.672 63.4991 475.004 62.0626 474.558 60.663C474.112 59.1897 473.852 57.7164 473.778 56.2431C473.704 54.7698 473.667 53.2965 473.667 51.8232V1.32596H463.528Z" fill="#EFF1F5"/>
<path d="M541.066 59.116C541.214 62.2836 542.031 65.1565 543.517 67.7348C545.077 70.3131 547.156 72.523 549.756 74.3646C552.43 76.1326 555.549 77.5322 559.115 78.5635C562.68 79.5212 566.579 80 570.813 80C575.121 80 578.983 79.4843 582.4 78.453C585.891 77.4217 588.862 75.9484 591.313 74.0331C593.764 72.1179 595.658 69.7974 596.995 67.0718C598.332 64.3462 599 61.326 599 58.0111C599 53.4438 597.849 49.7238 595.546 46.8508C593.244 43.9042 590.347 41.4733 586.856 39.558C583.44 37.5691 579.689 35.9116 575.604 34.5856C571.593 33.2597 567.842 31.86 564.351 30.3867C560.934 28.9134 558.075 27.2192 555.772 25.3039C553.47 23.3886 552.319 20.8471 552.319 17.6796C552.319 15.9116 552.69 14.2541 553.433 12.7072C554.25 11.1602 555.401 9.83425 556.886 8.72928C558.446 7.55064 560.34 6.62983 562.568 5.96685C564.797 5.2302 567.359 4.86188 570.256 4.86188C575.084 4.86188 579.169 5.89318 582.511 7.9558C585.928 9.94475 587.933 13.1123 588.527 17.4586H596.103C595.658 14.733 594.655 12.302 593.095 10.1657C591.535 7.9558 589.567 6.11418 587.19 4.64088C584.814 3.09392 582.103 1.95211 579.057 1.21547C576.086 0.405156 572.967 0 569.699 0C566.282 0 563.014 0.441988 559.895 1.32596C556.849 2.20994 554.138 3.49908 551.761 5.19337C549.459 6.88766 547.602 9.02394 546.191 11.6022C544.854 14.1805 544.185 17.1271 544.185 20.442C544.185 24.7882 545.3 28.2873 547.528 30.9392C549.756 33.5912 552.541 35.8011 555.884 37.5691C559.3 39.337 562.977 40.8471 566.913 42.0994C570.85 43.3517 574.489 44.7882 577.832 46.4088C581.248 47.9558 584.071 49.8711 586.299 52.1547C588.527 54.4383 589.641 57.4954 589.641 61.326C589.641 66.1142 587.859 69.6133 584.294 71.8232C580.803 74.0331 576.123 75.1381 570.256 75.1381C565.576 75.1381 561.826 74.5488 559.003 73.3702C556.181 72.1179 554.027 70.6446 552.541 68.9503C551.056 67.256 550.053 65.5249 549.533 63.7569C549.013 61.9153 548.716 60.3683 548.642 59.116H541.066Z" fill="#EFF1F5"/>
</svg>
