<svg width="315" height="80" viewBox="0 0 315 80" fill="none" xmlns="http://www.w3.org/2000/svg">
<path d="M0 78.674H27.9279C32.8978 78.674 37.0888 78.0479 40.501 76.7956C43.9132 75.4696 46.6577 73.7753 48.7347 71.7127C50.8117 69.6501 52.2952 67.3297 53.1854 64.7514C54.1497 62.0994 54.6318 59.4475 54.6318 56.7956C54.6318 52.5967 53.7046 49.2449 51.8502 46.7403C50.0699 44.2357 47.9188 42.3204 45.3967 40.9945C42.8747 39.6685 40.2785 38.7845 37.6081 38.3425C34.9377 37.9006 32.7865 37.6427 31.1546 37.5691V37.1271C33.7508 37.1271 36.1987 36.6482 38.4982 35.6906C40.7977 34.6593 42.8005 33.3702 44.5066 31.8232C46.2868 30.2026 47.6962 28.361 48.7347 26.2983C49.7732 24.1621 50.2924 21.9153 50.2924 19.558C50.2924 17.4954 49.8474 15.3959 48.9572 13.2597C48.0671 11.1234 46.6948 9.17127 44.8404 7.40331C43.0601 5.63536 40.7235 4.19889 37.8306 3.09392C35.0118 1.91528 31.6739 1.32596 27.8166 1.32596H0V78.674ZM10.1252 73.8122V40H22.3646C25.9993 40 29.1518 40.4788 31.8222 41.4365C34.4926 42.3941 36.6808 43.6832 38.3869 45.3039C40.1672 46.9245 41.4653 48.8029 42.2813 50.9392C43.1714 53.0755 43.6165 55.3223 43.6165 57.6796C43.6165 60.2578 43.1343 62.5414 42.17 64.5304C41.2799 66.5193 40.0559 68.2136 38.4982 69.6133C36.9405 71.0129 35.086 72.081 32.9349 72.8177C30.8579 73.4807 28.6326 73.8122 26.2589 73.8122H10.1252ZM10.1252 35.1381V6.18784H23.6998C26.5927 6.18784 29.0405 6.593 31.0433 7.40331C33.1203 8.21363 34.7893 9.28177 36.0503 10.6077C37.3855 11.9337 38.3498 13.4438 38.9433 15.1381C39.5367 16.8324 39.8334 18.5267 39.8334 20.221C39.8334 22.3573 39.3883 24.3462 38.4982 26.1878C37.6822 28.0295 36.4954 29.6133 34.9377 30.9392C33.4541 32.2652 31.7109 33.2965 29.7081 34.0331C27.7795 34.7698 25.7026 35.1381 23.4772 35.1381H10.1252Z" fill="#EFF1F5"/>
<path d="M75.7016 78.674V1.32596H85.8269V72.5967H125.994V78.674H75.7016Z" fill="#EFF1F5"/>
<path d="M136.986 40C136.986 44.1252 137.765 48.5451 139.323 53.2597C140.955 57.9006 143.477 62.2099 146.889 66.1878C150.301 70.1657 154.641 73.4807 159.907 76.1326C165.174 78.7109 171.479 80 178.823 80C183.793 80 188.28 79.4107 192.286 78.232C196.366 76.9797 200 75.3223 203.19 73.2597C206.454 71.1971 209.273 68.8398 211.646 66.1878C214.02 63.4622 215.949 60.6261 217.432 57.6796C218.99 54.6593 220.14 51.639 220.881 48.6188C221.697 45.5985 222.105 42.7256 222.105 40C222.105 35.8748 221.252 31.4917 219.546 26.8508C217.84 22.1363 215.207 17.7901 211.646 13.8122C208.086 9.83425 203.561 6.55617 198.072 3.9779C192.657 1.32596 186.24 0 178.823 0C171.479 0 165.174 1.28913 159.907 3.8674C154.641 6.44567 150.301 9.72376 146.889 13.7017C143.477 17.6059 140.955 21.9153 139.323 26.6298C137.765 31.3444 136.986 35.8011 136.986 40ZM147.891 40C147.891 34.8435 148.669 30.1289 150.227 25.8564C151.859 21.5101 154.047 17.7901 156.792 14.6961C159.611 11.6022 162.912 9.2081 166.695 7.51381C170.478 5.74585 174.595 4.86188 179.045 4.86188C183.422 4.86188 187.539 5.74585 191.396 7.51381C195.327 9.2081 198.739 11.6022 201.632 14.6961C204.599 17.7901 206.936 21.5101 208.642 25.8564C210.348 30.1289 211.201 34.8435 211.201 40C211.201 45.1565 210.348 49.9079 208.642 54.2541C206.936 58.5267 204.599 62.2099 201.632 65.3039C198.739 68.3978 195.327 70.8287 191.396 72.5967C187.539 74.291 183.422 75.1381 179.045 75.1381C174.595 75.1381 170.478 74.291 166.695 72.5967C162.912 70.8287 159.611 68.3978 156.792 65.3039C154.047 62.2099 151.859 58.5267 150.227 54.2541C148.669 49.9079 147.891 45.1565 147.891 40Z" fill="#EFF1F5"/>
<path d="M314.063 44.1989H292.032V48.7293H304.494V68.7293C301.156 70.8656 297.744 72.4494 294.258 73.4807C290.771 74.512 286.803 75.0276 282.352 75.0276C276.492 75.0276 271.374 74.1436 266.997 72.3757C262.621 70.6077 258.986 68.1768 256.093 65.0829C253.2 61.9153 251.012 58.1952 249.529 53.9226C248.119 49.5764 247.415 44.825 247.415 39.6685C247.415 34.5856 248.082 29.9079 249.417 25.6354C250.827 21.3628 252.904 17.6796 255.648 14.5856C258.393 11.4917 261.731 9.0976 265.662 7.40331C269.668 5.70902 274.304 4.86188 279.571 4.86188C283.057 4.86188 286.321 5.2302 289.362 5.96685C292.403 6.7035 295.111 7.66114 297.484 8.83978C299.858 10.0184 301.787 11.3812 303.27 12.9282C304.828 14.4015 305.829 15.9116 306.275 17.4586H314.286C313.618 15.8379 312.468 14.0331 310.836 12.0442C309.279 9.98158 307.128 8.0663 304.383 6.29834C301.638 4.53039 298.226 3.05709 294.146 1.87845C290.141 0.62615 285.393 0 279.904 0C273.599 0 267.776 0.883977 262.436 2.65193C257.169 4.41989 252.607 6.96132 248.75 10.2762C244.893 13.5912 241.888 17.6796 239.737 22.5414C237.586 27.3296 236.51 32.7808 236.51 38.895C236.51 44.1252 237.326 49.2081 238.958 54.1436C240.664 59.0055 243.224 63.3886 246.636 67.2928C250.122 71.1234 254.536 74.2173 259.876 76.5746C265.217 78.8582 271.596 80 279.014 80C284.578 80 289.51 79.4107 293.813 78.232C298.115 76.9797 301.675 75.6169 304.494 74.1436V78.674H314.063V44.1989Z" fill="#EFF1F5"/>
</svg>
