<svg width="644" height="80" viewBox="0 0 644 80" fill="none" xmlns="http://www.w3.org/2000/svg">
<path d="M72.833 64.4199C65.3176 71.4917 56.4023 75.0276 46.087 75.0276C40.34 75.0276 35.256 74.0331 30.8352 72.0442C26.4144 70.0552 22.7304 67.4033 19.7832 64.0884C16.836 60.7735 14.5887 56.9429 13.0414 52.5967C11.5678 48.2505 10.831 43.7201 10.831 39.0055C10.831 33.9963 11.6047 29.4291 13.1519 25.3039C14.7729 21.105 17.0202 17.4954 19.8937 14.4751C22.7672 11.4549 26.1565 9.0976 30.0616 7.40331C34.0403 5.70902 38.3506 4.86188 42.9925 4.86188C46.1607 4.86188 49.0343 5.2302 51.6131 5.96685C54.2656 6.7035 56.5865 7.66114 58.5759 8.83978C60.6389 10.0184 62.2967 11.3812 63.5493 12.9282C64.8755 14.4015 65.7965 15.9116 66.3123 17.4586H74.4908C73.3856 14.954 71.9488 12.6335 70.1805 10.4972C68.4859 8.36096 66.3491 6.51933 63.7703 4.97237C61.1915 3.42541 58.1706 2.20994 54.7076 1.32596C51.2447 0.441988 47.3028 0 42.882 0C36.4718 0 30.6142 0.920809 25.3092 2.76243C20.0779 4.60405 15.5834 7.25598 11.8257 10.7182C8.068 14.1068 5.15762 18.232 3.09457 23.0939C1.03152 27.8821 0 33.2597 0 39.2265C0 44.3831 0.810484 49.4291 2.43145 54.3646C4.1261 59.2265 6.70491 63.5727 10.1679 67.4033C13.6309 71.1602 18.0517 74.2173 23.4303 76.5746C28.809 78.8582 35.2192 80 42.6609 80C47.3764 80 51.5762 79.558 55.2602 78.674C59.0179 77.7901 62.2599 76.7219 64.9861 75.4696C67.7859 74.1436 70.1068 72.744 71.9488 71.2707C73.7908 69.7974 75.1908 68.5083 76.1486 67.4033L72.833 64.4199Z" fill="#EFF1F5"/>
<path d="M85.9871 40C85.9871 44.1252 86.7608 48.5451 88.3081 53.2597C89.929 57.9006 92.4342 62.2099 95.8235 66.1878C99.2128 70.1657 103.523 73.4807 108.754 76.1326C113.986 78.7109 120.248 80 127.543 80C132.479 80 136.937 79.4107 140.916 78.232C144.968 76.9797 148.579 75.3223 151.747 73.2597C154.989 71.1971 157.789 68.8398 160.146 66.1878C162.504 63.4622 164.42 60.6261 165.893 57.6796C167.441 54.6593 168.583 51.639 169.32 48.6188C170.13 45.5985 170.535 42.7256 170.535 40C170.535 35.8748 169.688 31.4917 167.993 26.8508C166.299 22.1363 163.683 17.7901 160.146 13.8122C156.61 9.83425 152.115 6.55617 146.663 3.9779C141.284 1.32596 134.911 0 127.543 0C120.248 0 113.986 1.28913 108.754 3.8674C103.523 6.44567 99.2128 9.72376 95.8235 13.7017C92.4342 17.6059 89.929 21.9153 88.3081 26.6298C86.7608 31.3444 85.9871 35.8011 85.9871 40ZM96.8181 40C96.8181 34.8435 97.5918 30.1289 99.1391 25.8564C100.76 21.5101 102.934 17.7901 105.66 14.6961C108.46 11.6022 111.738 9.2081 115.496 7.51381C119.254 5.74585 123.343 4.86188 127.764 4.86188C132.111 4.86188 136.2 5.74585 140.032 7.51381C143.937 9.2081 147.326 11.6022 150.2 14.6961C153.147 17.7901 155.468 21.5101 157.162 25.8564C158.857 30.1289 159.704 34.8435 159.704 40C159.704 45.1565 158.857 49.9079 157.162 54.2541C155.468 58.5267 153.147 62.2099 150.2 65.3039C147.326 68.3978 143.937 70.8287 140.032 72.5967C136.2 74.291 132.111 75.1381 127.764 75.1381C123.343 75.1381 119.254 74.291 115.496 72.5967C111.738 70.8287 108.46 68.3978 105.66 65.3039C102.934 62.2099 100.76 58.5267 99.1391 54.2541C97.5918 49.9079 96.8181 45.1565 96.8181 40Z" fill="#EFF1F5"/>
<path d="M253.809 1.32596V60.442H253.367L192.028 0H191.475V78.674H196.559V19.558H197.001L258.34 80H258.893V1.32596H253.809Z" fill="#EFF1F5"/>
<path d="M316.125 78.674V7.40331H345.744V1.32596H276.448V7.40331H306.067V78.674H316.125Z" fill="#EFF1F5"/>
<path d="M393.059 55.9116L403.668 78.674H414.389L378.359 1.32596H372.833L340.119 78.674H345.203L354.929 55.9116H393.059ZM390.738 50.9392H357.029L372.944 13.7017H373.386L390.738 50.9392Z" fill="#EFF1F5"/>
<path d="M498.236 64.4199C490.72 71.4917 481.805 75.0276 471.49 75.0276C465.743 75.0276 460.659 74.0331 456.238 72.0442C451.817 70.0552 448.133 67.4033 445.186 64.0884C442.239 60.7735 439.991 56.9429 438.444 52.5967C436.97 48.2505 436.234 43.7201 436.234 39.0055C436.234 33.9963 437.007 29.4291 438.555 25.3039C440.176 21.105 442.423 17.4954 445.296 14.4751C448.17 11.4549 451.559 9.0976 455.464 7.40331C459.443 5.70902 463.753 4.86188 468.395 4.86188C471.563 4.86188 474.437 5.2302 477.016 5.96685C479.668 6.7035 481.989 7.66114 483.978 8.83978C486.042 10.0184 487.699 11.3812 488.952 12.9282C490.278 14.4015 491.199 15.9116 491.715 17.4586H499.893C498.788 14.954 497.351 12.6335 495.583 10.4972C493.888 8.36096 491.752 6.51933 489.173 4.97237C486.594 3.42541 483.573 2.20994 480.11 1.32596C476.647 0.441988 472.705 0 468.285 0C461.874 0 456.017 0.920809 450.712 2.76243C445.48 4.60405 440.986 7.25598 437.228 10.7182C433.471 14.1068 430.56 18.232 428.497 23.0939C426.434 27.8821 425.403 33.2597 425.403 39.2265C425.403 44.3831 426.213 49.4291 427.834 54.3646C429.529 59.2265 432.108 63.5727 435.57 67.4033C439.033 71.1602 443.454 74.2173 448.833 76.5746C454.212 78.8582 460.622 80 468.064 80C472.779 80 476.979 79.558 480.663 78.674C484.421 77.7901 487.663 76.7219 490.389 75.4696C493.189 74.1436 495.509 72.744 497.351 71.2707C499.193 69.7974 500.593 68.5083 501.551 67.4033L498.236 64.4199Z" fill="#EFF1F5"/>
<path d="M547.751 78.674V7.40331H577.37V1.32596H508.074V7.40331H537.694V78.674H547.751Z" fill="#EFF1F5"/>
<path d="M585.795 59.116C585.942 62.2836 586.753 65.1565 588.226 67.7348C589.773 70.3131 591.836 72.523 594.415 74.3646C597.068 76.1326 600.162 77.5322 603.699 78.5635C607.236 79.5212 611.104 80 615.304 80C619.577 80 623.409 79.4843 626.798 78.453C630.261 77.4217 633.208 75.9484 635.639 74.0331C638.071 72.1179 639.95 69.7974 641.276 67.0718C642.602 64.3462 643.265 61.326 643.265 58.0111C643.265 53.4438 642.123 49.7238 639.839 46.8508C637.555 43.9042 634.682 41.4733 631.219 39.558C627.829 37.5691 624.108 35.9116 620.056 34.5856C616.077 33.2597 612.356 31.86 608.893 30.3867C605.504 28.9134 602.667 27.2192 600.383 25.3039C598.099 23.3886 596.957 20.8471 596.957 17.6796C596.957 15.9116 597.326 14.2541 598.062 12.7072C598.873 11.1602 600.015 9.83425 601.489 8.72928C603.036 7.55064 604.915 6.62983 607.125 5.96685C609.336 5.2302 611.878 4.86188 614.751 4.86188C619.54 4.86188 623.593 5.89318 626.908 7.9558C630.298 9.94475 632.287 13.1123 632.876 17.4586H640.392C639.95 14.733 638.955 12.302 637.408 10.1657C635.86 7.9558 633.908 6.11418 631.55 4.64088C629.192 3.09392 626.503 1.95211 623.482 1.21547C620.535 0.405156 617.44 0 614.198 0C610.809 0 607.567 0.441988 604.473 1.32596C601.452 2.20994 598.762 3.49908 596.405 5.19337C594.121 6.88766 592.279 9.02394 590.879 11.6022C589.552 14.1805 588.889 17.1271 588.889 20.442C588.889 24.7882 589.994 28.2873 592.205 30.9392C594.415 33.5912 597.178 35.8011 600.494 37.5691C603.883 39.337 607.53 40.8471 611.435 42.0994C615.34 43.3517 618.951 44.7882 622.266 46.4088C625.656 47.9558 628.456 49.8711 630.666 52.1547C632.876 54.4383 633.982 57.4954 633.982 61.326C633.982 66.1142 632.213 69.6133 628.677 71.8232C625.214 74.0331 620.572 75.1381 614.751 75.1381C610.109 75.1381 606.388 74.5488 603.589 73.3702C600.789 72.1179 598.652 70.6446 597.178 68.9503C595.705 67.256 594.71 65.5249 594.194 63.7569C593.678 61.9153 593.384 60.3683 593.31 59.116H585.795Z" fill="#EFF1F5"/>
</svg>
