<svg width="468" height="80" viewBox="0 0 468 80" fill="none" xmlns="http://www.w3.org/2000/svg">
<path d="M10.1304 45.8427C12.06 46.367 14.138 46.8165 16.3645 47.191C18.5909 47.4906 21.04 47.6404 23.7118 47.6404C28.2389 47.6404 32.2465 47.0037 35.7346 45.7303C39.2227 44.4569 42.1171 42.7341 44.4178 40.5618C46.7927 38.3146 48.5738 35.7678 49.7613 32.9214C50.9487 30 51.5425 26.8914 51.5425 23.5955C51.5425 20.4494 51.0229 17.4532 49.9839 14.6067C48.9449 11.6854 47.3493 9.17603 45.1971 7.07865C43.119 4.90637 40.4844 3.18352 37.2931 1.91011C34.1019 0.636705 30.354 0 26.0495 0H0V78.6517H10.1304V45.8427ZM10.1304 4.94382H21.8193C24.9363 4.94382 27.6823 5.50562 30.0572 6.62921C32.432 7.75281 34.3987 9.25094 35.9573 11.1236C37.5158 12.9214 38.6661 14.9813 39.4083 17.3034C40.2246 19.5506 40.6328 21.7978 40.6328 24.0449C40.6328 26.2172 40.2617 28.427 39.5196 30.6742C38.8517 32.8464 37.7384 34.8315 36.1799 36.6292C34.6214 38.427 32.6547 39.8876 30.2798 41.0112C27.9049 42.1348 25.0476 42.6966 21.7079 42.6966C19.4073 42.6966 17.2921 42.6217 15.3625 42.4719C13.433 42.2472 11.6889 41.8352 10.1304 41.236V4.94382Z" fill="#EFF1F5"/>
<path d="M70.413 0V78.6517H80.5434V43.9326H85.4416C87.5196 43.9326 89.2266 44.1199 90.5624 44.4944C91.9725 44.8689 93.2342 45.5056 94.3474 46.4045C95.4606 47.3034 96.4997 48.4644 97.4644 49.8876C98.4292 51.3109 99.5796 53.0712 100.915 55.1685L109.71 68.3146C110.823 70.0375 111.899 71.6105 112.938 73.0337C114.052 74.4569 115.239 75.6929 116.501 76.7416C117.762 77.7154 119.172 78.5019 120.731 79.1011C122.364 79.7004 124.293 80 126.52 80C128.152 80 129.488 79.9251 130.527 79.7753C131.566 79.6255 132.605 79.2509 133.644 78.6517V74.4944C133.273 74.5693 132.902 74.6442 132.531 74.7191C132.16 74.7191 131.789 74.7191 131.418 74.7191C129.859 74.7191 128.486 74.4944 127.299 74.0449C126.112 73.5955 124.998 72.9588 123.959 72.1348C122.92 71.236 121.918 70.1873 120.954 68.9888C119.989 67.7154 118.987 66.2921 117.948 64.7191C114.831 60.1498 112.419 56.5169 110.712 53.8202C109.005 51.0487 107.632 48.9139 106.593 47.4157C105.628 45.9176 104.812 44.8315 104.144 44.1573C103.55 43.4831 102.808 42.9213 101.917 42.4719L100.804 41.9101V41.4607C104.366 41.236 107.409 40.4494 109.933 39.1011C112.53 37.7528 114.645 36.0674 116.278 34.0449C117.911 32.0225 119.098 29.8502 119.84 27.5281C120.582 25.1311 120.954 22.809 120.954 20.5618C120.954 18.5393 120.545 16.3296 119.729 13.9326C118.987 11.5356 117.651 9.32584 115.721 7.30337C113.866 5.20599 111.306 3.48315 108.04 2.13483C104.775 0.71161 100.656 0 95.6833 0H70.413ZM80.5434 4.94382H91.787C94.6072 4.94382 97.1305 5.35581 99.3569 6.17978C101.658 7.00375 103.624 8.1648 105.257 9.66292C106.89 11.0861 108.114 12.809 108.931 14.8315C109.821 16.8539 110.267 19.0637 110.267 21.4607C110.267 23.4831 109.858 25.5431 109.042 27.6404C108.3 29.6629 107.15 31.5356 105.591 33.2584C104.032 34.9064 102.103 36.2547 99.8022 37.3034C97.5758 38.3521 94.9782 38.8764 92.0096 38.8764H80.5434V4.94382Z" fill="#EFF1F5"/>
<path d="M156.911 0V78.6517H167.042V0H156.911Z" fill="#EFF1F5"/>
<path d="M190.349 0L222.966 78.6517H229.646L261.261 0H255.472L229.534 64.7191H229.089L202.371 0H190.349Z" fill="#EFF1F5"/>
<path d="M313.433 55.5056L324.12 78.6517H334.918L298.627 0H293.061L260.109 78.6517H265.23L275.027 55.5056H313.433ZM311.095 50.4494H277.142L293.172 12.5843H293.617L311.095 50.4494Z" fill="#EFF1F5"/>
<path d="M369.265 78.6517V6.17978H399.1V0H329.3V6.17978H359.135V78.6517H369.265Z" fill="#EFF1F5"/>
<path d="M416.825 0V78.6517H467.143V72.4719H426.955V39.5506H461.465V34.382H426.955V6.17978H467.143V0H416.825Z" fill="#EFF1F5"/>
</svg>
