<svg width="722" height="80" viewBox="0 0 722 80" fill="none" xmlns="http://www.w3.org/2000/svg">
<path d="M0 78.674V1.32596H25.63C31.7961 1.32596 37.4421 2.32044 42.5681 4.30939C47.6941 6.22468 52.0773 8.91344 55.7175 12.3757C59.432 15.7643 62.2921 19.8158 64.298 24.5304C66.3781 29.2449 67.4181 34.3278 67.4181 39.779C67.4181 45.4512 66.3409 50.6814 64.1865 55.4696C62.1064 60.1842 59.2091 64.2726 55.4946 67.7348C51.8544 71.1971 47.5827 73.8858 42.6796 75.8011C37.7764 77.7164 32.539 78.674 26.9672 78.674H0ZM10.1406 73.8122H22.3984C28.4902 73.8122 33.6533 72.8177 37.8879 70.8287C42.1967 68.7661 45.7255 66.1142 48.4742 62.8729C51.2229 59.6317 53.2288 56.0221 54.4917 52.0442C55.7546 47.9926 56.3861 43.9779 56.3861 40C56.3861 35.5801 55.6432 31.3444 54.1574 27.2928C52.6716 23.1676 50.48 19.558 47.5827 16.4641C44.7597 13.2965 41.2309 10.7919 36.9964 8.95027C32.7619 7.10865 27.8959 6.18784 22.3984 6.18784H10.1406V73.8122Z" fill="#EFF1F5"/>
<path d="M78.4367 40C78.4367 44.1252 79.2168 48.5451 80.7768 53.2597C82.4112 57.9006 84.9371 62.2099 88.3544 66.1878C91.7718 70.1657 96.1177 73.4807 101.392 76.1326C106.667 78.7109 112.982 80 120.336 80C125.314 80 129.808 79.4107 133.82 78.232C137.906 76.9797 141.546 75.3223 144.741 73.2597C148.009 71.1971 150.832 68.8398 153.21 66.1878C155.587 63.4622 157.518 60.6261 159.004 57.6796C160.564 54.6593 161.716 51.639 162.459 48.6188C163.276 45.5985 163.684 42.7256 163.684 40C163.684 35.8748 162.83 31.4917 161.121 26.8508C159.413 22.1363 156.775 17.7901 153.21 13.8122C149.644 9.83425 145.112 6.55617 139.614 3.9779C134.191 1.32596 127.765 0 120.336 0C112.982 0 106.667 1.28913 101.392 3.8674C96.1177 6.44567 91.7718 9.72376 88.3544 13.7017C84.9371 17.6059 82.4112 21.9153 80.7768 26.6298C79.2168 31.3444 78.4367 35.8011 78.4367 40ZM89.3573 40C89.3573 34.8435 90.1374 30.1289 91.6975 25.8564C93.3319 21.5101 95.5234 17.7901 98.2721 14.6961C101.095 11.6022 104.401 9.2081 108.19 7.51381C111.979 5.74585 116.102 4.86188 120.559 4.86188C124.942 4.86188 129.065 5.74585 132.928 7.51381C136.866 9.2081 140.283 11.6022 143.18 14.6961C146.152 17.7901 148.492 21.5101 150.201 25.8564C151.909 30.1289 152.764 34.8435 152.764 40C152.764 45.1565 151.909 49.9079 150.201 54.2541C148.492 58.5267 146.152 62.2099 143.18 65.3039C140.283 68.3978 136.866 70.8287 132.928 72.5967C129.065 74.291 124.942 75.1381 120.559 75.1381C116.102 75.1381 111.979 74.291 108.19 72.5967C104.401 70.8287 101.095 68.3978 98.2721 65.3039C95.5234 62.2099 93.3319 58.5267 91.6975 54.2541C90.1374 49.9079 89.3573 45.1565 89.3573 40Z" fill="#EFF1F5"/>
<path d="M174.768 1.32596L202.404 78.674H209.09L230.374 18.232H230.932L251.547 78.674H258.122L285.758 1.32596H280.632L257.564 65.8564H257.119L235.389 1.32596H230.597L208.422 65.5249H207.976L185.02 1.32596H174.768Z" fill="#EFF1F5"/>
<path d="M367.428 1.32596V60.442H366.982L305.135 0H304.578V78.674H309.704V19.558H310.15L371.996 80H372.554V1.32596H367.428Z" fill="#EFF1F5"/>
<path d="M401.397 78.674V1.32596H411.538V72.5967H451.766V78.674H401.397Z" fill="#EFF1F5"/>
<path d="M462.775 40C462.775 44.1252 463.555 48.5451 465.115 53.2597C466.75 57.9006 469.275 62.2099 472.693 66.1878C476.11 70.1657 480.456 73.4807 485.731 76.1326C491.005 78.7109 497.32 80 504.675 80C509.652 80 514.146 79.4107 518.158 78.232C522.244 76.9797 525.884 75.3223 529.079 73.2597C532.348 71.1971 535.171 68.8398 537.548 66.1878C539.925 63.4622 541.857 60.6261 543.342 57.6796C544.903 54.6593 546.054 51.639 546.797 48.6188C547.614 45.5985 548.023 42.7256 548.023 40C548.023 35.8748 547.168 31.4917 545.46 26.8508C543.751 22.1363 541.114 17.7901 537.548 13.8122C533.982 9.83425 529.45 6.55617 523.953 3.9779C518.53 1.32596 512.104 0 504.675 0C497.32 0 491.005 1.28913 485.731 3.8674C480.456 6.44567 476.11 9.72376 472.693 13.7017C469.275 17.6059 466.75 21.9153 465.115 26.6298C463.555 31.3444 462.775 35.8011 462.775 40ZM473.696 40C473.696 34.8435 474.476 30.1289 476.036 25.8564C477.67 21.5101 479.862 17.7901 482.61 14.6961C485.433 11.6022 488.739 9.2081 492.528 7.51381C496.317 5.74585 500.44 4.86188 504.897 4.86188C509.28 4.86188 513.404 5.74585 517.267 7.51381C521.204 9.2081 524.621 11.6022 527.519 14.6961C530.49 17.7901 532.83 21.5101 534.539 25.8564C536.248 30.1289 537.102 34.8435 537.102 40C537.102 45.1565 536.248 49.9079 534.539 54.2541C532.83 58.5267 530.49 62.2099 527.519 65.3039C524.621 68.3978 521.204 70.8287 517.267 72.5967C513.404 74.291 509.28 75.1381 504.897 75.1381C500.44 75.1381 496.317 74.291 492.528 72.5967C488.739 70.8287 485.433 68.3978 482.61 65.3039C479.862 62.2099 477.67 58.5267 476.036 54.2541C474.476 49.9079 473.696 45.1565 473.696 40Z" fill="#EFF1F5"/>
<path d="M612.484 55.9116L623.182 78.674H633.991L597.663 1.32596H592.091L559.107 78.674H564.233L574.039 55.9116H612.484ZM610.144 50.9392H576.156L592.203 13.7017H592.649L610.144 50.9392Z" fill="#EFF1F5"/>
<path d="M654.01 78.674V1.32596H679.641C685.807 1.32596 691.453 2.32044 696.579 4.30939C701.705 6.22468 706.088 8.91344 709.728 12.3757C713.442 15.7643 716.303 19.8158 718.308 24.5304C720.389 29.2449 721.429 34.3278 721.429 39.779C721.429 45.4512 720.351 50.6814 718.197 55.4696C716.117 60.1842 713.22 64.2726 709.505 67.7348C705.865 71.1971 701.593 73.8858 696.69 75.8011C691.787 77.7164 686.549 78.674 680.978 78.674H654.01ZM664.151 73.8122H676.409C682.501 73.8122 687.664 72.8177 691.898 70.8287C696.207 68.7661 699.736 66.1142 702.485 62.8729C705.233 59.6317 707.239 56.0221 708.502 52.0442C709.765 47.9926 710.396 43.9779 710.396 40C710.396 35.5801 709.654 31.3444 708.168 27.2928C706.682 23.1676 704.49 19.558 701.593 16.4641C698.77 13.2965 695.241 10.7919 691.007 8.95027C686.772 7.10865 681.906 6.18784 676.409 6.18784H664.151V73.8122Z" fill="#EFF1F5"/>
</svg>
