<svg width="1440" height="130" viewBox="0 0 1440 130" fill="none" xmlns="http://www.w3.org/2000/svg">
<path fill-rule="evenodd" clip-rule="evenodd" d="M1493.64 2.99798C1489.11 7.80499 1477.36 15.8291 1468.04 20.4842C1460.17 24.4178 1447.28 29.2494 1445.52 28.9242C1445.12 28.8506 1444.75 28.9705 1444.7 29.1907C1444.36 30.5924 1426.74 34.982 1410.44 37.7267C1371.04 44.3598 1315.29 44.9575 1254.8 39.3944C1224.17 36.5777 1164.22 28.5126 1164.97 27.3092C1165.18 26.9722 1164.42 26.815 1163.3 26.9594C1162.17 27.1039 1148.7 25.1979 1133.38 22.7235C1089.79 15.6868 1053.64 11.6832 1017.08 9.84274C997.233 8.84359 961.299 8.85479 941.206 9.8662C923.663 10.7491 891.953 13.6874 877.192 15.7982C862.988 17.8285 827.891 23.7994 821.063 25.3466C817.792 26.0877 814.135 26.5692 812.94 26.4162C811.744 26.2626 811.145 26.3426 811.611 26.5942C812.076 26.8453 807.264 28.1953 800.917 29.5943C788.846 32.2548 745.255 42.6243 743.872 43.1644C741.158 44.2244 720.558 49.2286 718.909 49.2286C717.807 49.2286 717.047 49.4083 717.218 49.6274C717.389 49.8466 703.517 53.9088 686.393 58.6545C669.269 63.4001 653.45 67.7993 651.24 68.4306C649.029 69.0613 642.802 70.8442 637.4 72.3914C632 73.9392 626.623 75.1388 625.453 75.0572C624.284 74.9762 623.489 75.1932 623.688 75.5398C624.191 76.4115 605.075 81.66 602.977 81.2265C602.043 81.034 601.723 81.1167 602.268 81.411C603.291 81.9644 578.004 88.5431 557.065 93.1694C537.96 97.3915 538.551 97.3307 531.787 95.7606C521.551 93.3837 492.537 86.2409 477.037 82.2816C449.778 75.319 428.063 71.959 401.393 70.5755C369.577 68.9253 343.089 70.672 308.705 76.6887C296.382 78.8448 296.382 78.8448 282.627 74.7421C275.062 72.4853 265.466 69.7139 261.304 68.5825C257.141 67.4517 254.141 66.307 254.638 66.0393C255.133 65.7717 254.837 65.6186 253.982 65.6992C253.126 65.7797 246.426 64.2612 239.095 62.3242C223.585 58.2269 198.641 52.1808 193.386 51.2451C191.374 50.8868 190.236 50.3339 190.839 50.0081C191.476 49.6637 191.2 49.5699 190.175 49.781C189.212 49.9804 184.466 49.2974 179.628 48.2641C174.79 47.2309 170.369 46.3853 169.804 46.3853C169.238 46.3853 166.869 45.9438 164.538 45.4043C158.239 43.9461 126.903 39.6829 113.2 38.4193C58.9329 33.4161 -4.9566 37.9672 -75.6031 51.8673C-86.4331 53.9983 -89.5737 54.8797 -89.5737 55.7882C-89.5737 56.8796 -88.6062 56.7734 -75.6031 54.2601C-20.9996 43.7051 23.9553 38.7893 66.0986 38.7669C109.489 38.7434 145.281 43.0925 197.023 54.6754C224.188 60.7567 257.33 69.7123 255.776 70.552C255.243 70.8399 255.583 70.9156 256.53 70.72C257.478 70.5243 261.721 71.3587 265.958 72.5738C277.743 75.9535 288.851 79.4564 289.259 79.9224C289.462 80.1522 283.521 81.8679 276.057 83.7345C268.592 85.6011 249.193 91.4888 232.947 96.8178C196.574 108.749 190.383 110.564 171.945 114.704C118.01 126.815 62.5493 130.41 -4.1535 126.121C-15.5695 125.387 -28.5023 124.452 -32.893 124.043C-42.4553 123.152 -73.098 119.627 -77.5989 118.9C-79.3552 118.617 -82.8183 118.139 -85.2947 117.839C-89.3933 117.343 -89.751 117.396 -89.2863 118.432C-88.6796 119.786 -72.1751 122.162 -43.2712 125.056C17.5879 131.15 67.7576 131.596 116.393 126.476C152.349 122.69 191.269 114.064 227.244 101.907C235.085 99.2581 242.082 97.2108 242.794 97.3574C243.504 97.5045 243.704 97.2902 243.235 96.8818C242.717 96.4318 245.646 95.213 250.667 93.7884C255.224 92.4955 260.466 90.8746 262.316 90.1869C264.165 89.4991 272.365 87.2624 280.539 85.2167C295.4 81.4973 295.4 81.4973 305.82 84.6014C311.55 86.3086 320.311 88.8486 325.288 90.246C330.263 91.6435 334.334 93.083 334.334 93.445C334.334 93.807 335.176 94.1035 336.205 94.1035C339.555 94.1035 359.141 99.2378 358.047 99.8291C357.457 100.148 357.738 100.246 358.684 100.05C359.615 99.8585 366.682 100.941 374.389 102.455C399.364 107.364 418.662 109.276 443.372 109.29C469.95 109.305 492.082 107.358 522.195 102.359C537.618 99.7982 537.618 99.7982 560.514 103.624C637.937 116.559 708.248 113.103 790.973 92.2971C796.242 90.9722 800.912 89.7337 801.351 89.5455C801.79 89.3572 808.257 87.5631 815.721 85.559C823.185 83.5548 830.11 81.6429 831.108 81.3102C832.106 80.977 838.85 79.161 846.094 77.2741C853.338 75.3873 861.861 73.0574 865.035 72.0966C874.536 69.2196 912.687 59.7261 931.477 55.5621C961.863 48.8288 996.52 43.8122 1027.17 41.7105C1046.64 40.3755 1083.25 40.5141 1104.82 42.0043C1135.32 44.1113 1173.85 49.5341 1206.1 56.2595C1221.32 59.4329 1257.27 67.8611 1259.59 68.7984C1260.03 68.976 1267.93 71.0228 1277.15 73.3463C1286.37 75.6704 1294.27 77.6927 1294.71 77.8398C1299.19 79.3466 1332.6 86.499 1351.86 90.0738C1402.64 99.5018 1448.47 103.563 1490.49 102.357C1513.59 101.694 1525.48 100.674 1543.72 97.7871C1563.31 94.6883 1571.95 92.8585 1587.98 88.4103C1626.41 77.7412 1662.68 59.3545 1694.99 34.1566C1708.92 23.2929 1725.86 13.0215 1744.5 4.13202C1752.73 0.209 1752.97 0 1749.32 0C1740.83 0 1712.32 15.852 1689.86 33.0562C1673.16 45.8457 1646.6 62.5727 1643.88 62.0102C1643 61.83 1642.76 61.9403 1643.35 62.2554C1645.59 63.4668 1608.69 80.1484 1604.78 79.6947C1603.63 79.562 1603.06 79.6489 1603.5 79.8877C1605.45 80.9418 1572 90.8938 1568.64 90.2572C1567.71 90.0791 1567.48 90.1341 1568.15 90.3788C1569.58 90.904 1564.1 92.2166 1551.25 94.4266C1534.74 97.2657 1517.14 99.1189 1497.88 100.047C1474.6 101.168 1451.87 100.561 1424.04 98.0734C1403.59 96.2452 1364.54 90.7643 1366.07 89.9368C1366.64 89.6318 1366.24 89.5748 1365.14 89.8019C1364.09 90.0189 1362.36 89.9613 1361.3 89.6745C1360.24 89.3871 1355.07 88.3831 1349.8 87.4432C1340.56 85.7952 1297.94 76.468 1296.31 75.7376C1295.87 75.5408 1282.58 72.0593 1266.77 67.9998C1250.97 63.9408 1238.23 60.3984 1238.47 60.1276C1238.71 59.8567 1238.24 59.7741 1237.41 59.9436C1236.59 60.1132 1228.49 58.6123 1219.41 56.6082C1151.25 41.5617 1087.69 36.0216 1026.05 39.7517C997.043 41.5063 957.6 47.2767 924.293 54.6376C915.072 56.6753 907.169 58.4716 906.729 58.6289C906.29 58.7861 898.866 60.6917 890.23 62.8633C881.594 65.0348 873.69 67.0742 872.667 67.3951C871.643 67.7161 868.29 68.6108 865.217 69.3844C862.143 70.1575 858.088 71.2371 856.205 71.7836C854.321 72.3296 847.906 74.0965 841.947 75.7093C835.99 77.3221 826.754 79.8536 821.423 81.3342C762.716 97.6437 727.649 104.517 686.596 107.762C642.862 111.218 600.703 108.824 553.494 100.204C544.332 98.5314 544.332 98.5314 562.004 94.5801C571.724 92.4064 580.448 90.7872 581.39 90.9818C582.366 91.1833 582.645 91.0868 582.037 90.7589C580.934 90.1629 594.751 86.5325 597.21 86.7725C597.963 86.8455 598.398 86.7016 598.179 86.452C597.614 85.8112 641.794 73.8054 643.924 74.0208C644.89 74.1189 645.209 74.0421 644.636 73.8507C643.164 73.3591 659.295 68.6721 709.556 54.9884C763.383 40.3339 827.129 25.4511 831.877 26.4305C833.017 26.6662 833.357 26.5958 832.727 26.2551C830.613 25.1131 876.096 17.9074 903.921 14.975C924.938 12.7608 943.347 11.7291 968.556 11.3527C1021.49 10.5636 1071.48 14.8667 1139.04 26.028C1176.94 32.29 1194.7 34.8908 1220.18 37.9101C1269.24 43.7237 1290.38 45.0524 1333.83 45.0524C1362.21 45.0524 1367.36 44.9127 1380.13 43.7994C1395.98 42.4169 1416.68 39.396 1427.8 36.8422C1431.76 35.9326 1435.58 35.1926 1436.3 35.1968C1437.02 35.2016 1436.65 35.408 1435.48 35.6559C1433.75 36.0222 1433.81 36.1651 1435.77 36.4167C1437.46 36.6337 1438.03 36.4428 1437.65 35.7822C1437.29 35.1648 1440.67 33.7728 1447.41 31.7601C1453.08 30.0667 1460.64 27.3892 1464.21 25.8094C1467.78 24.2296 1471.45 23.0919 1472.37 23.2806C1473.3 23.4736 1473.56 23.368 1472.95 23.0386C1472.35 22.7171 1474.3 21.1805 1477.27 19.6242C1485.38 15.3871 1492.44 10.49 1498.44 4.95736C1503.82 0 1503.82 0 1500.14 0C1497.08 0 1496 0.499575 1493.64 2.99798ZM419.556 74.0597C427.79 74.9741 439.286 76.5634 445.103 77.5924C453.565 79.0896 484.331 86.3619 496.393 89.7161C498.502 90.3025 520.833 95.7829 528.915 97.697C531.642 98.3432 530.957 98.5607 520.932 100.227C494.509 104.619 474.021 106.616 451.687 106.977C430.616 107.318 418.456 106.646 398 104.012C377.14 101.326 342.321 92.9902 310.013 82.9481C301.081 80.1719 301.081 80.1719 316.112 77.7316C344.498 73.1224 359.397 71.9505 386.225 72.216C401.583 72.3685 407.036 72.6697 419.556 74.0597Z" fill="#EFF1F5"/>
</svg>
